<?xml version="1.0" standalone="no"?> <!DOCTYPE svg PUBLIC "-//W3C//DTD SVG 1.0//EN" "http://www.w3.org/TR/2001/REC-SVG-20010904/DTD/svg10.dtd" > <svg xmlns="http://www.w3.org/2000/svg" width="100%" height="100%">
<defs >
<font horiz-adv-x="1241" ><font-face
    font-family="Theano Old Style"
    units-per-em="2048"
    panose-1="2 4 5 3 6 5 5 2 2 3"
    ascent="1964"
    descent="-636"
    alphabetic="0" />
<missing-glyph horiz-adv-x="1024" d="M96 0V1460H928V0H96ZM192 168Q192 88 270 88H754Q832 88 832 168V1292Q832 1372 754 1372H270Q192 1372 192 1292V168ZM276 980Q276 1098 344 1174T524 1250Q629 1250 690 1195T752 1044Q752 940 600 743Q562 694 550 619T538
436H442Q442 566 458 647T535 807Q640 944 640 1042Q640 1094 605 1128T518 1162Q443 1162 409 1110T372 980H276ZM410 238T410 274T435 334T496 358Q531 358 555 333T580 274Q580 237 556 211T496 184Q460 184 435 211Z" />
<glyph unicode=" " glyph-name="space" horiz-adv-x="528" />
<glyph unicode="!" glyph-name="exclam" horiz-adv-x="528" d="M136 50T136 104T173 195T264 232T355 195T392 104T355 13T264 -24T173 13ZM146 1313Q146 1340 151 1367T169 1423T205 1470T264 1488T322 1470T359 1424T376 1368T382 1313Q382 1223 352 1057Q330
938 316 801L292 396H236L212 801Q198 940 176 1058Q146 1224 146 1313Z" />
<glyph unicode="&quot;" glyph-name="quotedbl" horiz-adv-x="880" d="M170 1382Q170 1428 195 1458T264 1488T333 1458T358 1382Q358 1351 348 1269L292 824H236L180 1269Q170 1352 170 1382ZM544 1382Q544 1428 569 1458T638 1488T707 1458T732 1382Q732 1351
722 1269L666 824H610L554 1269Q544 1352 544 1382Z" />
<glyph unicode="#" glyph-name="numbersign" horiz-adv-x="1152" d="M62 430V526H277L360 934H62V1030H379L472 1488H560L467 1030H801L894 1488H982L889 1030H1090V934H870L787 526H1090V430H767L680 0H592L679 430H345L258 0H170L257 430H62ZM365 526H699L782
934H448L365 526Z" />
<glyph unicode="$" glyph-name="dollar" horiz-adv-x="1152" d="M128 272Q128 342 167 387T255 432Q290 432 316 412T342 357Q342 329 330 311T293 275Q256 248 256 207Q256 135 348 86T550 36V668Q479 696 426 722T317 786T226 865T167 964T144 1088Q144 1160
171 1226T243 1338T341 1419T449 1471T550 1488V1612H622V1487Q786 1487 898 1392T1010 1170Q1010 1105 974 1060T885 1015Q849 1015 822 1037T795 1097Q795 1132 842 1194Q870 1231 870 1264Q870 1320 790 1372T622 1424V828Q835 754 939 646T1044 372Q1044 199
922 86T622 -28V-200H550V-28Q445 -28 349 8T191 115T128 272ZM266 1145Q266 1090 288 1045T351 964T440 904T550 854V1424Q494 1424 430 1392T316 1293T266 1145ZM622 36Q751 36 844 114T938 322Q938 430 855 504T622 639V36Z" />
<glyph unicode="%" glyph-name="percent" horiz-adv-x="1540" d="M80 1039T80 1130T115 1303T216 1436T362 1488T508 1437T609 1303T644 1130T609 957T508 824T362 772T216 823T115 957ZM214 1184T214 1130T220 1026T242 926T288 846T362 816T436 846T482 926T503
1026T510 1130T504 1234T482 1334T436 1414T362 1444T288 1414T242 1334T221 1234ZM279 -16L1163 1476H1261L375 -16H279ZM896 239T896 330T931 503T1032 636T1178 688T1324 637T1425 503T1460 330T1425 157T1324 24T1178 -28T1032 23T931 157ZM1030 384T1030 330T1036
226T1058 126T1104 46T1178 16T1252 46T1298 126T1319 226T1326 330T1320 434T1298 534T1252 614T1178 644T1104 614T1058 534T1037 434Z" />
<glyph unicode="&amp;" glyph-name="ampersand" horiz-adv-x="1622" d="M88 330Q88 380 102 428T138 514T198 593T267 661T350 724T434 779T520 830Q460 981 460 1118Q460 1280 560 1384T802 1488Q862 1488 909 1468T982 1415T1022 1345T1036 1271Q1036 1209 1012
1153T939 1046T835 953T702 863Q842 560 1053 300Q1140 392 1194 488T1248 655Q1248 700 1219 730T1146 760H1070V824H1550V760Q1475 760 1422 720T1310 561Q1217 376 1096 249Q1249 64 1346 64Q1399 64 1436 76T1518 114L1544 72Q1483 20 1422 -4T1278 -28Q1113
-28 959 128Q747 -28 502 -28Q321 -28 205 69T88 330ZM286 399Q286 322 307 262T363 166T444 107T536 75T631 66Q758 66 916 176Q791 328 706 464T543 772Q433 707 360 610T286 399ZM604 1206Q604 1062 678 913Q758 965 806 1008T886 1116T918 1260Q918 1329 884
1376T778 1424Q698 1424 651 1360T604 1206Z" />
<glyph unicode="&apos;" glyph-name="quotesingle" horiz-adv-x="528" d="M170 1382Q170 1428 195 1458T264 1488T333 1458T358 1382Q358 1351 348 1269L292 824H236L180 1269Q170 1352 170 1382Z" />
<glyph unicode="(" glyph-name="parenleft" horiz-adv-x="760" d="M144 185T144 464T267 1010T602 1488L644 1448Q314 1067 314 464Q314 -137 644 -518L602 -560Q391 -349 268 -82Z" />
<glyph unicode=")" glyph-name="parenright" horiz-adv-x="760" d="M116 -520Q446 -139 446 465Q446 1065 116 1446L158 1488Q369 1277 492 1011T616 465Q616 185 493 -82T158 -560L116 -520Z" />
<glyph unicode="*" glyph-name="asterisk" horiz-adv-x="1104" d="M148 852Q148 936 296 956Q378 967 460 1013Q482 1024 482 1037Q482 1043 477 1049T466 1058L460 1061Q378 1107 296 1118Q148 1138 148 1222Q148 1253 170 1278T230 1303Q264 1303 292 1282T353
1217Q399 1159 477 1110Q497 1096 508 1096Q518 1096 522 1102T526 1129Q526 1219 495 1299Q468 1361 468 1393Q468 1434 490 1461T552 1488T613 1461T636 1393Q636 1361 609 1299Q578 1219 578 1129Q578 1109 582 1103T596 1096Q607 1096 627 1110Q705 1159 751
1217Q784 1261 812 1282T874 1303Q911 1303 933 1278T956 1222Q956 1138 808 1118Q726 1107 644 1061Q622 1050 622 1037Q622 1031 627 1025T638 1016L644 1013Q726 967 808 956Q956 936 956 852Q956 821 934 796T874 771Q840 771 812 792T751 857Q705 915 627
964Q607 978 596 978Q586 978 582 972T578 945Q578 855 609 775Q636 713 636 681Q636 640 614 613T552 586T491 613T468 681Q468 713 495 775Q526 855 526 945Q526 965 522 971T508 978Q497 978 477 964Q399 915 353 857Q320 813 292 792T230 771Q193 771 171 796T148
852Z" />
<glyph unicode="+" glyph-name="plus" horiz-adv-x="1152" d="M62 466V562H522V1028H630V562H1090V466H630V0H522V466H62Z" />
<glyph unicode="," glyph-name="comma" horiz-adv-x="528" d="M126 -341Q214 -296 264 -242Q324 -177 324 -100Q324 -52 290 -23Q269 -5 219 -2Q182 0 156 27T129 94Q129 143 161 172T239 202Q311 202 360 141Q412 76 412 -21Q412 -73 389 -138T324 -251Q259 -327
149 -380L126 -341Z" />
<glyph unicode="-" glyph-name="hyphen" horiz-adv-x="900" d="M136 358V490H764V358H136Z" />
<glyph unicode="." glyph-name="period" horiz-adv-x="528" d="M136 50T136 104T173 195T264 232T355 195T392 104T355 13T264 -24T173 13Z" />
<glyph unicode="/" glyph-name="slash" horiz-adv-x="722" d="M88 -468L532 1460H634L190 -468H88Z" />
<glyph unicode="0" glyph-name="zero" horiz-adv-x="1152" d="M68 644T68 730T82 904T124 1077T196 1236T294 1367T422 1455T576 1488T730 1456T857 1367T956 1237T1027 1078T1069 905T1084 730T1070 556T1028 383T956 224T858 93T730 5T576 -28T422 4T295 93T196
223T125 382T83 555ZM272 1424T272 730T576 36T880 730T576 1424Z" />
<glyph unicode="1" glyph-name="one" horiz-adv-x="1152" d="M202 1080L557 1468H652V144Q652 67 672 0H482Q502 67 502 144V1234Q502 1270 475 1270Q460 1270 448 1261T417 1229L244 1039L202 1080Z" />
<glyph unicode="2" glyph-name="two" horiz-adv-x="1152" d="M112 0V39Q179 179 301 337T566 633Q626 692 663 731T738 820T796 914T829 1015T842 1136Q842 1254 767 1339T565 1424Q448 1424 383 1378T318 1267Q318 1238 349 1210Q378 1184 390 1161T403 1107Q403
1064 376 1032T301 999Q241 999 203 1042T164 1161Q164 1251 224 1326T388 1445T613 1488Q710 1488 789 1459T918 1380T995 1271T1022 1144Q1022 1095 1011 1048T984 963T939 884T884 813T817 745T746 683T669 620Q386 393 269 166H831Q857 166 875 175T900 194T920
224Q952 281 962 351Q969 398 995 398Q1012 398 1019 381T1026 346Q1026 293 1008 236L936 0H112Z" />
<glyph unicode="3" glyph-name="three" horiz-adv-x="1152" d="M124 259Q124 306 147 334T212 362Q240 362 259 351T289 317T304 276T312 227Q337 36 534 36Q691 36 769 135T848 407Q848 564 770 655T550 746Q525 746 477 735Q434 726 416 726Q393 726 377 739T360
778T376 816T416 830Q434 830 477 821Q525 810 550 810Q673 810 744 905T816 1150Q816 1279 747 1351T559 1424Q442 1424 378 1375T314 1268Q314 1231 342 1204Q366 1182 375 1163T385 1114Q385 1086 361 1062T296 1037Q241 1037 205 1077T168 1174Q168 1297 283
1392T575 1488Q671 1488 750 1459T880 1381T957 1273T984 1150Q984 1017 896 925T671 792V782Q826 758 924 653T1022 407Q1022 209 888 91T538 -28Q355 -28 240 55T124 259Z" />
<glyph unicode="4" glyph-name="four" horiz-adv-x="1152" d="M72 450V511L757 1468H826V558H968Q1045 558 1112 578V430Q1045 450 968 450H826V144Q826 67 846 0H656Q676 67 676 144V450H72ZM174 558H676V1260L174 558Z" />
<glyph unicode="5" glyph-name="five" horiz-adv-x="1152" d="M78 220Q78 258 98 287T154 316Q197 316 217 296T265 223Q311 134 370 91T522 48Q616 48 687 84T797 181T856 311T876 455Q876 634 771 745T478 856Q347 856 232 792H202L241 1460H796Q834 1460 850
1474T875 1518Q885 1555 896 1570T925 1586Q956 1586 956 1553Q956 1525 934 1459L879 1294H306L288 987L294 983Q391 1020 499 1020Q613 1020 704 991T854 912T952 797T1007 662T1024 518Q1024 365 957 241T766 44T486 -28Q316 -28 197 48T78 220Z" />
<glyph unicode="6" glyph-name="six" horiz-adv-x="1152" d="M122 576Q122 719 166 852T288 1089T466 1277T683 1413T918 1488L934 1432Q701 1357 541 1196T323 788L345 780Q461 900 620 900Q748 900 845 842T992 686T1042 470Q1042 250 914 111T593 -28Q498 -28
413 13T263 129T160 320T122 576ZM302 453Q302 345 326 263T391 135T482 65T586 42Q700 42 781 153T862 456Q862 627 789 731T579 836Q472 836 387 728T302 453Z" />
<glyph unicode="7" glyph-name="seven" horiz-adv-x="1152" d="M174 1108Q174 1132 190 1188L271 1460H1046V1391Q792 667 692 0H461V40L957 1294H401Q367 1294 344 1285T300 1248Q268 1207 241 1116Q229 1075 204 1075Q174 1075 174 1108Z" />
<glyph unicode="8" glyph-name="eight" horiz-adv-x="1152" d="M108 332Q108 396 137 454T219 560T330 643T458 710V720Q313 806 248 893T182 1114Q182 1277 304 1382T599 1488Q707 1488 800 1448T953 1333T1012 1164Q1012 1103 989 1048T921 947T827 865T710
794V787Q792 747 847 711T950 627T1021 518T1044 380Q1044 263 980 169T810 23T584 -28Q454 -28 348 13T175 137T108 332ZM278 342Q278 263 304 202T376 106T476 54T592 36Q728 36 824 118T920 324Q920 366 907 400T871 463T802 523T710 582T584 651L516 686Q408
633 343 546T278 342ZM304 1172Q304 1116 332 1064T413 968T522 888T653 816Q725 859 770 903T842 1011T868 1156Q868 1268 787 1348T590 1429T390 1355T304 1172Z" />
<glyph unicode="9" glyph-name="nine" horiz-adv-x="1152" d="M110 990Q110 1210 238 1349T559 1488Q654 1488 739 1447T889 1331T992 1140T1030 884Q1030 741 986 608T864 371T686 183T469 47T234 -28L218 28Q451 103 611 264T829 672L807 680Q691 560 532 560Q404
560 307 618T160 774T110 990ZM290 1004Q290 833 363 729T573 624Q680 624 765 732T850 1007Q850 1115 826 1197T761 1325T670 1395T566 1418Q452 1418 371 1307T290 1004Z" />
<glyph unicode=":" glyph-name="colon" horiz-adv-x="528" d="M136 734T136 788T173 879T264 916T355 879T392 788T355 697T264 660T173 697ZM136 50T136 104T173 195T264 232T355 195T392 104T355 13T264 -24T173 13Z" />
<glyph unicode=";" glyph-name="semicolon" horiz-adv-x="528" d="M126 -341Q214 -296 264 -242Q324 -177 324 -100Q324 -52 290 -23Q269 -5 219 -2Q182 0 156 27T129 94Q129 143 161 172T239 202Q311 202 360 141Q412 76 412 -21Q412 -73 389 -138T324 -251Q259
-327 149 -380L126 -341ZM136 734T136 788T173 879T264 916T355 879T392 788T355 697T264 660T173 697Z" />
<glyph unicode="&lt;" glyph-name="less" horiz-adv-x="1152" d="M84 466V562L1024 1052L1068 964L199 514L1068 64L1024 -24L84 466Z" />
<glyph unicode="=" glyph-name="equal" horiz-adv-x="1152" d="M62 310V406H1090V310H62ZM62 622V718H1090V622H62Z" />
<glyph unicode="&gt;" glyph-name="greater" horiz-adv-x="1152" d="M84 64L953 514L84 964L128 1052L1068 562V466L128 -24L84 64Z" />
<glyph unicode="?" glyph-name="question" horiz-adv-x="852" d="M110 1370Q110 1430 162 1459T286 1488Q377 1488 459 1459T603 1377T703 1240T740 1055Q740 979 718 923T653 833T555 781T429 754Q375 748 358 723T340 635V339H268V809Q268 860 287 875T378 890Q652
890 652 1092Q652 1185 594 1252T442 1320Q396 1320 345 1302Q272 1277 237 1277Q187 1277 149 1298T110 1370ZM168 50T168 104T205 195T296 232T387 195T424 104T387 13T296 -24T205 13Z" />
<glyph unicode="@" glyph-name="at" horiz-adv-x="1920" d="M106 345Q106 524 167 683T329 957T561 1156T831 1281T1106 1323Q1246 1323 1364 1288T1564 1192T1703 1052T1787 884T1814 704Q1814 572 1772 454T1661 252T1503 106T1322 14T1140 -16Q1074 -16 1031
38T984 170L974 173Q940 133 894 94T779 20T648 -16Q624 -16 599 -9T544 15T495 70T476 163Q476 270 534 396T680 628T882 803T1099 874Q1165 874 1199 829T1241 711L1259 707L1334 862L1520 874L1210 317Q1154 215 1154 156Q1154 123 1173 94T1236 64Q1293 64
1355 89T1479 167T1591 294T1671 476T1702 708Q1702 823 1663 922T1549 1096T1356 1215T1090 1259Q979 1259 860 1219T630 1098T430 911T288 657T234 350Q234 214 266 102T355 -91T493 -226T668 -307T870 -334Q1047 -334 1232 -261T1516 -100L1552 -157Q1435 -256
1237 -327T844 -398Q731 -398 625 -370T425 -281T260 -134T148 75T106 345ZM628 140Q628 48 700 48Q841 48 1042 329Q1100 411 1141 506T1182 664Q1182 810 1084 810Q1034 810 979 773T884 690T794 575Q727 481 678 362T628 140Z" />
<glyph unicode="A" glyph-name="A" horiz-adv-x="1624" d="M88 -2V64H110Q185 64 237 112T326 258L772 1452L936 1488L1348 284Q1370 229 1383 198T1418 132T1463 80T1516 64H1588V-2Q1569 -2 1463 0T1308 2T1121 0T964 -2V64H1104Q1138 64 1162 85T1186 144Q1186
172 1170 216L1062 540H524L430 282Q402 208 402 158Q402 64 588 64V-2Q582 -2 480 0T336 2T194 0T88 -2ZM554 616H1036L808 1300L554 616Z" />
<glyph unicode="B" glyph-name="B" horiz-adv-x="1400" d="M128 -2V64H252Q330 64 330 144V1322Q330 1402 252 1402Q215 1402 128 1396V1460Q378 1480 636 1480Q772 1480 888 1459T1060 1404Q1162 1344 1211 1270T1260 1102Q1260 971 1167 883T916 764V760Q1070
741 1170 670Q1241 619 1278 547T1316 390Q1316 299 1277 223T1168 94Q1109 49 1019 24T842 -2H716Q712 -2 593 0T422 2T251 0T128 -2ZM514 156Q514 76 592 76H794Q867 76 931 100T1034 176Q1100 266 1100 382Q1100 554 992 648Q908 720 760 720H514V156ZM514 796H756Q823
796 888 823T992 900Q1028 947 1042 994T1056 1106Q1056 1229 964 1314Q867 1404 662 1404Q568 1404 514 1396V796Z" />
<glyph unicode="C" glyph-name="C" horiz-adv-x="1468" d="M144 720Q144 1070 356 1288Q449 1384 572 1436T832 1488Q962 1488 1072 1446Q1159 1412 1198 1412Q1225 1412 1241 1430T1268 1488H1316L1384 1148L1326 1120Q1233 1248 1122 1320T864 1392Q728 1392
622 1328T448 1144Q401 1061 385 962T368 736Q368 380 540 208Q609 139 702 104T880 68Q1055 68 1174 130T1402 322L1446 284Q1348 139 1195 56T868 -28Q588 -28 400 136Q282 239 213 392T144 720Z" />
<glyph unicode="D" glyph-name="D" horiz-adv-x="1664" d="M128 -2V64H252Q330 64 330 144V1320Q330 1402 252 1402Q196 1402 130 1396L128 1460Q361 1480 562 1480Q648 1480 709 1478T857 1466T1010 1439T1151 1388T1284 1308Q1412 1208 1486 1057T1560 730Q1560
546 1495 400T1310 156Q1112 -2 838 -2H716Q712 -2 593 0T422 2T251 0T128 -2ZM514 156Q514 76 592 76H836Q1336 76 1336 730Q1336 884 1291 1026T1144 1260Q1052 1344 932 1374T662 1404Q584 1404 549 1379T514 1278V156Z" />
<glyph unicode="E" glyph-name="E" horiz-adv-x="1460" d="M128 -2V64H252Q330 64 330 144V1316Q330 1396 252 1396H128V1462Q132 1462 251 1460T422 1458T593 1460T716 1462H1228L1344 1148L1284 1120Q1255 1169 1211 1223T1116 1310Q1001 1384 872 1384H592Q514
1384 514 1304V796H738Q829 796 888 853T956 1036H1016V480H956Q940 720 738 720H514V156Q514 76 592 76H956Q1031 76 1097 99T1204 162Q1251 210 1289 278T1348 406L1412 386L1320 -2H716Q712 -2 593 0T422 2T251 0T128 -2Z" />
<glyph unicode="F" glyph-name="F" horiz-adv-x="1376" d="M128 -2V64H252Q330 64 330 144V1316Q330 1396 252 1396H128V1462Q132 1462 251 1460T422 1458T593 1460T716 1462H1228L1344 1148L1284 1120Q1255 1169 1211 1223T1116 1310Q1001 1384 872 1384H592Q514
1384 514 1304V796H738Q829 796 888 853T956 1036H1016V480H956Q940 720 738 720H514V144Q514 64 592 64H716V-2Q712 -2 593 0T422 2T251 0T128 -2Z" />
<glyph unicode="G" glyph-name="G" horiz-adv-x="1640" d="M144 720Q144 1070 356 1288Q449 1384 572 1436T832 1488Q962 1488 1072 1446Q1159 1412 1198 1412Q1225 1412 1241 1430T1268 1488H1316L1384 1148L1326 1120Q1233 1248 1122 1320T864 1392Q728 1392
622 1328T448 1144Q401 1061 385 962T368 736Q368 380 540 208Q610 138 695 103T862 68Q1202 68 1202 312V528Q1198 568 1180 588T1124 608H1000V672H1588V608H1464Q1386 608 1386 528V-20H1322Q1315 62 1266 62Q1228 62 1138 24Q1012 -28 868 -28Q588 -28 400
136Q282 239 213 392T144 720Z" />
<glyph unicode="H" glyph-name="H" horiz-adv-x="1676" d="M128 -2V64H252Q330 64 330 144V1316Q330 1396 252 1396H128V1462Q132 1462 251 1460T422 1458T593 1460T716 1462V1396H592Q514 1396 514 1316V784H1202V1316Q1202 1396 1124 1396H1000V1462Q1004 1462
1123 1460T1294 1458T1465 1460T1588 1462V1396H1464Q1386 1396 1386 1316V144Q1386 64 1464 64H1588V-2Q1584 -2 1465 0T1294 2T1123 0T1000 -2V64H1124Q1202 64 1202 144V708H514V144Q514 64 592 64H716V-2Q712 -2 593 0T422 2T251 0T128 -2Z" />
<glyph unicode="I" glyph-name="I" horiz-adv-x="804" d="M128 -2V64H252Q330 64 330 144V1316Q330 1396 252 1396H128V1462Q132 1462 251 1460T422 1458T593 1460T716 1462V1396H592Q514 1396 514 1316V144Q514 64 592 64H716V-2Q712 -2 593 0T422 2T251 0T128 -2Z" />
<glyph unicode="J" glyph-name="J" horiz-adv-x="780" d="M-120 -304Q-120 -260 -92 -230T-28 -200Q29 -200 78 -252Q109 -281 131 -292T184 -304Q226 -304 259 -282T308 -218Q330 -158 330 -28Q330 52 328 76Q326 98 326 156V1316Q326 1396 248 1396H124V1462Q128
1462 247 1460T418 1458T589 1460T712 1462V1396H588Q510 1396 510 1316V208Q510 178 506 132T492 13T458 -135T400 -266Q273 -472 84 -472Q-7 -472 -63 -426T-120 -304Z" />
<glyph unicode="K" glyph-name="K" horiz-adv-x="1560" d="M128 -2V64H252Q330 64 330 144V1316Q330 1396 252 1396H128V1462Q132 1462 251 1460T422 1458T593 1460T716 1462V1396H592Q514 1396 514 1316V722L818 996Q873 1045 931 1101T1054 1234T1118 1342Q1118
1377 1076 1392L1030 1396H992V1462Q998 1462 1094 1460T1232 1458T1370 1460T1472 1462V1396Q1398 1396 1386 1390Q1330 1365 1259 1306T1060 1120L826 892L1290 180Q1331 116 1376 90T1504 64V-2Q1492 -2 1371 0T1200 2T1029 0T896 -2V64H952Q1014 64 1044 79T1074
120Q1074 143 1058 177T994 288L690 768L514 612V144Q514 64 592 64H716V-2Q712 -2 593 0T422 2T251 0T128 -2Z" />
<glyph unicode="L" glyph-name="L" horiz-adv-x="1460" d="M128 -2V64H252Q330 64 330 144V1316Q330 1396 252 1396H128V1462Q132 1462 251 1460T422 1458T593 1460T716 1462V1396H592Q514 1396 514 1316V156Q514 76 592 76H956Q1031 76 1097 99T1204 162Q1251
210 1289 278T1348 406L1412 386L1320 -2H716Q712 -2 593 0T422 2T251 0T128 -2Z" />
<glyph unicode="M" glyph-name="M" horiz-adv-x="1952" d="M128 -2V64H216Q270 64 300 95T330 180V1316Q330 1396 252 1396H128V1460H554L986 330L1430 1460H1864V1396H1734Q1662 1396 1662 1316V144Q1662 64 1740 64H1864V-2Q1860 -2 1741 0T1570 2T1399 0T1276
-2V64H1400Q1478 64 1478 144V1268H1448L954 26H914L430 1272H418V180Q418 126 448 95T532 64H620V-2Q618 -2 515 0T374 2T233 0T128 -2Z" />
<glyph unicode="N" glyph-name="N" horiz-adv-x="1640" d="M128 -2V64H216Q270 64 300 95T330 180V1316Q330 1396 252 1396H128V1460H504L1280 336V1280Q1280 1334 1250 1365T1166 1396H1078V1462Q1080 1462 1183 1460T1324 1458T1465 1460T1570 1462V1396H1482Q1428
1396 1398 1365T1368 1280V-24H1294L418 1232V180Q418 126 448 95T532 64H620V-2Q618 -2 515 0T374 2T233 0T128 -2Z" />
<glyph unicode="O" glyph-name="O" horiz-adv-x="1612" d="M144 541T144 730T199 1058T370 1314Q450 1394 570 1441T826 1488T1081 1441T1282 1314Q1398 1198 1453 1059T1508 730T1453 402T1282 146Q1202 66 1082 19T826 -28T571 19T370 146Q254 262 199 401ZM368
898T368 730T398 413T490 194Q627 36 826 36T1162 194Q1224 264 1254 413T1284 730T1254 1047T1162 1266Q1025 1424 826 1424T490 1266Q428 1196 398 1047Z" />
<glyph unicode="P" glyph-name="P" horiz-adv-x="1320" d="M128 -2V64H252Q330 64 330 144V1322Q330 1364 310 1383T250 1402Q197 1402 128 1396V1460Q296 1473 376 1476T618 1480Q876 1480 1006 1426Q1131 1374 1195 1274T1260 1070Q1260 863 1072 734Q995 681
875 661T644 640H514V144Q514 64 592 64H716V-2Q712 -2 593 0T422 2T251 0T128 -2ZM514 716H668Q749 716 815 733T937 788T1024 895T1056 1062Q1056 1223 954 1315T644 1408Q559 1408 514 1400V716Z" />
<glyph unicode="Q" glyph-name="Q" horiz-adv-x="1612" d="M144 541T144 730T199 1058T370 1314Q450 1394 570 1441T826 1488T1081 1441T1282 1314Q1398 1198 1453 1059T1508 730T1453 402T1282 146Q1195 59 1052 6Q985 -19 906 -59T778 -138V-146Q820 -170 886
-200Q947 -227 979 -239T1059 -263T1154 -274Q1349 -274 1466 -72L1500 -96Q1453 -230 1347 -328T1116 -426Q1044 -426 958 -401T796 -334Q731 -298 697 -284T634 -270Q595 -270 526 -350Q491 -390 468 -408T419 -426Q391 -426 371 -409T350 -362Q350 -319 379
-294T470 -244Q617 -187 684 -144Q794 -73 863 -36L858 -28Q544 -28 370 146Q254 262 199 401ZM368 898T368 730T398 413T490 194Q627 36 826 36T1162 194Q1224 264 1254 413T1284 730T1254 1047T1162 1266Q1025 1424 826 1424T490 1266Q428 1196 398 1047Z" />
<glyph unicode="R" glyph-name="R" horiz-adv-x="1600" d="M128 -2V64H252Q330 64 330 144V1320Q330 1362 311 1382T240 1402Q194 1402 128 1396V1460Q377 1480 594 1480Q784 1480 894 1463T1100 1396Q1196 1346 1246 1262T1296 1086Q1296 1000 1249 924T1108
794Q1004 734 878 714V702L1272 216Q1300 181 1323 160T1386 114Q1467 64 1572 64V0H1160L726 656Q712 678 695 687T642 696H514V144Q514 64 592 64H716V-2Q712 -2 593 0T422 2T251 0T128 -2ZM514 772H740Q900 772 996 844T1092 1068Q1092 1163 1049 1230T920 1350Q826
1408 638 1408Q576 1408 514 1400V772Z" />
<glyph unicode="S" glyph-name="S" horiz-adv-x="1320" d="M120 410L186 432Q256 329 342 252Q405 195 442 166T528 107T629 67T746 56Q799 56 847 65T939 95T1016 150T1068 233T1088 348Q1088 392 1076 430T1045 496T995 550T933 592T857 626T778 653T692 678Q612
700 547 724T416 785T305 867T232 973T204 1110Q204 1196 246 1269T356 1389T508 1462T680 1488Q772 1488 866 1458Q978 1422 1008 1422Q1053 1422 1088 1488H1142L1188 1146L1124 1124Q1075 1199 1033 1244T922 1330Q857 1370 802 1385T668 1400Q536 1400 458
1333T380 1128Q380 1077 404 1034T465 962T557 908T662 868T776 840Q866 821 946 785T1094 695T1203 563T1244 394T1214 231T1134 112T1018 36T883 -7T744 -20Q671 -20 615 -8T490 40Q440 66 417 75T370 84Q345 84 317 58T266 -16H206L120 410Z" />
<glyph unicode="T" glyph-name="T" horiz-adv-x="1536" d="M88 1132L160 1462H494Q498 1462 617 1460T788 1458T959 1460T1082 1462H1416L1488 1132L1430 1110Q1405 1159 1363 1221T1280 1316Q1184 1396 1056 1396H880V144Q880 64 958 64H1094V-2Q1084 -2 964
0T788 2T613 0T482 -2V64H618Q696 64 696 144V1396H520Q392 1396 296 1316Q256 1283 214 1221T146 1110L88 1132Z" />
<glyph unicode="U" glyph-name="U" horiz-adv-x="1700" d="M128 1396V1462Q132 1462 251 1460T422 1458T593 1460T716 1462V1396H592Q514 1396 514 1316V416Q514 335 546 255T648 124Q769 36 918 36Q1001 36 1079 68T1218 156Q1280 214 1311 297T1342 460V1316Q1342
1396 1264 1396H1140V1462Q1145 1462 1188 1461T1289 1459T1386 1458T1482 1459T1583 1461T1632 1462V1396H1508Q1430 1396 1430 1316V484Q1430 387 1394 281T1280 106Q1212 46 1119 9T918 -28Q640 -28 486 104Q412 167 371 260T330 456V1316Q330 1396 252 1396H128Z"
/>
<glyph unicode="V" glyph-name="V" horiz-adv-x="1640" d="M64 1396V1462Q82 1462 202 1460T376 1458T550 1460T688 1462V1396H570Q536 1396 511 1375T486 1316Q486 1276 500 1244L916 245L1262 1178Q1288 1250 1288 1302Q1288 1396 1104 1396V1462Q1111 1462
1214 1460T1354 1458T1494 1460T1604 1462V1396H1582Q1507 1396 1455 1348T1366 1202L912 -14H828L330 1176Q312 1219 301 1244T272 1302T238 1352T201 1383T156 1396H64Z" />
<glyph unicode="W" glyph-name="W" horiz-adv-x="2324" d="M64 1396V1462Q82 1462 202 1460T376 1458T550 1460T688 1462V1396H568Q534 1396 512 1377T490 1320T502 1244L820 269L1142 1128L1126 1178Q1110 1230 1098 1262T1066 1329T1021 1379T964 1396H880V1462Q898
1462 1018 1460T1192 1458T1366 1460T1504 1462V1396H1376Q1341 1396 1317 1372T1292 1302Q1292 1267 1318 1176L1616 268L1958 1182Q1984 1250 1984 1306Q1984 1396 1800 1396V1462Q1807 1462 1907 1460T2044 1458T2181 1460T2288 1462V1396H2278Q2227 1396 2195
1385T2127 1331T2060 1206L1595 -14H1510L1186 992L798 -14H714L330 1180Q261 1396 156 1396H64Z" />
<glyph unicode="X" glyph-name="X" horiz-adv-x="1592" d="M88 -2V64Q173 64 247 100T368 198L760 726L400 1276Q368 1322 330 1352Q274 1396 214 1396H160V1462Q176 1462 293 1460T474 1458T657 1460T792 1462V1396H694Q657 1396 631 1374T604 1320Q604 1291
622 1266L876 880L1116 1202Q1172 1276 1172 1332Q1172 1353 1160 1369T1122 1390Q1095 1396 1004 1396V1462Q1008 1462 1112 1460T1268 1458T1424 1460T1532 1462V1396Q1357 1396 1284 1298L922 810L1328 192Q1366 137 1402 106Q1432 83 1453 74T1512 64H1556V-2Q1540
-2 1422 0T1240 2T1058 0T924 -2V64H1032Q1066 64 1092 87T1118 146T1106 198L808 654L546 300Q498 236 498 174Q498 136 523 100T598 64H676V-2Q658 -2 546 0T380 2T216 0T88 -2Z" />
<glyph unicode="Y" glyph-name="Y" horiz-adv-x="1600" d="M92 1396V1462Q111 1462 233 1460T404 1458T575 1460T716 1462V1396H596Q562 1396 536 1375T510 1316Q510 1276 526 1244L854 568L1204 1166Q1240 1228 1240 1288Q1240 1335 1200 1365T1068 1396V1462Q1074
1462 1176 1460T1320 1458T1462 1460T1568 1462V1396H1546Q1477 1396 1427 1347T1318 1202L894 488V146Q894 66 972 66H1108V0Q1098 0 978 2T802 4T627 2T496 0V66H632Q710 66 710 146V480L324 1258Q286 1333 253 1364T168 1396H92Z" />
<glyph unicode="Z" glyph-name="Z" horiz-adv-x="1412" d="M88 0V48L1094 1384H678Q533 1384 422 1302Q309 1218 192 1040L132 1068L308 1460H1336V1412L340 76H896Q1034 76 1120 162Q1199 241 1252 384L1314 364L1236 0H88Z" />
<glyph unicode="[" glyph-name="bracketleft" horiz-adv-x="780" d="M232 -536V1460H684V1404H472Q418 1404 398 1383T378 1308V-380Q378 -435 398 -457T472 -480H684V-536H232Z" />
<glyph unicode="\" glyph-name="backslash" horiz-adv-x="722" d="M88 1460H190L634 -468H532L88 1460Z" />
<glyph unicode="]" glyph-name="bracketright" horiz-adv-x="780" d="M96 -480H308Q362 -480 382 -459T402 -384V1304Q402 1359 382 1381T308 1404H96V1460H548V-536H96V-480Z" />
<glyph unicode="^" glyph-name="asciicircum" horiz-adv-x="1152" d="M44 898L536 1464H616L1108 902L1064 856L576 1296L88 856L44 898Z" />
<glyph unicode="_" glyph-name="underscore" horiz-adv-x="1024" d="M0 -256H1024V-352H0V-256Z" />
<glyph unicode="`" glyph-name="grave" horiz-adv-x="880" d="M166 1415Q166 1443 187 1465T244 1488Q316 1488 362 1364L482 1030L438 1008L230 1285Q166 1371 166 1415Z" />
<glyph unicode="a" glyph-name="a" horiz-adv-x="1030" d="M104 176Q104 226 121 268T167 340T236 395T316 437T403 468Q533 508 657 508V667Q657 743 607 800T487 858Q391 858 349 805Q321 770 309 707Q304 680 285 660T231 640Q193 640 167 663T141 725Q141
807 245 861T483 916Q592 916 676 867Q732 834 764 779T797 654V220Q797 171 814 135T869 98Q920 98 965 164L998 146Q915 -16 790 -16Q748 -16 712 19T661 94L649 90Q604 53 518 19T351 -16Q237 -16 175 30Q104 82 104 176ZM274 186Q274 128 314 93T416 58Q484
58 540 82T657 151V460Q502 456 387 395Q336 368 305 316T274 186Z" />
<glyph unicode="b" glyph-name="b" horiz-adv-x="1094" d="M22 1346V1390L288 1478H320V796L328 791Q396 845 470 880T608 916Q688 916 760 892T871 828Q1010 688 1010 491Q1010 276 908 135Q798 -16 590 -16Q559 -16 504 -4T411 27Q333 66 314 66Q277 66 230
-8H180V1263Q180 1329 116 1336L22 1346ZM320 135Q376 96 442 73T558 50Q619 50 673 73T760 141Q801 196 820 271T840 418Q840 479 838 516T820 611T773 713Q697 824 560 824Q443 824 320 714V135Z" />
<glyph unicode="c" glyph-name="c" horiz-adv-x="948" d="M84 436Q84 640 215 779Q342 916 512 916Q634 916 714 873Q777 839 816 791T856 702Q856 659 833 636T770 613Q734 613 709 636T674 696Q659 758 639 785Q597 842 533 842Q404 842 329 734T254 457Q254
282 334 179T561 76Q634 76 702 117T811 213L848 176Q803 104 715 44T532 -16Q348 -16 221 97Q84 217 84 436Z" />
<glyph unicode="d" glyph-name="d" horiz-adv-x="1108" d="M84 409Q84 624 186 765Q296 916 504 916Q556 916 630 893T766 830L774 836V1263Q774 1329 710 1336L616 1346V1390L882 1478H914V149Q914 104 945 85T1048 66V8L774 -8V106L768 110Q705 57 628 21T486
-16Q406 -16 334 8T223 72Q84 212 84 409ZM254 482Q254 421 256 384T274 289T321 187Q397 76 534 76Q651 76 774 186V764Q718 803 653 826T536 850Q475 850 421 827T334 759Q293 704 274 629T254 482Z" />
<glyph unicode="e" glyph-name="e" horiz-adv-x="954" d="M84 436Q84 646 212 777Q350 916 512 916Q596 916 658 894T774 814Q869 714 886 528H258Q254 497 254 457Q254 282 334 179T561 76Q634 76 702 117T811 213L848 176Q803 104 715 44T532 -16Q348 -16 221
97Q84 217 84 436ZM267 586H739Q733 685 675 763T533 842Q431 842 362 773T267 586Z" />
<glyph unicode="f" glyph-name="f" horiz-adv-x="716" d="M74 836Q74 883 82 900H240V966Q240 1043 258 1133T319 1291Q376 1382 458 1429T638 1476Q721 1476 763 1439T806 1349Q806 1310 781 1288T715 1266Q667 1266 623 1322Q587 1364 540 1364Q461 1364 414
1278Q380 1217 380 1060V900H576Q576 853 568 836H380V112Q380 62 430 62H538V-2Q535 -2 440 0T310 2T181 0T82 -2V62H190Q240 62 240 112V836H74Z" />
<glyph unicode="g" glyph-name="g" horiz-adv-x="1220" d="M116 -322Q116 -257 195 -194T392 -92V-85Q247 -50 196 -7T144 96Q144 207 338 288Q251 331 200 404T149 575Q149 728 268 822T554 916Q744 916 862 804Q986 916 1070 916Q1114 916 1145 882T1176 804Q1176
774 1158 755T1112 735Q1076 735 1049 775Q1026 816 987 816Q940 816 889 775Q960 688 960 575Q960 473 902 396T753 280T554 242Q469 242 382 271Q244 219 244 152Q244 117 275 90T366 45T475 19T594 0Q643 -6 676 -11T760 -26T845 -49T919 -80T982 -123T1022
-180T1038 -254Q1038 -311 1008 -357T931 -432T822 -480T699 -508T577 -516Q489 -516 415 -508T270 -480T157 -420T116 -322ZM286 -287Q286 -332 313 -366T384 -419T481 -448T590 -458Q918 -458 918 -287Q918 -264 909 -245T887 -212T847 -186T798 -167T734 -151T664
-138T583 -125Q517 -115 473 -106Q396 -127 341 -174T286 -287ZM299 575Q299 451 370 376T554 300T738 375T810 575T739 778T554 858Q442 858 371 779T299 575Z" />
<glyph unicode="h" glyph-name="h" horiz-adv-x="1154" d="M68 -2V58H176Q226 58 226 108V1263Q226 1329 162 1336L68 1346V1390L334 1478H366V762L373 756Q432 815 516 865T674 916Q791 916 864 853Q952 771 952 632V108Q952 58 1002 58H1110V-2Q1107 -2 1012
0T882 2T753 0T654 -2V58H762Q812 58 812 108V607Q812 737 749 784Q720 807 691 815T608 824Q515 824 366 689V108Q366 58 416 58H524V-2Q521 -2 426 0T296 2T167 0T68 -2Z" />
<glyph unicode="i" glyph-name="i" horiz-adv-x="584" d="M184 1238T184 1290T220 1378T308 1414T396 1378T432 1290T396 1202T308 1166T220 1202ZM80 -2V58H188Q238 58 238 108V695Q238 761 174 768L80 778V822L346 910H378V108Q378 58 428 58H536V-2Q533 -2
438 0T308 2T179 0T80 -2Z" />
<glyph unicode="j" glyph-name="j" horiz-adv-x="572" d="M-96 -368Q-96 -330 -70 -309T-2 -287Q33 -287 79 -329Q113 -358 141 -358Q176 -358 207 -330T250 -258Q266 -194 266 -42V695Q266 761 202 768L108 778V822L374 910H406V50Q406 -32 381 -147T303 -333Q197
-474 29 -474Q-28 -474 -62 -443T-96 -368ZM468 1238T468 1290T504 1378T592 1414T680 1378T716 1290T680 1202T592 1166T504 1202Z" />
<glyph unicode="k" glyph-name="k" horiz-adv-x="1156" d="M68 -2V58H176Q226 58 226 108V1263Q226 1329 162 1336L68 1346V1390L334 1478H366V431L724 705Q766 738 766 778Q766 805 744 822T691 840H642V901Q645 901 689 900T788 897T872 896T950 897T1039 899T1082
901V840Q1023 832 984 813Q935 790 878 745L585 520L923 158Q964 114 1004 88Q1045 63 1104 58V-2Q1101 -2 1062 -1T972 1T893 2T810 1T712 -1T664 -2V58H731Q748 58 759 67T771 94Q771 116 733 158L474 437L366 354V108Q366 58 416 58H524V-2Q521 -2 426 0T296
2T167 0T68 -2Z" />
<glyph unicode="l" glyph-name="l" horiz-adv-x="576" d="M68 -2V58H176Q226 58 226 108V1263Q226 1329 162 1336L68 1346V1390L334 1478H366V108Q366 58 416 58H524V-2Q521 -2 426 0T296 2T167 0T68 -2Z" />
<glyph unicode="m" glyph-name="m" horiz-adv-x="1726" d="M74 -2V58H182Q232 58 232 108V695Q232 761 168 768L74 778V822L340 910H372V764L379 759Q547 916 680 916Q805 916 863 855Q910 807 928 741L937 737Q1007 806 1094 861T1262 916Q1387 916 1445 855Q1524
775 1524 640V108Q1524 58 1574 58H1682V-2Q1679 -2 1584 0T1454 2T1325 0T1226 -2V58H1334Q1384 58 1384 108V607Q1384 668 1374 710T1330 781Q1302 804 1273 814T1196 824Q1096 824 940 677Q942 664 942 640V108Q942 58 992 58H1100V-2Q1097 -2 1002 0T872 2T743
0T644 -2V58H752Q802 58 802 108V607Q802 668 792 710T748 781Q720 804 691 814T614 824Q520 824 372 690V108Q372 58 422 58H530V-2Q527 -2 432 0T302 2T173 0T74 -2Z" />
<glyph unicode="n" glyph-name="n" horiz-adv-x="1160" d="M74 -2V58H182Q232 58 232 108V695Q232 761 168 768L74 778V822L340 910H372V762L379 756Q438 815 522 865T680 916Q797 916 870 853Q958 771 958 632V108Q958 58 1008 58H1116V-2Q1113 -2 1018 0T888
2T759 0T660 -2V58H768Q818 58 818 108V607Q818 737 755 784Q726 807 697 815T614 824Q521 824 372 689V108Q372 58 422 58H530V-2Q527 -2 432 0T302 2T173 0T74 -2Z" />
<glyph unicode="o" glyph-name="o" horiz-adv-x="1080" d="M84 450Q84 650 215 783T540 916T865 783T996 450Q996 251 865 118T540 -16T215 117T84 450ZM254 618T254 450T331 162T540 42T748 162T826 450T749 738T540 858T332 738Z" />
<glyph unicode="p" glyph-name="p" horiz-adv-x="1112" d="M40 -440H148Q198 -440 198 -390V695Q198 761 134 768L40 778V822L306 910H338V796L346 791Q501 916 626 916Q706 916 778 892T889 828Q1028 688 1028 491Q1028 276 926 135Q816 -16 608 -16Q556 -16
483 7T344 71L338 67V-390Q338 -440 388 -440H496V-500Q493 -500 398 -498T268 -496T139 -498T40 -500V-440ZM338 136Q394 97 459 74T576 50Q637 50 691 73T778 141Q819 196 838 271T858 418Q858 479 856 516T838 611T791 713Q715 824 578 824Q461 824 338 714V136Z"
/>
<glyph unicode="q" glyph-name="q" horiz-adv-x="1084" d="M84 409Q84 624 186 765Q296 916 504 916Q581 916 672 877Q722 854 744 854Q810 854 841 904H914V-390Q914 -440 964 -440H1072V-500Q1069 -500 974 -498T844 -496T715 -498T616 -500V-440H724Q774 -440
774 -390V100L764 107Q699 55 624 20T486 -16Q406 -16 334 8T223 72Q84 212 84 409ZM254 482Q254 421 256 384T274 289T321 187Q397 76 534 76Q651 76 774 186V764Q718 803 653 826T536 850Q475 850 421 827T334 759Q293 704 274 629T254 482Z" />
<glyph unicode="r" glyph-name="r" horiz-adv-x="850" d="M74 -2V58H182Q232 58 232 108V695Q232 761 168 768L74 778V822L340 910H372V709L382 703Q437 773 500 827Q604 916 696 916Q744 916 771 887T798 821Q798 777 769 749T688 721Q663 721 625 741Q597 758
565 758Q486 758 372 627V108Q372 58 422 58H530V-2Q527 -2 432 0T302 2T173 0T74 -2Z" />
<glyph unicode="s" glyph-name="s" horiz-adv-x="838" d="M76 221L117 242Q163 166 205 132Q310 42 425 42Q530 42 582 86T634 213Q634 288 585 327T413 405Q357 422 322 435T244 471T179 521T139 589T122 683Q122 793 199 854T388 916Q467 916 510 895Q560 875
585 875Q629 875 641 916H687L720 679L679 667Q634 745 592 785Q512 858 388 858Q314 858 264 822T214 725Q214 691 231 662T271 615T335 577T403 549T475 525Q622 479 694 418T766 249Q766 129 674 57T442 -16Q366 -16 300 9Q250 30 217 30Q199 30 186 18T167
-16H121L76 221Z" />
<glyph unicode="t" glyph-name="t" horiz-adv-x="740" d="M48 836V900Q274 919 274 1265H346V900H622Q622 853 614 836H346V246Q346 76 474 76Q574 76 639 201L676 176Q644 94 591 41Q531 -16 437 -16Q332 -16 269 52T206 224V836H48Z" />
<glyph unicode="u" glyph-name="u" horiz-adv-x="1060" d="M44 834V892L318 908V291Q318 230 328 188T372 117Q400 94 429 84T506 74Q595 74 732 194V751Q732 796 701 815T598 834V892L872 908V149Q872 104 903 85T1006 66V8L732 -8V122L726 128Q567 -18 440 -18Q315
-18 257 43Q178 123 178 258V751Q178 796 147 815T44 834Z" />
<glyph unicode="v" glyph-name="v" horiz-adv-x="1072" d="M16 842V902Q23 902 105 900T224 898T347 900T440 902V842H381Q360 842 341 831T322 802Q322 770 336 738L570 168L782 650Q816 729 816 776Q816 801 798 821T752 842H696V902Q700 902 770 900T868 898T966
900T1040 902V842H998Q969 842 944 814Q916 780 893 729L562 -8H502L197 700Q161 784 130 809Q89 842 16 842Z" />
<glyph unicode="w" glyph-name="w" horiz-adv-x="1494" d="M16 842V902Q23 902 103 900T220 898T341 900T432 902V842H373Q353 842 338 831T322 802Q322 773 335 738L528 194L718 669L707 700Q680 775 654 800Q610 842 532 842V902Q539 902 621 900T740 898T859
900T948 902V842H883Q862 842 846 831T830 802Q830 770 844 738L1036 195L1229 677Q1242 709 1242 773Q1242 801 1220 821T1165 842H1118V902Q1122 902 1192 900T1290 898T1388 900T1462 902V842H1430Q1391 842 1366 814Q1336 780 1315 729L1018 -8H958L749 583L510
-8H450L199 700Q173 774 130 809Q89 842 16 842Z" />
<glyph unicode="x" glyph-name="x" horiz-adv-x="1212" d="M68 -2V58Q122 66 165 91Q237 133 298 192L551 431L341 672Q262 763 215 795Q159 834 98 842V902Q110 902 197 900T321 898T444 900T544 902V842H501Q480 842 463 827T446 793Q446 749 481 711L647 521L823
687Q863 724 863 762Q863 801 824 824Q794 842 752 842V902Q756 902 840 900T952 898T1064 900T1152 902V842Q1085 826 1040 797Q980 759 923 705L686 475L949 174Q986 131 1028 102Q1082 64 1144 58V-2Q1132 -2 1045 0T921 2T798 0T698 -2V58H751Q774 58 788 70T802
101Q802 144 770 180L592 384L391 189Q356 154 356 119Q356 94 375 76T420 58H481V-2Q467 -2 384 0T275 2T166 0T68 -2Z" />
<glyph unicode="y" glyph-name="y" horiz-adv-x="1102" d="M8 -406Q8 -359 38 -333T107 -307Q141 -307 174 -327Q207 -346 235 -346Q274 -346 315 -303T390 -193L496 20L205 700Q168 785 138 809Q97 842 24 842V902Q31 902 113 900T232 898T355 900T448 902V842H389Q368
842 349 831T330 802Q330 770 344 738L576 174L807 649Q846 729 846 770Q846 798 827 820T779 842H725V902Q729 902 802 900T904 898T1003 900T1078 902V842H1038Q1008 842 983 814Q951 776 929 729L453 -236Q390 -363 320 -431Q233 -516 132 -516Q80 -516 44 -488T8
-406Z" />
<glyph unicode="z" glyph-name="z" horiz-adv-x="906" d="M72 0V40L646 842H456Q359 842 272 763Q203 701 146 609L97 630L213 900H832V860L257 58H537Q640 58 705 135Q743 180 790 270L838 259L784 0H72Z" />
<glyph unicode="{" glyph-name="braceleft" horiz-adv-x="780" d="M182 442V486Q415 486 415 709Q415 784 377 934Q336 1098 336 1185Q336 1318 429 1393T682 1488L692 1434Q582 1415 525 1378T468 1263Q468 1172 506 1027Q547 871 547 792Q547 649 484 569T320
466V462Q421 439 484 359T547 135Q547 56 506 -100Q468 -245 468 -336Q468 -414 524 -450T692 -506L682 -560Q523 -541 430 -466T336 -257Q336 -170 377 -6Q415 144 415 219Q415 442 182 442Z" />
<glyph unicode="|" glyph-name="bar" horiz-adv-x="512" d="M202 -468V1460H310V-468H202Z" />
<glyph unicode="}" glyph-name="braceright" horiz-adv-x="780" d="M88 -506Q198 -487 255 -450T312 -335Q312 -244 274 -99Q233 57 233 136Q233 279 296 359T460 462V466Q359 489 296 569T233 793Q233 872 274 1028Q312 1173 312 1264Q312 1342 256 1378T88 1434L98
1488Q257 1469 350 1394T444 1185Q444 1098 403 934Q365 784 365 709Q365 486 598 486V442Q365 442 365 219Q365 144 403 -6Q444 -170 444 -257Q444 -390 351 -465T98 -560L88 -506Z" />
<glyph unicode="~" glyph-name="asciitilde" horiz-adv-x="1152" d="M112 454Q242 662 420 662Q460 662 500 651T565 629T628 596Q664 577 685 567T739 548T802 538Q871 538 914 569T1004 666L1040 638Q910 430 732 430Q676 430 629 447T524 496Q418 554 350 554Q281
554 238 523T148 426L112 454Z" />
<glyph unicode="&#xa0;" glyph-name="nbspace" horiz-adv-x="528" />
<glyph unicode="&#xa1;" glyph-name="exclamdown" horiz-adv-x="528" d="M136 770T136 824T173 915T264 952T355 915T392 824T355 733T264 696T173 733ZM146 -385Q146 -295 176 -129Q198 -10 212 127L236 532H292L316 127Q330 -12 352 -130Q382 -296 382 -385Q382
-412 377 -439T359 -495T323 -542T264 -560T206 -542T169 -496T152 -440T146 -385Z" />
<glyph unicode="&#xa2;" glyph-name="cent" horiz-adv-x="1152" d="M176 436Q176 640 307 779Q434 916 604 916Q662 916 703 908L894 1462H964L767 891Q843 862 895 806T948 702Q948 659 925 636T862 613Q826 613 801 636T766 696Q750 758 730 786L499 115Q566
76 653 76Q726 76 794 117T903 213L940 176Q895 104 807 44T624 -16Q536 -16 462 10L266 -558H196L401 36Q354 60 313 97Q176 217 176 436ZM346 457Q346 262 444 159L676 831Q652 842 625 842Q496 842 421 734T346 457Z" />
<glyph unicode="&#xa3;" glyph-name="sterling" horiz-adv-x="1538" d="M80 67T80 150T151 287T313 342Q374 342 437 329T541 303T652 262Q678 325 678 384Q678 458 666 516T621 664H212V744H590Q549 848 531 920T512 1080Q512 1183 572 1277T734 1430T950 1488Q1044
1488 1124 1462T1255 1394T1333 1306T1361 1214T1330 1137T1257 1105Q1214 1105 1185 1130T1144 1190Q1131 1227 1125 1291Q1120 1344 1079 1384T956 1424Q847 1424 766 1340T684 1142Q684 1061 695 996T731 834Q744 788 753 744H1156V664H769Q782 579 782 466Q782
344 722 235Q929 154 1086 154Q1151 154 1205 166T1306 205T1380 254T1452 316L1490 284Q1457 221 1417 168T1323 70T1204 -2T1064 -28Q959 -28 868 15T658 142Q589 63 494 18T293 -28Q202 -28 141 19ZM152 160Q152 99 199 64T311 28Q392 28 470 70T603 181Q524
237 462 261T314 286Q250 286 201 253T152 160Z" />
<glyph unicode="&#xa4;" glyph-name="currency" horiz-adv-x="1152" d="M134 139L255 259Q172 368 172 512Q172 657 256 765L134 887L202 956L324 833Q430 916 576 916Q720 916 829 833L950 956L1018 886L897 765Q980 659 980 512Q980 366 897 260L1018 139L950
70L829 192Q721 108 576 108Q429 108 323 191L203 70L134 139ZM260 650T260 512T349 285T576 196T803 285T892 512T803 739T576 828T349 739Z" />
<glyph unicode="&#xa5;" glyph-name="yen" horiz-adv-x="1152" d="M18 1402V1462Q20 1462 103 1460T225 1458T350 1460T440 1462V1402H376Q356 1402 340 1389T323 1357Q323 1328 337 1298L604 751L847 1230Q878 1292 878 1336Q878 1364 860 1383T812 1402H758V1462Q762
1462 840 1460T946 1458T1051 1460T1132 1462V1402H1087Q1073 1402 1052 1395T1016 1373Q985 1342 957 1289L720 840H972V744H669L642 693V552H972V456H642V110Q642 60 692 60H800V0Q797 0 702 2T572 4T443 2T344 0V60H452Q502 60 502 110V456H166V552H502V647L454
744H166V840H406L198 1260Q161 1335 127 1367Q103 1390 80 1396T18 1402Z" />
<glyph unicode="&#xa6;" glyph-name="brokenbar" horiz-adv-x="512" d="M202 300H310V-468H202V300ZM202 692V1460H310V692H202Z" />
<glyph unicode="&#xa7;" glyph-name="section" horiz-adv-x="1180" d="M134 612Q134 703 220 771T424 871L340 948Q208 1066 208 1212Q208 1342 305 1415T536 1488Q613 1488 676 1462T777 1395T835 1307T856 1212T832 1128T754 1090Q714 1090 686 1115T658 1183Q658
1208 676 1250Q688 1280 688 1302Q688 1351 645 1387T514 1424Q431 1424 381 1379T330 1266Q330 1231 339 1202T371 1143T414 1093T472 1038L796 741Q924 624 924 444Q924 353 838 285T634 185L718 108Q850 -10 850 -156Q850 -286 753 -359T522 -432Q445 -432 382
-406T281 -339T223 -251T202 -156T226 -72T304 -34Q344 -34 372 -59T400 -127Q400 -152 382 -194Q370 -224 370 -246Q370 -295 413 -331T544 -368Q627 -368 677 -323T728 -210Q728 -175 719 -146T687 -87T644 -37T586 18L262 315Q134 432 134 612ZM242 639Q242
581 262 543T328 462L505 300Q524 283 553 274T601 264Q816 264 816 417Q816 475 796 513T730 594L556 752Q533 772 505 782T457 792Q242 792 242 639Z" />
<glyph unicode="&#xa8;" glyph-name="dieresis" horiz-adv-x="880" d="M140 1166T140 1208T167 1277T236 1304T305 1277T332 1208T305 1139T236 1112T167 1139ZM548 1166T548 1208T575 1277T644 1304T713 1277T740 1208T713 1139T644 1112T575 1139Z" />
<glyph unicode="&#xa9;" glyph-name="copyright" horiz-adv-x="1636" d="M60 570T60 730T118 1030T276 1271T517 1430T818 1488T1118 1430T1359 1272T1518 1031T1576 730T1518 430T1360 189T1119 30T818 -28T518 30T277 188T118 429ZM132 920T132 730T222 381T470
129T818 36T1165 128T1413 380T1504 730T1414 1079T1166 1331T818 1424T471 1332T223 1080ZM372 732Q372 840 411 931T514 1082T658 1175T823 1208Q902 1208 969 1179Q1025 1155 1049 1155Q1078 1155 1090 1208H1130L1177 968L1131 951Q998 1138 839 1138Q717 1138
630 1031T542 734Q542 640 561 569T610 455T681 387T759 351T838 342Q934 342 1011 391T1138 510L1168 486Q1118 398 1022 334T824 270Q716 270 628 311T486 418T402 566T372 732Z" />
<glyph unicode="&#xaa;" glyph-name="ordfeminine" horiz-adv-x="780" d="M128 1012Q128 1130 325 1182Q410 1204 489 1204V1286Q489 1328 459 1355T381 1382Q315 1382 290 1354Q273 1337 263 1299Q253 1257 212 1257Q187 1257 172 1271T156 1307Q156 1354 224
1390T378 1426Q449 1426 506 1398Q585 1358 585 1279V1044Q585 1016 596 996T633 976Q664 976 696 1019L716 1005Q691 958 662 931T585 904Q553 904 528 925T492 974H484Q453 949 398 927T291 904Q217 904 175 930Q128 960 128 1012ZM240 1024Q240 991 266 972T334
952Q406 952 489 1007V1172Q387 1168 315 1135Q240 1103 240 1024Z" />
<glyph unicode="&#xab;" glyph-name="guillemotleft" horiz-adv-x="942" d="M478 420L812 796L846 770L630 420L846 70L812 44L478 420ZM182 420L516 796L550 770L334 420L550 70L516 44L182 420Z" />
<glyph unicode="&#xac;" glyph-name="logicalnot" horiz-adv-x="1152" d="M62 650V746H1090V274H978V650H62Z" />
<glyph unicode="&#xad;" glyph-name="uni00AD" horiz-adv-x="900" d="M136 358V490H764V358H136Z" />
<glyph unicode="&#xae;" glyph-name="registered" horiz-adv-x="1636" d="M60 570T60 730T118 1030T276 1271T517 1430T818 1488T1118 1430T1359 1272T1518 1031T1576 730T1518 430T1360 189T1119 30T818 -28T518 30T277 188T118 429ZM132 920T132 730T222 381T470
129T818 36T1165 128T1413 380T1504 730T1414 1079T1166 1331T818 1424T471 1332T223 1080ZM362 284V344H470Q520 344 520 394V1060Q520 1098 503 1115T445 1132Q399 1132 362 1128V1188Q564 1204 703 1204Q821 1204 889 1194T1018 1152T1109 1069T1140 960Q1140
846 1026 775Q964 737 882 721V715L1110 441Q1144 400 1178 377Q1226 344 1288 344V286H1040L778 683Q769 696 759 701T726 707H660V394Q660 344 710 344H818V284Q815 284 720 286T590 288T461 286T362 284ZM660 763H787Q885 763 942 808T1000 949Q1000 1054 907
1108Q851 1140 745 1140Q706 1140 660 1135V763Z" />
<glyph unicode="&#xaf;" glyph-name="overscore" horiz-adv-x="880" d="M146 1134V1222H734V1134H146Z" />
<glyph unicode="&#xb0;" glyph-name="degree" horiz-adv-x="1152" d="M200 956T200 1118T307 1386T576 1492T845 1386T952 1118T845 850T576 744T307 850ZM280 1244T280 1118T365 908T576 824T787 908T872 1118T787 1328T576 1412T365 1328Z" />
<glyph unicode="&#xb1;" glyph-name="plusminus" horiz-adv-x="1152" d="M62 -97V-1H1090V-97H62ZM62 562V658H522V1124H630V658H1090V562H630V96H522V562H62Z" />
<glyph unicode="&#xb2;" glyph-name="twosuperior" horiz-adv-x="660" d="M36 656V690Q78 764 154 851T320 1011Q383 1063 415 1097T466 1174T484 1271Q484 1336 440 1382T319 1428Q243 1428 208 1403T172 1340Q172 1323 193 1308Q228 1281 228 1250Q228 1226
210 1208T161 1190Q122 1190 97 1214T72 1281Q72 1359 152 1415T351 1472Q475 1472 543 1414T612 1276Q612 1239 596 1205T547 1137T486 1082T411 1026Q305 952 243 894T133 764H487Q533 764 546 797L572 860L616 850L556 656H36Z" />
<glyph unicode="&#xb3;" glyph-name="threesuperior" horiz-adv-x="660" d="M52 800Q52 824 70 843T114 863Q173 863 182 788Q188 739 213 714T301 688Q385 688 428 744T472 884Q472 957 434 1009T318 1062Q294 1062 270 1059Q244 1056 222 1056Q211 1056 201
1064T191 1088T201 1111T222 1120Q245 1120 269 1117Q295 1114 318 1114Q384 1114 420 1157T456 1274Q456 1346 419 1387T305 1428Q256 1428 223 1413T190 1370Q190 1354 199 1342Q211 1323 211 1307Q211 1286 196 1271T151 1256T98 1276T74 1325Q74 1395 143 1433T310
1472Q427 1472 505 1416T584 1272Q584 1140 403 1094V1087Q492 1066 546 1011T600 880Q600 772 518 708T297 644Q192 644 122 688T52 800Z" />
<glyph unicode="&#xb4;" glyph-name="acute" horiz-adv-x="880" d="M398 1030L518 1364Q564 1488 636 1488Q671 1488 692 1466T714 1415Q714 1371 650 1285L442 1008L398 1030Z" />
<glyph unicode="&#xb5;" glyph-name="mu" horiz-adv-x="1218" d="M-16 -433Q-16 -328 132 222Q147 308 157 365T181 489T204 596T227 682T252 752T278 800T309 831T344 840Q374 840 388 819T402 770Q402 709 320 514Q247 341 216 241Q229 176 286 138T404 100Q503
100 575 210Q597 244 627 317T669 429L783 824Q822 834 865 834Q907 834 941 815L840 471Q831 443 824 397T817 330Q817 246 851 188T928 130Q1014 130 1080 239Q1092 259 1098 268T1112 289T1127 305T1140 310Q1170 310 1170 268Q1170 241 1151 194T1101 100T1026
19T937 -16Q896 -16 864 9T812 77T782 161T766 249L750 256Q733 215 706 171T640 84T550 12T447 -16Q396 -16 351 3T276 52T227 107T197 156L183 153Q160 -36 160 -330Q160 -549 71 -549Q34 -549 9 -520T-16 -433Z" />
<glyph unicode="&#xb6;" glyph-name="paragraph" horiz-adv-x="1188" d="M142 1080Q142 1176 190 1263T325 1405T514 1460H1100V1396H872V-468H784V1396H546V-468H458V700Q319 718 231 826T142 1080Z" />
<glyph unicode="&#xb7;" glyph-name="middot" horiz-adv-x="352" d="M48 542T48 596T85 687T176 724T267 687T304 596T267 505T176 468T85 505Z" />
<glyph unicode="&#xb8;" glyph-name="cedilla" horiz-adv-x="880" d="M244 -438L264 -400Q343 -444 434 -444Q477 -444 505 -426T534 -371Q534 -344 511 -324T436 -281Q362 -246 362 -208Q362 -175 390 -133L498 27L540 0L479 -91Q458 -125 458 -141Q458 -174
517 -206T607 -267T638 -337Q638 -408 580 -450T435 -492Q333 -492 244 -438Z" />
<glyph unicode="&#xb9;" glyph-name="onesuperior" horiz-adv-x="660" d="M112 1245L336 1468H409V737Q409 696 420 656H289Q301 694 301 736V1331Q301 1347 289 1347Q279 1347 257 1327L143 1214L112 1245Z" />
<glyph unicode="&#xba;" glyph-name="ordmasculine" horiz-adv-x="780" d="M122 1048T122 1165T200 1354T390 1426T580 1354T658 1165T580 976T390 904T200 976ZM234 1261T234 1165T272 1009T390 948T507 1008T546 1165T508 1321T390 1382T273 1322Z" />
<glyph unicode="&#xbb;" glyph-name="guillemotright" horiz-adv-x="942" d="M104 70L320 420L104 770L138 796L472 420L138 44L104 70ZM400 70L616 420L400 770L434 796L768 420L434 44L400 70Z" />
<glyph unicode="&#xbc;" glyph-name="onequarter" horiz-adv-x="1540" d="M112 1245L336 1468H409V737Q409 696 420 656H289Q301 694 301 736V1331Q301 1347 289 1347Q279 1347 257 1327L143 1214L112 1245ZM902 232V279L1313 812H1360V316H1439Q1484 316 1520
327V222Q1482 232 1439 232H1360V78Q1360 35 1371 0H1240Q1252 38 1252 78V232H902ZM983 316H1252V665L983 316ZM278 -16L1174 1476H1262L364 -16H278Z" />
<glyph unicode="&#xbd;" glyph-name="onehalf" horiz-adv-x="1540" d="M278 -16L1174 1476H1262L364 -16H278ZM112 1245L336 1468H409V737Q409 696 420 656H289Q301 694 301 736V1331Q301 1347 289 1347Q279 1347 257 1327L143 1214L112 1245ZM916 0V34Q958 108
1034 195T1200 355Q1263 407 1295 441T1346 518T1364 615Q1364 680 1320 726T1199 772Q1123 772 1088 747T1052 684Q1052 667 1073 652Q1108 625 1108 594Q1108 570 1090 552T1041 534Q1002 534 977 558T952 625Q952 703 1032 759T1231 816Q1355 816 1423 758T1492
620Q1492 583 1476 549T1427 481T1366 426T1291 370Q1185 296 1123 238T1013 108H1367Q1413 108 1426 141L1452 204L1496 194L1436 0H916Z" />
<glyph unicode="&#xbe;" glyph-name="threequarters" horiz-adv-x="1540" d="M278 -16L1174 1476H1262L364 -16H278ZM52 800Q52 824 70 843T114 863Q173 863 182 788Q188 739 213 714T301 688Q385 688 428 744T472 884Q472 957 434 1009T318 1062Q294 1062 270
1059Q244 1056 222 1056Q211 1056 201 1064T191 1088T201 1111T222 1120Q245 1120 269 1117Q295 1114 318 1114Q384 1114 420 1157T456 1274Q456 1346 419 1387T305 1428Q256 1428 223 1413T190 1370Q190 1354 199 1342Q211 1323 211 1307Q211 1286 196 1271T151
1256T98 1276T74 1325Q74 1395 143 1433T310 1472Q427 1472 505 1416T584 1272Q584 1140 403 1094V1087Q492 1066 546 1011T600 880Q600 772 518 708T297 644Q192 644 122 688T52 800ZM902 232V279L1313 812H1360V316H1439Q1484 316 1520 327V222Q1482 232 1439
232H1360V78Q1360 35 1371 0H1240Q1252 38 1252 78V232H902ZM983 316H1252V665L983 316Z" />
<glyph unicode="&#xbf;" glyph-name="questiondown" horiz-adv-x="852" d="M112 -127Q112 -51 134 5T199 95T297 147T423 174Q477 180 494 205T512 293V589H584V119Q584 68 565 53T474 38Q200 38 200 -164Q200 -257 258 -324T410 -392Q456 -392 507 -374Q580 -349
615 -349Q665 -349 703 -370T742 -442Q742 -502 690 -531T566 -560Q475 -560 393 -531T249 -449T149 -312T112 -127ZM428 770T428 824T465 915T556 952T647 915T684 824T647 733T556 696T465 733Z" />
<glyph unicode="&#xc0;" glyph-name="Agrave" horiz-adv-x="1624" d="M552 1842Q552 1868 569 1890T614 1912Q675 1912 744 1848L1000 1609L978 1580L664 1728Q552 1781 552 1842ZM88 -2V64H110Q185 64 237 112T326 258L772 1452L936 1488L1348 284Q1370 229 1383
198T1418 132T1463 80T1516 64H1588V-2Q1569 -2 1463 0T1308 2T1121 0T964 -2V64H1104Q1138 64 1162 85T1186 144Q1186 172 1170 216L1062 540H524L430 282Q402 208 402 158Q402 64 588 64V-2Q582 -2 480 0T336 2T194 0T88 -2ZM554 616H1036L808 1300L554 616Z"
/>
<glyph unicode="&#xc1;" glyph-name="Aacute" horiz-adv-x="1624" d="M700 1609L956 1848Q1025 1912 1086 1912Q1113 1912 1130 1890T1148 1842Q1148 1781 1036 1728L722 1580L700 1609ZM88 -2V64H110Q185 64 237 112T326 258L772 1452L936 1488L1348 284Q1370
229 1383 198T1418 132T1463 80T1516 64H1588V-2Q1569 -2 1463 0T1308 2T1121 0T964 -2V64H1104Q1138 64 1162 85T1186 144Q1186 172 1170 216L1062 540H524L430 282Q402 208 402 158Q402 64 588 64V-2Q582 -2 480 0T336 2T194 0T88 -2ZM554 616H1036L808 1300L554
616Z" />
<glyph unicode="&#xc2;" glyph-name="Acircumflex" horiz-adv-x="1624" d="M494 1614Q718 1782 818 1912H882Q982 1782 1206 1614L1184 1580L850 1768L516 1580L494 1614ZM88 -2V64H110Q185 64 237 112T326 258L772 1452L936 1488L1348 284Q1370 229 1383 198T1418
132T1463 80T1516 64H1588V-2Q1569 -2 1463 0T1308 2T1121 0T964 -2V64H1104Q1138 64 1162 85T1186 144Q1186 172 1170 216L1062 540H524L430 282Q402 208 402 158Q402 64 588 64V-2Q582 -2 480 0T336 2T194 0T88 -2ZM554 616H1036L808 1300L554 616Z" />
<glyph unicode="&#xc3;" glyph-name="Atilde" horiz-adv-x="1624" d="M434 1667Q478 1741 542 1791T686 1842Q781 1842 888 1795Q926 1779 948 1771T1008 1754T1085 1746Q1114 1746 1141 1763T1184 1798T1220 1847L1266 1825Q1222 1751 1158 1701T1014 1650Q916
1650 811 1698Q705 1746 615 1746Q586 1746 559 1729T516 1694T480 1645L434 1667ZM88 -2V64H110Q185 64 237 112T326 258L772 1452L936 1488L1348 284Q1370 229 1383 198T1418 132T1463 80T1516 64H1588V-2Q1569 -2 1463 0T1308 2T1121 0T964 -2V64H1104Q1138
64 1162 85T1186 144Q1186 172 1170 216L1062 540H524L430 282Q402 208 402 158Q402 64 588 64V-2Q582 -2 480 0T336 2T194 0T88 -2ZM554 616H1036L808 1300L554 616Z" />
<glyph unicode="&#xc4;" glyph-name="Adieresis" horiz-adv-x="1624" d="M514 1710T514 1746T539 1806T601 1830T662 1806T688 1746T663 1683T601 1656T540 1683ZM1012 1710T1012 1746T1037 1806T1099 1830T1160 1806T1186 1746T1161 1683T1099 1656T1038 1683ZM88
-2V64H110Q185 64 237 112T326 258L772 1452L936 1488L1348 284Q1370 229 1383 198T1418 132T1463 80T1516 64H1588V-2Q1569 -2 1463 0T1308 2T1121 0T964 -2V64H1104Q1138 64 1162 85T1186 144Q1186 172 1170 216L1062 540H524L430 282Q402 208 402 158Q402 64
588 64V-2Q582 -2 480 0T336 2T194 0T88 -2ZM554 616H1036L808 1300L554 616Z" />
<glyph unicode="&#xc5;" glyph-name="Aring" horiz-adv-x="1624" d="M584 1672T584 1762T659 1908T850 1964T1041 1908T1116 1762T1041 1616T850 1560T659 1616ZM648 1823T648 1762T702 1663T850 1624T998 1662T1052 1762T998 1861T850 1900T702 1862ZM88 -2V64H110Q185
64 237 112T326 258L772 1452L936 1488L1348 284Q1370 229 1383 198T1418 132T1463 80T1516 64H1588V-2Q1569 -2 1463 0T1308 2T1121 0T964 -2V64H1104Q1138 64 1162 85T1186 144Q1186 172 1170 216L1062 540H524L430 282Q402 208 402 158Q402 64 588 64V-2Q582
-2 480 0T336 2T194 0T88 -2ZM554 616H1036L808 1300L554 616Z" />
<glyph unicode="&#xc6;" glyph-name="AE" horiz-adv-x="2338" d="M86 0V66Q167 66 246 105T368 208L1004 1162Q1034 1206 1047 1239T1061 1314Q1061 1347 1036 1371T960 1396H846V1462H1006Q1025 1462 1138 1460T1300 1458T1462 1460T1594 1462H2106L2222 1148L2162
1120Q2133 1169 2089 1223T1994 1310Q1879 1384 1750 1384H1470Q1392 1384 1392 1304V796H1616Q1707 796 1766 853T1834 1036H1894V480H1834Q1818 720 1616 720H1392V156Q1392 76 1470 76H1834Q1909 76 1975 99T2082 162Q2129 210 2167 278T2226 406L2290 386L2198
-2H1594Q1590 -2 1471 0T1300 2T1129 0T1006 -2V64H1130Q1208 64 1208 144V632H754L538 302Q486 222 486 176Q486 139 513 103T590 66H668V0Q665 0 547 2T372 4T202 2T86 0ZM806 708H1208V1311L806 708Z" />
<glyph unicode="&#xc7;" glyph-name="Ccedilla" horiz-adv-x="1468" d="M144 720Q144 1070 356 1288Q449 1384 572 1436T832 1488Q962 1488 1072 1446Q1159 1412 1198 1412Q1225 1412 1241 1430T1268 1488H1316L1384 1148L1326 1120Q1233 1248 1122 1320T864 1392Q728
1392 622 1328T448 1144Q401 1061 385 962T368 736Q368 380 540 208Q610 138 695 103T862 68Q1019 68 1134 143T1342 346L1388 310Q1324 186 1213 96T964 -19L908 -112Q889 -142 889 -164Q889 -180 906 -194T965 -231Q1032 -268 1060 -303T1088 -387Q1088 -441
1050 -479T958 -534T845 -550Q760 -550 654 -494L674 -454Q768 -502 844 -502Q888 -502 924 -482T960 -424Q960 -390 933 -367T853 -317Q773 -279 773 -240Q773 -210 817 -141L889 -28H868Q588 -28 400 136Q282 239 213 392T144 720Z" />
<glyph unicode="&#xc8;" glyph-name="Egrave" horiz-adv-x="1460" d="M438 1842Q438 1868 455 1890T500 1912Q561 1912 630 1848L886 1609L864 1580L550 1728Q438 1781 438 1842ZM128 -2V64H252Q330 64 330 144V1316Q330 1396 252 1396H128V1462Q132 1462 251
1460T422 1458T593 1460T716 1462H1228L1344 1148L1284 1120Q1255 1169 1211 1223T1116 1310Q1001 1384 872 1384H592Q514 1384 514 1304V796H738Q829 796 888 853T956 1036H1016V480H956Q940 720 738 720H514V156Q514 76 592 76H956Q1031 76 1097 99T1204 162Q1251
210 1289 278T1348 406L1412 386L1320 -2H716Q712 -2 593 0T422 2T251 0T128 -2Z" />
<glyph unicode="&#xc9;" glyph-name="Eacute" horiz-adv-x="1460" d="M586 1609L842 1848Q911 1912 972 1912Q999 1912 1016 1890T1034 1842Q1034 1781 922 1728L608 1580L586 1609ZM128 -2V64H252Q330 64 330 144V1316Q330 1396 252 1396H128V1462Q132 1462 251
1460T422 1458T593 1460T716 1462H1228L1344 1148L1284 1120Q1255 1169 1211 1223T1116 1310Q1001 1384 872 1384H592Q514 1384 514 1304V796H738Q829 796 888 853T956 1036H1016V480H956Q940 720 738 720H514V156Q514 76 592 76H956Q1031 76 1097 99T1204 162Q1251
210 1289 278T1348 406L1412 386L1320 -2H716Q712 -2 593 0T422 2T251 0T128 -2Z" />
<glyph unicode="&#xca;" glyph-name="Ecircumflex" horiz-adv-x="1460" d="M380 1614Q604 1782 704 1912H768Q868 1782 1092 1614L1070 1580L736 1768L402 1580L380 1614ZM128 -2V64H252Q330 64 330 144V1316Q330 1396 252 1396H128V1462Q132 1462 251 1460T422
1458T593 1460T716 1462H1228L1344 1148L1284 1120Q1255 1169 1211 1223T1116 1310Q1001 1384 872 1384H592Q514 1384 514 1304V796H738Q829 796 888 853T956 1036H1016V480H956Q940 720 738 720H514V156Q514 76 592 76H956Q1031 76 1097 99T1204 162Q1251 210
1289 278T1348 406L1412 386L1320 -2H716Q712 -2 593 0T422 2T251 0T128 -2Z" />
<glyph unicode="&#xcb;" glyph-name="Edieresis" horiz-adv-x="1460" d="M400 1710T400 1746T425 1806T487 1830T548 1806T574 1746T549 1683T487 1656T426 1683ZM898 1710T898 1746T923 1806T985 1830T1046 1806T1072 1746T1047 1683T985 1656T924 1683ZM128
-2V64H252Q330 64 330 144V1316Q330 1396 252 1396H128V1462Q132 1462 251 1460T422 1458T593 1460T716 1462H1228L1344 1148L1284 1120Q1255 1169 1211 1223T1116 1310Q1001 1384 872 1384H592Q514 1384 514 1304V796H738Q829 796 888 853T956 1036H1016V480H956Q940
720 738 720H514V156Q514 76 592 76H956Q1031 76 1097 99T1204 162Q1251 210 1289 278T1348 406L1412 386L1320 -2H716Q712 -2 593 0T422 2T251 0T128 -2Z" />
<glyph unicode="&#xcc;" glyph-name="Igrave" horiz-adv-x="804" d="M380 1842Q380 1868 397 1890T442 1912Q503 1912 572 1848L828 1609L806 1580L492 1728Q380 1781 380 1842ZM128 -2V64H252Q330 64 330 144V1316Q330 1396 252 1396H128V1462Q132 1462 251 1460T422
1458T593 1460T716 1462V1396H592Q514 1396 514 1316V144Q514 64 592 64H716V-2Q712 -2 593 0T422 2T251 0T128 -2Z" />
<glyph unicode="&#xcd;" glyph-name="Iacute" horiz-adv-x="804" d="M528 1609L784 1848Q853 1912 914 1912Q941 1912 958 1890T976 1842Q976 1781 864 1728L550 1580L528 1609ZM128 -2V64H252Q330 64 330 144V1316Q330 1396 252 1396H128V1462Q132 1462 251 1460T422
1458T593 1460T716 1462V1396H592Q514 1396 514 1316V144Q514 64 592 64H716V-2Q712 -2 593 0T422 2T251 0T128 -2Z" />
<glyph unicode="&#xce;" glyph-name="Icircumflex" horiz-adv-x="804" d="M322 1614Q546 1782 646 1912H710Q810 1782 1034 1614L1012 1580L678 1768L344 1580L322 1614ZM128 -2V64H252Q330 64 330 144V1316Q330 1396 252 1396H128V1462Q132 1462 251 1460T422
1458T593 1460T716 1462V1396H592Q514 1396 514 1316V144Q514 64 592 64H716V-2Q712 -2 593 0T422 2T251 0T128 -2Z" />
<glyph unicode="&#xcf;" glyph-name="Idieresis" horiz-adv-x="804" d="M342 1710T342 1746T367 1806T429 1830T490 1806T516 1746T491 1683T429 1656T368 1683ZM840 1710T840 1746T865 1806T927 1830T988 1806T1014 1746T989 1683T927 1656T866 1683ZM128 -2V64H252Q330
64 330 144V1316Q330 1396 252 1396H128V1462Q132 1462 251 1460T422 1458T593 1460T716 1462V1396H592Q514 1396 514 1316V144Q514 64 592 64H716V-2Q712 -2 593 0T422 2T251 0T128 -2Z" />
<glyph unicode="&#xd0;" glyph-name="Eth" horiz-adv-x="1664" d="M96 708V784H330V1320Q330 1402 252 1402Q196 1402 130 1396L128 1460Q361 1480 562 1480Q648 1480 709 1478T857 1466T1010 1439T1151 1388T1284 1308Q1412 1208 1486 1057T1560 730Q1560 546
1495 400T1310 156Q1112 -2 838 -2H716Q712 -2 593 0T422 2T251 0T128 -2V64H252Q330 64 330 144V708H96ZM514 156Q514 76 592 76H836Q1336 76 1336 730Q1336 884 1291 1026T1144 1260Q1052 1344 932 1374T662 1404Q584 1404 549 1379T514 1278V784H852V708H514V156Z"
/>
<glyph unicode="&#xd1;" glyph-name="Ntilde" horiz-adv-x="1640" d="M464 1667Q508 1741 572 1791T716 1842Q811 1842 918 1795Q956 1779 978 1771T1038 1754T1115 1746Q1144 1746 1171 1763T1214 1798T1250 1847L1296 1825Q1252 1751 1188 1701T1044 1650Q946
1650 841 1698Q735 1746 645 1746Q616 1746 589 1729T546 1694T510 1645L464 1667ZM128 -2V64H216Q270 64 300 95T330 180V1316Q330 1396 252 1396H128V1460H504L1280 336V1280Q1280 1334 1250 1365T1166 1396H1078V1462Q1080 1462 1183 1460T1324 1458T1465 1460T1570
1462V1396H1482Q1428 1396 1398 1365T1368 1280V-24H1294L418 1232V180Q418 126 448 95T532 64H620V-2Q618 -2 515 0T374 2T233 0T128 -2Z" />
<glyph unicode="&#xd2;" glyph-name="Ograve" horiz-adv-x="1612" d="M528 1842Q528 1868 545 1890T590 1912Q651 1912 720 1848L976 1609L954 1580L640 1728Q528 1781 528 1842ZM144 541T144 730T199 1058T370 1314Q450 1394 570 1441T826 1488T1081 1441T1282
1314Q1398 1198 1453 1059T1508 730T1453 402T1282 146Q1202 66 1082 19T826 -28T571 19T370 146Q254 262 199 401ZM368 898T368 730T398 413T490 194Q627 36 826 36T1162 194Q1224 264 1254 413T1284 730T1254 1047T1162 1266Q1025 1424 826 1424T490 1266Q428
1196 398 1047Z" />
<glyph unicode="&#xd3;" glyph-name="Oacute" horiz-adv-x="1612" d="M676 1609L932 1848Q1001 1912 1062 1912Q1089 1912 1106 1890T1124 1842Q1124 1781 1012 1728L698 1580L676 1609ZM144 541T144 730T199 1058T370 1314Q450 1394 570 1441T826 1488T1081 1441T1282
1314Q1398 1198 1453 1059T1508 730T1453 402T1282 146Q1202 66 1082 19T826 -28T571 19T370 146Q254 262 199 401ZM368 898T368 730T398 413T490 194Q627 36 826 36T1162 194Q1224 264 1254 413T1284 730T1254 1047T1162 1266Q1025 1424 826 1424T490 1266Q428
1196 398 1047Z" />
<glyph unicode="&#xd4;" glyph-name="Ocircumflex" horiz-adv-x="1612" d="M470 1614Q694 1782 794 1912H858Q958 1782 1182 1614L1160 1580L826 1768L492 1580L470 1614ZM144 541T144 730T199 1058T370 1314Q450 1394 570 1441T826 1488T1081 1441T1282 1314Q1398
1198 1453 1059T1508 730T1453 402T1282 146Q1202 66 1082 19T826 -28T571 19T370 146Q254 262 199 401ZM368 898T368 730T398 413T490 194Q627 36 826 36T1162 194Q1224 264 1254 413T1284 730T1254 1047T1162 1266Q1025 1424 826 1424T490 1266Q428 1196 398
1047Z" />
<glyph unicode="&#xd5;" glyph-name="Otilde" horiz-adv-x="1612" d="M410 1667Q454 1741 518 1791T662 1842Q757 1842 864 1795Q902 1779 924 1771T984 1754T1061 1746Q1090 1746 1117 1763T1160 1798T1196 1847L1242 1825Q1198 1751 1134 1701T990 1650Q892
1650 787 1698Q681 1746 591 1746Q562 1746 535 1729T492 1694T456 1645L410 1667ZM144 541T144 730T199 1058T370 1314Q450 1394 570 1441T826 1488T1081 1441T1282 1314Q1398 1198 1453 1059T1508 730T1453 402T1282 146Q1202 66 1082 19T826 -28T571 19T370
146Q254 262 199 401ZM368 898T368 730T398 413T490 194Q627 36 826 36T1162 194Q1224 264 1254 413T1284 730T1254 1047T1162 1266Q1025 1424 826 1424T490 1266Q428 1196 398 1047Z" />
<glyph unicode="&#xd6;" glyph-name="Odieresis" horiz-adv-x="1612" d="M490 1710T490 1746T515 1806T577 1830T638 1806T664 1746T639 1683T577 1656T516 1683ZM988 1710T988 1746T1013 1806T1075 1830T1136 1806T1162 1746T1137 1683T1075 1656T1014 1683ZM144
541T144 730T199 1058T370 1314Q450 1394 570 1441T826 1488T1081 1441T1282 1314Q1398 1198 1453 1059T1508 730T1453 402T1282 146Q1202 66 1082 19T826 -28T571 19T370 146Q254 262 199 401ZM368 898T368 730T398 413T490 194Q627 36 826 36T1162 194Q1224 264
1254 413T1284 730T1254 1047T1162 1266Q1025 1424 826 1424T490 1266Q428 1196 398 1047Z" />
<glyph unicode="&#xd7;" glyph-name="multiply" horiz-adv-x="1152" d="M179 183L508 513L179 843L246 910L576 581L906 910L973 843L644 513L973 183L906 116L576 445L246 116L179 183Z" />
<glyph unicode="&#xd8;" glyph-name="Oslash" horiz-adv-x="1612" d="M138 30L306 217Q144 419 144 730Q144 919 199 1058T370 1314Q450 1394 570 1441T826 1488Q952 1488 1074 1444T1287 1309L1448 1488L1514 1430L1346 1243Q1508 1041 1508 730Q1508 541 1453
402T1282 146Q1202 66 1082 19T826 -28Q700 -28 578 16T365 151L204 -28L138 30ZM368 730Q368 503 417 340L1199 1211Q1181 1246 1162 1266Q1025 1424 826 1424T490 1266Q428 1196 398 1048T368 730ZM453 249Q471 214 490 194Q627 36 826 36T1162 194Q1224 264
1254 413T1284 730Q1284 957 1235 1120L453 249Z" />
<glyph unicode="&#xd9;" glyph-name="Ugrave" horiz-adv-x="1700" d="M606 1842Q606 1868 623 1890T668 1912Q729 1912 798 1848L1054 1609L1032 1580L718 1728Q606 1781 606 1842ZM128 1396V1462Q132 1462 251 1460T422 1458T593 1460T716 1462V1396H592Q514
1396 514 1316V416Q514 335 546 255T648 124Q769 36 918 36Q1001 36 1079 68T1218 156Q1280 214 1311 297T1342 460V1316Q1342 1396 1264 1396H1140V1462Q1145 1462 1188 1461T1289 1459T1386 1458T1482 1459T1583 1461T1632 1462V1396H1508Q1430 1396 1430 1316V484Q1430
387 1394 281T1280 106Q1212 46 1119 9T918 -28Q640 -28 486 104Q412 167 371 260T330 456V1316Q330 1396 252 1396H128Z" />
<glyph unicode="&#xda;" glyph-name="Uacute" horiz-adv-x="1700" d="M754 1609L1010 1848Q1079 1912 1140 1912Q1167 1912 1184 1890T1202 1842Q1202 1781 1090 1728L776 1580L754 1609ZM128 1396V1462Q132 1462 251 1460T422 1458T593 1460T716 1462V1396H592Q514
1396 514 1316V416Q514 335 546 255T648 124Q769 36 918 36Q1001 36 1079 68T1218 156Q1280 214 1311 297T1342 460V1316Q1342 1396 1264 1396H1140V1462Q1145 1462 1188 1461T1289 1459T1386 1458T1482 1459T1583 1461T1632 1462V1396H1508Q1430 1396 1430 1316V484Q1430
387 1394 281T1280 106Q1212 46 1119 9T918 -28Q640 -28 486 104Q412 167 371 260T330 456V1316Q330 1396 252 1396H128Z" />
<glyph unicode="&#xdb;" glyph-name="Ucircumflex" horiz-adv-x="1700" d="M548 1614Q772 1782 872 1912H936Q1036 1782 1260 1614L1238 1580L904 1768L570 1580L548 1614ZM128 1396V1462Q132 1462 251 1460T422 1458T593 1460T716 1462V1396H592Q514 1396 514
1316V416Q514 335 546 255T648 124Q769 36 918 36Q1001 36 1079 68T1218 156Q1280 214 1311 297T1342 460V1316Q1342 1396 1264 1396H1140V1462Q1145 1462 1188 1461T1289 1459T1386 1458T1482 1459T1583 1461T1632 1462V1396H1508Q1430 1396 1430 1316V484Q1430
387 1394 281T1280 106Q1212 46 1119 9T918 -28Q640 -28 486 104Q412 167 371 260T330 456V1316Q330 1396 252 1396H128Z" />
<glyph unicode="&#xdc;" glyph-name="Udieresis" horiz-adv-x="1700" d="M568 1710T568 1746T593 1806T655 1830T716 1806T742 1746T717 1683T655 1656T594 1683ZM1066 1710T1066 1746T1091 1806T1153 1830T1214 1806T1240 1746T1215 1683T1153 1656T1092 1683ZM128
1396V1462Q132 1462 251 1460T422 1458T593 1460T716 1462V1396H592Q514 1396 514 1316V416Q514 335 546 255T648 124Q769 36 918 36Q1001 36 1079 68T1218 156Q1280 214 1311 297T1342 460V1316Q1342 1396 1264 1396H1140V1462Q1145 1462 1188 1461T1289 1459T1386
1458T1482 1459T1583 1461T1632 1462V1396H1508Q1430 1396 1430 1316V484Q1430 387 1394 281T1280 106Q1212 46 1119 9T918 -28Q640 -28 486 104Q412 167 371 260T330 456V1316Q330 1396 252 1396H128Z" />
<glyph unicode="&#xdd;" glyph-name="Yacute" horiz-adv-x="1600" d="M718 1609L974 1848Q1043 1912 1104 1912Q1131 1912 1148 1890T1166 1842Q1166 1781 1054 1728L740 1580L718 1609ZM92 1396V1462Q111 1462 233 1460T404 1458T575 1460T716 1462V1396H596Q562
1396 536 1375T510 1316Q510 1276 526 1244L854 568L1204 1166Q1240 1228 1240 1288Q1240 1335 1200 1365T1068 1396V1462Q1074 1462 1176 1460T1320 1458T1462 1460T1568 1462V1396H1546Q1477 1396 1427 1347T1318 1202L894 488V146Q894 66 972 66H1108V0Q1098
0 978 2T802 4T627 2T496 0V66H632Q710 66 710 146V480L324 1258Q286 1333 253 1364T168 1396H92Z" />
<glyph unicode="&#xde;" glyph-name="Thorn" horiz-adv-x="1320" d="M128 -2V64H252Q330 64 330 144V1316Q330 1396 252 1396H128V1462Q132 1462 251 1460T422 1458T593 1460T716 1462V1396H592Q514 1396 514 1316V1176H644Q937 1176 1099 1062Q1260 949 1260
766T1099 470Q937 356 644 356H514V144Q514 64 592 64H716V-2Q712 -2 593 0T422 2T251 0T128 -2ZM514 432H668Q731 432 786 442T891 478T978 541T1035 636T1056 766T1035 895T978 991T892 1054T786 1089T668 1100H514V432Z" />
<glyph unicode="&#xdf;" glyph-name="germandbls" horiz-adv-x="1140" d="M74 836Q74 883 82 900H240V966Q240 1043 258 1133T319 1291Q375 1380 465 1428T654 1476Q724 1476 779 1456T866 1403T916 1332T933 1254Q933 1210 915 1167T861 1086T795 1020T719 960Q666
920 648 888T630 806Q630 755 680 697T802 597Q1056 447 1056 280Q1056 150 978 65T788 -20Q716 -20 659 14Q632 30 605 30Q580 30 557 -16H523L476 220L516 240Q561 166 638 101T772 36Q847 36 890 81T934 206Q934 274 894 323T754 444Q711 475 684 497T618 560T559
645T538 740Q538 822 572 876T688 1008Q742 1061 765 1115T789 1246Q789 1318 748 1369T620 1420Q489 1420 423 1283Q403 1242 392 1177T380 1060V-2Q379 -2 348 0T310 2Q276 2 181 0T82 -2V58H190Q240 58 240 108V836H74Z" />
<glyph unicode="&#xe0;" glyph-name="agrave" horiz-adv-x="1030" d="M214 1415Q214 1443 235 1465T292 1488Q364 1488 410 1364L530 1030L486 1008L278 1285Q214 1371 214 1415ZM104 176Q104 226 121 268T167 340T236 395T316 437T403 468Q533 508 657 508V667Q657
743 607 800T487 858Q391 858 349 805Q321 770 309 707Q304 680 285 660T231 640Q193 640 167 663T141 725Q141 807 245 861T483 916Q592 916 676 867Q732 834 764 779T797 654V220Q797 171 814 135T869 98Q920 98 965 164L998 146Q915 -16 790 -16Q748 -16 712
19T661 94L649 90Q604 53 518 19T351 -16Q237 -16 175 30Q104 82 104 176ZM274 186Q274 128 314 93T416 58Q484 58 540 82T657 151V460Q502 456 387 395Q336 368 305 316T274 186Z" />
<glyph unicode="&#xe1;" glyph-name="aacute" horiz-adv-x="1030" d="M446 1030L566 1364Q612 1488 684 1488Q719 1488 740 1466T762 1415Q762 1371 698 1285L490 1008L446 1030ZM104 176Q104 226 121 268T167 340T236 395T316 437T403 468Q533 508 657 508V667Q657
743 607 800T487 858Q391 858 349 805Q321 770 309 707Q304 680 285 660T231 640Q193 640 167 663T141 725Q141 807 245 861T483 916Q592 916 676 867Q732 834 764 779T797 654V220Q797 171 814 135T869 98Q920 98 965 164L998 146Q915 -16 790 -16Q748 -16 712
19T661 94L649 90Q604 53 518 19T351 -16Q237 -16 175 30Q104 82 104 176ZM274 186Q274 128 314 93T416 58Q484 58 540 82T657 151V460Q502 456 387 395Q336 368 305 316T274 186Z" />
<glyph unicode="&#xe2;" glyph-name="acircumflex" horiz-adv-x="1030" d="M208 1038Q375 1247 476 1460H500Q601 1247 768 1038L732 1008L488 1266L244 1008L208 1038ZM104 176Q104 226 121 268T167 340T236 395T316 437T403 468Q533 508 657 508V667Q657 743
607 800T487 858Q391 858 349 805Q321 770 309 707Q304 680 285 660T231 640Q193 640 167 663T141 725Q141 807 245 861T483 916Q592 916 676 867Q732 834 764 779T797 654V220Q797 171 814 135T869 98Q920 98 965 164L998 146Q915 -16 790 -16Q748 -16 712 19T661
94L649 90Q604 53 518 19T351 -16Q237 -16 175 30Q104 82 104 176ZM274 186Q274 128 314 93T416 58Q484 58 540 82T657 151V460Q502 456 387 395Q336 368 305 316T274 186Z" />
<glyph unicode="&#xe3;" glyph-name="atilde" horiz-adv-x="1030" d="M124 1075Q164 1164 231 1219T374 1274Q404 1274 434 1266T482 1248T530 1221Q618 1168 690 1168Q752 1168 812 1280L852 1255Q812 1166 745 1111T602 1056Q533 1056 444 1110Q357 1162 286
1162Q224 1162 164 1050L124 1075ZM104 176Q104 226 121 268T167 340T236 395T316 437T403 468Q533 508 657 508V667Q657 743 607 800T487 858Q391 858 349 805Q321 770 309 707Q304 680 285 660T231 640Q193 640 167 663T141 725Q141 807 245 861T483 916Q592
916 676 867Q732 834 764 779T797 654V220Q797 171 814 135T869 98Q920 98 965 164L998 146Q915 -16 790 -16Q748 -16 712 19T661 94L649 90Q604 53 518 19T351 -16Q237 -16 175 30Q104 82 104 176ZM274 186Q274 128 314 93T416 58Q484 58 540 82T657 151V460Q502
456 387 395Q336 368 305 316T274 186Z" />
<glyph unicode="&#xe4;" glyph-name="adieresis" horiz-adv-x="1030" d="M188 1166T188 1208T215 1277T284 1304T353 1277T380 1208T353 1139T284 1112T215 1139ZM596 1166T596 1208T623 1277T692 1304T761 1277T788 1208T761 1139T692 1112T623 1139ZM104 176Q104
226 121 268T167 340T236 395T316 437T403 468Q533 508 657 508V667Q657 743 607 800T487 858Q391 858 349 805Q321 770 309 707Q304 680 285 660T231 640Q193 640 167 663T141 725Q141 807 245 861T483 916Q592 916 676 867Q732 834 764 779T797 654V220Q797 171
814 135T869 98Q920 98 965 164L998 146Q915 -16 790 -16Q748 -16 712 19T661 94L649 90Q604 53 518 19T351 -16Q237 -16 175 30Q104 82 104 176ZM274 186Q274 128 314 93T416 58Q484 58 540 82T657 151V460Q502 456 387 395Q336 368 305 316T274 186Z" />
<glyph unicode="&#xe5;" glyph-name="aring" horiz-adv-x="1030" d="M258 1159T258 1258T323 1422T488 1488T652 1423T718 1258T653 1094T488 1028T324 1093ZM314 1258Q314 1184 364 1134T488 1084T612 1134T662 1258T612 1382T488 1432Q416 1432 365 1382T314
1258ZM104 176Q104 226 121 268T167 340T236 395T316 437T403 468Q533 508 657 508V667Q657 743 607 800T487 858Q391 858 349 805Q321 770 309 707Q304 680 285 660T231 640Q193 640 167 663T141 725Q141 807 245 861T483 916Q592 916 676 867Q732 834 764 779T797
654V220Q797 171 814 135T869 98Q920 98 965 164L998 146Q915 -16 790 -16Q748 -16 712 19T661 94L649 90Q604 53 518 19T351 -16Q237 -16 175 30Q104 82 104 176ZM274 186Q274 128 314 93T416 58Q484 58 540 82T657 151V460Q502 456 387 395Q336 368 305 316T274
186Z" />
<glyph unicode="&#xe6;" glyph-name="ae" horiz-adv-x="1526" d="M104 175Q104 225 121 267T167 340T235 395T315 437T403 468Q536 509 657 524V665Q657 741 607 799T487 858Q390 858 349 807Q321 772 309 709Q304 682 285 662T231 642Q193 642 167 665T141 727Q141
809 245 862T483 916Q583 916 660 875T771 764Q916 916 1084 916Q1168 916 1230 894T1346 814Q1441 714 1458 528H830Q826 497 826 457Q826 282 906 179T1133 76Q1206 76 1274 117T1383 213L1420 176Q1375 104 1287 44T1104 -16Q1027 -16 961 3T850 54T780 109T738
157Q662 87 560 35T351 -17Q237 -17 175 29Q104 81 104 175ZM274 191Q274 132 314 95T416 57Q491 57 572 98T709 201Q656 299 656 476Q490 450 398 400Q274 332 274 191ZM839 586H1311Q1305 685 1247 763T1105 842Q1003 842 934 773T839 586Z" />
<glyph unicode="&#xe7;" glyph-name="ccedilla" horiz-adv-x="948" d="M84 436Q84 640 215 779Q342 916 512 916Q634 916 714 873Q777 839 816 791T856 702Q856 659 833 636T770 613Q734 613 709 636T674 696Q659 758 639 785Q597 842 533 842Q404 842 329 734T254
457Q254 282 334 179T561 76Q634 76 702 117T811 213L848 176Q812 119 746 67T604 -6L547 -91Q526 -125 526 -141Q526 -174 585 -206T675 -267T706 -337Q706 -408 648 -450T503 -492Q401 -492 312 -438L332 -400Q411 -444 502 -444Q545 -444 573 -426T602 -371Q602
-344 579 -324T504 -281Q430 -246 430 -208Q430 -175 458 -133L537 -16H532Q348 -16 221 97Q84 217 84 436Z" />
<glyph unicode="&#xe8;" glyph-name="egrave" horiz-adv-x="954" d="M238 1415Q238 1443 259 1465T316 1488Q388 1488 434 1364L554 1030L510 1008L302 1285Q238 1371 238 1415ZM84 436Q84 646 212 777Q350 916 512 916Q596 916 658 894T774 814Q869 714 886 528H258Q254
497 254 457Q254 282 334 179T561 76Q634 76 702 117T811 213L848 176Q803 104 715 44T532 -16Q348 -16 221 97Q84 217 84 436ZM267 586H739Q733 685 675 763T533 842Q431 842 362 773T267 586Z" />
<glyph unicode="&#xe9;" glyph-name="eacute" horiz-adv-x="954" d="M470 1030L590 1364Q636 1488 708 1488Q743 1488 764 1466T786 1415Q786 1371 722 1285L514 1008L470 1030ZM84 436Q84 646 212 777Q350 916 512 916Q596 916 658 894T774 814Q869 714 886 528H258Q254
497 254 457Q254 282 334 179T561 76Q634 76 702 117T811 213L848 176Q803 104 715 44T532 -16Q348 -16 221 97Q84 217 84 436ZM267 586H739Q733 685 675 763T533 842Q431 842 362 773T267 586Z" />
<glyph unicode="&#xea;" glyph-name="ecircumflex" horiz-adv-x="954" d="M232 1038Q399 1247 500 1460H524Q625 1247 792 1038L756 1008L512 1266L268 1008L232 1038ZM84 436Q84 646 212 777Q350 916 512 916Q596 916 658 894T774 814Q869 714 886 528H258Q254
497 254 457Q254 282 334 179T561 76Q634 76 702 117T811 213L848 176Q803 104 715 44T532 -16Q348 -16 221 97Q84 217 84 436ZM267 586H739Q733 685 675 763T533 842Q431 842 362 773T267 586Z" />
<glyph unicode="&#xeb;" glyph-name="edieresis" horiz-adv-x="954" d="M212 1166T212 1208T239 1277T308 1304T377 1277T404 1208T377 1139T308 1112T239 1139ZM620 1166T620 1208T647 1277T716 1304T785 1277T812 1208T785 1139T716 1112T647 1139ZM84 436Q84
646 212 777Q350 916 512 916Q596 916 658 894T774 814Q869 714 886 528H258Q254 497 254 457Q254 282 334 179T561 76Q634 76 702 117T811 213L848 176Q803 104 715 44T532 -16Q348 -16 221 97Q84 217 84 436ZM267 586H739Q733 685 675 763T533 842Q431 842 362
773T267 586Z" />
<glyph unicode="&#xec;" glyph-name="igrave" horiz-adv-x="584" d="M34 1415Q34 1443 55 1465T112 1488Q184 1488 230 1364L350 1030L306 1008L98 1285Q34 1371 34 1415ZM80 -2V58H188Q238 58 238 108V695Q238 761 174 768L80 778V822L346 910H378V108Q378 58
428 58H536V-2Q533 -2 438 0T308 2T179 0T80 -2Z" />
<glyph unicode="&#xed;" glyph-name="iacute" horiz-adv-x="584" d="M266 1030L386 1364Q432 1488 504 1488Q539 1488 560 1466T582 1415Q582 1371 518 1285L310 1008L266 1030ZM80 -2V58H188Q238 58 238 108V695Q238 761 174 768L80 778V822L346 910H378V108Q378
58 428 58H536V-2Q533 -2 438 0T308 2T179 0T80 -2Z" />
<glyph unicode="&#xee;" glyph-name="icircumflex" horiz-adv-x="584" d="M28 1038Q195 1247 296 1460H320Q421 1247 588 1038L552 1008L308 1266L64 1008L28 1038ZM80 -2V58H188Q238 58 238 108V695Q238 761 174 768L80 778V822L346 910H378V108Q378 58 428 58H536V-2Q533
-2 438 0T308 2T179 0T80 -2Z" />
<glyph unicode="&#xef;" glyph-name="idieresis" horiz-adv-x="584" d="M16 1166T16 1208T43 1277T112 1304T181 1277T208 1208T181 1139T112 1112T43 1139ZM376 1166T376 1208T403 1277T472 1304T541 1277T568 1208T541 1139T472 1112T403 1139ZM80 -2V58H188Q238
58 238 108V695Q238 761 174 768L80 778V822L346 910H378V108Q378 58 428 58H536V-2Q533 -2 438 0T308 2T179 0T80 -2Z" />
<glyph unicode="&#xf0;" glyph-name="eth" horiz-adv-x="1080" d="M84 450Q84 650 215 783T540 916Q630 916 708 886L722 900Q658 1057 534 1192L272 1028L242 1078L492 1235Q379 1345 262 1416L308 1488Q447 1418 594 1298L869 1470L899 1420L640 1258L678 1223Q829
1078 912 897T996 548Q996 441 966 342T880 162T736 33T540 -16Q346 -16 215 117T84 450ZM254 618T254 450T331 162T540 42Q628 42 694 105T793 263T826 468Q826 576 794 663T695 804T540 858Q409 858 332 738Z" />
<glyph unicode="&#xf1;" glyph-name="ntilde" horiz-adv-x="1160" d="M228 1075Q268 1164 335 1219T478 1274Q508 1274 538 1266T586 1248T634 1221Q722 1168 794 1168Q856 1168 916 1280L956 1255Q916 1166 849 1111T706 1056Q637 1056 548 1110Q461 1162 390
1162Q328 1162 268 1050L228 1075ZM74 -2V58H182Q232 58 232 108V695Q232 761 168 768L74 778V822L340 910H372V762L379 756Q438 815 522 865T680 916Q797 916 870 853Q958 771 958 632V108Q958 58 1008 58H1116V-2Q1113 -2 1018 0T888 2T759 0T660 -2V58H768Q818
58 818 108V607Q818 737 755 784Q726 807 697 815T614 824Q521 824 372 689V108Q372 58 422 58H530V-2Q527 -2 432 0T302 2T173 0T74 -2Z" />
<glyph unicode="&#xf2;" glyph-name="ograve" horiz-adv-x="1080" d="M266 1415Q266 1443 287 1465T344 1488Q416 1488 462 1364L582 1030L538 1008L330 1285Q266 1371 266 1415ZM84 450Q84 650 215 783T540 916T865 783T996 450Q996 251 865 118T540 -16T215
117T84 450ZM254 618T254 450T331 162T540 42T748 162T826 450T749 738T540 858T332 738Z" />
<glyph unicode="&#xf3;" glyph-name="oacute" horiz-adv-x="1080" d="M498 1030L618 1364Q664 1488 736 1488Q771 1488 792 1466T814 1415Q814 1371 750 1285L542 1008L498 1030ZM84 450Q84 650 215 783T540 916T865 783T996 450Q996 251 865 118T540 -16T215
117T84 450ZM254 618T254 450T331 162T540 42T748 162T826 450T749 738T540 858T332 738Z" />
<glyph unicode="&#xf4;" glyph-name="ocircumflex" horiz-adv-x="1080" d="M260 1038Q427 1247 528 1460H552Q653 1247 820 1038L784 1008L540 1266L296 1008L260 1038ZM84 450Q84 650 215 783T540 916T865 783T996 450Q996 251 865 118T540 -16T215 117T84 450ZM254
618T254 450T331 162T540 42T748 162T826 450T749 738T540 858T332 738Z" />
<glyph unicode="&#xf5;" glyph-name="otilde" horiz-adv-x="1080" d="M176 1075Q216 1164 283 1219T426 1274Q456 1274 486 1266T534 1248T582 1221Q670 1168 742 1168Q804 1168 864 1280L904 1255Q864 1166 797 1111T654 1056Q585 1056 496 1110Q409 1162 338
1162Q276 1162 216 1050L176 1075ZM84 450Q84 650 215 783T540 916T865 783T996 450Q996 251 865 118T540 -16T215 117T84 450ZM254 618T254 450T331 162T540 42T748 162T826 450T749 738T540 858T332 738Z" />
<glyph unicode="&#xf6;" glyph-name="odieresis" horiz-adv-x="1080" d="M240 1166T240 1208T267 1277T336 1304T405 1277T432 1208T405 1139T336 1112T267 1139ZM648 1166T648 1208T675 1277T744 1304T813 1277T840 1208T813 1139T744 1112T675 1139ZM84 450Q84
650 215 783T540 916T865 783T996 450Q996 251 865 118T540 -16T215 117T84 450ZM254 618T254 450T331 162T540 42T748 162T826 450T749 738T540 858T332 738Z" />
<glyph unicode="&#xf7;" glyph-name="divide" horiz-adv-x="1152" d="M448 146T448 200T485 291T576 328T667 291T704 200T667 109T576 72T485 109ZM62 466V562H1090V466H62ZM448 774T448 828T485 919T576 956T667 919T704 828T667 737T576 700T485 737Z" />
<glyph unicode="&#xf8;" glyph-name="oslash" horiz-adv-x="1080" d="M84 28L194 141Q84 270 84 450Q84 650 215 783T540 916Q717 916 843 804L952 916L996 872L886 760Q996 631 996 450Q996 251 865 118T540 -16Q365 -16 238 95L130 -16L84 28ZM254 450Q254 337
291 240L760 720Q679 858 540 858Q409 858 332 738T254 450ZM320 179Q402 42 540 42Q671 42 748 162T826 450Q826 563 789 660L320 179Z" />
<glyph unicode="&#xf9;" glyph-name="ugrave" horiz-adv-x="1060" d="M238 1415Q238 1443 259 1465T316 1488Q388 1488 434 1364L554 1030L510 1008L302 1285Q238 1371 238 1415ZM44 834V892L318 908V291Q318 230 328 188T372 117Q400 94 429 84T506 74Q595 74
732 194V751Q732 796 701 815T598 834V892L872 908V149Q872 104 903 85T1006 66V8L732 -8V122L726 128Q567 -18 440 -18Q315 -18 257 43Q178 123 178 258V751Q178 796 147 815T44 834Z" />
<glyph unicode="&#xfa;" glyph-name="uacute" horiz-adv-x="1060" d="M470 1030L590 1364Q636 1488 708 1488Q743 1488 764 1466T786 1415Q786 1371 722 1285L514 1008L470 1030ZM44 834V892L318 908V291Q318 230 328 188T372 117Q400 94 429 84T506 74Q595 74
732 194V751Q732 796 701 815T598 834V892L872 908V149Q872 104 903 85T1006 66V8L732 -8V122L726 128Q567 -18 440 -18Q315 -18 257 43Q178 123 178 258V751Q178 796 147 815T44 834Z" />
<glyph unicode="&#xfb;" glyph-name="ucircumflex" horiz-adv-x="1060" d="M232 1038Q399 1247 500 1460H524Q625 1247 792 1038L756 1008L512 1266L268 1008L232 1038ZM44 834V892L318 908V291Q318 230 328 188T372 117Q400 94 429 84T506 74Q595 74 732 194V751Q732
796 701 815T598 834V892L872 908V149Q872 104 903 85T1006 66V8L732 -8V122L726 128Q567 -18 440 -18Q315 -18 257 43Q178 123 178 258V751Q178 796 147 815T44 834Z" />
<glyph unicode="&#xfc;" glyph-name="udieresis" horiz-adv-x="1060" d="M212 1166T212 1208T239 1277T308 1304T377 1277T404 1208T377 1139T308 1112T239 1139ZM620 1166T620 1208T647 1277T716 1304T785 1277T812 1208T785 1139T716 1112T647 1139ZM44 834V892L318
908V291Q318 230 328 188T372 117Q400 94 429 84T506 74Q595 74 732 194V751Q732 796 701 815T598 834V892L872 908V149Q872 104 903 85T1006 66V8L732 -8V122L726 128Q567 -18 440 -18Q315 -18 257 43Q178 123 178 258V751Q178 796 147 815T44 834Z" />
<glyph unicode="&#xfd;" glyph-name="yacute" horiz-adv-x="1102" d="M526 1030L646 1364Q692 1488 764 1488Q799 1488 820 1466T842 1415Q842 1371 778 1285L570 1008L526 1030ZM8 -406Q8 -359 38 -333T107 -307Q141 -307 174 -327Q207 -346 235 -346Q274 -346
315 -303T390 -193L496 20L205 700Q168 785 138 809Q97 842 24 842V902Q31 902 113 900T232 898T355 900T448 902V842H389Q368 842 349 831T330 802Q330 770 344 738L576 174L807 649Q846 729 846 770Q846 798 827 820T779 842H725V902Q729 902 802 900T904 898T1003
900T1078 902V842H1038Q1008 842 983 814Q951 776 929 729L453 -236Q390 -363 320 -431Q233 -516 132 -516Q80 -516 44 -488T8 -406Z" />
<glyph unicode="&#xfe;" glyph-name="thorn" horiz-adv-x="1112" d="M40 -440H148Q198 -440 198 -390V1263Q198 1329 134 1336L40 1346V1390L306 1478H338V796L346 791Q501 916 626 916Q706 916 778 892T889 828Q1028 688 1028 491Q1028 276 926 135Q816 -16 608
-16Q556 -16 483 7T344 71L338 67V-390Q338 -440 388 -440H496V-500Q493 -500 398 -498T268 -496T139 -498T40 -500V-440ZM338 136Q394 97 459 74T576 50Q637 50 691 73T778 141Q819 196 838 271T858 418Q858 479 856 516T838 611T791 713Q715 824 578 824Q461
824 338 714V136Z" />
<glyph unicode="&#xff;" glyph-name="ydieresis" horiz-adv-x="1102" d="M268 1166T268 1208T295 1277T364 1304T433 1277T460 1208T433 1139T364 1112T295 1139ZM676 1166T676 1208T703 1277T772 1304T841 1277T868 1208T841 1139T772 1112T703 1139ZM8 -406Q8
-359 38 -333T107 -307Q141 -307 174 -327Q207 -346 235 -346Q274 -346 315 -303T390 -193L496 20L205 700Q168 785 138 809Q97 842 24 842V902Q31 902 113 900T232 898T355 900T448 902V842H389Q368 842 349 831T330 802Q330 770 344 738L576 174L807 649Q846
729 846 770Q846 798 827 820T779 842H725V902Q729 902 802 900T904 898T1003 900T1078 902V842H1038Q1008 842 983 814Q951 776 929 729L453 -236Q390 -363 320 -431Q233 -516 132 -516Q80 -516 44 -488T8 -406Z" />
<glyph unicode="&#x100;" glyph-name="Amacron" horiz-adv-x="1624" d="M548 1702V1790H1152V1702H548ZM88 -2V64H110Q185 64 237 112T326 258L772 1452L936 1488L1348 284Q1370 229 1383 198T1418 132T1463 80T1516 64H1588V-2Q1569 -2 1463 0T1308 2T1121 0T964
-2V64H1104Q1138 64 1162 85T1186 144Q1186 172 1170 216L1062 540H524L430 282Q402 208 402 158Q402 64 588 64V-2Q582 -2 480 0T336 2T194 0T88 -2ZM554 616H1036L808 1300L554 616Z" />
<glyph unicode="&#x101;" glyph-name="amacron" horiz-adv-x="1030" d="M194 1134V1222H782V1134H194ZM104 176Q104 226 121 268T167 340T236 395T316 437T403 468Q533 508 657 508V667Q657 743 607 800T487 858Q391 858 349 805Q321 770 309 707Q304 680 285
660T231 640Q193 640 167 663T141 725Q141 807 245 861T483 916Q592 916 676 867Q732 834 764 779T797 654V220Q797 171 814 135T869 98Q920 98 965 164L998 146Q915 -16 790 -16Q748 -16 712 19T661 94L649 90Q604 53 518 19T351 -16Q237 -16 175 30Q104 82 104
176ZM274 186Q274 128 314 93T416 58Q484 58 540 82T657 151V460Q502 456 387 395Q336 368 305 316T274 186Z" />
<glyph unicode="&#x102;" glyph-name="Abreve" horiz-adv-x="1624" d="M490 1910H538Q572 1809 651 1751T850 1692T1048 1750T1162 1910H1210Q1184 1775 1082 1686T850 1596T618 1685T490 1910ZM88 -2V64H110Q185 64 237 112T326 258L772 1452L936 1488L1348 284Q1370
229 1383 198T1418 132T1463 80T1516 64H1588V-2Q1569 -2 1463 0T1308 2T1121 0T964 -2V64H1104Q1138 64 1162 85T1186 144Q1186 172 1170 216L1062 540H524L430 282Q402 208 402 158Q402 64 588 64V-2Q582 -2 480 0T336 2T194 0T88 -2ZM554 616H1036L808 1300L554
616Z" />
<glyph unicode="&#x103;" glyph-name="abreve" horiz-adv-x="1030" d="M156 1432H204Q239 1318 311 1250T488 1182T664 1250T772 1432H820Q805 1340 765 1262T652 1131T488 1078T325 1131T212 1262T156 1432ZM104 176Q104 226 121 268T167 340T236 395T316 437T403
468Q533 508 657 508V667Q657 743 607 800T487 858Q391 858 349 805Q321 770 309 707Q304 680 285 660T231 640Q193 640 167 663T141 725Q141 807 245 861T483 916Q592 916 676 867Q732 834 764 779T797 654V220Q797 171 814 135T869 98Q920 98 965 164L998 146Q915
-16 790 -16Q748 -16 712 19T661 94L649 90Q604 53 518 19T351 -16Q237 -16 175 30Q104 82 104 176ZM274 186Q274 128 314 93T416 58Q484 58 540 82T657 151V460Q502 456 387 395Q336 368 305 316T274 186Z" />
<glyph unicode="&#x104;" glyph-name="Aogonek" horiz-adv-x="1624" d="M88 -2V64H110Q185 64 237 112T326 258L772 1452L936 1488L1348 284Q1370 229 1383 198T1418 132T1463 80T1516 64H1588V-2Q1565 -2 1478 0T1341 3Q1144 -148 1144 -324Q1144 -366 1170 -392T1231
-418Q1262 -418 1283 -401Q1316 -375 1328 -375Q1341 -375 1354 -388T1367 -411Q1367 -456 1314 -503T1203 -550Q1129 -550 1079 -506T1028 -379Q1028 -287 1092 -185T1264 -3V3Q1207 2 1097 0T964 -2V64H1104Q1138 64 1162 85T1186 144Q1186 172 1170 216L1062
540H524L430 282Q402 208 402 158Q402 64 588 64V-2Q582 -2 480 0T336 2T194 0T88 -2ZM554 616H1036L808 1300L554 616Z" />
<glyph unicode="&#x105;" glyph-name="aogonek" horiz-adv-x="1030" d="M104 176Q104 226 121 268T167 340T236 395T316 437T403 468Q533 508 657 508V667Q657 743 607 800T487 858Q391 858 349 805Q321 770 309 707Q304 680 285 660T231 640Q193 640 167 663T141
725Q141 807 245 861T483 916Q592 916 676 867Q732 834 764 779T797 654V220Q797 171 814 135T869 98Q920 98 965 164L998 146Q948 50 874 -1Q784 -63 736 -124Q681 -195 681 -282Q681 -319 703 -341T760 -364Q792 -364 814 -345Q843 -318 858 -318Q870 -318 882
-329T895 -352Q895 -395 848 -437T751 -480Q677 -480 628 -439T579 -318Q579 -241 633 -165T781 -22V-16Q741 -11 708 23T661 94L649 90Q604 53 518 19T351 -16Q237 -16 175 30Q104 82 104 176ZM274 186Q274 128 314 93T416 58Q484 58 540 82T657 151V460Q502 456
387 395Q336 368 305 316T274 186Z" />
<glyph unicode="&#x106;" glyph-name="Cacute" horiz-adv-x="1468" d="M704 1609L960 1848Q1029 1912 1090 1912Q1117 1912 1134 1890T1152 1842Q1152 1781 1040 1728L726 1580L704 1609ZM144 720Q144 1070 356 1288Q449 1384 572 1436T832 1488Q962 1488 1072
1446Q1159 1412 1198 1412Q1225 1412 1241 1430T1268 1488H1316L1384 1148L1326 1120Q1233 1248 1122 1320T864 1392Q728 1392 622 1328T448 1144Q401 1061 385 962T368 736Q368 380 540 208Q609 139 702 104T880 68Q1055 68 1174 130T1402 322L1446 284Q1348 139
1195 56T868 -28Q588 -28 400 136Q282 239 213 392T144 720Z" />
<glyph unicode="&#x107;" glyph-name="cacute" horiz-adv-x="948" d="M482 1030L602 1364Q648 1488 720 1488Q755 1488 776 1466T798 1415Q798 1371 734 1285L526 1008L482 1030ZM84 436Q84 640 215 779Q342 916 512 916Q634 916 714 873Q777 839 816 791T856
702Q856 659 833 636T770 613Q734 613 709 636T674 696Q659 758 639 785Q597 842 533 842Q404 842 329 734T254 457Q254 282 334 179T561 76Q634 76 702 117T811 213L848 176Q803 104 715 44T532 -16Q348 -16 221 97Q84 217 84 436Z" />
<glyph unicode="&#x108;" glyph-name="Ccircumflex" horiz-adv-x="1468" d="M498 1614Q722 1782 822 1912H886Q986 1782 1210 1614L1188 1580L854 1768L520 1580L498 1614ZM144 720Q144 1070 356 1288Q449 1384 572 1436T832 1488Q962 1488 1072 1446Q1159 1412
1198 1412Q1225 1412 1241 1430T1268 1488H1316L1384 1148L1326 1120Q1233 1248 1122 1320T864 1392Q728 1392 622 1328T448 1144Q401 1061 385 962T368 736Q368 380 540 208Q609 139 702 104T880 68Q1055 68 1174 130T1402 322L1446 284Q1348 139 1195 56T868
-28Q588 -28 400 136Q282 239 213 392T144 720Z" />
<glyph unicode="&#x109;" glyph-name="ccircumflex" horiz-adv-x="948" d="M244 1038Q411 1247 512 1460H536Q637 1247 804 1038L768 1008L524 1266L280 1008L244 1038ZM84 436Q84 640 215 779Q342 916 512 916Q634 916 714 873Q777 839 816 791T856 702Q856 659
833 636T770 613Q734 613 709 636T674 696Q659 758 639 785Q597 842 533 842Q404 842 329 734T254 457Q254 282 334 179T561 76Q634 76 702 117T811 213L848 176Q803 104 715 44T532 -16Q348 -16 221 97Q84 217 84 436Z" />
<glyph unicode="&#x10a;" glyph-name="Cdotaccent" horiz-adv-x="1468" d="M758 1704T758 1746T785 1815T854 1842T923 1815T950 1746T923 1677T854 1650T785 1677ZM144 720Q144 1070 356 1288Q449 1384 572 1436T832 1488Q962 1488 1072 1446Q1159 1412 1198
1412Q1225 1412 1241 1430T1268 1488H1316L1384 1148L1326 1120Q1233 1248 1122 1320T864 1392Q728 1392 622 1328T448 1144Q401 1061 385 962T368 736Q368 380 540 208Q609 139 702 104T880 68Q1055 68 1174 130T1402 322L1446 284Q1348 139 1195 56T868 -28Q588
-28 400 136Q282 239 213 392T144 720Z" />
<glyph unicode="&#x10b;" glyph-name="cdotaccent" horiz-adv-x="948" d="M400 1154T400 1206T436 1294T524 1330T612 1294T648 1206T612 1118T524 1082T436 1118ZM84 436Q84 640 215 779Q342 916 512 916Q634 916 714 873Q777 839 816 791T856 702Q856 659 833
636T770 613Q734 613 709 636T674 696Q659 758 639 785Q597 842 533 842Q404 842 329 734T254 457Q254 282 334 179T561 76Q634 76 702 117T811 213L848 176Q803 104 715 44T532 -16Q348 -16 221 97Q84 217 84 436Z" />
<glyph unicode="&#x10c;" glyph-name="Ccaron" horiz-adv-x="1468" d="M498 1878L520 1912L854 1724L1188 1912L1210 1878Q986 1710 886 1580H822Q722 1710 498 1878ZM144 720Q144 1070 356 1288Q449 1384 572 1436T832 1488Q962 1488 1072 1446Q1159 1412 1198
1412Q1225 1412 1241 1430T1268 1488H1316L1384 1148L1326 1120Q1233 1248 1122 1320T864 1392Q728 1392 622 1328T448 1144Q401 1061 385 962T368 736Q368 380 540 208Q609 139 702 104T880 68Q1055 68 1174 130T1402 322L1446 284Q1348 139 1195 56T868 -28Q588
-28 400 136Q282 239 213 392T144 720Z" />
<glyph unicode="&#x10d;" glyph-name="ccaron" horiz-adv-x="948" d="M244 1430L280 1460L524 1202L768 1460L804 1430Q637 1221 536 1008H512Q411 1221 244 1430ZM84 436Q84 640 215 779Q342 916 512 916Q634 916 714 873Q777 839 816 791T856 702Q856 659 833
636T770 613Q734 613 709 636T674 696Q659 758 639 785Q597 842 533 842Q404 842 329 734T254 457Q254 282 334 179T561 76Q634 76 702 117T811 213L848 176Q803 104 715 44T532 -16Q348 -16 221 97Q84 217 84 436Z" />
<glyph unicode="&#x10e;" glyph-name="Dcaron" horiz-adv-x="1664" d="M342 1878L364 1912L698 1724L1032 1912L1054 1878Q830 1710 730 1580H666Q566 1710 342 1878ZM128 -2V64H252Q330 64 330 144V1320Q330 1402 252 1402Q196 1402 130 1396L128 1460Q361 1480
562 1480Q648 1480 709 1478T857 1466T1010 1439T1151 1388T1284 1308Q1412 1208 1486 1057T1560 730Q1560 546 1495 400T1310 156Q1112 -2 838 -2H716Q712 -2 593 0T422 2T251 0T128 -2ZM514 156Q514 76 592 76H836Q1336 76 1336 730Q1336 884 1291 1026T1144
1260Q1052 1344 932 1374T662 1404Q584 1404 549 1379T514 1278V156Z" />
<glyph unicode="&#x10f;" glyph-name="dcaron" horiz-adv-x="1280" d="M1012 987Q1088 1031 1129 1079Q1182 1142 1182 1210Q1182 1249 1151 1279Q1132 1296 1091 1302Q1060 1306 1038 1328T1015 1390Q1015 1434 1042 1461T1106 1488Q1168 1488 1210 1432Q1254
1373 1254 1273Q1254 1222 1235 1167T1179 1069Q1124 1003 1032 953L1012 987ZM84 409Q84 624 186 765Q296 916 504 916Q556 916 630 893T766 830L774 836V1263Q774 1329 710 1336L616 1346V1390L882 1478H914V149Q914 104 945 85T1048 66V8L774 -8V106L768 110Q705
57 628 21T486 -16Q406 -16 334 8T223 72Q84 212 84 409ZM254 482Q254 421 256 384T274 289T321 187Q397 76 534 76Q651 76 774 186V764Q718 803 653 826T536 850Q475 850 421 827T334 759Q293 704 274 629T254 482Z" />
<glyph unicode="&#x110;" glyph-name="Dcroat" horiz-adv-x="1664" d="M96 708V784H330V1320Q330 1402 252 1402Q196 1402 130 1396L128 1460Q361 1480 562 1480Q648 1480 709 1478T857 1466T1010 1439T1151 1388T1284 1308Q1412 1208 1486 1057T1560 730Q1560
546 1495 400T1310 156Q1112 -2 838 -2H716Q712 -2 593 0T422 2T251 0T128 -2V64H252Q330 64 330 144V708H96ZM514 156Q514 76 592 76H836Q1336 76 1336 730Q1336 884 1291 1026T1144 1260Q1052 1344 932 1374T662 1404Q584 1404 549 1379T514 1278V784H852V708H514V156Z"
/>
<glyph unicode="&#x111;" glyph-name="" horiz-adv-x="1108" d="M84 409Q84 624 186 765Q296 916 504 916Q556 916 630 893T766 830L774 836V1100H334V1164H774V1263Q774 1329 710 1336L616 1346V1390L882 1478H914V1164H1082V1100H914V149Q914 104 945 85T1048
66V8L774 -8V106L768 110Q705 57 628 21T486 -16Q406 -16 334 8T223 72Q84 212 84 409ZM254 482Q254 421 256 384T274 289T321 187Q397 76 534 76Q651 76 774 186V764Q718 803 653 826T536 850Q475 850 421 827T334 759Q293 704 274 629T254 482Z" />
<glyph unicode="&#x112;" glyph-name="Emacron" horiz-adv-x="1460" d="M434 1702V1790H1038V1702H434ZM128 -2V64H252Q330 64 330 144V1316Q330 1396 252 1396H128V1462Q132 1462 251 1460T422 1458T593 1460T716 1462H1228L1344 1148L1284 1120Q1255 1169 1211
1223T1116 1310Q1001 1384 872 1384H592Q514 1384 514 1304V796H738Q829 796 888 853T956 1036H1016V480H956Q940 720 738 720H514V156Q514 76 592 76H956Q1031 76 1097 99T1204 162Q1251 210 1289 278T1348 406L1412 386L1320 -2H716Q712 -2 593 0T422 2T251 0T128
-2Z" />
<glyph unicode="&#x113;" glyph-name="emacron" horiz-adv-x="954" d="M218 1134V1222H806V1134H218ZM84 436Q84 646 212 777Q350 916 512 916Q596 916 658 894T774 814Q869 714 886 528H258Q254 497 254 457Q254 282 334 179T561 76Q634 76 702 117T811 213L848
176Q803 104 715 44T532 -16Q348 -16 221 97Q84 217 84 436ZM267 586H739Q733 685 675 763T533 842Q431 842 362 773T267 586Z" />
<glyph unicode="&#x114;" glyph-name="Ebreve" horiz-adv-x="1460" d="M376 1910H424Q458 1809 537 1751T736 1692T934 1750T1048 1910H1096Q1070 1775 968 1686T736 1596T504 1685T376 1910ZM128 -2V64H252Q330 64 330 144V1316Q330 1396 252 1396H128V1462Q132
1462 251 1460T422 1458T593 1460T716 1462H1228L1344 1148L1284 1120Q1255 1169 1211 1223T1116 1310Q1001 1384 872 1384H592Q514 1384 514 1304V796H738Q829 796 888 853T956 1036H1016V480H956Q940 720 738 720H514V156Q514 76 592 76H956Q1031 76 1097 99T1204
162Q1251 210 1289 278T1348 406L1412 386L1320 -2H716Q712 -2 593 0T422 2T251 0T128 -2Z" />
<glyph unicode="&#x115;" glyph-name="ebreve" horiz-adv-x="954" d="M180 1432H228Q263 1318 335 1250T512 1182T688 1250T796 1432H844Q829 1340 789 1262T676 1131T512 1078T349 1131T236 1262T180 1432ZM84 436Q84 646 212 777Q350 916 512 916Q596 916 658
894T774 814Q869 714 886 528H258Q254 497 254 457Q254 282 334 179T561 76Q634 76 702 117T811 213L848 176Q803 104 715 44T532 -16Q348 -16 221 97Q84 217 84 436ZM267 586H739Q733 685 675 763T533 842Q431 842 362 773T267 586Z" />
<glyph unicode="&#x116;" glyph-name="Edotaccent" horiz-adv-x="1460" d="M640 1704T640 1746T667 1815T736 1842T805 1815T832 1746T805 1677T736 1650T667 1677ZM128 -2V64H252Q330 64 330 144V1316Q330 1396 252 1396H128V1462Q132 1462 251 1460T422 1458T593
1460T716 1462H1228L1344 1148L1284 1120Q1255 1169 1211 1223T1116 1310Q1001 1384 872 1384H592Q514 1384 514 1304V796H738Q829 796 888 853T956 1036H1016V480H956Q940 720 738 720H514V156Q514 76 592 76H956Q1031 76 1097 99T1204 162Q1251 210 1289 278T1348
406L1412 386L1320 -2H716Q712 -2 593 0T422 2T251 0T128 -2Z" />
<glyph unicode="&#x117;" glyph-name="edotaccent" horiz-adv-x="954" d="M388 1154T388 1206T424 1294T512 1330T600 1294T636 1206T600 1118T512 1082T424 1118ZM84 436Q84 646 212 777Q350 916 512 916Q596 916 658 894T774 814Q869 714 886 528H258Q254 497
254 457Q254 282 334 179T561 76Q634 76 702 117T811 213L848 176Q803 104 715 44T532 -16Q348 -16 221 97Q84 217 84 436ZM267 586H739Q733 685 675 763T533 842Q431 842 362 773T267 586Z" />
<glyph unicode="&#x118;" glyph-name="Eogonek" horiz-adv-x="1460" d="M128 -2V64H252Q330 64 330 144V1316Q330 1396 252 1396H128V1460H1228L1344 1148L1284 1120Q1255 1169 1211 1223T1116 1310Q1001 1384 872 1384H592Q514 1384 514 1304V796H738Q829 796
888 853T956 1036H1016V480H956Q940 720 738 720H514V156Q514 76 592 76H956Q1031 76 1097 99T1204 162Q1251 210 1289 278T1348 406L1412 386L1320 -2H1159Q965 -155 965 -324Q965 -366 991 -392T1052 -418Q1083 -418 1104 -401Q1137 -375 1149 -375Q1162 -375
1175 -388T1188 -411Q1188 -456 1135 -503T1024 -550Q950 -550 900 -506T849 -379Q849 -288 910 -190T1079 -5L1078 -2H716Q712 -2 593 0T422 2T251 0T128 -2Z" />
<glyph unicode="&#x119;" glyph-name="eogonek" horiz-adv-x="954" d="M84 436Q84 646 212 777Q350 916 512 916Q596 916 658 894T774 814Q869 714 886 528H258Q254 497 254 457Q254 282 334 179T561 76Q634 76 702 117T811 213L848 176Q808 114 743 64Q617 -43
563 -103Q491 -183 491 -282Q491 -319 513 -341T570 -364Q602 -364 624 -345Q653 -318 668 -318Q680 -318 692 -329T705 -352Q705 -395 658 -437T561 -480Q487 -480 438 -439T389 -318Q389 -166 592 -19L590 -10Q562 -16 532 -16Q348 -16 221 97Q84 217 84 436ZM267
586H739Q733 685 675 763T533 842Q431 842 362 773T267 586Z" />
<glyph unicode="&#x11a;" glyph-name="Ecaron" horiz-adv-x="1460" d="M380 1878L402 1912L736 1724L1070 1912L1092 1878Q868 1710 768 1580H704Q604 1710 380 1878ZM128 -2V64H252Q330 64 330 144V1316Q330 1396 252 1396H128V1462Q132 1462 251 1460T422 1458T593
1460T716 1462H1228L1344 1148L1284 1120Q1255 1169 1211 1223T1116 1310Q1001 1384 872 1384H592Q514 1384 514 1304V796H738Q829 796 888 853T956 1036H1016V480H956Q940 720 738 720H514V156Q514 76 592 76H956Q1031 76 1097 99T1204 162Q1251 210 1289 278T1348
406L1412 386L1320 -2H716Q712 -2 593 0T422 2T251 0T128 -2Z" />
<glyph unicode="&#x11b;" glyph-name="ecaron" horiz-adv-x="954" d="M232 1430L268 1460L512 1202L756 1460L792 1430Q625 1221 524 1008H500Q399 1221 232 1430ZM84 436Q84 646 212 777Q350 916 512 916Q596 916 658 894T774 814Q869 714 886 528H258Q254 497
254 457Q254 282 334 179T561 76Q634 76 702 117T811 213L848 176Q803 104 715 44T532 -16Q348 -16 221 97Q84 217 84 436ZM267 586H739Q733 685 675 763T533 842Q431 842 362 773T267 586Z" />
<glyph unicode="&#x11c;" glyph-name="Gcircumflex" horiz-adv-x="1640" d="M498 1614Q722 1782 822 1912H886Q986 1782 1210 1614L1188 1580L854 1768L520 1580L498 1614ZM144 720Q144 1070 356 1288Q449 1384 572 1436T832 1488Q962 1488 1072 1446Q1159 1412
1198 1412Q1225 1412 1241 1430T1268 1488H1316L1384 1148L1326 1120Q1233 1248 1122 1320T864 1392Q728 1392 622 1328T448 1144Q401 1061 385 962T368 736Q368 380 540 208Q610 138 695 103T862 68Q1202 68 1202 312V528Q1198 568 1180 588T1124 608H1000V672H1588V608H1464Q1386
608 1386 528V-20H1322Q1315 62 1266 62Q1228 62 1138 24Q1012 -28 868 -28Q588 -28 400 136Q282 239 213 392T144 720Z" />
<glyph unicode="&#x11d;" glyph-name="gcircumflex" horiz-adv-x="1220" d="M288 1038Q455 1247 556 1460H580Q681 1247 848 1038L812 1008L568 1266L324 1008L288 1038ZM116 -322Q116 -257 195 -194T392 -92V-85Q247 -50 196 -7T144 96Q144 207 338 288Q251 331
200 404T149 575Q149 728 268 822T554 916Q744 916 862 804Q986 916 1070 916Q1114 916 1145 882T1176 804Q1176 774 1158 755T1112 735Q1076 735 1049 775Q1026 816 987 816Q940 816 889 775Q960 688 960 575Q960 473 902 396T753 280T554 242Q469 242 382 271Q244
219 244 152Q244 117 275 90T366 45T475 19T594 0Q643 -6 676 -11T760 -26T845 -49T919 -80T982 -123T1022 -180T1038 -254Q1038 -311 1008 -357T931 -432T822 -480T699 -508T577 -516Q489 -516 415 -508T270 -480T157 -420T116 -322ZM286 -287Q286 -332 313 -366T384
-419T481 -448T590 -458Q918 -458 918 -287Q918 -264 909 -245T887 -212T847 -186T798 -167T734 -151T664 -138T583 -125Q517 -115 473 -106Q396 -127 341 -174T286 -287ZM299 575Q299 451 370 376T554 300T738 375T810 575T739 778T554 858Q442 858 371 779T299
575Z" />
<glyph unicode="&#x11e;" glyph-name="Gbreve" horiz-adv-x="1640" d="M494 1910H542Q576 1809 655 1751T854 1692T1052 1750T1166 1910H1214Q1188 1775 1086 1686T854 1596T622 1685T494 1910ZM144 720Q144 1070 356 1288Q449 1384 572 1436T832 1488Q962 1488
1072 1446Q1159 1412 1198 1412Q1225 1412 1241 1430T1268 1488H1316L1384 1148L1326 1120Q1233 1248 1122 1320T864 1392Q728 1392 622 1328T448 1144Q401 1061 385 962T368 736Q368 380 540 208Q610 138 695 103T862 68Q1202 68 1202 312V528Q1198 568 1180 588T1124
608H1000V672H1588V608H1464Q1386 608 1386 528V-20H1322Q1315 62 1266 62Q1228 62 1138 24Q1012 -28 868 -28Q588 -28 400 136Q282 239 213 392T144 720Z" />
<glyph unicode="&#x11f;" glyph-name="gbreve" horiz-adv-x="1220" d="M236 1432H284Q319 1318 391 1250T568 1182T744 1250T852 1432H900Q885 1340 845 1262T732 1131T568 1078T405 1131T292 1262T236 1432ZM116 -322Q116 -257 195 -194T392 -92V-85Q247 -50
196 -7T144 96Q144 207 338 288Q251 331 200 404T149 575Q149 728 268 822T554 916Q744 916 862 804Q986 916 1070 916Q1114 916 1145 882T1176 804Q1176 774 1158 755T1112 735Q1076 735 1049 775Q1026 816 987 816Q940 816 889 775Q960 688 960 575Q960 473 902
396T753 280T554 242Q469 242 382 271Q244 219 244 152Q244 117 275 90T366 45T475 19T594 0Q643 -6 676 -11T760 -26T845 -49T919 -80T982 -123T1022 -180T1038 -254Q1038 -311 1008 -357T931 -432T822 -480T699 -508T577 -516Q489 -516 415 -508T270 -480T157
-420T116 -322ZM286 -287Q286 -332 313 -366T384 -419T481 -448T590 -458Q918 -458 918 -287Q918 -264 909 -245T887 -212T847 -186T798 -167T734 -151T664 -138T583 -125Q517 -115 473 -106Q396 -127 341 -174T286 -287ZM299 575Q299 451 370 376T554 300T738
375T810 575T739 778T554 858Q442 858 371 779T299 575Z" />
<glyph unicode="&#x120;" glyph-name="Gdotaccent" horiz-adv-x="1640" d="M758 1704T758 1746T785 1815T854 1842T923 1815T950 1746T923 1677T854 1650T785 1677ZM144 720Q144 1070 356 1288Q449 1384 572 1436T832 1488Q962 1488 1072 1446Q1159 1412 1198
1412Q1225 1412 1241 1430T1268 1488H1316L1384 1148L1326 1120Q1233 1248 1122 1320T864 1392Q728 1392 622 1328T448 1144Q401 1061 385 962T368 736Q368 380 540 208Q610 138 695 103T862 68Q1202 68 1202 312V528Q1198 568 1180 588T1124 608H1000V672H1588V608H1464Q1386
608 1386 528V-20H1322Q1315 62 1266 62Q1228 62 1138 24Q1012 -28 868 -28Q588 -28 400 136Q282 239 213 392T144 720Z" />
<glyph unicode="&#x121;" glyph-name="gdotaccent" horiz-adv-x="1220" d="M444 1154T444 1206T480 1294T568 1330T656 1294T692 1206T656 1118T568 1082T480 1118ZM116 -322Q116 -257 195 -194T392 -92V-85Q247 -50 196 -7T144 96Q144 207 338 288Q251 331 200
404T149 575Q149 728 268 822T554 916Q744 916 862 804Q986 916 1070 916Q1114 916 1145 882T1176 804Q1176 774 1158 755T1112 735Q1076 735 1049 775Q1026 816 987 816Q940 816 889 775Q960 688 960 575Q960 473 902 396T753 280T554 242Q469 242 382 271Q244
219 244 152Q244 117 275 90T366 45T475 19T594 0Q643 -6 676 -11T760 -26T845 -49T919 -80T982 -123T1022 -180T1038 -254Q1038 -311 1008 -357T931 -432T822 -480T699 -508T577 -516Q489 -516 415 -508T270 -480T157 -420T116 -322ZM286 -287Q286 -332 313 -366T384
-419T481 -448T590 -458Q918 -458 918 -287Q918 -264 909 -245T887 -212T847 -186T798 -167T734 -151T664 -138T583 -125Q517 -115 473 -106Q396 -127 341 -174T286 -287ZM299 575Q299 451 370 376T554 300T738 375T810 575T739 778T554 858Q442 858 371 779T299
575Z" />
<glyph unicode="&#x122;" glyph-name="Gcommaaccent" horiz-adv-x="1640" d="M746 -204Q746 -165 775 -141T843 -116Q908 -116 958 -172Q1006 -227 1006 -304Q1006 -408 926 -477Q874 -522 784 -560L767 -526Q848 -493 885 -457Q926 -417 926 -353Q926 -318 892
-297Q871 -284 829 -281Q793 -279 770 -259T746 -204ZM144 720Q144 1070 356 1288Q449 1384 572 1436T832 1488Q962 1488 1072 1446Q1159 1412 1198 1412Q1225 1412 1241 1430T1268 1488H1316L1384 1148L1326 1120Q1233 1248 1122 1320T864 1392Q728 1392 622 1328T448
1144Q401 1061 385 962T368 736Q368 380 540 208Q610 138 695 103T862 68Q1202 68 1202 312V528Q1198 568 1180 588T1124 608H1000V672H1588V608H1464Q1386 608 1386 528V-20H1322Q1315 62 1266 62Q1228 62 1138 24Q1012 -28 868 -28Q588 -28 400 136Q282 239 213
392T144 720Z" />
<glyph unicode="&#x123;" glyph-name="gcommaaccent" horiz-adv-x="1220" d="M414 1192Q414 1378 638 1488L660 1452Q578 1410 536 1363T494 1252Q494 1213 528 1192Q549 1179 591 1176Q626 1173 650 1148T674 1086Q674 1043 646 1016T576 988Q511 988 461 1044Q414
1097 414 1192ZM116 -322Q116 -257 195 -194T392 -92V-85Q247 -50 196 -7T144 96Q144 207 338 288Q251 331 200 404T149 575Q149 728 268 822T554 916Q744 916 862 804Q986 916 1070 916Q1114 916 1145 882T1176 804Q1176 774 1158 755T1112 735Q1076 735 1049
775Q1026 816 987 816Q940 816 889 775Q960 688 960 575Q960 473 902 396T753 280T554 242Q469 242 382 271Q244 219 244 152Q244 117 275 90T366 45T475 19T594 0Q643 -6 676 -11T760 -26T845 -49T919 -80T982 -123T1022 -180T1038 -254Q1038 -311 1008 -357T931
-432T822 -480T699 -508T577 -516Q489 -516 415 -508T270 -480T157 -420T116 -322ZM286 -287Q286 -332 313 -366T384 -419T481 -448T590 -458Q918 -458 918 -287Q918 -264 909 -245T887 -212T847 -186T798 -167T734 -151T664 -138T583 -125Q517 -115 473 -106Q396
-127 341 -174T286 -287ZM299 575Q299 451 370 376T554 300T738 375T810 575T739 778T554 858Q442 858 371 779T299 575Z" />
<glyph unicode="&#x124;" glyph-name="Hcircumflex" horiz-adv-x="1676" d="M502 1614Q726 1782 826 1912H890Q990 1782 1214 1614L1192 1580L858 1768L524 1580L502 1614ZM128 -2V64H252Q330 64 330 144V1316Q330 1396 252 1396H128V1462Q132 1462 251 1460T422
1458T593 1460T716 1462V1396H592Q514 1396 514 1316V784H1202V1316Q1202 1396 1124 1396H1000V1462Q1004 1462 1123 1460T1294 1458T1465 1460T1588 1462V1396H1464Q1386 1396 1386 1316V144Q1386 64 1464 64H1588V-2Q1584 -2 1465 0T1294 2T1123 0T1000 -2V64H1124Q1202
64 1202 144V708H514V144Q514 64 592 64H716V-2Q712 -2 593 0T422 2T251 0T128 -2Z" />
<glyph unicode="&#x125;" glyph-name="hcircumflex" horiz-adv-x="1154" d="M264 1593Q440 1755 544 1932H568Q672 1755 848 1593L820 1562L556 1776L292 1562L264 1593ZM68 -2V58H176Q226 58 226 108V1263Q226 1329 162 1336L68 1346V1390L334 1478H366V762L373
756Q432 815 516 865T674 916Q791 916 864 853Q952 771 952 632V108Q952 58 1002 58H1110V-2Q1107 -2 1012 0T882 2T753 0T654 -2V58H762Q812 58 812 108V607Q812 737 749 784Q720 807 691 815T608 824Q515 824 366 689V108Q366 58 416 58H524V-2Q521 -2 426 0T296
2T167 0T68 -2Z" />
<glyph unicode="&#x126;" glyph-name="Hbar" horiz-adv-x="1676" d="M96 1036V1112H330V1316Q330 1396 252 1396H128V1462Q132 1462 251 1460T422 1458T593 1460T716 1462V1396H592Q514 1396 514 1316V1112H1202V1316Q1202 1396 1124 1396H1000V1462Q1004 1462
1123 1460T1294 1458T1465 1460T1588 1462V1396H1464Q1386 1396 1386 1316V1112H1620V1036H1386V144Q1386 64 1464 64H1588V-2Q1584 -2 1465 0T1294 2T1123 0T1000 -2V64H1124Q1202 64 1202 144V708H514V144Q514 64 592 64H716V-2Q712 -2 593 0T422 2T251 0T128
-2V64H252Q330 64 330 144V1036H96ZM514 784H1202V1036H514V784Z" />
<glyph unicode="&#x127;" glyph-name="hbar" horiz-adv-x="1154" d="M58 1100V1164H226V1263Q226 1329 162 1336L68 1346V1390L334 1478H366V1164H806V1100H366V762L373 756Q432 815 516 865T674 916Q791 916 864 853Q952 771 952 632V108Q952 58 1002 58H1110V-2Q1107
-2 1012 0T882 2T753 0T654 -2V58H762Q812 58 812 108V607Q812 737 749 784Q720 807 691 815T608 824Q515 824 366 689V108Q366 58 416 58H524V-2Q521 -2 426 0T296 2T167 0T68 -2V58H176Q226 58 226 108V1100H58Z" />
<glyph unicode="&#x128;" glyph-name="Itilde" horiz-adv-x="804" d="M262 1667Q306 1741 370 1791T514 1842Q609 1842 716 1795Q754 1779 776 1771T836 1754T913 1746Q942 1746 969 1763T1012 1798T1048 1847L1094 1825Q1050 1751 986 1701T842 1650Q744 1650
639 1698Q533 1746 443 1746Q414 1746 387 1729T344 1694T308 1645L262 1667ZM128 -2V64H252Q330 64 330 144V1316Q330 1396 252 1396H128V1462Q132 1462 251 1460T422 1458T593 1460T716 1462V1396H592Q514 1396 514 1316V144Q514 64 592 64H716V-2Q712 -2 593
0T422 2T251 0T128 -2Z" />
<glyph unicode="&#x129;" glyph-name="itilde" horiz-adv-x="584" d="M80 -2V58H188Q238 58 238 108V695Q238 761 174 768L80 778V822L346 910H378V108Q378 58 428 58H536V-2Q533 -2 438 0T308 2T179 0T80 -2ZM0 1094Q31 1165 85 1208T200 1252Q252 1252 326 1214Q402
1174 454 1174Q484 1174 506 1196T550 1258L584 1236Q553 1165 499 1122T384 1078Q329 1078 257 1117Q183 1156 130 1156Q100 1156 78 1134T34 1072L0 1094Z" />
<glyph unicode="&#x12a;" glyph-name="Imacron" horiz-adv-x="804" d="M376 1702V1790H980V1702H376ZM128 -2V64H252Q330 64 330 144V1316Q330 1396 252 1396H128V1462Q132 1462 251 1460T422 1458T593 1460T716 1462V1396H592Q514 1396 514 1316V144Q514 64 592
64H716V-2Q712 -2 593 0T422 2T251 0T128 -2Z" />
<glyph unicode="&#x12b;" glyph-name="imacron" horiz-adv-x="584" d="M36 1134V1222H548V1134H36ZM80 -2V58H188Q238 58 238 108V695Q238 761 174 768L80 778V822L346 910H378V108Q378 58 428 58H536V-2Q533 -2 438 0T308 2T179 0T80 -2Z" />
<glyph unicode="&#x12c;" glyph-name="Ibreve" horiz-adv-x="804" d="M318 1910H366Q400 1809 479 1751T678 1692T876 1750T990 1910H1038Q1012 1775 910 1686T678 1596T446 1685T318 1910ZM128 -2V64H252Q330 64 330 144V1316Q330 1396 252 1396H128V1462Q132
1462 251 1460T422 1458T593 1460T716 1462V1396H592Q514 1396 514 1316V144Q514 64 592 64H716V-2Q712 -2 593 0T422 2T251 0T128 -2Z" />
<glyph unicode="&#x12d;" glyph-name="ibreve" horiz-adv-x="584" d="M26 1380H70Q95 1291 151 1242T292 1192T433 1241T514 1380H558Q539 1264 469 1180T292 1096T115 1180T26 1380ZM80 -2V58H188Q238 58 238 108V695Q238 761 174 768L80 778V822L346 910H378V108Q378
58 428 58H536V-2Q533 -2 438 0T308 2T179 0T80 -2Z" />
<glyph unicode="&#x12e;" glyph-name="Iogonek" horiz-adv-x="804" d="M128 -2V64H252Q330 64 330 144V1316Q330 1396 252 1396H128V1462Q132 1462 251 1460T422 1458T593 1460T716 1462V1396H592Q514 1396 514 1316V144Q514 64 592 64H716V-2Q710 -1 615 0Q418
-151 418 -327Q418 -369 444 -395T505 -421Q536 -421 557 -404Q590 -378 602 -378Q615 -378 628 -391T641 -414Q641 -459 588 -506T477 -553Q403 -553 353 -509T302 -382Q302 -290 366 -188T538 -6V0Q536 0 492 1T422 2Q370 2 251 0T128 -2Z" />
<glyph unicode="&#x12f;" glyph-name="iogonek" horiz-adv-x="584" d="M184 1238T184 1290T220 1378T308 1414T396 1378T432 1290T396 1202T308 1166T220 1202ZM80 -2V58H188Q238 58 238 108V695Q238 761 174 768L80 778V822L346 910H378V108Q378 58 428 58H536V-2L484
-1Q384 -73 338 -134T292 -282Q292 -319 314 -341T371 -364Q403 -364 425 -345Q454 -318 468 -318Q481 -318 493 -329T506 -352Q506 -395 459 -437T362 -480Q288 -480 239 -439T190 -318Q190 -157 414 -4V1Q331 2 308 2L80 -2Z" />
<glyph unicode="&#x130;" glyph-name="Idot" horiz-adv-x="804" d="M582 1704T582 1746T609 1815T678 1842T747 1815T774 1746T747 1677T678 1650T609 1677ZM128 -2V64H252Q330 64 330 144V1316Q330 1396 252 1396H128V1462Q132 1462 251 1460T422 1458T593 1460T716
1462V1396H592Q514 1396 514 1316V144Q514 64 592 64H716V-2Q712 -2 593 0T422 2T251 0T128 -2Z" />
<glyph unicode="&#x131;" glyph-name="dotlessi" horiz-adv-x="584" d="M80 -2V58H188Q238 58 238 108V695Q238 761 174 768L80 778V822L346 910H378V108Q378 58 428 58H536V-2Q533 -2 438 0T308 2T179 0T80 -2Z" />
<glyph unicode="&#x132;" glyph-name="IJ" horiz-adv-x="1584" d="M684 -304Q684 -260 712 -230T776 -200Q833 -200 882 -252Q913 -281 935 -292T988 -304Q1030 -304 1063 -282T1112 -218Q1134 -158 1134 -28Q1134 52 1132 76Q1130 98 1130 156V1316Q1130 1396
1052 1396H928V1462Q932 1462 1051 1460T1222 1458T1393 1460T1516 1462V1396H1392Q1314 1396 1314 1316V208Q1314 178 1310 132T1296 13T1262 -135T1204 -266Q1077 -472 888 -472Q797 -472 741 -426T684 -304ZM128 -2V64H252Q330 64 330 144V1316Q330 1396 252
1396H128V1462Q132 1462 251 1460T422 1458T593 1460T716 1462V1396H592Q514 1396 514 1316V144Q514 64 592 64H716V-2Q712 -2 593 0T422 2T251 0T128 -2Z" />
<glyph unicode="&#x133;" glyph-name="ij" horiz-adv-x="1156" d="M184 1238T184 1290T220 1378T308 1414T396 1378T432 1290T396 1202T308 1166T220 1202ZM80 -2V58H188Q238 58 238 108V695Q238 761 174 768L80 778V822L346 910H378V108Q378 58 428 58H536V-2Q533
-2 438 0T308 2T179 0T80 -2ZM488 -368Q488 -330 514 -309T582 -287Q617 -287 663 -329Q697 -358 725 -358Q760 -358 791 -330T834 -258Q850 -194 850 -42V695Q850 761 786 768L692 778V822L958 910H990V50Q990 -32 965 -147T887 -333Q781 -474 613 -474Q556 -474
522 -443T488 -368ZM1052 1238T1052 1290T1088 1378T1176 1414T1264 1378T1300 1290T1264 1202T1176 1166T1088 1202Z" />
<glyph unicode="&#x134;" glyph-name="Jcircumflex" horiz-adv-x="780" d="M318 1614Q542 1782 642 1912H706Q806 1782 1030 1614L1008 1580L674 1768L340 1580L318 1614ZM-120 -304Q-120 -260 -92 -230T-28 -200Q29 -200 78 -252Q109 -281 131 -292T184 -304Q226
-304 259 -282T308 -218Q330 -158 330 -28Q330 52 328 76Q326 98 326 156V1316Q326 1396 248 1396H124V1462Q128 1462 247 1460T418 1458T589 1460T712 1462V1396H588Q510 1396 510 1316V208Q510 178 506 132T492 13T458 -135T400 -266Q273 -472 84 -472Q-7 -472
-63 -426T-120 -304Z" />
<glyph unicode="&#x135;" glyph-name="jcircumflex" horiz-adv-x="572" d="M288 1038Q455 1247 556 1460H580Q681 1247 848 1038L812 1008L568 1266L324 1008L288 1038ZM-96 -368Q-96 -330 -70 -309T-2 -287Q33 -287 79 -329Q113 -358 141 -358Q176 -358 207 -330T250
-258Q266 -194 266 -42V695Q266 761 202 768L108 778V822L374 910H406V50Q406 -32 381 -147T303 -333Q197 -474 29 -474Q-28 -474 -62 -443T-96 -368Z" />
<glyph unicode="&#x136;" glyph-name="Kcommaaccent" horiz-adv-x="1560" d="M684 -204Q684 -165 713 -141T781 -116Q846 -116 896 -172Q944 -227 944 -304Q944 -408 864 -477Q812 -522 722 -560L705 -526Q786 -493 823 -457Q864 -417 864 -353Q864 -318 830 -297Q809
-284 767 -281Q731 -279 708 -259T684 -204ZM128 -2V64H252Q330 64 330 144V1316Q330 1396 252 1396H128V1462Q132 1462 251 1460T422 1458T593 1460T716 1462V1396H592Q514 1396 514 1316V722L818 996Q873 1045 931 1101T1054 1234T1118 1342Q1118 1377 1076 1392L1030
1396H992V1462Q998 1462 1094 1460T1232 1458T1370 1460T1472 1462V1396Q1398 1396 1386 1390Q1330 1365 1259 1306T1060 1120L826 892L1290 180Q1331 116 1376 90T1504 64V-2Q1492 -2 1371 0T1200 2T1029 0T896 -2V64H952Q1014 64 1044 79T1074 120Q1074 143 1058
177T994 288L690 768L514 612V144Q514 64 592 64H716V-2Q712 -2 593 0T422 2T251 0T128 -2Z" />
<glyph unicode="&#x137;" glyph-name="kcommaaccent" horiz-adv-x="1156" d="M484 -204Q484 -165 513 -141T581 -116Q646 -116 696 -172Q744 -227 744 -304Q744 -408 664 -477Q612 -522 522 -560L505 -526Q586 -493 623 -457Q664 -417 664 -353Q664 -318 630 -297Q609
-284 567 -281Q531 -279 508 -259T484 -204ZM68 -2V58H176Q226 58 226 108V1263Q226 1329 162 1336L68 1346V1390L334 1478H366V431L724 705Q766 738 766 778Q766 805 744 822T691 840H642V901Q645 901 689 900T788 897T872 896T950 897T1039 899T1082 901V840Q1023
832 984 813Q935 790 878 745L585 520L923 158Q964 114 1004 88Q1045 63 1104 58V-2Q1101 -2 1062 -1T972 1T893 2T810 1T712 -1T664 -2V58H731Q748 58 759 67T771 94Q771 116 733 158L474 437L366 354V108Q366 58 416 58H524V-2Q521 -2 426 0T296 2T167 0T68 -2Z"
/>
<glyph unicode="&#x138;" glyph-name="kgreenlandic" horiz-adv-x="1162" d="M74 -2V58H182Q232 58 232 108V753Q232 798 201 817T98 836V894L372 910V431L730 705Q772 738 772 778Q772 805 750 822T697 840H648V901Q651 901 695 900T794 897T878 896T956 897T1045
899T1088 901V840Q1029 832 990 813Q941 790 884 745L591 520L929 158Q970 114 1010 88Q1051 63 1110 58V-2Q1107 -2 1068 -1T978 1T899 2T816 1T718 -1T670 -2V58H737Q754 58 765 67T777 94Q777 116 739 158L480 437L372 354V108Q372 58 422 58H530V-2Q527 -2
432 0T302 2T173 0T74 -2Z" />
<glyph unicode="&#x139;" glyph-name="Lacute" horiz-adv-x="1460" d="M378 1609L634 1848Q703 1912 764 1912Q791 1912 808 1890T826 1842Q826 1781 714 1728L400 1580L378 1609ZM128 -2V64H252Q330 64 330 144V1316Q330 1396 252 1396H128V1462Q132 1462 251
1460T422 1458T593 1460T716 1462V1396H592Q514 1396 514 1316V156Q514 76 592 76H956Q1031 76 1097 99T1204 162Q1251 210 1289 278T1348 406L1412 386L1320 -2H716Q712 -2 593 0T422 2T251 0T128 -2Z" />
<glyph unicode="&#x13a;" glyph-name="lacute" horiz-adv-x="576" d="M220 1587L424 1862Q486 1944 544 1944Q573 1944 589 1926T606 1880Q606 1856 593 1834T565 1799T523 1767L246 1562L220 1587ZM68 -2V58H176Q226 58 226 108V1263Q226 1329 162 1336L68 1346V1390L334
1478H366V108Q366 58 416 58H524V-2Q521 -2 426 0T296 2T167 0T68 -2Z" />
<glyph unicode="&#x13b;" glyph-name="Lcommaaccent" horiz-adv-x="1460" d="M648 -204Q648 -165 677 -141T745 -116Q810 -116 860 -172Q908 -227 908 -304Q908 -408 828 -477Q776 -522 686 -560L669 -526Q750 -493 787 -457Q828 -417 828 -353Q828 -318 794 -297Q773
-284 731 -281Q695 -279 672 -259T648 -204ZM128 -2V64H252Q330 64 330 144V1316Q330 1396 252 1396H128V1462Q132 1462 251 1460T422 1458T593 1460T716 1462V1396H592Q514 1396 514 1316V156Q514 76 592 76H956Q1031 76 1097 99T1204 162Q1251 210 1289 278T1348
406L1412 386L1320 -2H716Q712 -2 593 0T422 2T251 0T128 -2Z" />
<glyph unicode="&#x13c;" glyph-name="lcommaaccent" horiz-adv-x="576" d="M180 -204Q180 -165 209 -141T277 -116Q342 -116 392 -172Q440 -227 440 -304Q440 -408 360 -477Q308 -522 218 -560L201 -526Q282 -493 319 -457Q360 -417 360 -353Q360 -318 326 -297Q305
-284 263 -281Q227 -279 204 -259T180 -204ZM68 -2V58H176Q226 58 226 108V1263Q226 1329 162 1336L68 1346V1390L334 1478H366V108Q366 58 416 58H524V-2Q521 -2 426 0T296 2T167 0T68 -2Z" />
<glyph unicode="&#x13d;" glyph-name="Lcaron" horiz-adv-x="1460" d="M1028 1390Q1028 1433 1056 1460T1126 1488Q1191 1488 1241 1432Q1288 1379 1288 1284Q1288 1098 1064 988L1042 1024Q1124 1066 1166 1113T1208 1224Q1208 1263 1174 1284Q1153 1297 1111
1300Q1076 1303 1052 1328T1028 1390ZM128 -2V64H252Q330 64 330 144V1316Q330 1396 252 1396H128V1462Q132 1462 251 1460T422 1458T593 1460T716 1462V1396H592Q514 1396 514 1316V156Q514 76 592 76H956Q1031 76 1097 99T1204 162Q1251 210 1289 278T1348 406L1412
386L1320 -2H716Q712 -2 593 0T422 2T251 0T128 -2Z" />
<glyph unicode="&#x13e;" glyph-name="lcaron" horiz-adv-x="732" d="M464 987Q540 1031 581 1079Q634 1142 634 1210Q634 1249 603 1279Q584 1296 543 1302Q512 1306 490 1328T467 1390Q467 1434 494 1461T558 1488Q620 1488 662 1432Q706 1373 706 1273Q706
1222 687 1167T631 1069Q576 1003 484 953L464 987ZM68 -2V58H176Q226 58 226 108V1263Q226 1329 162 1336L68 1346V1390L334 1478H366V108Q366 58 416 58H524V-2Q521 -2 426 0T296 2T167 0T68 -2Z" />
<glyph unicode="&#x13f;" glyph-name="Ldot" horiz-adv-x="1460" d="M1000 734T1000 788T1037 879T1128 916T1219 879T1256 788T1219 697T1128 660T1037 697ZM128 -2V64H252Q330 64 330 144V1316Q330 1396 252 1396H128V1462Q132 1462 251 1460T422 1458T593 1460T716
1462V1396H592Q514 1396 514 1316V156Q514 76 592 76H956Q1031 76 1097 99T1204 162Q1251 210 1289 278T1348 406L1412 386L1320 -2H716Q712 -2 593 0T422 2T251 0T128 -2Z" />
<glyph unicode="&#x140;" glyph-name="ldot" horiz-adv-x="932" d="M628 542T628 596T665 687T756 724T847 687T884 596T847 505T756 468T665 505ZM68 -2V58H176Q226 58 226 108V1263Q226 1329 162 1336L68 1346V1390L334 1478H366V108Q366 58 416 58H524V-2Q521
-2 426 0T296 2T167 0T68 -2Z" />
<glyph unicode="&#x141;" glyph-name="Lslash" horiz-adv-x="1460" d="M75 484L330 669V1316Q330 1396 252 1396H128V1462Q132 1462 251 1460T422 1458T593 1460T716 1462V1396H592Q514 1396 514 1316V803L914 1093L961 1028L514 704V156Q514 76 592 76H956Q1031
76 1097 99T1204 162Q1251 210 1289 278T1348 406L1412 386L1320 -2H716Q712 -2 593 0T422 2T251 0T128 -2V64H252Q330 64 330 144V570L122 419L75 484Z" />
<glyph unicode="&#x142;" glyph-name="lslash" horiz-adv-x="576" d="M-8 600L252 750V1263Q252 1329 188 1336L94 1346V1390L360 1478H392V830L618 960L652 900L392 750V110Q392 60 442 60H550V0Q547 0 452 2T322 4T193 2T94 0V60H202Q252 60 252 110V670L26
540L-8 600Z" />
<glyph unicode="&#x143;" glyph-name="Nacute" horiz-adv-x="1640" d="M730 1609L986 1848Q1055 1912 1116 1912Q1143 1912 1160 1890T1178 1842Q1178 1781 1066 1728L752 1580L730 1609ZM128 -2V64H216Q270 64 300 95T330 180V1316Q330 1396 252 1396H128V1460H504L1280
336V1280Q1280 1334 1250 1365T1166 1396H1078V1462Q1080 1462 1183 1460T1324 1458T1465 1460T1570 1462V1396H1482Q1428 1396 1398 1365T1368 1280V-24H1294L418 1232V180Q418 126 448 95T532 64H620V-2Q618 -2 515 0T374 2T233 0T128 -2Z" />
<glyph unicode="&#x144;" glyph-name="nacute" horiz-adv-x="1160" d="M550 1030L670 1364Q716 1488 788 1488Q823 1488 844 1466T866 1415Q866 1371 802 1285L594 1008L550 1030ZM74 -2V58H182Q232 58 232 108V695Q232 761 168 768L74 778V822L340 910H372V762L379
756Q438 815 522 865T680 916Q797 916 870 853Q958 771 958 632V108Q958 58 1008 58H1116V-2Q1113 -2 1018 0T888 2T759 0T660 -2V58H768Q818 58 818 108V607Q818 737 755 784Q726 807 697 815T614 824Q521 824 372 689V108Q372 58 422 58H530V-2Q527 -2 432 0T302
2T173 0T74 -2Z" />
<glyph unicode="&#x145;" glyph-name="Ncommaaccent" horiz-adv-x="1640" d="M772 -204Q772 -165 801 -141T869 -116Q934 -116 984 -172Q1032 -227 1032 -304Q1032 -408 952 -477Q900 -522 810 -560L793 -526Q874 -493 911 -457Q952 -417 952 -353Q952 -318 918
-297Q897 -284 855 -281Q819 -279 796 -259T772 -204ZM128 -2V64H216Q270 64 300 95T330 180V1316Q330 1396 252 1396H128V1460H504L1280 336V1280Q1280 1334 1250 1365T1166 1396H1078V1462Q1080 1462 1183 1460T1324 1458T1465 1460T1570 1462V1396H1482Q1428
1396 1398 1365T1368 1280V-24H1294L418 1232V180Q418 126 448 95T532 64H620V-2Q618 -2 515 0T374 2T233 0T128 -2Z" />
<glyph unicode="&#x146;" glyph-name="ncommaaccent" horiz-adv-x="1160" d="M484 -204Q484 -165 513 -141T581 -116Q646 -116 696 -172Q744 -227 744 -304Q744 -408 664 -477Q612 -522 522 -560L505 -526Q586 -493 623 -457Q664 -417 664 -353Q664 -318 630 -297Q609
-284 567 -281Q531 -279 508 -259T484 -204ZM74 -2V58H182Q232 58 232 108V695Q232 761 168 768L74 778V822L340 910H372V762L379 756Q438 815 522 865T680 916Q797 916 870 853Q958 771 958 632V108Q958 58 1008 58H1116V-2Q1113 -2 1018 0T888 2T759 0T660 -2V58H768Q818
58 818 108V607Q818 737 755 784Q726 807 697 815T614 824Q521 824 372 689V108Q372 58 422 58H530V-2Q527 -2 432 0T302 2T173 0T74 -2Z" />
<glyph unicode="&#x147;" glyph-name="Ncaron" horiz-adv-x="1640" d="M524 1878L546 1912L880 1724L1214 1912L1236 1878Q1012 1710 912 1580H848Q748 1710 524 1878ZM128 -2V64H216Q270 64 300 95T330 180V1316Q330 1396 252 1396H128V1460H504L1280 336V1280Q1280
1334 1250 1365T1166 1396H1078V1462Q1080 1462 1183 1460T1324 1458T1465 1460T1570 1462V1396H1482Q1428 1396 1398 1365T1368 1280V-24H1294L418 1232V180Q418 126 448 95T532 64H620V-2Q618 -2 515 0T374 2T233 0T128 -2Z" />
<glyph unicode="&#x148;" glyph-name="ncaron" horiz-adv-x="1160" d="M312 1430L348 1460L592 1202L836 1460L872 1430Q705 1221 604 1008H580Q479 1221 312 1430ZM74 -2V58H182Q232 58 232 108V695Q232 761 168 768L74 778V822L340 910H372V762L379 756Q438
815 522 865T680 916Q797 916 870 853Q958 771 958 632V108Q958 58 1008 58H1116V-2Q1113 -2 1018 0T888 2T759 0T660 -2V58H768Q818 58 818 108V607Q818 737 755 784Q726 807 697 815T614 824Q521 824 372 689V108Q372 58 422 58H530V-2Q527 -2 432 0T302 2T173
0T74 -2Z" />
<glyph unicode="&#x149;" glyph-name="napostrophe" horiz-adv-x="1580" d="M494 -2V58H602Q652 58 652 108V695Q652 761 588 768L494 778V822L760 910H792V762L799 756Q858 815 942 865T1100 916Q1217 916 1290 853Q1378 771 1378 632V108Q1378 58 1428 58H1536V-2Q1533
-2 1438 0T1308 2T1179 0T1080 -2V58H1188Q1238 58 1238 108V607Q1238 737 1175 784Q1146 807 1117 815T1034 824Q941 824 792 689V108Q792 58 842 58H950V-2Q947 -2 852 0T722 2T593 0T494 -2ZM88 1390Q88 1433 116 1460T186 1488Q251 1488 301 1432Q348 1379
348 1284Q348 1098 124 988L102 1024Q184 1066 226 1113T268 1224Q268 1263 234 1284Q213 1297 171 1300Q136 1303 112 1328T88 1390Z" />
<glyph unicode="&#x14a;" glyph-name="Eng" horiz-adv-x="1640" d="M128 -2V64H216Q270 64 300 95T330 180V1316Q330 1396 252 1396H128V1460H504L1280 336V1280Q1280 1334 1250 1365T1166 1396H1078V1462Q1080 1462 1183 1460T1324 1458T1465 1460T1570 1462V1396H1482Q1428
1396 1398 1365T1368 1280V-184Q1368 -320 1293 -404T1102 -489Q1010 -489 954 -451T898 -356Q898 -323 915 -302T963 -280Q999 -280 1016 -300T1043 -356Q1052 -388 1075 -406T1129 -425Q1164 -425 1185 -418T1236 -384Q1280 -344 1280 -226V-4L418 1232V180Q418
126 448 95T532 64H620V-2Q618 -2 515 0T374 2T233 0T128 -2Z" />
<glyph unicode="&#x14b;" glyph-name="eng" horiz-adv-x="1160" d="M74 -2V58H182Q232 58 232 108V695Q232 761 168 768L74 778V822L340 910H372V762L379 756Q438 815 522 865T680 916Q797 916 870 853Q958 771 958 632V-96Q958 -165 949 -227T917 -350T857 -456T761
-528T627 -556Q535 -556 470 -514T405 -409Q405 -378 422 -360T467 -342Q502 -342 519 -364T549 -426Q560 -464 588 -485T655 -507Q693 -507 722 -491T769 -443T797 -381T812 -308T817 -241T818 -184V607Q818 737 755 784Q726 807 697 815T614 824Q521 824 372
689V108Q372 58 422 58H530V-2Q527 -2 432 0T302 2T173 0T74 -2Z" />
<glyph unicode="&#x14c;" glyph-name="Omacron" horiz-adv-x="1612" d="M524 1702V1790H1128V1702H524ZM144 541T144 730T199 1058T370 1314Q450 1394 570 1441T826 1488T1081 1441T1282 1314Q1398 1198 1453 1059T1508 730T1453 402T1282 146Q1202 66 1082 19T826
-28T571 19T370 146Q254 262 199 401ZM368 898T368 730T398 413T490 194Q627 36 826 36T1162 194Q1224 264 1254 413T1284 730T1254 1047T1162 1266Q1025 1424 826 1424T490 1266Q428 1196 398 1047Z" />
<glyph unicode="&#x14d;" glyph-name="omacron" horiz-adv-x="1080" d="M246 1134V1222H834V1134H246ZM84 450Q84 650 215 783T540 916T865 783T996 450Q996 251 865 118T540 -16T215 117T84 450ZM254 618T254 450T331 162T540 42T748 162T826 450T749 738T540
858T332 738Z" />
<glyph unicode="&#x14e;" glyph-name="Obreve" horiz-adv-x="1612" d="M466 1910H514Q548 1809 627 1751T826 1692T1024 1750T1138 1910H1186Q1160 1775 1058 1686T826 1596T594 1685T466 1910ZM144 541T144 730T199 1058T370 1314Q450 1394 570 1441T826 1488T1081
1441T1282 1314Q1398 1198 1453 1059T1508 730T1453 402T1282 146Q1202 66 1082 19T826 -28T571 19T370 146Q254 262 199 401ZM368 898T368 730T398 413T490 194Q627 36 826 36T1162 194Q1224 264 1254 413T1284 730T1254 1047T1162 1266Q1025 1424 826 1424T490
1266Q428 1196 398 1047Z" />
<glyph unicode="&#x14f;" glyph-name="obreve" horiz-adv-x="1080" d="M208 1432H256Q291 1318 363 1250T540 1182T716 1250T824 1432H872Q857 1340 817 1262T704 1131T540 1078T377 1131T264 1262T208 1432ZM84 450Q84 650 215 783T540 916T865 783T996 450Q996
251 865 118T540 -16T215 117T84 450ZM254 618T254 450T331 162T540 42T748 162T826 450T749 738T540 858T332 738Z" />
<glyph unicode="&#x150;" glyph-name="Ohungarumlaut" horiz-adv-x="1612" d="M636 1607L817 1848Q844 1883 864 1897T917 1912Q942 1912 956 1894T970 1854Q970 1812 900 1760L663 1580L636 1607ZM926 1607L1107 1848Q1134 1883 1154 1897T1207 1912Q1232 1912
1246 1894T1260 1854Q1260 1812 1190 1760L953 1580L926 1607ZM144 541T144 730T199 1058T370 1314Q450 1394 570 1441T826 1488T1081 1441T1282 1314Q1398 1198 1453 1059T1508 730T1453 402T1282 146Q1202 66 1082 19T826 -28T571 19T370 146Q254 262 199 401ZM368
898T368 730T398 413T490 194Q627 36 826 36T1162 194Q1224 264 1254 413T1284 730T1254 1047T1162 1266Q1025 1424 826 1424T490 1266Q428 1196 398 1047Z" />
<glyph unicode="&#x151;" glyph-name="ohungarumlaut" horiz-adv-x="1080" d="M364 1030L472 1352Q493 1416 518 1452T583 1488Q614 1488 631 1469T648 1424Q648 1389 592 1299L410 1008L364 1030ZM662 1030L770 1352Q791 1416 816 1452T881 1488Q912 1488 929
1469T946 1424Q946 1389 890 1299L708 1008L662 1030ZM84 450Q84 650 215 783T540 916T865 783T996 450Q996 251 865 118T540 -16T215 117T84 450ZM254 618T254 450T331 162T540 42T748 162T826 450T749 738T540 858T332 738Z" />
<glyph unicode="&#x152;" glyph-name="OE" horiz-adv-x="2360" d="M144 541T144 730T199 1058T370 1314Q450 1394 570 1441T826 1488Q892 1488 970 1474Q1043 1458 1322 1458Q1374 1458 1493 1460T1616 1462H2128L2244 1148L2184 1120Q2155 1169 2111 1223T2016
1310Q1901 1384 1772 1384H1492Q1414 1384 1414 1304V796H1638Q1729 796 1788 853T1856 1036H1916V480H1856Q1840 720 1638 720H1414V156Q1414 76 1492 76H1856Q1931 76 1997 99T2104 162Q2151 210 2189 278T2248 406L2312 386L2220 -2H1616Q1612 -2 1493 0T1322
2Q1059 2 970 -14Q892 -28 826 -28Q691 -28 571 19T370 146Q254 262 199 401ZM368 730Q368 562 398 413T490 194Q627 36 826 36T1162 194Q1230 272 1230 384V1076Q1230 1188 1162 1266Q1025 1424 826 1424T490 1266Q428 1196 398 1048T368 730Z" />
<glyph unicode="&#x153;" glyph-name="oe" horiz-adv-x="1696" d="M84 450Q84 650 215 783T540 916Q655 916 752 866T912 727Q984 820 1073 868T1254 916Q1338 916 1400 894T1516 814Q1611 714 1628 528H1000Q996 496 996 454Q996 281 1077 179T1303 76Q1376 76
1444 117T1553 213L1590 176Q1545 104 1457 44T1274 -16Q1211 -16 1154 -2T1059 32T986 78T935 124T904 163Q841 79 747 32T540 -16Q346 -16 215 117T84 450ZM254 618T254 450T331 162T540 42T748 162T826 450T749 738T540 858T332 738ZM1009 586H1481Q1475 685
1417 763T1275 842Q1173 842 1104 773T1009 586Z" />
<glyph unicode="&#x154;" glyph-name="Racute" horiz-adv-x="1600" d="M526 1609L782 1848Q851 1912 912 1912Q939 1912 956 1890T974 1842Q974 1781 862 1728L548 1580L526 1609ZM128 -2V64H252Q330 64 330 144V1320Q330 1362 311 1382T240 1402Q194 1402 128
1396V1460Q377 1480 594 1480Q784 1480 894 1463T1100 1396Q1196 1346 1246 1262T1296 1086Q1296 1000 1249 924T1108 794Q1004 734 878 714V702L1272 216Q1300 181 1323 160T1386 114Q1467 64 1572 64V0H1160L726 656Q712 678 695 687T642 696H514V144Q514 64
592 64H716V-2Q712 -2 593 0T422 2T251 0T128 -2ZM514 772H740Q900 772 996 844T1092 1068Q1092 1163 1049 1230T920 1350Q826 1408 638 1408Q576 1408 514 1400V772Z" />
<glyph unicode="&#x155;" glyph-name="racute" horiz-adv-x="850" d="M414 1030L534 1364Q580 1488 652 1488Q687 1488 708 1466T730 1415Q730 1371 666 1285L458 1008L414 1030ZM74 -2V58H182Q232 58 232 108V695Q232 761 168 768L74 778V822L340 910H372V709L382
703Q437 773 500 827Q604 916 696 916Q744 916 771 887T798 821Q798 777 769 749T688 721Q663 721 625 741Q597 758 565 758Q486 758 372 627V108Q372 58 422 58H530V-2Q527 -2 432 0T302 2T173 0T74 -2Z" />
<glyph unicode="&#x156;" glyph-name="Rcommaaccent" horiz-adv-x="1600" d="M760 -204Q760 -165 789 -141T857 -116Q922 -116 972 -172Q1020 -227 1020 -304Q1020 -408 940 -477Q888 -522 798 -560L781 -526Q862 -493 899 -457Q940 -417 940 -353Q940 -318 906
-297Q885 -284 843 -281Q807 -279 784 -259T760 -204ZM128 -2V64H252Q330 64 330 144V1320Q330 1362 311 1382T240 1402Q194 1402 128 1396V1460Q377 1480 594 1480Q784 1480 894 1463T1100 1396Q1196 1346 1246 1262T1296 1086Q1296 1000 1249 924T1108 794Q1004
734 878 714V702L1272 216Q1300 181 1323 160T1386 114Q1467 64 1572 64V0H1160L726 656Q712 678 695 687T642 696H514V144Q514 64 592 64H716V-2Q712 -2 593 0T422 2T251 0T128 -2ZM514 772H740Q900 772 996 844T1092 1068Q1092 1163 1049 1230T920 1350Q826 1408
638 1408Q576 1408 514 1400V772Z" />
<glyph unicode="&#x157;" glyph-name="rcommaaccent" horiz-adv-x="850" d="M194 -204Q194 -165 223 -141T291 -116Q356 -116 406 -172Q454 -227 454 -304Q454 -408 374 -477Q322 -522 232 -560L215 -526Q296 -493 333 -457Q374 -417 374 -353Q374 -318 340 -297Q319
-284 277 -281Q241 -279 218 -259T194 -204ZM74 -2V58H182Q232 58 232 108V695Q232 761 168 768L74 778V822L340 910H372V709L382 703Q437 773 500 827Q604 916 696 916Q744 916 771 887T798 821Q798 777 769 749T688 721Q663 721 625 741Q597 758 565 758Q486
758 372 627V108Q372 58 422 58H530V-2Q527 -2 432 0T302 2T173 0T74 -2Z" />
<glyph unicode="&#x158;" glyph-name="Rcaron" horiz-adv-x="1600" d="M320 1878L342 1912L676 1724L1010 1912L1032 1878Q808 1710 708 1580H644Q544 1710 320 1878ZM128 -2V64H252Q330 64 330 144V1320Q330 1362 311 1382T240 1402Q194 1402 128 1396V1460Q377
1480 594 1480Q784 1480 894 1463T1100 1396Q1196 1346 1246 1262T1296 1086Q1296 1000 1249 924T1108 794Q1004 734 878 714V702L1272 216Q1300 181 1323 160T1386 114Q1467 64 1572 64V0H1160L726 656Q712 678 695 687T642 696H514V144Q514 64 592 64H716V-2Q712
-2 593 0T422 2T251 0T128 -2ZM514 772H740Q900 772 996 844T1092 1068Q1092 1163 1049 1230T920 1350Q826 1408 638 1408Q576 1408 514 1400V772Z" />
<glyph unicode="&#x159;" glyph-name="rcaron" horiz-adv-x="850" d="M176 1430L212 1460L456 1202L700 1460L736 1430Q569 1221 468 1008H444Q343 1221 176 1430ZM74 -2V58H182Q232 58 232 108V695Q232 761 168 768L74 778V822L340 910H372V709L382 703Q437 773
500 827Q604 916 696 916Q744 916 771 887T798 821Q798 777 769 749T688 721Q663 721 625 741Q597 758 565 758Q486 758 372 627V108Q372 58 422 58H530V-2Q527 -2 432 0T302 2T173 0T74 -2Z" />
<glyph unicode="&#x15a;" glyph-name="Sacute" horiz-adv-x="1320" d="M562 1609L818 1848Q887 1912 948 1912Q975 1912 992 1890T1010 1842Q1010 1781 898 1728L584 1580L562 1609ZM120 410L186 432Q256 329 342 252Q405 195 442 166T528 107T629 67T746 56Q799
56 847 65T939 95T1016 150T1068 233T1088 348Q1088 392 1076 430T1045 496T995 550T933 592T857 626T778 653T692 678Q612 700 547 724T416 785T305 867T232 973T204 1110Q204 1196 246 1269T356 1389T508 1462T680 1488Q772 1488 866 1458Q978 1422 1008 1422Q1053
1422 1088 1488H1142L1188 1146L1124 1124Q1075 1199 1033 1244T922 1330Q857 1370 802 1385T668 1400Q536 1400 458 1333T380 1128Q380 1077 404 1034T465 962T557 908T662 868T776 840Q866 821 946 785T1094 695T1203 563T1244 394T1214 231T1134 112T1018 36T883
-7T744 -20Q671 -20 615 -8T490 40Q440 66 417 75T370 84Q345 84 317 58T266 -16H206L120 410Z" />
<glyph unicode="&#x15b;" glyph-name="sacute" horiz-adv-x="838" d="M638 1030L758 1364Q804 1488 876 1488Q911 1488 932 1466T954 1415Q954 1371 890 1285L682 1008L638 1030ZM76 221L117 242Q163 166 205 132Q310 42 425 42Q530 42 582 86T634 213Q634 288
585 327T413 405Q357 422 322 435T244 471T179 521T139 589T122 683Q122 793 199 854T388 916Q467 916 510 895Q560 875 585 875Q629 875 641 916H687L720 679L679 667Q634 745 592 785Q512 858 388 858Q314 858 264 822T214 725Q214 691 231 662T271 615T335 577T403
549T475 525Q622 479 694 418T766 249Q766 129 674 57T442 -16Q366 -16 300 9Q250 30 217 30Q199 30 186 18T167 -16H121L76 221Z" />
<glyph unicode="&#x15c;" glyph-name="Scircumflex" horiz-adv-x="1320" d="M356 1614Q580 1782 680 1912H744Q844 1782 1068 1614L1046 1580L712 1768L378 1580L356 1614ZM120 410L186 432Q256 329 342 252Q405 195 442 166T528 107T629 67T746 56Q799 56 847
65T939 95T1016 150T1068 233T1088 348Q1088 392 1076 430T1045 496T995 550T933 592T857 626T778 653T692 678Q612 700 547 724T416 785T305 867T232 973T204 1110Q204 1196 246 1269T356 1389T508 1462T680 1488Q772 1488 866 1458Q978 1422 1008 1422Q1053 1422
1088 1488H1142L1188 1146L1124 1124Q1075 1199 1033 1244T922 1330Q857 1370 802 1385T668 1400Q536 1400 458 1333T380 1128Q380 1077 404 1034T465 962T557 908T662 868T776 840Q866 821 946 785T1094 695T1203 563T1244 394T1214 231T1134 112T1018 36T883
-7T744 -20Q671 -20 615 -8T490 40Q440 66 417 75T370 84Q345 84 317 58T266 -16H206L120 410Z" />
<glyph unicode="&#x15d;" glyph-name="scircumflex" horiz-adv-x="838" d="M400 1038Q567 1247 668 1460H692Q793 1247 960 1038L924 1008L680 1266L436 1008L400 1038ZM76 221L117 242Q163 166 205 132Q310 42 425 42Q530 42 582 86T634 213Q634 288 585 327T413
405Q357 422 322 435T244 471T179 521T139 589T122 683Q122 793 199 854T388 916Q467 916 510 895Q560 875 585 875Q629 875 641 916H687L720 679L679 667Q634 745 592 785Q512 858 388 858Q314 858 264 822T214 725Q214 691 231 662T271 615T335 577T403 549T475
525Q622 479 694 418T766 249Q766 129 674 57T442 -16Q366 -16 300 9Q250 30 217 30Q199 30 186 18T167 -16H121L76 221Z" />
<glyph unicode="&#x15e;" glyph-name="Scedilla" horiz-adv-x="1328" d="M128 410L194 432Q264 329 350 252Q413 195 450 166T536 107T637 67T754 56Q807 56 855 65T947 95T1024 150T1076 233T1096 348Q1096 392 1084 430T1053 496T1003 550T941 592T865 626T786
653T700 678Q620 700 555 724T424 785T313 867T240 973T212 1110Q212 1196 254 1269T364 1389T516 1462T688 1488Q780 1488 874 1458Q986 1422 1016 1422Q1061 1422 1096 1488H1150L1196 1146L1132 1124Q1083 1199 1041 1244T930 1330Q865 1370 810 1385T676 1400Q544
1400 466 1333T388 1128Q388 1077 412 1034T473 962T565 908T670 868T784 840Q874 821 954 785T1102 695T1211 563T1252 394Q1252 289 1212 209T1105 82T961 11T797 -19L740 -112Q721 -142 721 -164Q721 -180 738 -194T797 -231Q864 -268 892 -303T920 -387Q920
-441 882 -479T790 -534T677 -550Q592 -550 486 -494L506 -454Q600 -502 676 -502Q720 -502 756 -482T792 -424Q792 -390 765 -367T685 -317Q605 -279 605 -240Q605 -210 649 -141L726 -20Q614 -20 498 40Q448 66 425 75T378 84Q353 84 325 58T274 -16H214L128
410Z" />
<glyph unicode="&#x15f;" glyph-name="scedilla" horiz-adv-x="838" d="M76 221L117 242Q163 166 205 132Q310 42 425 42Q530 42 582 86T634 213Q634 288 585 327T413 405Q357 422 322 435T245 471T179 521T139 589T122 683Q122 793 199 854T388 916Q467 916 510
895Q560 875 585 875Q629 875 641 916H687L720 679L679 667Q634 745 592 785Q512 858 388 858Q314 858 264 822T214 725Q214 691 231 662T271 615T335 577T403 549T475 525Q623 478 694 417T766 249Q766 140 689 69T489 -14L437 -91Q416 -125 416 -141Q416 -174
475 -206T565 -267T596 -337Q596 -408 538 -450T393 -492Q291 -492 202 -438L222 -400Q301 -444 392 -444Q435 -444 463 -426T492 -371Q492 -344 469 -324T394 -281Q320 -246 320 -208Q320 -175 348 -133L427 -16Q404 -16 363 -8T300 9Q250 30 217 30Q199 30 186
18T167 -16H121L76 221Z" />
<glyph unicode="&#x160;" glyph-name="Scaron" horiz-adv-x="1320" d="M356 1878L378 1912L712 1724L1046 1912L1068 1878Q844 1710 744 1580H680Q580 1710 356 1878ZM120 410L186 432Q256 329 342 252Q405 195 442 166T528 107T629 67T746 56Q799 56 847 65T939
95T1016 150T1068 233T1088 348Q1088 392 1076 430T1045 496T995 550T933 592T857 626T778 653T692 678Q612 700 547 724T416 785T305 867T232 973T204 1110Q204 1196 246 1269T356 1389T508 1462T680 1488Q772 1488 866 1458Q978 1422 1008 1422Q1053 1422 1088
1488H1142L1188 1146L1124 1124Q1075 1199 1033 1244T922 1330Q857 1370 802 1385T668 1400Q536 1400 458 1333T380 1128Q380 1077 404 1034T465 962T557 908T662 868T776 840Q866 821 946 785T1094 695T1203 563T1244 394T1214 231T1134 112T1018 36T883 -7T744
-20Q671 -20 615 -8T490 40Q440 66 417 75T370 84Q345 84 317 58T266 -16H206L120 410Z" />
<glyph unicode="&#x161;" glyph-name="scaron" horiz-adv-x="838" d="M400 1430L436 1460L680 1202L924 1460L960 1430Q793 1221 692 1008H668Q567 1221 400 1430ZM76 221L117 242Q163 166 205 132Q310 42 425 42Q530 42 582 86T634 213Q634 288 585 327T413 405Q357
422 322 435T244 471T179 521T139 589T122 683Q122 793 199 854T388 916Q467 916 510 895Q560 875 585 875Q629 875 641 916H687L720 679L679 667Q634 745 592 785Q512 858 388 858Q314 858 264 822T214 725Q214 691 231 662T271 615T335 577T403 549T475 525Q622
479 694 418T766 249Q766 129 674 57T442 -16Q366 -16 300 9Q250 30 217 30Q199 30 186 18T167 -16H121L76 221Z" />
<glyph unicode="&#x162;" glyph-name="Tcommaaccent" horiz-adv-x="1536" d="M106 1132L178 1462H512Q516 1462 635 1460T806 1458T977 1460T1100 1462H1434L1506 1132L1448 1110Q1423 1159 1381 1221T1298 1316Q1202 1396 1074 1396H898V144Q898 64 976 64H1112V-2Q1101
-2 1066 -2T979 0T889 1L820 -112Q801 -142 801 -164Q801 -180 818 -194T877 -231Q944 -268 972 -303T1000 -387Q1000 -441 962 -479T870 -534T757 -550Q672 -550 566 -494L586 -454Q680 -502 756 -502Q800 -502 836 -482T872 -424Q872 -390 845 -367T765 -317Q685
-279 685 -240Q685 -210 729 -141L817 -3L806 2Q750 2 631 0T500 -2V64H636Q714 64 714 144V1396H538Q410 1396 314 1316Q274 1283 232 1221T164 1110L106 1132Z" />
<glyph unicode="&#x163;" glyph-name="tcommaaccent" horiz-adv-x="740" d="M48 836V900Q274 919 274 1265H346V900H622Q622 853 614 836H346V246Q346 76 474 76Q574 76 639 201L676 176Q644 94 591 41Q535 -12 454 -16L403 -91Q382 -125 382 -141Q382 -174 441
-206T531 -267T562 -337Q562 -408 504 -450T359 -492Q257 -492 168 -438L188 -400Q267 -444 358 -444Q401 -444 429 -426T458 -371Q458 -344 435 -324T360 -281Q286 -246 286 -208Q286 -175 314 -133L390 -21V-12Q304 5 255 69T206 224V836H48Z" />
<glyph unicode="&#x164;" glyph-name="Tcaron" horiz-adv-x="1536" d="M450 1878L472 1912L806 1724L1140 1912L1162 1878Q938 1710 838 1580H774Q674 1710 450 1878ZM88 1132L160 1462H494Q498 1462 617 1460T788 1458T959 1460T1082 1462H1416L1488 1132L1430
1110Q1405 1159 1363 1221T1280 1316Q1184 1396 1056 1396H880V144Q880 64 958 64H1094V-2Q1084 -2 964 0T788 2T613 0T482 -2V64H618Q696 64 696 144V1396H520Q392 1396 296 1316Q256 1283 214 1221T146 1110L88 1132Z" />
<glyph unicode="&#x165;" glyph-name="tcaron" horiz-adv-x="740" d="M464 987Q540 1031 581 1079Q634 1142 634 1210Q634 1249 603 1279Q584 1296 543 1302Q512 1306 490 1328T467 1390Q467 1434 494 1461T558 1488Q620 1488 662 1432Q706 1373 706 1273Q706
1222 687 1167T631 1069Q576 1003 484 953L464 987ZM48 836V900Q274 919 274 1265H346V900H622Q622 853 614 836H346V246Q346 76 474 76Q574 76 639 201L676 176Q644 94 591 41Q531 -16 437 -16Q332 -16 269 52T206 224V836H48Z" />
<glyph unicode="&#x166;" glyph-name="Tbar" horiz-adv-x="1536" d="M106 1132L178 1462H512Q516 1462 635 1460T806 1458T977 1460T1100 1462H1434L1506 1132L1448 1110Q1423 1159 1381 1221T1298 1316Q1202 1396 1074 1396H898V784H1236V708H898V144Q898 106
921 85T984 64H1112V-2Q902 2 806 2L500 -2V64H630Q669 64 691 84T714 144V708H376V784H714V1396H538Q410 1396 314 1316Q274 1283 232 1221T164 1110L106 1132Z" />
<glyph unicode="&#x167;" glyph-name="tbar" horiz-adv-x="740" d="M48 506V570H206V836H48V900Q274 919 274 1265H346V900H622Q622 853 614 836H346V570H618V506H346V246Q346 76 474 76Q574 76 639 201L676 176Q644 94 591 41Q531 -16 437 -16Q332 -16 269 52T206
224V506H48Z" />
<glyph unicode="&#x168;" glyph-name="Utilde" horiz-adv-x="1700" d="M488 1667Q532 1741 596 1791T740 1842Q835 1842 942 1795Q980 1779 1002 1771T1062 1754T1139 1746Q1168 1746 1195 1763T1238 1798T1274 1847L1320 1825Q1276 1751 1212 1701T1068 1650Q970
1650 865 1698Q759 1746 669 1746Q640 1746 613 1729T570 1694T534 1645L488 1667ZM128 1396V1462Q132 1462 251 1460T422 1458T593 1460T716 1462V1396H592Q514 1396 514 1316V416Q514 335 546 255T648 124Q769 36 918 36Q1001 36 1079 68T1218 156Q1280 214 1311
297T1342 460V1316Q1342 1396 1264 1396H1140V1462Q1145 1462 1188 1461T1289 1459T1386 1458T1482 1459T1583 1461T1632 1462V1396H1508Q1430 1396 1430 1316V484Q1430 387 1394 281T1280 106Q1212 46 1119 9T918 -28Q640 -28 486 104Q412 167 371 260T330 456V1316Q330
1396 252 1396H128Z" />
<glyph unicode="&#x169;" glyph-name="utilde" horiz-adv-x="1060" d="M148 1075Q188 1164 255 1219T398 1274Q428 1274 458 1266T506 1248T554 1221Q642 1168 714 1168Q776 1168 836 1280L876 1255Q836 1166 769 1111T626 1056Q557 1056 468 1110Q381 1162 310
1162Q248 1162 188 1050L148 1075ZM44 834V892L318 908V291Q318 230 328 188T372 117Q400 94 429 84T506 74Q595 74 732 194V751Q732 796 701 815T598 834V892L872 908V149Q872 104 903 85T1006 66V8L732 -8V122L726 128Q567 -18 440 -18Q315 -18 257 43Q178 123
178 258V751Q178 796 147 815T44 834Z" />
<glyph unicode="&#x16a;" glyph-name="Umacron" horiz-adv-x="1700" d="M602 1702V1790H1206V1702H602ZM128 1396V1462Q132 1462 251 1460T422 1458T593 1460T716 1462V1396H592Q514 1396 514 1316V416Q514 335 546 255T648 124Q769 36 918 36Q1001 36 1079 68T1218
156Q1280 214 1311 297T1342 460V1316Q1342 1396 1264 1396H1140V1462Q1145 1462 1188 1461T1289 1459T1386 1458T1482 1459T1583 1461T1632 1462V1396H1508Q1430 1396 1430 1316V484Q1430 387 1394 281T1280 106Q1212 46 1119 9T918 -28Q640 -28 486 104Q412 167
371 260T330 456V1316Q330 1396 252 1396H128Z" />
<glyph unicode="&#x16b;" glyph-name="umacron" horiz-adv-x="1060" d="M218 1134V1222H806V1134H218ZM44 834V892L318 908V291Q318 230 328 188T372 117Q400 94 429 84T506 74Q595 74 732 194V751Q732 796 701 815T598 834V892L872 908V149Q872 104 903 85T1006
66V8L732 -8V122L726 128Q567 -18 440 -18Q315 -18 257 43Q178 123 178 258V751Q178 796 147 815T44 834Z" />
<glyph unicode="&#x16c;" glyph-name="Ubreve" horiz-adv-x="1700" d="M544 1910H592Q626 1809 705 1751T904 1692T1102 1750T1216 1910H1264Q1238 1775 1136 1686T904 1596T672 1685T544 1910ZM128 1396V1462Q132 1462 251 1460T422 1458T593 1460T716 1462V1396H592Q514
1396 514 1316V416Q514 335 546 255T648 124Q769 36 918 36Q1001 36 1079 68T1218 156Q1280 214 1311 297T1342 460V1316Q1342 1396 1264 1396H1140V1462Q1145 1462 1188 1461T1289 1459T1386 1458T1482 1459T1583 1461T1632 1462V1396H1508Q1430 1396 1430 1316V484Q1430
387 1394 281T1280 106Q1212 46 1119 9T918 -28Q640 -28 486 104Q412 167 371 260T330 456V1316Q330 1396 252 1396H128Z" />
<glyph unicode="&#x16d;" glyph-name="ubreve" horiz-adv-x="1060" d="M180 1432H228Q263 1318 335 1250T512 1182T688 1250T796 1432H844Q829 1340 789 1262T676 1131T512 1078T349 1131T236 1262T180 1432ZM44 834V892L318 908V291Q318 230 328 188T372 117Q400
94 429 84T506 74Q595 74 732 194V751Q732 796 701 815T598 834V892L872 908V149Q872 104 903 85T1006 66V8L732 -8V122L726 128Q567 -18 440 -18Q315 -18 257 43Q178 123 178 258V751Q178 796 147 815T44 834Z" />
<glyph unicode="&#x16e;" glyph-name="Uring" horiz-adv-x="1700" d="M638 1672T638 1762T713 1908T904 1964T1095 1908T1170 1762T1095 1616T904 1560T713 1616ZM702 1823T702 1762T756 1663T904 1624T1052 1662T1106 1762T1052 1861T904 1900T756 1862ZM128
1396V1462Q132 1462 251 1460T422 1458T593 1460T716 1462V1396H592Q514 1396 514 1316V416Q514 335 546 255T648 124Q769 36 918 36Q1001 36 1079 68T1218 156Q1280 214 1311 297T1342 460V1316Q1342 1396 1264 1396H1140V1462Q1145 1462 1188 1461T1289 1459T1386
1458T1482 1459T1583 1461T1632 1462V1396H1508Q1430 1396 1430 1316V484Q1430 387 1394 281T1280 106Q1212 46 1119 9T918 -28Q640 -28 486 104Q412 167 371 260T330 456V1316Q330 1396 252 1396H128Z" />
<glyph unicode="&#x16f;" glyph-name="uring" horiz-adv-x="1060" d="M282 1159T282 1258T347 1422T512 1488T676 1423T742 1258T677 1094T512 1028T348 1093ZM338 1258Q338 1184 388 1134T512 1084T636 1134T686 1258T636 1382T512 1432Q440 1432 389 1382T338
1258ZM44 834V892L318 908V291Q318 230 328 188T372 117Q400 94 429 84T506 74Q595 74 732 194V751Q732 796 701 815T598 834V892L872 908V149Q872 104 903 85T1006 66V8L732 -8V122L726 128Q567 -18 440 -18Q315 -18 257 43Q178 123 178 258V751Q178 796 147 815T44
834Z" />
<glyph unicode="&#x170;" glyph-name="Uhungarumlaut" horiz-adv-x="1700" d="M714 1607L895 1848Q922 1883 942 1897T995 1912Q1020 1912 1034 1894T1048 1854Q1048 1812 978 1760L741 1580L714 1607ZM1004 1607L1185 1848Q1212 1883 1232 1897T1285 1912Q1310
1912 1324 1894T1338 1854Q1338 1812 1268 1760L1031 1580L1004 1607ZM128 1396V1462Q132 1462 251 1460T422 1458T593 1460T716 1462V1396H592Q514 1396 514 1316V416Q514 335 546 255T648 124Q769 36 918 36Q1001 36 1079 68T1218 156Q1280 214 1311 297T1342
460V1316Q1342 1396 1264 1396H1140V1462Q1145 1462 1188 1461T1289 1459T1386 1458T1482 1459T1583 1461T1632 1462V1396H1508Q1430 1396 1430 1316V484Q1430 387 1394 281T1280 106Q1212 46 1119 9T918 -28Q640 -28 486 104Q412 167 371 260T330 456V1316Q330
1396 252 1396H128Z" />
<glyph unicode="&#x171;" glyph-name="uhungarumlaut" horiz-adv-x="1060" d="M336 1030L444 1352Q465 1416 490 1452T555 1488Q586 1488 603 1469T620 1424Q620 1389 564 1299L382 1008L336 1030ZM634 1030L742 1352Q763 1416 788 1452T853 1488Q884 1488 901
1469T918 1424Q918 1389 862 1299L680 1008L634 1030ZM44 834V892L318 908V291Q318 230 328 188T372 117Q400 94 429 84T506 74Q595 74 732 194V751Q732 796 701 815T598 834V892L872 908V149Q872 104 903 85T1006 66V8L732 -8V122L726 128Q567 -18 440 -18Q315
-18 257 43Q178 123 178 258V751Q178 796 147 815T44 834Z" />
<glyph unicode="&#x172;" glyph-name="Uogonek" horiz-adv-x="1700" d="M128 1396V1462Q132 1462 251 1460T422 1458T593 1460T716 1462V1396H592Q514 1396 514 1316V416Q514 335 546 255T648 124Q769 36 918 36Q1001 36 1079 68T1218 156Q1280 214 1311 297T1342
460V1316Q1342 1396 1264 1396H1140V1462Q1145 1462 1188 1461T1289 1459T1386 1458T1482 1459T1583 1461T1632 1462V1396H1508Q1430 1396 1430 1316V484Q1430 387 1394 281T1280 106Q1229 61 1113 3Q1019 -44 957 -134T894 -324Q894 -366 920 -392T981 -418Q1012
-418 1033 -401Q1066 -375 1078 -375Q1091 -375 1104 -388T1117 -411Q1117 -456 1064 -503T953 -550Q879 -550 829 -506T778 -379Q778 -295 831 -204T984 -31V-22Q942 -28 918 -28Q640 -28 486 104Q412 167 371 260T330 456V1316Q330 1396 252 1396H128Z" />
<glyph unicode="&#x173;" glyph-name="uogonek" horiz-adv-x="1060" d="M44 834V892L318 908V291Q318 230 328 188T372 117Q400 94 429 84T506 74Q595 74 732 194V751Q732 796 701 815T598 834V892L872 908V149Q872 104 903 85T1006 66V8L956 5Q855 -70 808 -134T760
-282Q760 -319 782 -341T839 -364Q871 -364 893 -345Q922 -318 937 -318Q949 -318 961 -329T974 -352Q974 -395 927 -437T830 -480Q756 -480 707 -439T658 -318T717 -156T879 -6V1L732 -8V122L726 128Q567 -18 440 -18Q315 -18 257 43Q178 123 178 258V751Q178
796 147 815T44 834Z" />
<glyph unicode="&#x174;" glyph-name="Wcircumflex" horiz-adv-x="2324" d="M838 1614Q1062 1782 1162 1912H1226Q1326 1782 1550 1614L1528 1580L1194 1768L860 1580L838 1614ZM64 1396V1462Q82 1462 202 1460T376 1458T550 1460T688 1462V1396H568Q534 1396
512 1377T490 1320T502 1244L820 269L1142 1128L1126 1178Q1110 1230 1098 1262T1066 1329T1021 1379T964 1396H880V1462Q898 1462 1018 1460T1192 1458T1366 1460T1504 1462V1396H1376Q1341 1396 1317 1372T1292 1302Q1292 1267 1318 1176L1616 268L1958 1182Q1984
1250 1984 1306Q1984 1396 1800 1396V1462Q1807 1462 1907 1460T2044 1458T2181 1460T2288 1462V1396H2278Q2227 1396 2195 1385T2127 1331T2060 1206L1595 -14H1510L1186 992L798 -14H714L330 1180Q261 1396 156 1396H64Z" />
<glyph unicode="&#x175;" glyph-name="wcircumflex" horiz-adv-x="1494" d="M462 1038Q629 1247 730 1460H754Q855 1247 1022 1038L986 1008L742 1266L498 1008L462 1038ZM16 842V902Q23 902 103 900T220 898T341 900T432 902V842H373Q353 842 338 831T322 802Q322
773 335 738L528 194L718 669L707 700Q680 775 654 800Q610 842 532 842V902Q539 902 621 900T740 898T859 900T948 902V842H883Q862 842 846 831T830 802Q830 770 844 738L1036 195L1229 677Q1242 709 1242 773Q1242 801 1220 821T1165 842H1118V902Q1122 902
1192 900T1290 898T1388 900T1462 902V842H1430Q1391 842 1366 814Q1336 780 1315 729L1018 -8H958L749 583L510 -8H450L199 700Q173 774 130 809Q89 842 16 842Z" />
<glyph unicode="&#x176;" glyph-name="Ycircumflex" horiz-adv-x="1600" d="M512 1614Q736 1782 836 1912H900Q1000 1782 1224 1614L1202 1580L868 1768L534 1580L512 1614ZM92 1396V1462Q111 1462 233 1460T404 1458T575 1460T716 1462V1396H596Q562 1396 536
1375T510 1316Q510 1276 526 1244L854 568L1204 1166Q1240 1228 1240 1288Q1240 1335 1200 1365T1068 1396V1462Q1074 1462 1176 1460T1320 1458T1462 1460T1568 1462V1396H1546Q1477 1396 1427 1347T1318 1202L894 488V146Q894 66 972 66H1108V0Q1098 0 978 2T802
4T627 2T496 0V66H632Q710 66 710 146V480L324 1258Q286 1333 253 1364T168 1396H92Z" />
<glyph unicode="&#x177;" glyph-name="ycircumflex" horiz-adv-x="1102" d="M288 1038Q455 1247 556 1460H580Q681 1247 848 1038L812 1008L568 1266L324 1008L288 1038ZM8 -406Q8 -359 38 -333T107 -307Q141 -307 174 -327Q207 -346 235 -346Q274 -346 315 -303T390
-193L496 20L205 700Q168 785 138 809Q97 842 24 842V902Q31 902 113 900T232 898T355 900T448 902V842H389Q368 842 349 831T330 802Q330 770 344 738L576 174L807 649Q846 729 846 770Q846 798 827 820T779 842H725V902Q729 902 802 900T904 898T1003 900T1078
902V842H1038Q1008 842 983 814Q951 776 929 729L453 -236Q390 -363 320 -431Q233 -516 132 -516Q80 -516 44 -488T8 -406Z" />
<glyph unicode="&#x178;" glyph-name="Ydieresis" horiz-adv-x="1600" d="M532 1710T532 1746T557 1806T619 1830T680 1806T706 1746T681 1683T619 1656T558 1683ZM1030 1710T1030 1746T1055 1806T1117 1830T1178 1806T1204 1746T1179 1683T1117 1656T1056 1683ZM92
1396V1462Q111 1462 233 1460T404 1458T575 1460T716 1462V1396H596Q562 1396 536 1375T510 1316Q510 1276 526 1244L854 568L1204 1166Q1240 1228 1240 1288Q1240 1335 1200 1365T1068 1396V1462Q1074 1462 1176 1460T1320 1458T1462 1460T1568 1462V1396H1546Q1477
1396 1427 1347T1318 1202L894 488V146Q894 66 972 66H1108V0Q1098 0 978 2T802 4T627 2T496 0V66H632Q710 66 710 146V480L324 1258Q286 1333 253 1364T168 1396H92Z" />
<glyph unicode="&#x179;" glyph-name="Zacute" horiz-adv-x="1412" d="M638 1609L894 1848Q963 1912 1024 1912Q1051 1912 1068 1890T1086 1842Q1086 1781 974 1728L660 1580L638 1609ZM88 0V48L1094 1384H678Q533 1384 422 1302Q309 1218 192 1040L132 1068L308
1460H1336V1412L340 76H896Q1034 76 1120 162Q1199 241 1252 384L1314 364L1236 0H88Z" />
<glyph unicode="&#x17a;" glyph-name="zacute" horiz-adv-x="906" d="M470 1030L590 1364Q636 1488 708 1488Q743 1488 764 1466T786 1415Q786 1371 722 1285L514 1008L470 1030ZM72 0V40L646 842H456Q359 842 272 763Q203 701 146 609L97 630L213 900H832V860L257
58H537Q640 58 705 135Q743 180 790 270L838 259L784 0H72Z" />
<glyph unicode="&#x17b;" glyph-name="Zdotaccent" horiz-adv-x="1412" d="M692 1704T692 1746T719 1815T788 1842T857 1815T884 1746T857 1677T788 1650T719 1677ZM88 0V48L1094 1384H678Q533 1384 422 1302Q309 1218 192 1040L132 1068L308 1460H1336V1412L340
76H896Q1034 76 1120 162Q1199 241 1252 384L1314 364L1236 0H88Z" />
<glyph unicode="&#x17c;" glyph-name="zdotaccent" horiz-adv-x="906" d="M388 1154T388 1206T424 1294T512 1330T600 1294T636 1206T600 1118T512 1082T424 1118ZM72 0V40L646 842H456Q359 842 272 763Q203 701 146 609L97 630L213 900H832V860L257 58H537Q640
58 705 135Q743 180 790 270L838 259L784 0H72Z" />
<glyph unicode="&#x17d;" glyph-name="Zcaron" horiz-adv-x="1412" d="M432 1878L454 1912L788 1724L1122 1912L1144 1878Q920 1710 820 1580H756Q656 1710 432 1878ZM88 0V48L1094 1384H678Q533 1384 422 1302Q309 1218 192 1040L132 1068L308 1460H1336V1412L340
76H896Q1034 76 1120 162Q1199 241 1252 384L1314 364L1236 0H88Z" />
<glyph unicode="&#x17e;" glyph-name="zcaron" horiz-adv-x="906" d="M232 1430L268 1460L512 1202L756 1460L792 1430Q625 1221 524 1008H500Q399 1221 232 1430ZM72 0V40L646 842H456Q359 842 272 763Q203 701 146 609L97 630L213 900H832V860L257 58H537Q640
58 705 135Q743 180 790 270L838 259L784 0H72Z" />
<glyph unicode="&#x17f;" glyph-name="longs" horiz-adv-x="614" d="M74 836Q74 883 82 900H240V966Q240 1043 258 1133T319 1291Q376 1382 458 1429T638 1476Q721 1476 763 1439T806 1349Q806 1310 781 1288T715 1266Q667 1266 623 1322Q587 1364 540 1364Q461
1364 414 1278Q380 1217 380 1060V108Q380 58 430 58H538V-2Q535 -2 440 0T310 2T181 0T82 -2V58H190Q240 58 240 108V836H74Z" />
<glyph unicode="&#x192;" glyph-name="florin" horiz-adv-x="1152" d="M62 -383Q62 -339 90 -311T158 -283Q185 -283 211 -303Q234 -320 256 -320Q283 -320 303 -291T346 -198Q419 17 502 459Q546 691 578 843H345L357 899H590Q634 1096 663 1194Q703 1332 775
1422T927 1512Q976 1512 1007 1483T1038 1411Q1038 1367 1010 1339T942 1311Q917 1311 894 1332Q877 1348 851 1348T809 1309T779 1191Q751 1026 739 899H964L958 843H730Q690 616 616 330T468 -132Q320 -484 173 -484Q124 -484 93 -455T62 -383Z" />
<glyph unicode="&#x1e2;" glyph-name="uni01E2" horiz-adv-x="2338" d="M1150 1702V1790H1754V1702H1150ZM86 0V66Q167 66 246 105T368 208L1004 1162Q1034 1206 1047 1239T1061 1314Q1061 1347 1036 1371T960 1396H846V1462H1006Q1025 1462 1138 1460T1300 1458T1462
1460T1594 1462H2106L2222 1148L2162 1120Q2133 1169 2089 1223T1994 1310Q1879 1384 1750 1384H1470Q1392 1384 1392 1304V796H1616Q1707 796 1766 853T1834 1036H1894V480H1834Q1818 720 1616 720H1392V156Q1392 76 1470 76H1834Q1909 76 1975 99T2082 162Q2129
210 2167 278T2226 406L2290 386L2198 -2H1594Q1590 -2 1471 0T1300 2T1129 0T1006 -2V64H1130Q1208 64 1208 144V632H754L538 302Q486 222 486 176Q486 139 513 103T590 66H668V0Q665 0 547 2T372 4T202 2T86 0ZM806 708H1208V1311L806 708Z" />
<glyph unicode="&#x1e3;" glyph-name="uni01E3" horiz-adv-x="1526" d="M478 1134V1222H1066V1134H478ZM104 175Q104 225 121 267T167 340T235 395T315 437T403 468Q536 509 657 524V665Q657 741 607 799T487 858Q390 858 349 807Q321 772 309 709Q304 682 285
662T231 642Q193 642 167 665T141 727Q141 809 245 862T483 916Q583 916 660 875T771 764Q916 916 1084 916Q1168 916 1230 894T1346 814Q1441 714 1458 528H830Q826 497 826 457Q826 282 906 179T1133 76Q1206 76 1274 117T1383 213L1420 176Q1375 104 1287 44T1104
-16Q1027 -16 961 3T850 54T780 109T738 157Q662 87 560 35T351 -17Q237 -17 175 29Q104 81 104 175ZM274 191Q274 132 314 95T416 57Q491 57 572 98T709 201Q656 299 656 476Q490 450 398 400Q274 332 274 191ZM839 586H1311Q1305 685 1247 763T1105 842Q1003
842 934 773T839 586Z" />
<glyph unicode="&#x1ea;" glyph-name="Oogonek" horiz-adv-x="1612" d="M144 541T144 730T199 1058T370 1314Q450 1394 570 1441T826 1488T1081 1441T1282 1314Q1398 1198 1453 1059T1508 730T1453 402T1282 146Q1203 67 1084 20T830 -28Q670 -168 670 -324Q670
-366 696 -392T757 -418Q788 -418 809 -401Q842 -375 854 -375Q867 -375 880 -388T893 -411Q893 -456 840 -503T729 -550Q655 -550 605 -506T554 -379Q554 -295 606 -204T751 -32V-24Q638 -12 539 32T370 146Q254 262 199 401ZM368 730Q368 562 398 413T490 194Q627
36 826 36T1162 194Q1224 264 1254 413T1284 730Q1284 899 1254 1047T1162 1266Q1025 1424 826 1424T490 1266Q428 1196 398 1048T368 730Z" />
<glyph unicode="&#x1eb;" glyph-name="oogonek" horiz-adv-x="1080" d="M84 450Q84 650 215 783T540 916T865 783T996 450Q996 253 868 121T550 -16Q464 -85 423 -143T382 -282Q382 -319 404 -341T461 -364Q493 -364 515 -345Q544 -318 558 -318Q571 -318 583
-329T596 -352Q596 -395 549 -437T452 -480Q378 -480 329 -439T280 -318Q280 -240 334 -163T485 -20V-13Q311 7 198 136T84 450ZM254 618T254 450T331 162T540 42T748 162T826 450T749 738T540 858T332 738Z" />
<glyph unicode="&#x1ec;" glyph-name="uni01EC" horiz-adv-x="1612" d="M524 1702V1790H1128V1702H524ZM144 541T144 730T199 1058T370 1314Q450 1394 570 1441T826 1488T1081 1441T1282 1314Q1398 1198 1453 1059T1508 730T1453 402T1282 146Q1203 67 1084 20T830
-28Q670 -168 670 -324Q670 -366 696 -392T757 -418Q788 -418 809 -401Q842 -375 854 -375Q867 -375 880 -388T893 -411Q893 -456 840 -503T729 -550Q655 -550 605 -506T554 -379Q554 -295 606 -204T751 -32V-24Q638 -12 539 32T370 146Q254 262 199 401ZM368 730Q368
562 398 413T490 194Q627 36 826 36T1162 194Q1224 264 1254 413T1284 730Q1284 899 1254 1047T1162 1266Q1025 1424 826 1424T490 1266Q428 1196 398 1048T368 730Z" />
<glyph unicode="&#x1ed;" glyph-name="uni01ED" horiz-adv-x="1080" d="M246 1134V1222H834V1134H246ZM84 450Q84 650 215 783T540 916T865 783T996 450Q996 253 868 121T550 -16Q464 -85 423 -143T382 -282Q382 -319 404 -341T461 -364Q493 -364 515 -345Q544
-318 558 -318Q571 -318 583 -329T596 -352Q596 -395 549 -437T452 -480Q378 -480 329 -439T280 -318Q280 -240 334 -163T485 -20V-13Q311 7 198 136T84 450ZM254 618T254 450T331 162T540 42T748 162T826 450T749 738T540 858T332 738Z" />
<glyph unicode="&#x1fa;" glyph-name="Aringacute" horiz-adv-x="1576" d="M88 -2V64H110Q185 64 237 112T326 258L748 1384L918 1404L1300 284Q1322 229 1335 198T1370 132T1415 80T1468 64H1540V-2Q1521 -2 1415 0T1260 2T1073 0T916 -2V64H1056Q1090 64 1114
85T1138 144Q1138 166 1122 216L1014 540H526L430 282Q402 206 402 158Q402 64 588 64V-2Q582 -2 480 0T336 2T194 0T88 -2ZM554 616H989L784 1232L554 616ZM628 1509T628 1574T680 1680T826 1722T971 1681T1024 1574T972 1468T826 1426T681 1467ZM692 1616T692
1574T725 1507T826 1482T927 1507T960 1574T927 1641T826 1666T725 1641ZM696 1743L863 1917Q906 1962 946 1962Q963 1962 975 1949T988 1918Q988 1883 919 1842L714 1721L696 1743Z" />
<glyph unicode="&#x1fb;" glyph-name="aringacute" horiz-adv-x="1030" d="M408 1771L612 2046Q674 2128 732 2128Q761 2128 777 2110T794 2064Q794 2040 781 2018T753 1983T711 1951L434 1746L408 1771ZM104 176Q104 226 121 268T167 340T236 395T316 437T403
468Q533 508 657 508V667Q657 743 607 800T487 858Q391 858 349 805Q321 770 309 707Q304 680 285 660T231 640Q193 640 167 663T141 725Q141 807 245 861T483 916Q592 916 676 867Q732 834 764 779T797 654V220Q797 171 814 135T869 98Q920 98 965 164L998 146Q915
-16 790 -16Q748 -16 712 19T661 94L649 90Q604 53 518 19T351 -16Q237 -16 175 30Q104 82 104 176ZM274 186Q274 128 314 93T416 58Q484 58 540 82T657 151V460Q502 456 387 395Q336 368 305 316T274 186ZM258 1359T258 1458T323 1622T488 1688T652 1623T718 1458T653
1294T488 1228T324 1293ZM314 1458Q314 1384 364 1334T488 1284T612 1334T662 1458T612 1582T488 1632Q416 1632 365 1582T314 1458Z" />
<glyph unicode="&#x1fc;" glyph-name="AEacute" horiz-adv-x="2338" d="M1302 1609L1558 1848Q1627 1912 1688 1912Q1715 1912 1732 1890T1750 1842Q1750 1781 1638 1728L1324 1580L1302 1609ZM86 0V66Q167 66 246 105T368 208L1004 1162Q1034 1206 1047 1239T1061
1314Q1061 1347 1036 1371T960 1396H846V1462H1006Q1025 1462 1138 1460T1300 1458T1462 1460T1594 1462H2106L2222 1148L2162 1120Q2133 1169 2089 1223T1994 1310Q1879 1384 1750 1384H1470Q1392 1384 1392 1304V796H1616Q1707 796 1766 853T1834 1036H1894V480H1834Q1818
720 1616 720H1392V156Q1392 76 1470 76H1834Q1909 76 1975 99T2082 162Q2129 210 2167 278T2226 406L2290 386L2198 -2H1594Q1590 -2 1471 0T1300 2T1129 0T1006 -2V64H1130Q1208 64 1208 144V632H754L538 302Q486 222 486 176Q486 139 513 103T590 66H668V0Q665
0 547 2T372 4T202 2T86 0ZM806 708H1208V1311L806 708Z" />
<glyph unicode="&#x1fd;" glyph-name="aeacute" horiz-adv-x="1526" d="M730 1030L850 1364Q896 1488 968 1488Q1003 1488 1024 1466T1046 1415Q1046 1371 982 1285L774 1008L730 1030ZM104 175Q104 225 121 267T167 340T235 395T315 437T403 468Q536 509 657
524V665Q657 741 607 799T487 858Q390 858 349 807Q321 772 309 709Q304 682 285 662T231 642Q193 642 167 665T141 727Q141 809 245 862T483 916Q583 916 660 875T771 764Q916 916 1084 916Q1168 916 1230 894T1346 814Q1441 714 1458 528H830Q826 497 826 457Q826
282 906 179T1133 76Q1206 76 1274 117T1383 213L1420 176Q1375 104 1287 44T1104 -16Q1027 -16 961 3T850 54T780 109T738 157Q662 87 560 35T351 -17Q237 -17 175 29Q104 81 104 175ZM274 191Q274 132 314 95T416 57Q491 57 572 98T709 201Q656 299 656 476Q490
450 398 400Q274 332 274 191ZM839 586H1311Q1305 685 1247 763T1105 842Q1003 842 934 773T839 586Z" />
<glyph unicode="&#x1fe;" glyph-name="Oslashacute" horiz-adv-x="1612" d="M676 1609L932 1848Q1001 1912 1062 1912Q1089 1912 1106 1890T1124 1842Q1124 1781 1012 1728L698 1580L676 1609ZM138 30L306 217Q144 419 144 730Q144 919 199 1058T370 1314Q450
1394 570 1441T826 1488Q952 1488 1074 1444T1287 1309L1448 1488L1514 1430L1346 1243Q1508 1041 1508 730Q1508 541 1453 402T1282 146Q1202 66 1082 19T826 -28Q700 -28 578 16T365 151L204 -28L138 30ZM368 730Q368 503 417 340L1199 1211Q1181 1246 1162 1266Q1025
1424 826 1424T490 1266Q428 1196 398 1048T368 730ZM453 249Q471 214 490 194Q627 36 826 36T1162 194Q1224 264 1254 413T1284 730Q1284 957 1235 1120L453 249Z" />
<glyph unicode="&#x1ff;" glyph-name="oslashacute" horiz-adv-x="1080" d="M498 1030L618 1364Q664 1488 736 1488Q771 1488 792 1466T814 1415Q814 1371 750 1285L542 1008L498 1030ZM84 28L194 141Q84 270 84 450Q84 650 215 783T540 916Q717 916 843 804L952
916L996 872L886 760Q996 631 996 450Q996 251 865 118T540 -16Q365 -16 238 95L130 -16L84 28ZM254 450Q254 337 291 240L760 720Q679 858 540 858Q409 858 332 738T254 450ZM320 179Q402 42 540 42Q671 42 748 162T826 450Q826 563 789 660L320 179Z" />
<glyph unicode="&#x218;" glyph-name="Scommaaccent" horiz-adv-x="1320" d="M620 -204Q620 -165 649 -141T717 -116Q782 -116 832 -172Q880 -227 880 -304Q880 -408 800 -477Q748 -522 658 -560L641 -526Q722 -493 759 -457Q800 -417 800 -353Q800 -318 766 -297Q745
-284 703 -281Q667 -279 644 -259T620 -204ZM120 410L186 432Q256 329 342 252Q405 195 442 166T528 107T629 67T746 56Q799 56 847 65T939 95T1016 150T1068 233T1088 348Q1088 392 1076 430T1045 496T995 550T933 592T857 626T778 653T692 678Q612 700 547 724T416
785T305 867T232 973T204 1110Q204 1196 246 1269T356 1389T508 1462T680 1488Q772 1488 866 1458Q978 1422 1008 1422Q1053 1422 1088 1488H1142L1188 1146L1124 1124Q1075 1199 1033 1244T922 1330Q857 1370 802 1385T668 1400Q536 1400 458 1333T380 1128Q380
1077 404 1034T465 962T557 908T662 868T776 840Q866 821 946 785T1094 695T1203 563T1244 394T1214 231T1134 112T1018 36T883 -7T744 -20Q671 -20 615 -8T490 40Q440 66 417 75T370 84Q345 84 317 58T266 -16H206L120 410Z" />
<glyph unicode="&#x219;" glyph-name="scommaaccent" horiz-adv-x="838" d="M584 -204Q584 -165 613 -141T681 -116Q746 -116 796 -172Q844 -227 844 -304Q844 -408 764 -477Q712 -522 622 -560L605 -526Q686 -493 723 -457Q764 -417 764 -353Q764 -318 730 -297Q709
-284 667 -281Q631 -279 608 -259T584 -204ZM76 221L117 242Q163 166 205 132Q310 42 425 42Q530 42 582 86T634 213Q634 288 585 327T413 405Q357 422 322 435T244 471T179 521T139 589T122 683Q122 793 199 854T388 916Q467 916 510 895Q560 875 585 875Q629
875 641 916H687L720 679L679 667Q634 745 592 785Q512 858 388 858Q314 858 264 822T214 725Q214 691 231 662T271 615T335 577T403 549T475 525Q622 479 694 418T766 249Q766 129 674 57T442 -16Q366 -16 300 9Q250 30 217 30Q199 30 186 18T167 -16H121L76 221Z"
/>
<glyph unicode="&#x21a;" glyph-name="uni021A" horiz-adv-x="1536" d="M88 1132L160 1462H494Q498 1462 617 1460T788 1458T959 1460T1082 1462H1416L1488 1132L1430 1110Q1405 1159 1363 1221T1280 1316Q1184 1396 1056 1396H880V144Q880 64 958 64H1094V-2Q1084
-2 964 0T788 2T613 0T482 -2V64H618Q696 64 696 144V1396H520Q392 1396 296 1316Q256 1283 214 1221T146 1110L88 1132ZM698 -204Q698 -165 727 -141T795 -116Q860 -116 910 -172Q958 -227 958 -304Q958 -408 878 -477Q826 -522 736 -560L719 -526Q800 -493 837
-457Q878 -417 878 -353Q878 -318 844 -297Q823 -284 781 -281Q745 -279 722 -259T698 -204Z" />
<glyph unicode="&#x21b;" glyph-name="uni021B" horiz-adv-x="740" d="M48 836V900Q274 919 274 1265H346V900H622Q622 853 614 836H346V246Q346 76 474 76Q574 76 639 201L676 176Q644 94 591 41Q531 -16 437 -16Q332 -16 269 52T206 224V836H48ZM546 -204Q546
-165 575 -141T643 -116Q708 -116 758 -172Q806 -227 806 -304Q806 -408 726 -477Q674 -522 584 -560L567 -526Q648 -493 685 -457Q726 -417 726 -353Q726 -318 692 -297Q671 -284 629 -281Q593 -279 570 -259T546 -204Z" />
<glyph unicode="&#x232;" glyph-name="uni0232" horiz-adv-x="1600" d="M566 1702V1790H1170V1702H566ZM92 1396V1462Q111 1462 233 1460T404 1458T575 1460T716 1462V1396H596Q562 1396 536 1375T510 1316Q510 1276 526 1244L854 568L1204 1166Q1240 1228 1240
1288Q1240 1335 1200 1365T1068 1396V1462Q1074 1462 1176 1460T1320 1458T1462 1460T1568 1462V1396H1546Q1477 1396 1427 1347T1318 1202L894 488V146Q894 66 972 66H1108V0Q1098 0 978 2T802 4T627 2T496 0V66H632Q710 66 710 146V480L324 1258Q286 1333 253
1364T168 1396H92Z" />
<glyph unicode="&#x233;" glyph-name="uni0233" horiz-adv-x="1102" d="M274 1134V1222H862V1134H274ZM8 -406Q8 -359 38 -333T107 -307Q141 -307 174 -327Q207 -346 235 -346Q274 -346 315 -303T390 -193L496 20L205 700Q168 785 138 809Q97 842 24 842V902Q31
902 113 900T232 898T355 900T448 902V842H389Q368 842 349 831T330 802Q330 770 344 738L576 174L807 649Q846 729 846 770Q846 798 827 820T779 842H725V902Q729 902 802 900T904 898T1003 900T1078 902V842H1038Q1008 842 983 814Q951 776 929 729L453 -236Q390
-363 320 -431Q233 -516 132 -516Q80 -516 44 -488T8 -406Z" />
<glyph unicode="&#x237;" glyph-name="uni0237" horiz-adv-x="572" d="M-96 -368Q-96 -330 -70 -309T-2 -287Q33 -287 79 -329Q113 -358 141 -358Q176 -358 207 -330T250 -258Q266 -194 266 -42V695Q266 761 202 768L108 778V822L374 910H406V50Q406 -32 381 -147T303
-333Q197 -474 29 -474Q-28 -474 -62 -443T-96 -368Z" />
<glyph unicode="&#x2bb;" glyph-name="uni02BB" horiz-adv-x="420" d="M72 1192Q72 1378 296 1488L318 1452Q236 1410 194 1363T152 1252Q152 1213 186 1192Q207 1179 249 1176Q284 1173 308 1148T332 1086Q332 1043 304 1016T234 988Q169 988 119 1044Q72 1097 72 1192Z" />
<glyph unicode="&#x2bc;" glyph-name="afii57929" horiz-adv-x="420" d="M88 1390Q88 1433 116 1460T186 1488Q251 1488 301 1432Q348 1379 348 1284Q348 1098 124 988L102 1024Q184 1066 226 1113T268 1224Q268 1263 234 1284Q213 1297 171 1300Q136 1303 112
1328T88 1390Z" />
<glyph unicode="&#x2bd;" glyph-name="afii64937" horiz-adv-x="420" d="M72 1284Q72 1379 119 1432Q169 1488 234 1488Q275 1488 303 1461T332 1390Q332 1354 308 1329T249 1300Q207 1297 186 1284Q152 1263 152 1224Q152 1160 194 1113T318 1024L296 988Q72
1098 72 1284Z" />
<glyph unicode="&#x2c6;" glyph-name="circumflex" horiz-adv-x="880" d="M160 1038Q327 1247 428 1460H452Q553 1247 720 1038L684 1008L440 1266L196 1008L160 1038Z" />
<glyph unicode="&#x2c7;" glyph-name="caron" horiz-adv-x="880" d="M160 1430L196 1460L440 1202L684 1460L720 1430Q553 1221 452 1008H428Q327 1221 160 1430Z" />
<glyph unicode="&#x2c9;" glyph-name="overscore" horiz-adv-x="880" d="M146 1134V1222H734V1134H146Z" />
<glyph unicode="&#x2ca;" glyph-name="acute" horiz-adv-x="880" d="M398 1030L518 1364Q564 1488 636 1488Q671 1488 692 1466T714 1415Q714 1371 650 1285L442 1008L398 1030Z" />
<glyph unicode="&#x2cb;" glyph-name="grave" horiz-adv-x="880" d="M166 1415Q166 1443 187 1465T244 1488Q316 1488 362 1364L482 1030L438 1008L230 1285Q166 1371 166 1415Z" />
<glyph unicode="&#x2d8;" glyph-name="breve" horiz-adv-x="880" d="M108 1432H156Q191 1318 263 1250T440 1182T616 1250T724 1432H772Q757 1340 717 1262T604 1131T440 1078T277 1131T164 1262T108 1432Z" />
<glyph unicode="&#x2d9;" glyph-name="dotaccent" horiz-adv-x="880" d="M316 1154T316 1206T352 1294T440 1330T528 1294T564 1206T528 1118T440 1082T352 1118Z" />
<glyph unicode="&#x2da;" glyph-name="ring" horiz-adv-x="880" d="M210 1159T210 1258T275 1422T440 1488T604 1423T670 1258T605 1094T440 1028T276 1093ZM266 1258Q266 1184 316 1134T440 1084T564 1134T614 1258T564 1382T440 1432Q368 1432 317 1382T266 1258Z" />
<glyph unicode="&#x2db;" glyph-name="ogonek" horiz-adv-x="880" d="M180 -318Q180 -148 440 26L470 0Q421 -38 392 -64T335 -126T295 -199T282 -282Q282 -319 304 -341T361 -364Q396 -364 415 -345Q444 -318 458 -318Q471 -318 483 -329T496 -352Q496 -395 449
-437T352 -480Q278 -480 229 -439T180 -318Z" />
<glyph unicode="&#x2dc;" glyph-name="tilde" horiz-adv-x="880" d="M76 1075Q116 1164 183 1219T326 1274Q356 1274 386 1266T434 1248T482 1221Q570 1168 642 1168Q704 1168 764 1280L804 1255Q764 1166 697 1111T554 1056Q485 1056 396 1110Q309 1162 238 1162Q176
1162 116 1050L76 1075Z" />
<glyph unicode="&#x2dd;" glyph-name="hungarumlaut" horiz-adv-x="880" d="M264 1030L372 1352Q393 1416 418 1452T483 1488Q514 1488 531 1469T548 1424Q548 1389 492 1299L310 1008L264 1030ZM562 1030L670 1352Q691 1416 716 1452T781 1488Q812 1488 829 1469T846
1424Q846 1389 790 1299L608 1008L562 1030Z" />
<glyph unicode="&#x300;" glyph-name="gravecomb" horiz-adv-x="0" d="M-714 1415Q-714 1443 -693 1465T-636 1488Q-564 1488 -518 1364L-398 1030L-442 1008L-650 1285Q-714 1371 -714 1415Z" />
<glyph unicode="&#x301;" glyph-name="acutecomb" horiz-adv-x="0" d="M-482 1030L-362 1364Q-316 1488 -244 1488Q-209 1488 -188 1466T-166 1415Q-166 1371 -230 1285L-438 1008L-482 1030Z" />
<glyph unicode="&#x302;" glyph-name="circumflexcmb" horiz-adv-x="0" d="M-720 1038Q-553 1247 -452 1460H-428Q-327 1247 -160 1038L-196 1008L-440 1266L-684 1008L-720 1038Z" />
<glyph unicode="&#x303;" glyph-name="tildecomb" horiz-adv-x="0" d="M-804 1075Q-764 1164 -697 1219T-554 1274Q-524 1274 -494 1266T-446 1248T-398 1221Q-310 1168 -238 1168Q-176 1168 -116 1280L-76 1255Q-116 1166 -183 1111T-326 1056Q-395 1056 -484
1110Q-571 1162 -642 1162Q-704 1162 -764 1050L-804 1075Z" />
<glyph unicode="&#x304;" glyph-name="macroncmb" horiz-adv-x="0" d="M-734 1134V1222H-146V1134H-734Z" />
<glyph unicode="&#x305;" glyph-name="uni0305" horiz-adv-x="0" d="M-1026 1678V1766H146V1678H-1026Z" />
<glyph unicode="&#x306;" glyph-name="brevecmb" horiz-adv-x="0" d="M-772 1432H-724Q-689 1318 -617 1250T-440 1182T-264 1250T-156 1432H-108Q-123 1340 -163 1262T-276 1131T-440 1078T-603 1131T-716 1262T-772 1432Z" />
<glyph unicode="&#x307;" glyph-name="uni0307" horiz-adv-x="0" d="M-564 1154T-564 1206T-528 1294T-440 1330T-352 1294T-316 1206T-352 1118T-440 1082T-528 1118Z" />
<glyph unicode="&#x308;" glyph-name="uni0308" horiz-adv-x="0" d="M-740 1166T-740 1208T-713 1277T-644 1304T-575 1277T-548 1208T-575 1139T-644 1112T-713 1139ZM-332 1166T-332 1208T-305 1277T-236 1304T-167 1277T-140 1208T-167 1139T-236 1112T-305 1139Z" />
<glyph unicode="&#x30a;" glyph-name="uni030A" horiz-adv-x="0" d="M-670 1159T-670 1258T-605 1422T-440 1488T-276 1423T-210 1258T-275 1094T-440 1028T-604 1093ZM-614 1258Q-614 1184 -564 1134T-440 1084T-316 1134T-266 1258T-316 1382T-440 1432Q-512
1432 -563 1382T-614 1258Z" />
<glyph unicode="&#x30b;" glyph-name="uni030B" horiz-adv-x="0" d="M-616 1030L-508 1352Q-487 1416 -462 1452T-397 1488Q-366 1488 -349 1469T-332 1424Q-332 1389 -388 1299L-570 1008L-616 1030ZM-318 1030L-210 1352Q-189 1416 -164 1452T-99 1488Q-68 1488
-51 1469T-34 1424Q-34 1389 -90 1299L-272 1008L-318 1030Z" />
<glyph unicode="&#x30c;" glyph-name="uni030C" horiz-adv-x="0" d="M-720 1430L-684 1460L-440 1202L-196 1460L-160 1430Q-327 1221 -428 1008H-452Q-553 1221 -720 1430Z" />
<glyph unicode="&#x30f;" glyph-name="uni030F" horiz-adv-x="0" d="M-846 1424Q-846 1449 -829 1468T-781 1488Q-741 1488 -716 1452T-670 1352L-562 1030L-608 1008L-790 1299Q-846 1389 -846 1424ZM-548 1424Q-548 1449 -531 1468T-483 1488Q-443 1488 -418
1452T-372 1352L-264 1030L-310 1008L-492 1299Q-548 1389 -548 1424Z" />
<glyph unicode="&#x311;" glyph-name="uni0311" horiz-adv-x="0" d="M-772 1078Q-757 1170 -717 1248T-604 1379T-440 1432T-277 1379T-164 1248T-108 1078H-156Q-191 1192 -263 1260T-440 1328T-616 1260T-724 1078H-772Z" />
<glyph unicode="&#x312;" glyph-name="uni0312" horiz-adv-x="0" d="M-584 1192Q-584 1378 -360 1488L-338 1452Q-420 1410 -462 1363T-504 1252Q-504 1213 -470 1192Q-449 1179 -407 1176Q-372 1173 -348 1148T-324 1086Q-324 1043 -352 1016T-422 988Q-487 988
-537 1044Q-584 1097 -584 1192Z" />
<glyph unicode="&#x313;" glyph-name="uni0313" horiz-adv-x="0" d="M-568 1390Q-568 1433 -540 1460T-470 1488Q-405 1488 -355 1432Q-308 1379 -308 1284Q-308 1098 -532 988L-554 1024Q-472 1066 -430 1113T-388 1224Q-388 1263 -422 1284Q-443 1297 -485 1300Q-520
1303 -544 1328T-568 1390Z" />
<glyph unicode="&#x314;" glyph-name="uni0314" horiz-adv-x="0" d="M-584 1284Q-584 1379 -537 1432Q-487 1488 -422 1488Q-381 1488 -353 1461T-324 1390Q-324 1354 -348 1329T-407 1300Q-449 1297 -470 1284Q-504 1263 -504 1224Q-504 1160 -462 1113T-338
1024L-360 988Q-584 1098 -584 1284Z" />
<glyph unicode="&#x316;" glyph-name="uni0316" horiz-adv-x="0" d="M-714 -143Q-714 -115 -693 -93T-636 -70Q-564 -70 -518 -194L-398 -528L-442 -550L-650 -273Q-714 -187 -714 -143Z" />
<glyph unicode="&#x317;" glyph-name="uni0317" horiz-adv-x="0" d="M-482 -528L-362 -194Q-316 -70 -244 -70Q-209 -70 -188 -92T-166 -143Q-166 -187 -230 -273L-438 -550L-482 -528Z" />
<glyph unicode="&#x323;" glyph-name="dotbelowcomb" horiz-adv-x="0" d="M-564 -348T-564 -296T-528 -208T-440 -172T-352 -208T-316 -296T-352 -384T-440 -420T-528 -384Z" />
<glyph unicode="&#x324;" glyph-name="uni0324" horiz-adv-x="0" d="M-740 -336T-740 -294T-713 -225T-644 -198T-575 -225T-548 -294T-575 -363T-644 -390T-713 -363ZM-332 -336T-332 -294T-305 -225T-236 -198T-167 -225T-140 -294T-167 -363T-236 -390T-305 -363Z" />
<glyph unicode="&#x325;" glyph-name="uni0325" horiz-adv-x="0" d="M-670 -427T-670 -328T-605 -164T-440 -98T-276 -163T-210 -328T-275 -492T-440 -558T-604 -493ZM-614 -328Q-614 -402 -564 -452T-440 -502T-316 -452T-266 -328T-316 -204T-440 -154Q-512
-154 -563 -204T-614 -328Z" />
<glyph unicode="&#x326;" glyph-name="uni0326" horiz-adv-x="0" d="M-548 -204Q-548 -165 -519 -141T-451 -116Q-386 -116 -336 -172Q-288 -227 -288 -304Q-288 -408 -368 -477Q-420 -522 -510 -560L-527 -526Q-446 -493 -409 -457Q-368 -417 -368 -353Q-368
-318 -402 -297Q-423 -284 -465 -281Q-501 -279 -524 -259T-548 -204Z" />
<glyph unicode="&#x327;" glyph-name="uni0327" horiz-adv-x="0" d="M-636 -438L-616 -400Q-537 -444 -446 -444Q-403 -444 -375 -426T-346 -371Q-346 -344 -369 -324T-444 -281Q-518 -246 -518 -208Q-518 -175 -490 -133L-382 27L-340 0L-401 -91Q-422 -125 -422
-141Q-422 -174 -363 -206T-273 -267T-242 -337Q-242 -408 -300 -450T-445 -492Q-547 -492 -636 -438Z" />
<glyph unicode="&#x328;" glyph-name="uni0328" horiz-adv-x="0" d="M-700 -318Q-700 -148 -440 26L-410 0Q-459 -38 -488 -64T-545 -126T-585 -199T-598 -282Q-598 -319 -576 -341T-519 -364Q-484 -364 -465 -345Q-436 -318 -422 -318Q-409 -318 -397 -329T-384
-352Q-384 -395 -431 -437T-528 -480Q-602 -480 -651 -439T-700 -318Z" />
<glyph unicode="&#x32c;" glyph-name="uni032C" horiz-adv-x="0" d="M-720 -128L-684 -98L-440 -356L-196 -98L-160 -128Q-327 -337 -428 -550H-452Q-553 -337 -720 -128Z" />
<glyph unicode="&#x32d;" glyph-name="uni032D" horiz-adv-x="0" d="M-720 -520Q-553 -311 -452 -98H-428Q-327 -311 -160 -520L-196 -550L-440 -292L-684 -550L-720 -520Z" />
<glyph unicode="&#x32e;" glyph-name="uni032E" horiz-adv-x="0" d="M-720 -132L-672 -116Q-640 -209 -582 -265T-440 -322T-299 -266T-208 -116L-160 -132Q-178 -211 -213 -276T-308 -388T-440 -434T-572 -388T-667 -277T-720 -132Z" />
<glyph unicode="&#x32f;" glyph-name="uni032F" horiz-adv-x="0" d="M-720 -418Q-702 -339 -667 -274T-572 -162T-440 -116T-308 -162T-213 -273T-160 -418L-208 -434Q-240 -341 -298 -285T-440 -228T-581 -284T-672 -434L-720 -418Z" />
<glyph unicode="&#x330;" glyph-name="uni0330" horiz-adv-x="0" d="M-804 -389Q-764 -300 -697 -245T-554 -190Q-524 -190 -494 -198T-446 -216T-398 -243Q-310 -296 -238 -296Q-176 -296 -116 -184L-76 -209Q-116 -298 -183 -353T-326 -408Q-395 -408 -484 -354Q-571
-302 -642 -302Q-704 -302 -764 -414L-804 -389Z" />
<glyph unicode="&#x331;" glyph-name="uni0331" horiz-adv-x="0" d="M-734 -334V-246H-146V-334H-734Z" />
<glyph unicode="&#x342;" glyph-name="uni0342" horiz-adv-x="0" d="M-764 1252Q-764 1318 -722 1366T-612 1414Q-572 1414 -533 1392T-473 1351T-425 1298Q-365 1230 -300 1230Q-269 1230 -251 1247T-232 1291Q-232 1314 -239 1330Q-250 1358 -250 1366Q-250
1384 -238 1398T-206 1412Q-162 1412 -139 1374T-116 1280Q-116 1214 -158 1166T-268 1118Q-308 1118 -347 1140T-407 1181T-455 1234Q-515 1302 -580 1302Q-611 1302 -629 1285T-648 1241Q-648 1218 -641 1202Q-630 1175 -630 1166Q-630 1148 -642 1134T-674 1120Q-718
1120 -741 1158T-764 1252Z" />
<glyph unicode="&#x343;" glyph-name="uni0343" horiz-adv-x="0" d="M-584 1010Q-584 1040 -531 1062Q-400 1117 -400 1202Q-400 1235 -414 1253T-463 1287Q-550 1326 -550 1400Q-550 1439 -522 1463T-452 1488Q-377 1488 -331 1423T-284 1278Q-284 1142 -380
1060Q-421 1025 -468 1002T-548 978Q-564 978 -574 987T-584 1010Z" />
<glyph unicode="&#x344;" glyph-name="uni0344" horiz-adv-x="0" d="M-770 1068T-770 1104T-745 1164T-683 1188T-622 1164T-596 1104T-621 1041T-683 1014T-744 1041ZM-516 1010Q-516 1028 -510 1056L-426 1438Q-410 1509 -387 1544T-322 1580Q-290 1580 -270
1559T-250 1508Q-250 1462 -286 1385L-434 1062Q-467 988 -484 988Q-516 988 -516 1010ZM-304 1068T-304 1104T-279 1164T-217 1188T-156 1164T-130 1104T-155 1041T-217 1014T-278 1041Z" />
<glyph unicode="&#x345;" glyph-name="uni0345" horiz-adv-x="0" d="M-586 -543Q-586 -482 -548 -370L-493 -204Q-473 -198 -440 -198Q-406 -198 -390 -204L-449 -360Q-470 -414 -470 -438Q-470 -467 -436 -476Q-398 -486 -398 -522Q-398 -559 -438 -597T-522
-636Q-551 -636 -568 -608T-586 -543Z" />
<glyph unicode="&#x359;" glyph-name="uni0359" horiz-adv-x="0" d="M-632 -243Q-632 -225 -620 -215T-589 -204Q-559 -204 -522 -247Q-506 -267 -487 -284T-462 -301T-456 -295Q-456 -260 -472 -218Q-484 -185 -484 -167Q-484 -148 -471 -132T-440 -116T-409
-132T-396 -167Q-396 -185 -408 -218Q-424 -260 -424 -295Q-424 -301 -418 -301T-393 -284T-358 -247Q-321 -204 -291 -204Q-272 -204 -260 -214T-248 -243Q-248 -271 -269 -284T-331 -304Q-402 -316 -402 -332T-331 -360Q-290 -367 -269 -380T-248 -421Q-248 -439
-260 -449T-291 -460Q-321 -460 -358 -417Q-374 -397 -393 -380T-418 -363T-424 -369Q-424 -404 -408 -446Q-396 -479 -396 -497Q-396 -516 -409 -532T-440 -548T-471 -532T-484 -497Q-484 -479 -472 -446Q-456 -404 -456 -369Q-456 -363 -462 -363T-487 -380T-522
-417Q-559 -460 -589 -460Q-608 -460 -620 -450T-632 -421Q-632 -393 -611 -380T-549 -360Q-478 -348 -478 -332T-549 -304Q-590 -297 -611 -284T-632 -243Z" />
<glyph unicode="&#x374;" glyph-name="uni0374" horiz-adv-x="420" d="M88 1006L204 1452Q215 1497 241 1528T309 1560Q341 1560 360 1539T380 1491Q380 1447 350 1392L130 992L88 1006Z" />
<glyph unicode="&#x375;" glyph-name="uni0375" horiz-adv-x="420" d="M40 -491Q40 -447 70 -392L290 8L332 -6L216 -452Q205 -497 179 -528T111 -560Q79 -560 60 -539T40 -491Z" />
<glyph unicode="&#x37a;" glyph-name="uni037A" horiz-adv-x="880" d="M294 -543Q294 -482 332 -370L387 -204Q407 -198 440 -198Q474 -198 490 -204L431 -360Q410 -414 410 -438Q410 -467 444 -476Q482 -486 482 -522Q482 -559 442 -597T358 -636Q329 -636 312
-608T294 -543Z" />
<glyph unicode="&#x37e;" glyph-name="uni037E" horiz-adv-x="528" d="M74 -317Q116 -291 147 -269T215 -214T271 -142T291 -64Q291 -9 237 9Q142 41 142 128Q142 178 174 212T252 246Q323 246 371 189Q414 138 414 50Q414 7 399 -41T350 -144T252 -256T99 -358L74
-317ZM284 613T284 667T321 758T412 795T503 758T540 667T503 576T412 539T321 576Z" />
<glyph unicode="&#x384;" glyph-name="tonos" horiz-adv-x="412" d="M64 1006Q64 1020 73 1043L234 1458Q257 1519 281 1549T348 1580Q379 1580 399 1560T420 1508Q420 1461 370 1389L119 1018Q97 988 85 988Q64 988 64 1006Z" />
<glyph unicode="&#x385;" glyph-name="dieresistonos" horiz-adv-x="880" d="M110 1068T110 1104T135 1164T197 1188T258 1164T284 1104T259 1041T197 1014T136 1041ZM364 1010Q364 1028 370 1056L454 1438Q470 1509 493 1544T558 1580Q590 1580 610 1559T630
1508Q630 1462 594 1385L446 1062Q413 988 396 988Q364 988 364 1010ZM576 1068T576 1104T601 1164T663 1188T724 1164T750 1104T725 1041T663 1014T602 1041Z" />
<glyph unicode="&#x386;" glyph-name="Alphatonos" horiz-adv-x="1624" d="M88 -2V64H110Q185 64 237 112T326 258L772 1452L936 1488L1348 284Q1370 229 1383 198T1418 132T1463 80T1516 64H1588V-2Q1569 -2 1463 0T1308 2T1121 0T964 -2V64H1104Q1138 64 1162
85T1186 144Q1186 172 1170 216L1062 540H524L430 282Q402 208 402 158Q402 64 588 64V-2Q582 -2 480 0T336 2T194 0T88 -2ZM554 616H1036L808 1300L554 616ZM72 1006Q72 1020 81 1043L242 1458Q265 1519 289 1549T356 1580Q387 1580 407 1560T428 1508Q428 1461
378 1389L127 1018Q105 988 93 988Q72 988 72 1006Z" />
<glyph unicode="&#x387;" glyph-name="anoteleia" horiz-adv-x="712" d="M244 781T244 836T282 929T376 968T469 930T508 836T470 743T376 704T283 742Z" />
<glyph unicode="&#x388;" glyph-name="Epsilontonos" horiz-adv-x="1872" d="M540 -2V64H664Q742 64 742 144V1316Q742 1396 664 1396H540V1462Q544 1462 663 1460T834 1458T1005 1460T1128 1462H1640L1756 1148L1696 1120Q1667 1169 1623 1223T1528 1310Q1413
1384 1284 1384H1004Q926 1384 926 1304V796H1150Q1241 796 1300 853T1368 1036H1428V480H1368Q1352 720 1150 720H926V156Q926 76 1004 76H1368Q1443 76 1509 99T1616 162Q1663 210 1701 278T1760 406L1824 386L1732 -2H1128Q1124 -2 1005 0T834 2T663 0T540 -2ZM64
1006Q64 1020 73 1043L234 1458Q257 1519 281 1549T348 1580Q379 1580 399 1560T420 1508Q420 1461 370 1389L119 1018Q97 988 85 988Q64 988 64 1006Z" />
<glyph unicode="&#x389;" glyph-name="Etatonos" horiz-adv-x="2088" d="M540 -2V64H664Q742 64 742 144V1316Q742 1396 664 1396H540V1462Q544 1462 663 1460T834 1458T1005 1460T1128 1462V1396H1004Q926 1396 926 1316V784H1614V1316Q1614 1396 1536 1396H1412V1462Q1416
1462 1535 1460T1706 1458T1877 1460T2000 1462V1396H1876Q1798 1396 1798 1316V144Q1798 64 1876 64H2000V-2Q1996 -2 1877 0T1706 2T1535 0T1412 -2V64H1536Q1614 64 1614 144V708H926V144Q926 64 1004 64H1128V-2Q1124 -2 1005 0T834 2T663 0T540 -2ZM64 1006Q64
1020 73 1043L234 1458Q257 1519 281 1549T348 1580Q379 1580 399 1560T420 1508Q420 1461 370 1389L119 1018Q97 988 85 988Q64 988 64 1006Z" />
<glyph unicode="&#x38a;" glyph-name="Iotatonos" horiz-adv-x="1216" d="M540 -2V64H664Q742 64 742 144V1316Q742 1396 664 1396H540V1462Q544 1462 663 1460T834 1458T1005 1460T1128 1462V1396H1004Q926 1396 926 1316V144Q926 64 1004 64H1128V-2Q1124 -2
1005 0T834 2T663 0T540 -2ZM64 1006Q64 1020 73 1043L234 1458Q257 1519 281 1549T348 1580Q379 1580 399 1560T420 1508Q420 1461 370 1389L119 1018Q97 988 85 988Q64 988 64 1006Z" />
<glyph unicode="&#x38c;" glyph-name="Omicrontonos" horiz-adv-x="1940" d="M472 541T472 730T527 1058T698 1314Q778 1394 898 1441T1154 1488T1409 1441T1610 1314Q1726 1198 1781 1059T1836 730T1781 402T1610 146Q1530 66 1410 19T1154 -28T899 19T698 146Q582
262 527 401ZM696 898T696 730T726 413T818 194Q955 36 1154 36T1490 194Q1552 264 1582 413T1612 730T1582 1047T1490 1266Q1353 1424 1154 1424T818 1266Q756 1196 726 1047ZM64 1006Q64 1020 73 1043L234 1458Q257 1519 281 1549T348 1580Q379 1580 399 1560T420
1508Q420 1461 370 1389L119 1018Q97 988 85 988Q64 988 64 1006Z" />
<glyph unicode="&#x38e;" glyph-name="Upsilontonos" horiz-adv-x="1856" d="M480 1064Q480 1252 556 1357Q604 1423 661 1455T798 1488Q875 1488 941 1442T1050 1324Q1115 1215 1146 1056H1162Q1193 1215 1258 1324Q1301 1395 1367 1441T1510 1488Q1589 1488
1646 1456T1752 1357Q1828 1252 1828 1064Q1828 1014 1822 964L1778 956Q1768 1105 1700 1202Q1630 1304 1500 1304Q1432 1304 1379 1268T1296 1174Q1246 1076 1246 944V144Q1246 64 1324 64H1460V-2Q1450 -2 1330 0T1154 2T979 0T848 -2V64H984Q1062 64 1062 144V944Q1062
1076 1012 1174Q983 1231 930 1267T808 1304Q678 1304 608 1202Q540 1105 530 956L486 964Q480 1013 480 1064ZM64 1006Q64 1020 73 1043L234 1458Q257 1519 281 1549T348 1580Q379 1580 399 1560T420 1508Q420 1461 370 1389L119 1018Q97 988 85 988Q64 988 64
1006Z" />
<glyph unicode="&#x38f;" glyph-name="Omegatonos" horiz-adv-x="2084" d="M220 424H288Q346 304 412 238Q474 176 568 176H874L668 480Q494 737 494 948Q494 1065 557 1180T730 1371Q897 1488 1146 1488T1562 1371Q1671 1295 1734 1180T1798 948Q1798 737 1624
480L1418 176H1724Q1818 176 1880 238Q1946 304 2004 424H2072L1885 0H1250L1251 48Q1368 214 1466 405Q1513 496 1543 611T1574 840Q1574 1119 1460 1272Q1347 1424 1146 1424T832 1272Q718 1119 718 840Q718 727 748 612T826 405Q924 214 1041 48L1042 0H407L220
424ZM64 1006Q64 1020 73 1043L234 1458Q257 1519 281 1549T348 1580Q379 1580 399 1560T420 1508Q420 1461 370 1389L119 1018Q97 988 85 988Q64 988 64 1006Z" />
<glyph unicode="&#x390;" glyph-name="iotadieresistonos" horiz-adv-x="520" d="M326 1068T326 1104T351 1164T413 1188T474 1164T500 1104T475 1041T413 1014T352 1041ZM580 1010Q580 1028 586 1056L670 1438Q686 1509 709 1544T774 1580Q806 1580 826 1559T846
1508Q846 1462 810 1385L662 1062Q629 988 612 988Q580 988 580 1010ZM792 1068T792 1104T817 1164T879 1188T940 1164T966 1104T941 1041T879 1014T818 1041ZM86 70Q86 127 158 388L279 824Q311 838 352 838Q391 838 430 824L259 308Q238 248 238 227Q238 212
246 202T266 192Q275 192 289 201Q305 212 316 212Q339 212 351 193T364 144Q364 88 304 36T170 -16Q127 -16 107 2T86 70Z" />
<glyph unicode="&#x391;" glyph-name="Alpha" horiz-adv-x="1624" d="M88 -2V64H110Q185 64 237 112T326 258L772 1452L936 1488L1348 284Q1370 229 1383 198T1418 132T1463 80T1516 64H1588V-2Q1569 -2 1463 0T1308 2T1121 0T964 -2V64H1104Q1138 64 1162 85T1186
144Q1186 172 1170 216L1062 540H524L430 282Q402 208 402 158Q402 64 588 64V-2Q582 -2 480 0T336 2T194 0T88 -2ZM554 616H1036L808 1300L554 616Z" />
<glyph unicode="&#x392;" glyph-name="Beta" horiz-adv-x="1400" d="M128 -2V64H252Q330 64 330 144V1322Q330 1402 252 1402Q215 1402 128 1396V1460Q378 1480 636 1480Q772 1480 888 1459T1060 1404Q1162 1344 1211 1270T1260 1102Q1260 971 1167 883T916 764V760Q1070
741 1170 670Q1241 619 1278 547T1316 390Q1316 299 1277 223T1168 94Q1109 49 1019 24T842 -2H716Q712 -2 593 0T422 2T251 0T128 -2ZM514 156Q514 76 592 76H794Q867 76 931 100T1034 176Q1100 266 1100 382Q1100 554 992 648Q908 720 760 720H514V156ZM514 796H756Q823
796 888 823T992 900Q1028 947 1042 994T1056 1106Q1056 1229 964 1314Q867 1404 662 1404Q568 1404 514 1396V796Z" />
<glyph unicode="&#x393;" glyph-name="Gamma" horiz-adv-x="1308" d="M128 -2V64H252Q330 64 330 144V1316Q330 1396 252 1396H128V1462Q132 1462 251 1460T422 1458T593 1460T716 1462H1196L1272 1096L1212 1076Q1152 1226 1080 1298Q991 1384 852 1384H592Q514
1384 514 1304V144Q514 64 592 64H716V-2Q712 -2 593 0T422 2T251 0T128 -2Z" />
<glyph unicode="&#x394;" glyph-name="Deltagreek" horiz-adv-x="1600" d="M124 0L826 1488H882L1536 0H124ZM300 176H1260L794 1224L300 176Z" />
<glyph unicode="&#x395;" glyph-name="Epsilon" horiz-adv-x="1460" d="M128 -2V64H252Q330 64 330 144V1316Q330 1396 252 1396H128V1462Q132 1462 251 1460T422 1458T593 1460T716 1462H1228L1344 1148L1284 1120Q1255 1169 1211 1223T1116 1310Q1001 1384 872
1384H592Q514 1384 514 1304V796H738Q829 796 888 853T956 1036H1016V480H956Q940 720 738 720H514V156Q514 76 592 76H956Q1031 76 1097 99T1204 162Q1251 210 1289 278T1348 406L1412 386L1320 -2H716Q712 -2 593 0T422 2T251 0T128 -2Z" />
<glyph unicode="&#x396;" glyph-name="Zeta" horiz-adv-x="1412" d="M88 0V48L1094 1384H678Q533 1384 422 1302Q309 1218 192 1040L132 1068L308 1460H1336V1412L340 76H896Q1034 76 1120 162Q1199 241 1252 384L1314 364L1236 0H88Z" />
<glyph unicode="&#x397;" glyph-name="Eta" horiz-adv-x="1676" d="M128 -2V64H252Q330 64 330 144V1316Q330 1396 252 1396H128V1462Q132 1462 251 1460T422 1458T593 1460T716 1462V1396H592Q514 1396 514 1316V784H1202V1316Q1202 1396 1124 1396H1000V1462Q1004
1462 1123 1460T1294 1458T1465 1460T1588 1462V1396H1464Q1386 1396 1386 1316V144Q1386 64 1464 64H1588V-2Q1584 -2 1465 0T1294 2T1123 0T1000 -2V64H1124Q1202 64 1202 144V708H514V144Q514 64 592 64H716V-2Q712 -2 593 0T422 2T251 0T128 -2Z" />
<glyph unicode="&#x398;" glyph-name="Theta" horiz-adv-x="1612" d="M144 541T144 730T199 1058T370 1314Q450 1394 570 1441T826 1488T1081 1441T1282 1314Q1398 1198 1453 1059T1508 730T1453 402T1282 146Q1202 66 1082 19T826 -28T571 19T370 146Q254 262
199 401ZM368 730Q368 562 398 413T490 194Q627 36 826 36T1162 194Q1224 264 1254 413T1284 730Q1284 899 1254 1047T1162 1266Q1025 1424 826 1424T490 1266Q428 1196 398 1048T368 730ZM524 490V1010H580V920Q580 836 668 836H986Q1072 836 1072 920V1010H1128V490H1072V584Q1072
668 986 668H666Q580 668 580 584V490H524Z" />
<glyph unicode="&#x399;" glyph-name="Iota" horiz-adv-x="804" d="M128 -2V64H252Q330 64 330 144V1316Q330 1396 252 1396H128V1462Q132 1462 251 1460T422 1458T593 1460T716 1462V1396H592Q514 1396 514 1316V144Q514 64 592 64H716V-2Q712 -2 593 0T422 2T251
0T128 -2Z" />
<glyph unicode="&#x39a;" glyph-name="Kappa" horiz-adv-x="1560" d="M128 -2V64H252Q330 64 330 144V1316Q330 1396 252 1396H128V1462Q132 1462 251 1460T422 1458T593 1460T716 1462V1396H592Q514 1396 514 1316V722L818 996Q873 1045 931 1101T1054 1234T1118
1342Q1118 1377 1076 1392L1030 1396H992V1462Q998 1462 1094 1460T1232 1458T1370 1460T1472 1462V1396Q1398 1396 1386 1390Q1330 1365 1259 1306T1060 1120L826 892L1290 180Q1331 116 1376 90T1504 64V-2Q1492 -2 1371 0T1200 2T1029 0T896 -2V64H952Q1014
64 1044 79T1074 120Q1074 143 1058 177T994 288L690 768L514 612V144Q514 64 592 64H716V-2Q712 -2 593 0T422 2T251 0T128 -2Z" />
<glyph unicode="&#x39b;" glyph-name="Lambda" horiz-adv-x="1624" d="M88 -2V64H110Q185 64 237 112T326 258L772 1452L936 1488L1348 284Q1370 229 1383 198T1418 132T1463 80T1516 64H1588V-2Q1569 -2 1463 0T1308 2T1121 0T964 -2V64H1104Q1138 64 1162 85T1186
144Q1186 166 1170 216L808 1300L430 282Q402 206 402 158Q402 64 588 64V-2Q582 -2 480 0T336 2T194 0T88 -2Z" />
<glyph unicode="&#x39c;" glyph-name="Mu" horiz-adv-x="1952" d="M128 -2V64H216Q270 64 300 95T330 180V1316Q330 1396 252 1396H128V1460H554L986 330L1430 1460H1864V1396H1734Q1662 1396 1662 1316V144Q1662 64 1740 64H1864V-2Q1860 -2 1741 0T1570 2T1399
0T1276 -2V64H1400Q1478 64 1478 144V1268H1448L954 26H914L430 1272H418V180Q418 126 448 95T532 64H620V-2Q618 -2 515 0T374 2T233 0T128 -2Z" />
<glyph unicode="&#x39d;" glyph-name="Nu" horiz-adv-x="1640" d="M128 -2V64H216Q270 64 300 95T330 180V1316Q330 1396 252 1396H128V1460H504L1280 336V1280Q1280 1334 1250 1365T1166 1396H1078V1462Q1080 1462 1183 1460T1324 1458T1465 1460T1570 1462V1396H1482Q1428
1396 1398 1365T1368 1280V-24H1294L418 1232V180Q418 126 448 95T532 64H620V-2Q618 -2 515 0T374 2T233 0T128 -2Z" />
<glyph unicode="&#x39e;" glyph-name="Xi" horiz-adv-x="1620" d="M112 -176L220 352H290L270 258Q267 240 267 232Q267 202 283 189T336 176H1266Q1336 176 1374 208Q1410 235 1424 298L1436 352H1504L1396 -176H1326L1346 -82Q1349 -64 1349 -56Q1349 -26 1333
-13T1280 0H352Q285 0 244 -34Q207 -62 194 -122L180 -176H112ZM156 1108L264 1636H334L314 1542Q311 1524 311 1516Q311 1486 327 1473T380 1460H1310Q1380 1460 1418 1492Q1454 1519 1468 1582L1480 1636H1548L1440 1108H1370L1390 1202Q1393 1220 1393 1228Q1393
1258 1377 1271T1324 1284H396Q329 1284 288 1250Q251 1222 238 1162L224 1108H156ZM248 472L356 1000H426L406 906Q403 888 403 880Q403 850 419 837T472 824H1178Q1248 824 1286 856Q1322 883 1336 946L1348 1000H1416L1308 472H1238L1258 566Q1261 584 1261
592Q1261 622 1245 635T1192 648H488Q421 648 380 614Q343 586 330 526L316 472H248Z" />
<glyph unicode="&#x39f;" glyph-name="Omicron" horiz-adv-x="1612" d="M144 541T144 730T199 1058T370 1314Q450 1394 570 1441T826 1488T1081 1441T1282 1314Q1398 1198 1453 1059T1508 730T1453 402T1282 146Q1202 66 1082 19T826 -28T571 19T370 146Q254 262
199 401ZM368 898T368 730T398 413T490 194Q627 36 826 36T1162 194Q1224 264 1254 413T1284 730T1254 1047T1162 1266Q1025 1424 826 1424T490 1266Q428 1196 398 1047Z" />
<glyph unicode="&#x3a0;" glyph-name="Pi" horiz-adv-x="1656" d="M128 -2V64H252Q330 64 330 144V1316Q330 1396 252 1396H128V1462Q132 1462 251 1460T422 1458T593 1459T716 1460H980Q984 1460 1103 1459T1274 1458T1445 1460T1568 1462V1396H1444Q1366 1396
1366 1316V144Q1366 64 1444 64H1568V-2Q1564 -2 1445 0T1274 2T1103 0T980 -2V64H1104Q1182 64 1182 144V1304Q1182 1384 1104 1384H592Q514 1384 514 1304V144Q514 64 592 64H716V-2Q712 -2 593 0T422 2T251 0T128 -2Z" />
<glyph unicode="&#x3a1;" glyph-name="Rho" horiz-adv-x="1320" d="M128 -2V64H252Q330 64 330 144V1322Q330 1364 310 1383T250 1402Q197 1402 128 1396V1460Q296 1473 376 1476T618 1480Q876 1480 1006 1426Q1131 1374 1195 1274T1260 1070Q1260 863 1072 734Q995
681 875 661T644 640H514V144Q514 64 592 64H716V-2Q712 -2 593 0T422 2T251 0T128 -2ZM514 716H668Q749 716 815 733T937 788T1024 895T1056 1062Q1056 1223 954 1315T644 1408Q559 1408 514 1400V716Z" />
<glyph unicode="&#x3a3;" glyph-name="Sigma" horiz-adv-x="1442" d="M120 1396V1460H1070Q1125 1460 1151 1491Q1169 1511 1174 1552L1224 1568L1380 1148L1320 1120Q1239 1261 1120 1330Q1078 1354 1023 1369T924 1384H392L1004 758L384 176H1126Q1202 176 1249
231Q1300 290 1337 406L1400 388L1274 -156L1212 -144Q1222 -101 1222 -76Q1222 0 1151 0H124V64L810 700L120 1396Z" />
<glyph unicode="&#x3a4;" glyph-name="Tau" horiz-adv-x="1536" d="M88 1132L160 1462H494Q498 1462 617 1460T788 1458T959 1460T1082 1462H1416L1488 1132L1430 1110Q1405 1159 1363 1221T1280 1316Q1184 1396 1056 1396H880V144Q880 64 958 64H1094V-2Q1084
-2 964 0T788 2T613 0T482 -2V64H618Q696 64 696 144V1396H520Q392 1396 296 1316Q256 1283 214 1221T146 1110L88 1132Z" />
<glyph unicode="&#x3a5;" glyph-name="Upsilon" horiz-adv-x="1444" d="M68 1064Q68 1252 144 1357Q192 1423 249 1455T386 1488Q463 1488 529 1442T638 1324Q703 1215 734 1056H750Q781 1215 846 1324Q889 1395 955 1441T1098 1488Q1177 1488 1234 1456T1340
1357Q1416 1252 1416 1064Q1416 1014 1410 964L1366 956Q1356 1105 1288 1202Q1218 1304 1088 1304Q1020 1304 967 1268T884 1174Q834 1076 834 944V144Q834 64 912 64H1048V-2Q1038 -2 918 0T742 2T567 0T436 -2V64H572Q650 64 650 144V944Q650 1076 600 1174Q571
1231 518 1267T396 1304Q266 1304 196 1202Q128 1105 118 956L74 964Q68 1013 68 1064Z" />
<glyph unicode="&#x3a6;" glyph-name="Phi" horiz-adv-x="1772" d="M144 629T144 734T187 924T304 1063T471 1147T668 1176H794V1316Q794 1354 771 1375T708 1396H580V1462Q590 1462 710 1460T886 1458T1062 1460T1192 1462V1396H1062Q1023 1396 1001 1376T978
1316V1176H1104Q1187 1176 1267 1159T1420 1105T1548 1017T1635 894T1668 738T1636 581T1548 456T1420 367T1267 311T1104 292H978V144Q978 64 1056 64H1192V-2Q1182 -2 1062 0T886 2T710 0T580 -2V64H716Q794 64 794 144V292H668Q565 292 472 321T305 404T188
544ZM348 911T348 734T436 457T680 356H794V1112H680Q524 1112 436 1012ZM978 356H1092Q1252 356 1358 458T1464 734T1358 1009T1092 1112H978V356Z" />
<glyph unicode="&#x3a7;" glyph-name="Chi" horiz-adv-x="1592" d="M88 -2V64Q173 64 247 100T368 198L760 726L400 1276Q368 1322 330 1352Q274 1396 214 1396H160V1462Q176 1462 293 1460T474 1458T657 1460T792 1462V1396H694Q657 1396 631 1374T604 1320Q604
1291 622 1266L876 880L1116 1202Q1172 1276 1172 1332Q1172 1353 1160 1369T1122 1390Q1095 1396 1004 1396V1462Q1008 1462 1112 1460T1268 1458T1424 1460T1532 1462V1396Q1357 1396 1284 1298L922 810L1328 192Q1366 137 1402 106Q1432 83 1453 74T1512 64H1556V-2Q1540
-2 1422 0T1240 2T1058 0T924 -2V64H1032Q1066 64 1092 87T1118 146T1106 198L808 654L546 300Q498 236 498 174Q498 136 523 100T598 64H676V-2Q658 -2 546 0T380 2T216 0T88 -2Z" />
<glyph unicode="&#x3a8;" glyph-name="Psi" horiz-adv-x="1768" d="M64 1181Q64 1242 105 1287T212 1332Q301 1332 362 1247T424 1020Q424 763 533 654Q640 547 812 544V1316Q812 1354 789 1375T726 1396H598V1462Q608 1462 728 1460T904 1458Q959 1458 1079 1460T1210
1462V1396H1080Q1041 1396 1019 1376T996 1316V544Q1168 547 1275 654Q1384 763 1384 1020Q1384 1162 1445 1247T1596 1332Q1662 1332 1703 1287T1744 1181Q1744 1132 1715 1099T1653 1065Q1596 1065 1563 1123Q1542 1161 1504 1161Q1488 1161 1476 1144T1464 1102Q1464
1066 1473 1010Q1491 904 1491 843Q1491 626 1350 504Q1282 445 1183 411T996 376V144Q996 64 1074 64H1210V-2Q1200 -2 1080 0T904 2Q848 2 728 0T598 -2V64H734Q812 64 812 144V376Q725 376 626 410T458 504Q317 626 317 843Q317 904 335 1010Q344 1066 344 1102Q344
1126 332 1143T304 1161Q266 1161 245 1123Q212 1065 155 1065Q123 1065 94 1098T64 1181Z" />
<glyph unicode="&#x3a9;" glyph-name="Omegagreek" horiz-adv-x="1896" d="M32 424H100Q158 304 224 238Q286 176 380 176H686L480 480Q306 737 306 948Q306 1065 369 1180T542 1371Q709 1488 958 1488T1374 1371Q1483 1295 1546 1180T1610 948Q1610 737 1436
480L1230 176H1536Q1630 176 1692 238Q1758 304 1816 424H1884L1697 0H1062L1063 48Q1180 214 1278 405Q1325 496 1355 611T1386 840Q1386 1119 1272 1272Q1159 1424 958 1424T644 1272Q530 1119 530 840Q530 727 560 612T638 405Q736 214 853 48L854 0H219L32
424Z" />
<glyph unicode="&#x3aa;" glyph-name="Iotadieresis" horiz-adv-x="804" d="M128 -2V64H252Q330 64 330 144V1316Q330 1396 252 1396H128V1462Q132 1462 251 1460T422 1458T593 1460T716 1462V1396H592Q514 1396 514 1316V144Q514 64 592 64H716V-2Q712 -2 593
0T422 2T251 0T128 -2ZM342 1710T342 1746T367 1806T429 1830T490 1806T516 1746T491 1683T429 1656T368 1683ZM840 1710T840 1746T865 1806T927 1830T988 1806T1014 1746T989 1683T927 1656T866 1683Z" />
<glyph unicode="&#x3ab;" glyph-name="Upsilondieresis" horiz-adv-x="1444" d="M404 1710T404 1746T429 1806T491 1830T552 1806T578 1746T553 1683T491 1656T430 1683ZM902 1710T902 1746T927 1806T989 1830T1050 1806T1076 1746T1051 1683T989 1656T928 1683ZM68
1064Q68 1252 144 1357Q192 1423 249 1455T386 1488Q463 1488 529 1442T638 1324Q703 1215 734 1056H750Q781 1215 846 1324Q889 1395 955 1441T1098 1488Q1177 1488 1234 1456T1340 1357Q1416 1252 1416 1064Q1416 1014 1410 964L1366 956Q1356 1105 1288 1202Q1218
1304 1088 1304Q1020 1304 967 1268T884 1174Q834 1076 834 944V144Q834 64 912 64H1048V-2Q1038 -2 918 0T742 2T567 0T436 -2V64H572Q650 64 650 144V944Q650 1076 600 1174Q571 1231 518 1267T396 1304Q266 1304 196 1202Q128 1105 118 956L74 964Q68 1013 68
1064Z" />
<glyph unicode="&#x3ac;" glyph-name="alphatonos" horiz-adv-x="1158" d="M646 1010Q646 1029 668 1073L858 1484Q903 1580 970 1580Q1003 1580 1023 1557T1044 1505Q1044 1457 992 1389L723 1035Q684 988 668 988Q646 988 646 1010ZM72 252Q72 351 114 456T222
651Q291 743 371 791T519 840Q555 840 584 826T631 789T664 734T687 671T701 602L715 600Q758 686 809 824Q843 834 883 834Q924 834 970 814Q884 598 722 304Q729 230 760 180T836 130Q876 130 912 152T969 199T1018 265Q1050 310 1070 310Q1100 310 1100 268Q1100
250 1088 217T1053 144T1000 68T930 8T848 -16Q777 -16 733 56T675 223L660 219Q620 163 573 114T454 25T315 -16Q195 -16 134 59T72 252ZM153 210Q153 145 189 113T284 80Q484 80 667 512Q663 558 649 599T603 672T524 704Q479 704 420 666T303 555Q239 475 196
379T153 210Z" />
<glyph unicode="&#x3ad;" glyph-name="epsilontonos" horiz-adv-x="820" d="M538 1010Q538 1029 560 1073L750 1484Q795 1580 862 1580Q895 1580 915 1557T936 1505Q936 1457 884 1389L615 1035Q576 988 560 988Q538 988 538 1010ZM90 187Q90 255 150 317T294
414V422Q265 440 244 474T222 556Q222 635 280 702T425 804T600 840Q682 840 714 823T746 776Q746 751 724 717T674 682Q644 682 576 709Q528 728 462 728Q404 728 349 685T294 570Q294 489 394 463Q495 502 578 502Q626 502 658 485T690 432Q690 398 652 378T566
358Q436 358 340 393Q226 363 226 238Q226 176 271 141T392 106Q454 106 495 121Q547 141 575 141Q597 141 611 124T625 87Q625 37 557 11T390 -16Q334 -16 284 -6T189 26T117 89T90 187Z" />
<glyph unicode="&#x3ae;" glyph-name="etatonos" horiz-adv-x="1042" d="M628 1010Q628 1029 650 1073L840 1484Q885 1580 952 1580Q985 1580 1005 1557T1026 1505Q1026 1457 974 1389L705 1035Q666 988 650 988Q628 988 628 1010ZM36 556Q36 583 56 629T110 723T190
805T285 840Q401 840 443 577L457 573Q627 840 800 840Q885 840 928 780T972 626Q972 530 820 -122Q804 -190 796 -222T775 -300T753 -367T729 -411T699 -442T663 -450Q632 -450 609 -432T585 -380Q585 -300 710 27Q892 505 892 639Q892 658 889 676T876 714T845
747T792 760Q709 760 624 629T443 257Q422 204 411 176T383 110T354 55T327 18T297 -8T264 -16Q202 -16 202 48Q202 96 264 231T404 499Q395 586 360 640T272 694Q237 694 211 674T153 606Q92 514 68 514Q36 514 36 556Z" />
<glyph unicode="&#x3af;" glyph-name="iotatonos" horiz-adv-x="520" d="M350 1010Q350 1029 372 1073L562 1484Q607 1580 674 1580Q707 1580 727 1557T748 1505Q748 1457 696 1389L427 1035Q388 988 372 988Q350 988 350 1010ZM86 70Q86 127 158 388L279 824Q311
838 352 838Q391 838 430 824L259 308Q238 248 238 227Q238 212 246 202T266 192Q275 192 289 201Q305 212 316 212Q339 212 351 193T364 144Q364 88 304 36T170 -16Q127 -16 107 2T86 70Z" />
<glyph unicode="&#x3b0;" glyph-name="upsilondieresistonos" horiz-adv-x="906" d="M220 1068T220 1104T245 1164T307 1188T368 1164T394 1104T369 1041T307 1014T246 1041ZM474 1010Q474 1028 480 1056L564 1438Q580 1509 603 1544T668 1580Q700 1580 720 1559T740
1508Q740 1462 704 1385L556 1062Q523 988 506 988Q474 988 474 1010ZM686 1068T686 1104T711 1164T773 1188T834 1164T860 1104T835 1041T773 1014T712 1041ZM72 668Q72 735 124 787T248 840Q293 840 319 808T346 724Q346 651 284 484Q242 371 242 278Q242 211
282 174T390 136Q556 136 660 296Q707 369 729 454T752 609Q752 662 745 700Q735 758 735 775Q735 834 769 834Q804 834 822 779T840 640Q840 360 744 213Q666 94 565 39T356 -16Q265 -16 206 51T146 214Q146 308 202 448Q242 550 242 597Q242 617 230 628T200
640Q181 640 160 631Q140 622 122 622Q99 622 86 635T72 668Z" />
<glyph unicode="&#x3b1;" glyph-name="alpha" horiz-adv-x="1158" d="M72 252Q72 351 114 456T222 651Q291 743 371 791T519 840Q555 840 584 826T631 789T664 734T687 671T701 602L715 600Q758 686 809 824Q843 834 883 834Q924 834 970 814Q884 598 722 304Q729
230 760 180T836 130Q876 130 912 152T969 199T1018 265Q1050 310 1070 310Q1100 310 1100 268Q1100 250 1088 217T1053 144T1000 68T930 8T848 -16Q777 -16 733 56T675 223L660 219Q620 163 573 114T454 25T315 -16Q195 -16 134 59T72 252ZM153 210Q153 145 189
113T284 80Q484 80 667 512Q663 558 649 599T603 672T524 704Q479 704 420 666T303 555Q239 475 196 379T153 210Z" />
<glyph unicode="&#x3b2;" glyph-name="beta" horiz-adv-x="1178" d="M-12 -327Q-12 -306 4 -236L257 838Q341 1144 489 1316T842 1488Q914 1488 978 1464T1084 1401Q1186 1305 1186 1154Q1186 1085 1159 1017T1089 897T1008 809T934 752L932 746Q1019 685 1059
602T1100 438Q1100 348 1068 260T970 102Q856 -16 665 -16Q554 -16 439 63T236 268L226 266L129 -302Q122 -345 106 -366T46 -388Q23 -388 6 -371T-12 -327ZM244 352Q422 120 635 120Q708 120 766 146T882 232Q968 323 968 507Q968 570 949 618T878 707Q829 670
753 647T614 624Q573 624 539 650T504 720Q504 768 550 802T650 836Q762 836 868 788Q949 824 1015 917T1082 1112Q1082 1217 1014 1268T842 1320Q678 1320 539 1181Q371 1013 318 735L244 352Z" />
</font>
</defs>
</svg>
