<?xml version="1.0" standalone="no"?> <!DOCTYPE svg PUBLIC "-//W3C//DTD SVG 1.0//EN" "http://www.w3.org/TR/2001/REC-SVG-20010904/DTD/svg10.dtd" > <svg xmlns="http://www.w3.org/2000/svg" width="100%" height="100%">
<defs >
<font horiz-adv-x="575" ><font-face
    font-family="LM Roman 10"
    units-per-em="1000"
    panose-1="0 0 5 0 0 0 0 0 0 0"
    ascent="1125"
    descent="-290"
    alphabetic="0" />
<missing-glyph horiz-adv-x="280" />
<glyph unicode=" " glyph-name="space" horiz-adv-x="358" />
<glyph unicode="!" glyph-name="exclam" horiz-adv-x="307" d="M370 654L221 204Q216 192 214 190T203 187Q188 187 188 199Q188 202 190 211L265 656Q269 682 286 697T313 714T330 716Q351 716 363 704T375 675Q375 668 370 654ZM222 63Q222 39 202 20T157 0Q138
0 126 12T113 43Q113 68 133 87T177 106Q198 106 210 93T222 63Z" />
<glyph unicode="&quot;" glyph-name="quotedbl" horiz-adv-x="401" d="M354 673L274 423H244L290 673Q292 686 304 695T330 705T351 696T354 673ZM448 673L368 423H338L384 673Q386 686 398 695T424 705T445 696T448 673Z" />
<glyph unicode="#" glyph-name="numbersign" horiz-adv-x="818" d="M828 367T828 347T794 327H637L561 173H746Q779 173 779 153T746 133H540L381 -188Q375 -194 366 -194Q346 -194 346 -174Q346 -170 351 -157L495 133H330L171 -188Q165 -194 156 -194Q136 -194
136 -174Q136 -170 141 -157L285 133H149Q115 133 115 153T149 173H306L382 327H197Q164 327 164 347T197 367H403L562 688Q568 694 577 694Q597 694 597 674Q597 670 592 657L448 367H613L772 688Q778 694 787 694Q807 694 807 674Q807 670 802 657L658 367H794Q828
367 828 347ZM592 327H427L351 173H516L592 327Z" />
<glyph unicode="$" glyph-name="dollar" horiz-adv-x="500" d="M581 560Q571 479 519 479Q502 479 491 489T481 518Q483 540 499 555T538 571Q548 571 555 568Q555 619 521 645T433 674L365 402Q393 395 405 391T435 376T467 347Q502 294 497 229Q489 139 420
68T262 -10L251 -56H220L231 -10Q168 -7 129 31T95 144Q104 229 157 229Q171 229 183 220T195 189Q193 169 178 153T137 137Q126 137 120 140Q117 84 150 54T239 20L314 319Q273 330 253 339T213 371Q174 414 179 483Q185 554 244 621T405 704Q410 705 411 709Q412
710 413 715T414 722L421 750H452L442 704Q512 701 549 662T581 560ZM402 673Q338 666 291 621T239 522Q232 434 336 410L402 673ZM438 191Q442 245 415 273T343 311L271 21Q338 30 385 81T438 191Z" />
<glyph unicode="%" glyph-name="percent" horiz-adv-x="818" d="M846 730Q846 723 835 709L186 -43Q175 -56 165 -56Q157 -56 151 -50T145 -36Q145 -29 156 -16L729 649V650Q666 621 607 621Q530 621 476 663Q479 649 479 624Q479 526 422 437T300 347Q258 347
232 383T205 480Q205 577 266 663T395 750Q432 750 455 718Q510 643 608 643Q663 643 716 668T802 732Q817 750 827 750Q835 750 840 744T846 730ZM788 221Q788 127 732 36T608 -56Q565 -56 539 -19T513 77Q513 173 573 260T704 347Q748 347 768 308T788 221ZM449
629Q449 669 436 698T395 728Q365 728 338 695T293 616T266 524T256 449Q256 369 302 369Q351 369 400 454T449 629ZM757 226Q757 270 743 297T704 325Q663 325 629 268T580 148T564 46Q564 -34 610 -34Q641 -34 675 4T733 104T757 226Z" />
<glyph unicode="&amp;" glyph-name="ampersand" horiz-adv-x="767" d="M734 311Q734 277 725 238T690 151T627 67T525 4T382 -22Q263 -22 195 36T126 176Q126 213 148 272T219 383L222 389Q222 391 220 396Q211 424 211 456Q211 551 277 633T424 716Q474 716 502
683T530 601Q530 522 477 522Q459 522 451 532T442 554Q442 556 442 559T446 571T454 585T471 597T499 603Q498 652 476 673T424 694Q380 694 344 648T289 542T269 427Q320 461 367 461Q395 461 412 445T430 401Q430 366 401 338T334 310Q285 310 253 342Q235 309
219 253T202 156Q202 113 218 81T263 32T321 8T383 0Q457 0 516 24T609 85T665 165T694 245T702 308Q702 381 650 448Q572 400 547 375T521 310Q521 296 524 288Q536 320 569 320Q601 320 601 289Q601 270 588 256T553 242Q526 242 508 261T490 313T511 375T552
419T606 455T661 491T712 541T758 616Q724 618 724 647Q724 668 739 681T771 694Q784 694 794 686T804 663Q804 650 794 620T752 544T677 467Q734 392 734 311ZM400 406Q400 439 367 439Q322 439 276 379Q293 332 336 332Q363 332 381 355T400 406Z" />
<glyph unicode="&apos;" glyph-name="quotesingle" horiz-adv-x="307" d="M354 673L274 423H244L290 673Q292 686 304 695T330 705T351 696T354 673Z" />
<glyph unicode="(" glyph-name="parenleft" horiz-adv-x="409" d="M271 -240Q271 -250 261 -250Q250 -250 224 -212T179 -125Q152 -50 152 47Q152 145 185 274T293 527Q332 591 383 646T466 725T506 750Q516 750 516 740Q516 737 501 722Q417 650 354 546T261
339T216 153T202 11Q202 -132 264 -226L271 -240Z" />
<glyph unicode=")" glyph-name="parenright" horiz-adv-x="409" d="M382 453Q382 355 349 226T241 -27Q202 -91 151 -146T68 -225T28 -250Q18 -250 18 -240Q18 -237 33 -222Q117 -150 180 -46T273 161T318 347T332 489Q332 632 270 726L263 740Q263 750 273 750Q284
750 310 712T355 625Q382 550 382 453Z" />
<glyph unicode="*" glyph-name="asterisk" horiz-adv-x="511" d="M537 447Q537 435 527 425T505 415Q496 415 485 426L395 514L368 353Q364 319 336 319Q315 319 315 337L319 353L373 514L232 421Q222 415 215 415Q195 415 195 435Q195 454 219 465L369 535L256
604Q242 613 242 622Q242 634 252 644T274 654Q282 654 293 643L383 555L410 716Q415 750 443 750Q451 750 457 745T463 732L459 716L406 555L546 648Q555 654 563 654Q583 654 583 634T559 604L409 534L522 466Q537 457 537 447Z" />
<glyph unicode="+" glyph-name="plus" horiz-adv-x="767" d="M752 270T752 250T719 230H462L397 -32Q390 -57 375 -57Q355 -57 355 -36L359 -17L421 230H173Q140 230 140 250T173 270H431L496 532Q502 557 518 557Q527 557 532 551T538 537Q538 532 534 518L472
270H719Q752 270 752 250Z" />
<glyph unicode="," glyph-name="comma" horiz-adv-x="307" d="M224 47Q224 -7 192 -66T127 -159T83 -193Q73 -193 73 -183Q73 -179 86 -166Q178 -88 198 15Q179 0 157 0Q113 0 113 42Q113 66 131 86T178 106Q224 106 224 47Z" />
<glyph unicode="-" glyph-name="hyphen" horiz-adv-x="358" d="M331 199Q329 191 325 189T304 187H112Q101 187 97 187T89 191T86 200Q86 209 93 230Q96 239 100 241T119 243H314Q324 243 328 243T335 240T339 231Q339 223 331 199Z" />
<glyph unicode="." glyph-name="period" horiz-adv-x="307" d="M222 63Q222 40 202 20T157 0Q137 0 125 12T113 43Q113 67 133 86T178 106Q198 106 210 93T222 63Z" />
<glyph unicode="/" glyph-name="slash" horiz-adv-x="511" d="M616 730Q616 724 609 711L62 -232Q51 -250 39 -250Q31 -250 26 -244T20 -230Q20 -224 27 -211L574 732Q585 750 597 750Q605 750 610 744T616 730Z" />
<glyph unicode="0" glyph-name="zero" horiz-adv-x="511" d="M476 164Q432 65 371 22T251 -22Q219 -22 195 -12T157 16T134 51T122 91T118 124T117 148Q117 216 145 326T209 505Q252 587 307 626T421 666Q458 666 484 652T524 618T544 573T553 530T555 496Q555
436 531 335T476 164ZM380 98Q412 169 452 331T493 550Q493 596 471 620T416 644Q385 644 351 621T291 547Q264 491 223 325T181 98Q181 45 203 23T256 0Q293 0 327 29T380 98Z" />
<glyph unicode="1" glyph-name="one" horiz-adv-x="511" d="M417 19Q417 0 397 0Q375 0 330 1T263 3Q242 3 198 2T132 0Q117 0 117 12Q117 25 123 28T145 31H153Q209 31 225 39T247 73L365 547Q310 506 254 506Q238 506 238 518Q238 534 254 537Q353 547 430 650Q443
666 449 666Q461 666 461 654Q459 644 458 641L315 70Q312 58 312 51Q312 41 317 38T340 33Q366 31 383 31H391Q401 31 405 31T413 28T417 19Z" />
<glyph unicode="2" glyph-name="two" horiz-adv-x="511" d="M515 163Q515 156 506 129T479 67T428 5T354 -22Q315 -22 257 18Q203 55 172 55Q134 55 116 -9Q114 -17 111 -19T99 -22Q84 -22 84 -12Q85 -4 89 10T113 65T165 143Q185 167 209 188T248 218T294 246Q380
297 430 365T480 534Q480 591 454 617T392 644Q336 644 288 593T218 485T195 391Q195 358 217 358Q257 358 286 409T315 493Q315 510 305 530L304 536Q304 547 315 547Q324 547 330 529T337 494Q337 471 324 436T282 369T216 336Q165 336 165 399Q165 420 174 452T203
521T249 590T314 644T395 666Q459 666 505 622T551 497Q551 450 536 413T485 342T411 283T306 219Q201 158 152 74Q158 77 174 77Q204 77 280 60Q328 48 363 48Q408 48 438 82T483 156Q486 168 488 170T500 173Q515 173 515 163Z" />
<glyph unicode="3" glyph-name="three" horiz-adv-x="511" d="M480 203Q480 114 402 46T228 -22Q167 -22 131 15T95 106Q95 184 148 184Q164 184 173 175T182 152Q182 136 168 119T126 104Q127 52 157 26T228 0Q298 0 347 59Q380 97 394 152T408 236Q408 319 331
319H303Q293 319 289 319T281 322T278 329Q278 339 281 343T289 349T304 350H327Q373 350 408 370T460 416T487 476T500 526T502 554Q502 603 477 623T417 644Q346 644 288 588T229 471Q229 434 255 434Q278 434 297 452T316 496Q316 503 314 510T310 521L308 525Q304
533 304 536Q304 547 315 547Q323 547 330 530T338 497Q338 461 312 437T255 412Q228 412 214 430T199 476Q199 543 266 604T419 666Q480 666 521 630T562 532Q562 472 519 414T400 330Q480 293 480 203Z" />
<glyph unicode="4" glyph-name="four" horiz-adv-x="511" d="M474 14Q474 3 440 -6T381 -15Q367 -15 361 -14L324 -160Q315 -194 286 -194Q259 -194 259 -168Q259 -162 263 -147L300 2L241 25Q206 36 168 36Q108 36 91 21Q64 1 59 1T49 7T44 18Q44 28 58 38T83
54Q93 62 112 79T176 147T255 255Q348 406 403 616Q408 634 411 642T422 658T445 666Q472 666 472 640Q470 627 465 604T434 511T376 375T282 223T144 66Q157 67 171 67Q210 67 247 56Q257 53 261 51T308 33L350 199Q360 242 390 242Q394 242 399 241T410 234T417
215Q417 210 413 195L369 17Q374 16 385 16Q417 16 445 27L459 31Q465 31 469 25T474 14Z" />
<glyph unicode="5" glyph-name="five" horiz-adv-x="511" d="M498 265Q498 153 416 66T236 -22Q175 -22 141 18T107 117Q107 208 165 208Q182 208 191 199T201 174Q201 155 187 139T148 122Q141 122 138 123Q139 58 169 32T236 6Q270 6 308 30T376 109Q393 141
409 205T426 309Q426 398 365 398Q289 398 230 329Q220 319 214 319Q201 319 201 331Q202 341 203 344L279 648Q284 665 291 665Q295 665 305 660Q352 634 417 634Q483 634 546 662Q554 665 558 665Q567 665 567 656T542 625T468 580T369 558Q331 558 307 567L294
570Q292 569 289 558L243 374Q302 420 367 420Q429 420 463 375T498 265Z" />
<glyph unicode="6" glyph-name="six" horiz-adv-x="511" d="M507 270Q507 158 428 68T254 -22Q216 -22 189 -5T149 33T129 84T121 128T120 158Q120 229 145 328T227 507Q281 583 345 624T471 666Q516 666 542 645T568 587Q568 558 555 540T516 521Q498 521 490
530T482 553Q482 560 484 569T500 589T535 601Q524 641 470 641Q394 641 325 554Q268 481 232 339Q291 426 367 426Q407 426 436 409T479 366T500 316T507 270ZM380 96Q395 126 415 204T435 317Q435 356 417 380Q400 404 364 404Q317 404 281 368T225 280T195 179T185
97Q185 65 201 36T256 6Q330 6 380 96Z" />
<glyph unicode="7" glyph-name="seven" horiz-adv-x="511" d="M625 656Q625 652 616 639Q539 521 490 415Q411 247 359 44Q354 23 350 11T333 -11T303 -22Q289 -22 279 -14T268 11Q268 17 275 46T310 149T378 304Q412 372 513 538Q491 527 468 527Q438 527 419
561Q405 583 399 589T378 596Q361 596 341 590T292 568T233 517T175 430Q170 422 159 422Q144 422 144 432Q144 435 150 447L246 651Q251 662 254 664T265 666Q280 666 280 656Q280 653 257 603Q323 666 391 666Q410 666 421 656T434 634T440 598Q442 570 447 560T468
549Q519 549 583 643L598 663Q602 666 611 666Q625 666 625 656Z" />
<glyph unicode="8" glyph-name="eight" horiz-adv-x="511" d="M494 208Q494 121 420 50T252 -22Q186 -22 142 16T97 115Q97 136 103 158T127 212T185 276T286 337Q240 378 234 386Q210 417 210 463Q210 539 274 602T420 666Q476 666 515 635T554 548T513 445T397
360Q459 306 465 299Q494 260 494 208ZM509 550Q509 593 484 617T417 641Q359 641 312 600T265 509Q265 471 293 448L369 384L378 377Q381 377 394 384T426 408T464 443T496 492T509 550ZM435 166Q435 187 427 204T412 229T387 252L305 321Q233 287 190 229T147
113Q147 65 177 36T255 6Q324 6 379 56T435 166Z" />
<glyph unicode="9" glyph-name="nine" horiz-adv-x="511" d="M553 488Q553 454 547 406T512 274T439 126Q397 66 337 22T212 -22Q164 -22 134 -2T104 58Q104 86 117 104T156 123Q174 123 182 114T190 91Q190 85 188 77T174 56T139 42Q155 6 214 6Q282 6 345 84Q404
159 440 306Q383 219 305 219Q272 219 247 231T206 261T182 301T169 342T165 376Q165 487 245 576T423 666Q460 666 486 650T525 612T544 562T552 518T553 488ZM488 550Q488 588 472 614T421 641Q389 641 360 622T317 585T295 551Q275 516 256 438T237 328Q237
241 308 241Q356 241 393 278T450 369T478 470T488 550Z" />
<glyph unicode=":" glyph-name="colon" horiz-adv-x="307" d="M222 63Q222 40 202 20T157 0Q137 0 125 12T113 43Q113 67 133 86T178 106Q198 106 210 93T222 63ZM303 388Q303 364 283 345T238 325Q218 325 206 337T194 368Q194 392 214 411T259 431Q279 431 291
419T303 388Z" />
<glyph unicode=";" glyph-name="semicolon" horiz-adv-x="307" d="M218 53Q218 11 200 -35T157 -115T112 -171T83 -193Q73 -193 73 -182Q73 -176 80 -172Q166 -89 190 9Q172 0 157 0Q113 0 113 42Q113 66 131 86T178 106Q218 106 218 53ZM303 388Q303 364 283
345T238 325Q218 325 206 337T194 368Q194 392 214 411T259 431Q279 431 291 419T303 388Z" />
<glyph unicode="&lt;" glyph-name="less" horiz-adv-x="778" d="M689 -20Q687 -28 680 -34T664 -40Q659 -40 648 -33L159 228Q143 236 146 250Q149 263 170 272L789 533Q804 540 809 540Q817 540 821 534T824 520Q821 508 800 498L213 250L676 2Q692 -8 689 -20Z" />
<glyph unicode="=" glyph-name="equal" horiz-adv-x="767" d="M728 173T728 153T695 133H149Q115 133 115 153T149 173H695Q728 173 728 153ZM777 367T777 347T743 327H197Q164 327 164 347T197 367H743Q777 367 777 347Z" />
<glyph unicode="&gt;" glyph-name="greater" horiz-adv-x="778" d="M760 263T757 250T732 228L113 -33Q98 -40 93 -40Q85 -40 81 -34T78 -20Q81 -8 103 2L690 250L227 498Q210 507 213 520Q215 528 222 534T238 540Q243 540 254 533L743 272Q760 263 757 250Z" />
<glyph unicode="?" glyph-name="question" horiz-adv-x="511" d="M551 592Q551 558 541 529T510 476T477 439T441 409L363 346Q310 305 296 288T281 243Q281 209 306 209Q330 209 353 228T386 277Q389 287 391 289T403 292Q418 292 418 282Q418 258 385 223T306
187Q277 187 262 208T246 257Q246 286 260 312T284 348T315 375L436 470Q458 489 471 501T500 543T516 606Q516 648 492 671T431 694Q372 694 320 642T239 512Q277 512 277 480Q277 460 263 446T228 431Q194 431 194 463Q194 477 203 505T233 570T281 639T348 694T431
716Q485 716 518 681T551 592ZM324 63Q324 39 304 20T259 0Q240 0 228 12T215 43Q215 68 235 87T279 106Q300 106 312 93T324 63Z" />
<glyph unicode="@" glyph-name="at" horiz-adv-x="767" d="M706 68Q706 58 649 39T558 11Q471 -11 388 -11Q275 -11 213 64T151 248Q151 333 186 417T278 564T409 666T557 705Q656 705 722 635T789 445Q789 370 746 241Q705 128 628 128Q614 128 600 132T570 151T553
193Q485 128 417 128Q358 128 319 171T279 286Q279 392 355 479T522 566Q601 566 635 481H661Q671 481 674 481T681 478T684 471Q683 461 682 458L617 195Q614 177 614 175Q614 150 632 150Q663 150 689 189T729 281T751 380T759 448Q759 550 704 616T556 683Q468
683 381 622T238 458T182 246Q182 145 236 78T389 11Q516 11 647 71Q663 78 681 78Q692 78 696 78T703 75T706 68ZM570 268L610 430L613 444Q613 452 609 466T596 498T568 530T522 544Q458 544 399 456T340 270Q340 226 359 188T420 150Q466 150 514 193T570 268Z"
/>
<glyph unicode="A" glyph-name="A" horiz-adv-x="743" d="M692 18Q692 0 674 0Q657 0 622 1T569 3Q550 3 511 2T454 0Q439 0 439 12Q439 31 462 31Q529 31 529 63L518 229H290L218 103Q204 77 204 65Q204 38 246 31Q262 29 262 19Q262 0 244 0Q229 0 198 1T151
3Q138 3 111 2T71 0T59 12Q60 30 71 31Q88 32 99 34T128 44T161 68T192 113L524 698Q534 716 550 716Q562 716 564 712T568 691L611 65Q613 44 622 38T668 31Q678 31 682 31T689 27T692 18ZM516 260L493 587L307 260H516Z" />
<glyph unicode="B" glyph-name="B" horiz-adv-x="704" d="M677 219Q677 138 600 69T420 0H90Q80 0 76 0T69 3T65 12Q65 25 71 28T92 31Q141 31 154 38T174 73L309 616Q313 630 313 635Q313 646 299 649T255 652Q244 652 240 652T232 655T228 664Q228 677 234 680T255
683H566Q644 683 689 644T734 547Q734 487 680 432T538 357Q597 350 637 314T677 219ZM646 553Q646 568 643 582T631 613T602 641T552 652H434Q408 652 400 647T385 616L323 366H455Q536 366 591 425T646 553ZM588 232Q588 247 585 261T574 297T543 331T489 344H317L247
63Q247 62 245 54T243 41T244 35T252 32T274 31H398Q477 31 532 93T588 232Z" />
<glyph unicode="C" glyph-name="C" horiz-adv-x="716" d="M810 681L749 438Q746 426 743 423T731 420Q716 420 716 430Q716 431 717 441T719 465T721 491Q721 566 687 620T579 674Q519 674 455 639T342 536Q289 463 263 366T237 207Q237 108 287 59T409 9Q482
9 557 67T668 242Q671 250 684 250Q699 250 699 240Q699 219 678 178T621 92T524 12T395 -22Q289 -22 220 51T150 245Q150 359 212 467T372 640T571 705Q669 705 722 620L785 694Q789 699 793 701T799 704L801 705Q805 705 808 703T812 698V695Q812 689 810 681Z"
/>
<glyph unicode="D" glyph-name="D" horiz-adv-x="755" d="M775 438Q775 328 720 226T577 62T395 0H88Q78 0 74 0T67 3T63 12Q63 25 69 28T90 31Q139 31 152 38T172 73L307 616Q311 630 311 635Q311 646 297 649T253 652Q242 652 238 652T230 655T226 664Q226 677
232 680T253 683H565Q661 683 718 615T775 438ZM692 476Q692 567 646 609T532 652H435Q409 652 401 647T386 616L248 63Q248 62 246 54T244 41T245 35T253 32T275 31H378Q493 31 578 130Q634 196 663 304T692 476Z" />
<glyph unicode="E" glyph-name="E" horiz-adv-x="678" d="M687 247Q684 237 683 235L594 16Q589 5 585 3T566 0H87Q77 0 73 0T66 3T62 12Q62 25 68 28T89 31Q138 31 151 38T171 73L305 609L309 632Q309 638 307 641T292 646T251 649Q239 649 235 649T227 653T224
662Q224 674 230 677T251 680H718Q728 680 731 680T739 677T743 669T742 654L719 477Q718 467 717 463T713 457T702 455Q687 455 687 467Q687 474 689 484Q694 524 694 548Q694 604 667 626T561 649H436Q410 649 402 644T388 615L327 369H408Q467 369 489 388T527
462Q533 484 538 485Q541 486 546 486Q562 486 562 474Q560 464 559 461L504 241Q501 228 498 225T486 221Q470 221 470 233L472 244Q481 277 481 295Q481 318 467 328T406 338H319L250 63Q250 62 248 54T246 41T247 35T255 32T277 31H399Q446 31 481 40T539 62T583
103T617 159T651 234Q658 251 661 254T672 258Q687 258 687 247Z" />
<glyph unicode="F" glyph-name="F" horiz-adv-x="653" d="M707 477Q706 467 705 463T701 457T690 455Q675 455 675 467L676 483Q682 529 682 549Q682 604 656 626T553 649H436Q410 649 402 644T388 615L324 356H402Q461 356 483 375T519 452Q523 466 526 469T538
473Q553 473 553 462Q553 456 551 448L496 228Q492 214 489 211T477 208Q462 208 462 220Q462 224 465 234Q473 266 473 283Q473 305 459 315T399 325H316L253 73Q249 58 249 52Q249 44 251 41T270 34T322 31H332Q342 31 346 31T353 28T357 19Q357 0 336 0Q314
0 268 1T198 3Q178 3 137 2T76 0Q62 0 62 12Q62 25 68 28T89 31Q138 31 151 38T171 73L305 609L309 632Q309 638 307 641T292 646T251 649Q239 649 235 649T227 653T224 662Q224 674 230 677T251 680H706Q716 680 719 680T727 677T731 669T730 654L707 477Z" />
<glyph unicode="G" glyph-name="G" horiz-adv-x="774" d="M768 260Q768 248 762 245T744 242Q723 242 712 238T699 229T692 209L644 18Q639 1 632 1Q624 1 611 21T590 61Q565 29 512 4T396 -22Q288 -22 219 51T150 245Q150 359 212 467T372 640T571 705Q669 705
722 620L785 694Q789 699 793 701T799 704L801 705Q805 705 808 703T812 698V695Q812 689 810 681L749 438Q746 426 743 423T731 420Q716 420 716 430Q716 431 717 441T719 465T721 491Q721 566 687 620T579 674Q519 674 455 639T342 536Q288 462 263 366T237 208Q237
113 287 61T414 9Q494 9 550 60Q572 80 579 98T604 188Q612 216 612 222Q612 229 609 232T601 237T583 240Q557 242 540 242H532Q506 242 506 253Q506 273 527 273T592 272T658 270Q674 270 707 271T755 273Q768 273 768 260Z" />
<glyph unicode="H" glyph-name="H" horiz-adv-x="743" d="M689 18Q689 0 670 0T611 1T550 3T491 2T432 0Q418 0 418 12Q418 25 424 28T445 31Q494 31 507 38T527 73L593 340H319L252 68Q248 54 248 48T250 39T265 34T306 31Q318 31 322 31T330 27T333 18Q333 0
314 0T255 1T194 3T135 2T76 0Q62 0 62 12Q62 25 68 28T89 31Q138 31 151 38T171 73L306 616Q310 630 310 635Q310 646 296 649T252 652Q241 652 237 652T229 655T225 664Q225 683 244 683T303 682T364 680T423 681T482 683Q496 683 496 670Q496 658 490 655T466
652Q420 652 407 645T387 612L327 371H601L662 616Q666 630 666 635Q666 646 652 649T608 652Q597 652 593 652T585 655T581 664Q581 683 600 683T659 682T720 680T779 681T838 683Q852 683 852 670Q852 658 846 655T822 652Q776 652 763 645T743 612L608 71L604
48Q604 42 606 39T621 34T662 31Q674 31 678 31T686 27T689 18Z" />
<glyph unicode="I" glyph-name="I" horiz-adv-x="386" d="M338 19Q338 0 318 0T257 1T194 3T132 2T71 0Q57 0 57 13Q57 25 63 28T87 31Q136 31 150 38T171 72L307 616Q310 625 310 635Q310 646 295 649T247 652Q235 652 231 652T223 656T220 665Q220 683 239 683Q260
683 302 682T364 680Q385 680 426 681T487 683Q501 683 501 671Q501 658 495 655T470 652Q421 652 407 645T387 611L252 71L248 49Q248 42 250 39T266 34T310 31Q322 31 326 31T334 28T338 19Z" />
<glyph unicode="J" glyph-name="J" horiz-adv-x="525" d="M622 671Q622 658 616 655T596 652Q564 652 553 645T537 616L420 144Q403 75 343 27T212 -22Q162 -22 128 7T94 86Q94 108 100 123T115 146T133 158T148 162T156 163Q173 163 185 153T197 124Q197 103
181 84T137 65Q128 65 126 66Q132 36 155 18T210 0Q250 0 288 43T341 145L457 611Q461 625 461 631Q461 641 456 644T431 650Q413 652 385 652H373Q363 652 359 652T352 655T348 664Q348 683 369 683Q391 683 436 682T505 680Q522 680 557 681T608 683Q622 683
622 671Z" />
<glyph unicode="K" glyph-name="K" horiz-adv-x="769" d="M709 19Q709 0 692 0Q678 0 647 1T601 3Q582 3 545 2T489 0Q475 0 475 13Q475 31 494 31Q545 31 545 64Q545 69 539 84L435 363L296 248L261 104Q248 57 248 48Q248 42 250 39T265 34T306 31Q318 31 322
31T330 27T333 18Q333 0 314 0T255 1T194 3T135 2T76 0Q62 0 62 12Q62 25 68 28T89 31Q138 31 151 38T171 73L306 616Q310 630 310 635Q310 646 296 649T252 652Q241 652 237 652T229 655T225 664Q225 683 244 683T303 682T364 680T423 681T482 683Q496 683 496
670Q496 658 490 655T466 652Q420 652 407 645T387 612L308 293L660 586Q693 613 693 632Q693 650 667 652Q653 652 653 664Q653 683 672 683Q689 683 725 682T779 680Q791 680 814 681T848 683Q859 683 859 671Q859 654 841 652Q776 646 684 570L500 417L631 70Q640
47 652 40T691 31Q709 31 709 19Z" />
<glyph unicode="L" glyph-name="L" horiz-adv-x="627" d="M624 246L620 233L544 18Q539 5 535 3T515 0H87Q77 0 73 0T66 3T62 12Q62 25 68 28T89 31Q138 31 151 38T171 73L306 616Q310 630 310 635Q310 646 296 649T252 652Q241 652 237 652T229 655T225 664Q225
683 244 683Q264 683 305 682T367 680Q390 680 436 681T505 683Q520 683 520 671Q520 658 514 655T492 652H482Q424 652 409 644T386 607L250 63Q250 62 248 54T246 41T247 35T255 32T277 31H358Q403 31 439 45T497 76T539 126T567 179T589 236Q595 251 597 254T609
258Q624 258 624 246Z" />
<glyph unicode="M" glyph-name="M" horiz-adv-x="897" d="M839 18Q839 0 820 0Q802 0 763 1T704 3T647 2T590 0Q576 0 576 12Q576 25 582 28T603 31Q652 31 665 38T685 73L826 639H825L452 18Q442 0 428 0Q421 0 418 3T413 9T411 24L350 630H349L216 99Q212 83
212 74Q212 66 213 61T220 48T238 37T271 31Q290 31 290 18Q290 0 272 0Q257 0 224 1T174 3T126 2T79 0Q66 0 66 12Q66 31 85 31Q124 33 148 47T182 101L310 616Q314 630 314 635Q314 646 300 649T256 652Q245 652 241 652T233 655T229 664Q229 677 235 680T256
683H389Q408 683 412 680T417 661L473 100L813 665Q821 678 826 680T849 683H977Q987 683 991 683T999 679T1002 670Q1002 658 996 655T972 652Q926 652 913 645T893 612L758 71L754 48Q754 42 756 39T771 34T812 31Q824 31 828 31T836 27T839 18Z" />
<glyph unicode="N" glyph-name="N" horiz-adv-x="743" d="M852 670Q852 652 837 652Q752 649 736 584L596 20Q592 7 589 4T576 0Q566 0 563 2T556 17L341 614L212 99Q208 83 208 74Q208 66 209 61T216 48T234 37T267 31Q286 31 286 18Q286 0 268 0Q253 0 220 1T170
3T122 2T75 0Q62 0 62 12Q62 31 81 31Q161 34 178 101L310 631L313 644Q313 652 252 652Q241 652 237 652T229 655T225 664Q225 677 231 680T252 683H377Q393 683 396 681T405 666L592 146L702 585Q706 601 706 609Q706 650 646 652Q628 652 628 664Q628 683 646
683Q661 683 694 682T743 680T791 681T839 683Q852 683 852 670Z" />
<glyph unicode="O" glyph-name="O" horiz-adv-x="767" d="M788 444Q788 327 728 218T572 44T378 -22Q276 -22 212 50T148 236Q148 349 207 458T363 636T560 705Q658 705 723 635T788 444ZM703 486Q703 581 660 630T553 680Q489 680 426 633T322 513Q276 433 257
346T238 205Q238 115 277 60T385 4Q443 4 505 48T614 174Q653 241 678 330T703 486Z" />
<glyph unicode="P" glyph-name="P" horiz-adv-x="678" d="M730 535Q730 449 648 383T469 316H314L253 68Q249 54 249 48T251 39T266 34T307 31Q319 31 323 31T331 27T334 18Q334 0 315 0T256 1T195 3T136 2T77 0Q63 0 63 12Q63 25 69 28T90 31Q139 31 152 38T172
73L307 616Q311 630 311 635Q311 646 297 649T253 652Q242 652 238 652T230 655T226 664Q226 677 232 680T253 683H553Q633 683 681 641T730 535ZM642 562Q642 608 610 630T521 652H435Q408 652 400 647T386 616L318 342H444Q537 342 589 400Q614 429 628 483T642
562Z" />
<glyph unicode="Q" glyph-name="Q" horiz-adv-x="767" d="M695 -1Q694 -5 693 -12T685 -39T670 -77T649 -117T620 -156T584 -183T538 -194Q459 -194 459 -102Q459 -72 469 -7Q424 -22 378 -22Q276 -22 212 50T148 236Q148 349 207 458T363 636T560 705Q658 705
723 635T788 444Q788 309 707 185T502 6Q503 -57 518 -78T562 -100Q593 -100 624 -76T672 -2Q676 11 684 11Q695 11 695 -1ZM704 480Q704 570 663 625T553 680Q497 680 438 641T333 532Q283 455 258 360T233 202Q233 141 255 90T327 15Q322 28 322 43Q322 81 350
114T419 148Q492 148 499 42Q555 78 598 140T662 267T694 387T704 480ZM473 26Q474 34 474 54T473 86T458 112T420 126Q389 126 367 99T344 43Q344 3 385 3Q427 3 473 26Z" />
<glyph unicode="R" glyph-name="R" horiz-adv-x="729" d="M723 92Q723 83 713 59T675 6T609 -22Q557 -22 521 5T485 84Q485 100 500 164Q517 232 517 243Q517 292 490 311T423 331H315L250 68Q246 54 246 48T248 39T263 34T304 31Q316 31 320 31T328 27T331 18Q331
0 312 0Q292 0 252 1T193 3T135 2T77 0Q63 0 63 12Q63 25 69 28T90 31Q139 31 152 38T172 73L307 616Q311 630 311 635Q311 646 297 649T253 652Q242 652 238 652T230 655T226 664Q226 677 232 680T253 683H517Q608 683 663 640T718 535Q718 476 664 421T508 339Q547
325 570 295T594 223Q594 196 586 135Q580 83 580 59Q580 40 582 29T591 9T613 0Q637 0 657 23T691 88Q693 95 694 98T698 103T708 105Q723 105 723 92ZM628 558Q628 585 617 604T591 632T550 646T509 651T466 652Q415 652 408 650Q393 646 386 616L321 353H422Q516
353 570 405Q594 429 608 468T625 527T628 558Z" />
<glyph unicode="S" glyph-name="S" horiz-adv-x="562" d="M538 238Q538 141 466 60T301 -22Q195 -22 148 47Q121 11 101 -10Q91 -22 85 -22Q74 -22 74 -12Q74 -10 77 1L129 210Q132 221 135 224T147 227Q162 227 162 216L161 210Q153 181 153 149Q153 77 196 43T303
9Q368 9 419 69T470 200Q470 244 448 272Q436 285 424 290T371 308L322 322Q286 332 279 335Q199 372 199 467Q199 555 270 630T431 705T561 637L606 693Q616 705 621 705Q625 705 628 703T632 698V695Q632 689 630 681L578 474Q575 462 572 459T560 456Q545 456
545 466L546 480Q551 508 551 535Q551 598 523 637T429 677Q366 677 317 623T267 506Q267 440 318 418Q329 414 373 402Q448 380 467 371T505 340Q538 299 538 238Z" />
<glyph unicode="T" glyph-name="T" horiz-adv-x="716" d="M775 473Q773 459 770 456T757 452Q742 452 742 465Q742 469 744 480Q754 539 754 570Q754 617 730 631T627 646Q583 646 575 644Q559 642 552 611L418 73Q414 59 414 54Q414 43 420 39T447 33Q448 33
457 33T478 32T497 31H512Q537 31 537 20Q537 0 516 0Q491 0 438 1T359 3Q334 3 282 2T204 0Q187 0 187 12Q187 25 193 28T215 31H231Q294 31 312 39T337 76L471 613Q475 625 475 635Q475 639 474 641T468 644T452 646H418Q321 646 285 618T214 484Q204 458 201
455T190 452Q175 452 175 463Q175 467 180 480L239 659Q243 672 247 674T268 677H781Q791 677 795 677T802 674T806 665Q806 656 805 652L775 473Z" />
<glyph unicode="U" glyph-name="U" horiz-adv-x="743" d="M852 670Q852 652 837 652Q752 649 736 584L645 218Q623 129 547 54T380 -22Q306 -22 254 29T202 166Q202 198 210 230L306 616Q310 630 310 635Q310 646 296 649T252 652Q241 652 237 652T229 655T225
664Q225 683 244 683T303 682T364 680T423 681T482 683Q496 683 496 670Q496 658 490 655T466 652Q420 652 407 645T387 612L287 210Q277 166 277 134Q277 71 308 40T384 9Q456 9 524 71T616 229L705 585Q709 601 709 609Q709 650 649 652Q631 652 631 664Q631
683 649 683Q664 683 696 682T745 680T792 681T839 683Q852 683 852 670Z" />
<glyph unicode="V" glyph-name="V" horiz-adv-x="743" d="M868 672Q868 665 867 661T861 655T856 653T849 652Q816 649 790 633T737 571L394 -3Q386 -16 381 -19T366 -22Q355 -22 352 -18T347 2L287 618Q286 633 283 638T269 648T233 652Q209 652 209 664Q209
683 227 683Q243 683 277 682T329 680Q348 680 387 681T444 683Q458 683 458 671Q458 658 452 655T433 652Q370 652 370 621L421 97L710 580Q725 606 725 620Q725 650 685 652Q669 654 669 664Q669 683 687 683Q701 683 732 682T779 680Q792 680 817 681T855 683Q860
683 863 681T867 675L868 672Z" />
<glyph unicode="W" glyph-name="W" horiz-adv-x="999" d="M1124 672Q1124 653 1110 652Q1073 649 1051 633T1004 570L691 -4Q681 -22 665 -22Q653 -22 651 -18T647 3L625 501L350 -2Q343 -14 339 -18T324 -22T310 -18T306 3L278 620Q277 634 276 639T264 648T232
652Q208 652 208 664Q208 683 226 683Q241 683 274 682T324 680Q342 680 380 681T437 683Q451 683 451 671Q451 658 445 655T426 652Q402 652 388 648T368 636T362 622T361 605L383 116L616 544Q622 554 622 564Q619 627 618 631Q616 643 608 647T570 652Q549 652
549 664Q549 683 567 683Q582 683 615 682T665 680Q684 680 722 681T778 683Q792 683 792 672Q792 663 788 658T781 653T772 652Q728 651 715 641T701 615L702 608L724 116L977 582Q988 602 988 614Q988 649 937 652Q921 652 921 664Q921 683 940 683Q956 683 989
682T1039 680Q1051 680 1076 681T1112 683Q1117 683 1120 681T1124 675V672Z" />
<glyph unicode="X" glyph-name="X" horiz-adv-x="743" d="M700 18Q700 0 682 0Q666 0 631 1T579 3Q560 3 521 2T463 0Q448 0 448 12Q448 29 464 31Q489 32 505 42T521 61L518 73L430 312L238 93L237 91Q235 87 233 85Q225 74 225 61Q225 34 260 31Q273 30 273
20Q273 0 254 0Q238 0 203 1T151 3Q136 3 107 2T63 0Q51 0 51 12Q52 30 63 31Q88 33 104 35T152 55T211 104L419 341L316 620Q311 633 307 638T290 648T250 652Q226 652 226 664Q226 683 245 683Q261 683 295 682T347 680Q367 680 406 681T464 683Q478 683 478
670Q478 652 462 652Q445 651 431 645T411 633T405 623L409 611L482 412L630 582Q651 606 651 622Q651 647 615 652Q603 652 603 664Q603 683 621 683Q637 683 672 682T725 680Q740 680 769 681T812 683Q825 683 825 671T820 656T804 652Q769 650 739 636T697 610T667
580L655 570L492 383L611 61Q615 49 619 44T636 35T676 31Q686 31 690 31T697 27T700 18Z" />
<glyph unicode="Y" glyph-name="Y" horiz-adv-x="743" d="M874 672Q874 659 870 656T855 652Q818 649 787 631T722 570L486 283Q480 276 474 256L443 133Q424 54 424 48Q424 37 438 34T482 31Q493 31 497 31T505 28T509 19Q509 0 490 0T431 1T371 3Q352 3 313
2T255 0Q241 0 241 12Q241 25 247 28T266 31Q321 32 332 40T354 90Q400 265 400 273Q400 278 396 288L290 622Q285 640 273 646T226 652Q202 652 202 664Q202 683 221 683Q237 683 272 682T325 680Q345 680 384 681T442 683Q456 683 456 671Q456 658 451 655T434
652Q378 652 378 628Q378 625 382 615L477 315L696 582L699 586Q702 590 705 595T712 606T718 618T721 629Q721 650 690 652Q675 652 675 664Q675 683 693 683Q708 683 739 682T786 680Q799 680 824 681T862 683Q867 683 870 681T874 675V672Z" />
<glyph unicode="Z" glyph-name="Z" horiz-adv-x="613" d="M605 255Q601 241 600 239L532 18Q528 5 524 3T503 0H103Q80 0 80 9Q80 21 91 34L608 652H468Q411 652 371 639T306 597T268 543T241 476Q239 469 238 467T235 462T231 459T223 458Q208 458 208 469Q210
480 211 482L265 663Q270 677 274 680T294 683H681Q689 683 692 683T698 682T703 679T704 674Q704 662 692 648L177 34H324Q375 34 413 45T474 73T517 120T545 175T569 242Q575 260 578 263T589 267Q605 267 605 255Z" />
<glyph unicode="[" glyph-name="bracketleft" horiz-adv-x="307" d="M206 -222Q202 -240 199 -245Q194 -250 176 -250H99Q89 -250 85 -250T77 -247T73 -238Q75 -228 76 -225L315 731Q319 745 322 747T343 750H420Q430 750 434 750T442 747T446 738Q442 720 439
715Q434 710 416 710H351L121 -210H180Q190 -210 194 -210T202 -213T206 -222Z" />
<glyph unicode="\" glyph-name="backslash" horiz-adv-x="500" d="M386 -230Q384 -238 377 -244T361 -250Q346 -250 344 -228L239 712V730Q240 738 248 744T264 750Q278 750 280 728L385 -212L386 -230Z" />
<glyph unicode="]" glyph-name="bracketright" horiz-adv-x="307" d="M117 -231Q113 -245 110 -247T89 -250H12Q2 -250 -2 -250T-10 -247T-14 -238Q-10 -220 -7 -215Q-2 -210 16 -210H81L311 710H252Q242 710 238 710T230 713T226 722Q230 740 233 745Q238 750
256 750H333Q343 750 347 750T355 747T359 738Q357 728 356 725L117 -231Z" />
<glyph unicode="^" glyph-name="asciicircum" horiz-adv-x="556" d="M707 584L690 562L448 685L147 562L141 584L464 744L707 584Z" />
<glyph unicode="_" glyph-name="underscore" horiz-adv-x="743" d="M727 -125Q723 -140 708 -140H-35Q-41 -140 -44 -136T-46 -125Q-42 -110 -27 -110H716Q722 -110 725 -114T727 -125Z" />
<glyph unicode="`" glyph-name="grave" horiz-adv-x="511" d="M444 522Q441 516 433 511T420 505T410 513L310 636Q297 649 306 668Q312 681 325 688T348 696Q362 696 371 679L442 537Q447 527 444 522Z" />
<glyph unicode="a" glyph-name="a" horiz-adv-x="511" d="M535 143Q523 83 505 45Q478 -11 432 -11Q403 -11 380 6T349 59Q292 -11 229 -11Q174 -11 141 33T108 144Q108 253 181 347T337 442Q394 442 420 383Q428 422 460 422Q487 422 487 396Q487 389 483 375L415
103Q408 75 408 52Q408 11 434 11Q471 11 501 130Q505 146 508 149T520 153Q535 153 535 143ZM356 124L403 313L406 326Q406 361 387 390T337 420Q307 420 276 388T225 309Q210 274 193 205T176 100Q176 67 188 39T231 11Q268 11 308 52T356 124Z" />
<glyph unicode="b" glyph-name="b" horiz-adv-x="460" d="M459 286Q459 176 387 83T230 -11Q177 -11 146 32T115 141Q115 190 126 223L225 618Q228 632 228 635Q228 641 226 644T213 649T178 652Q154 652 154 663Q154 672 157 676T165 682T177 684L276 692Q282
694 292 694Q306 694 306 682Q304 672 303 669L233 389Q289 442 339 442Q388 442 423 402T459 286ZM336 106Q357 152 374 225T392 331T380 392T337 420Q286 420 232 346Q218 327 210 300Q172 151 172 107Q172 56 189 34T230 11Q263 11 292 43T336 106Z" />
<glyph unicode="c" glyph-name="c" horiz-adv-x="460" d="M468 104Q468 94 444 68T367 16T257 -11Q191 -11 151 34T110 154Q110 263 189 352T363 442Q410 442 440 418T470 356Q470 329 455 313T419 296Q403 296 394 305T385 328Q385 330 385 333T388 343T395 357T410
369T435 377Q419 420 364 420Q329 420 294 394T233 320Q214 284 197 219T180 114Q180 68 200 40T259 11Q276 11 297 14T362 42T439 109Q448 120 452 120Q458 120 463 114T468 104Z" />
<glyph unicode="d" glyph-name="d" horiz-adv-x="511" d="M535 143Q523 83 505 45Q478 -11 432 -11Q403 -11 380 6T349 59Q292 -11 229 -11Q174 -11 141 33T108 144Q108 253 181 347T337 442Q393 442 421 384L479 618Q482 632 482 635Q482 641 480 644T467 649T432
652Q408 652 408 663Q408 672 411 676T419 682T431 684L530 692Q536 694 546 694Q560 694 560 682Q558 672 557 669L414 98Q408 74 408 52Q408 11 434 11Q471 11 501 130Q505 146 508 149T520 153Q535 153 535 143ZM355 122L403 314Q406 323 406 327Q406 359 386
391Q367 420 337 420T276 388T225 309Q210 274 193 205T176 100Q176 67 188 39T231 11Q268 11 308 52T355 122Z" />
<glyph unicode="e" glyph-name="e" horiz-adv-x="460" d="M468 104Q468 94 444 68T367 16T257 -11Q189 -11 152 40T114 164Q114 287 194 364T362 442Q408 442 435 418T463 357Q463 352 463 347T458 327T447 301T423 276T384 253Q328 231 239 231H200Q183 165 183
121Q183 96 188 74T211 32T259 11Q276 11 297 14T362 42T439 109Q448 120 452 120Q458 120 463 114T468 104ZM425 359Q425 385 408 402T362 420Q355 420 346 419T316 408T276 383T238 333T206 253H227Q242 253 254 253T292 256T339 266T380 284T413 314T425 359Z"
/>
<glyph unicode="f" glyph-name="f" horiz-adv-x="307" d="M452 639Q452 614 437 599T402 584Q389 584 379 592T368 616Q368 633 379 647T412 665Q397 683 370 683Q353 683 341 666T325 635T315 593L283 431H361Q371 431 375 431T383 427T386 418Q386 406 380 403T359
400H277L207 41Q201 12 194 -15T168 -93T121 -174T55 -205Q24 -205 0 -188T-25 -139Q-25 -114 -10 -99T25 -84Q38 -84 48 -92T59 -116Q59 -133 48 -147T15 -165Q28 -183 55 -183Q92 -183 112 -97Q124 -54 140 27L213 400H151Q126 400 126 411Q126 425 132 428T153
431H219L240 541Q274 705 370 705Q403 705 427 688T452 639Z" />
<glyph unicode="g" glyph-name="g" horiz-adv-x="460" d="M374 -63Q359 -123 305 -164T174 -205Q53 -205 53 -147Q53 -121 69 -108T102 -94Q120 -94 128 -104T137 -126Q137 -139 128 -152T105 -172Q132 -183 176 -183Q231 -183 271 -136Q291 -112 299 -92T317
-31L338 53Q285 0 232 0Q177 0 144 44T110 153Q110 259 181 350T337 442Q393 442 421 385Q424 404 436 413T460 422Q487 422 487 396Q487 390 483 375L374 -63ZM358 132L403 314L406 328Q406 334 404 346T395 376T373 407T337 420Q309 420 279 392T229 321Q213
284 196 214T178 109Q178 100 179 90T185 63T202 34T234 22Q271 22 311 62T358 132Z" />
<glyph unicode="h" glyph-name="h" horiz-adv-x="511" d="M535 143Q535 140 531 125T517 87T493 42T457 5T408 -11Q373 -11 353 12T332 69Q332 91 348 133Q406 299 406 354Q406 420 360 420Q286 420 227 325Q208 291 199 255Q196 244 191 223T183 190L140 17Q137
7 127 -2T103 -11Q90 -11 83 -3T75 15Q76 26 77 28L225 618Q228 632 228 635Q228 641 226 644T213 649T178 652Q154 652 154 663Q154 672 157 676T165 682T177 684L276 692Q282 694 292 694Q306 694 306 682Q304 672 303 669L230 377Q252 398 264 408T304 430T363
442Q407 442 437 418T467 338Q467 277 406 115Q388 61 388 40Q388 11 410 11Q466 11 503 136Q506 148 508 150T520 153Q535 153 535 143Z" />
<glyph unicode="i" glyph-name="i" horiz-adv-x="307" d="M331 143Q331 140 327 126T313 88T290 42T253 5T204 -11Q167 -11 148 13T128 69Q128 89 146 138L183 237L213 320Q231 369 231 392Q231 420 209 420Q150 420 116 294Q113 283 110 281T98 278Q83 278 83
288Q83 291 87 306T101 344T125 389T162 426T211 442Q242 442 264 422T286 362Q286 341 274 306L210 135Q184 61 184 39Q184 11 206 11Q265 11 299 136Q302 148 304 150T316 153Q331 153 331 143ZM358 611Q358 587 338 568T294 548Q273 548 261 560T249 591Q249
615 269 634T313 654Q334 654 346 641T358 611Z" />
<glyph unicode="j" glyph-name="j" horiz-adv-x="307" d="M223 -55Q208 -115 160 -160T52 -205Q19 -205 -8 -191T-35 -146Q-35 -122 -19 -108T14 -94Q32 -94 40 -104T49 -126Q48 -162 13 -173Q31 -183 53 -183Q86 -183 112 -151T147 -93T158 -56L254 329Q261 357
261 380Q261 420 234 420Q167 420 117 295Q114 286 112 283T108 279T98 278Q83 278 83 288Q83 291 89 306T108 345T138 389T181 426T235 442Q275 442 298 416T321 352Q321 334 316 319L223 -55ZM358 611Q358 587 338 568T294 548Q273 548 261 560T249 591Q249 615
269 634T313 654Q334 654 346 641T358 611Z" />
<glyph unicode="k" glyph-name="k" horiz-adv-x="460" d="M484 143Q484 140 480 124T467 83T448 41Q418 -11 371 -11Q338 -11 313 13T287 86Q287 103 291 120Q294 134 294 145Q294 172 276 191T237 218T193 229L142 26Q134 -11 103 -11Q90 -11 83 -3T75 15Q76
26 77 28L225 618Q228 632 228 635Q228 641 226 644T213 649T178 652Q154 652 154 663Q154 672 157 676T165 682T177 684L276 692Q282 694 292 694Q306 694 306 682Q304 672 303 669L201 261Q227 273 246 291T309 360Q379 442 439 442Q470 442 486 424T502 382Q502
356 487 341T452 326Q434 326 426 336T417 358Q417 365 419 373T433 393T464 408Q456 420 437 420Q413 420 388 404T347 371T296 315Q254 267 225 249Q358 230 358 145Q358 131 353 110Q345 70 345 54Q345 11 374 11Q390 11 402 21T424 52T438 89T450 130Q454 146
457 149T469 153Q484 153 484 143Z" />
<glyph unicode="l" glyph-name="l" horiz-adv-x="256" d="M280 143Q280 141 276 124T265 82T249 41Q222 -11 178 -11Q142 -11 118 14T94 79Q94 94 100 118L225 618Q228 632 228 635Q228 641 226 644T213 649T178 652Q154 652 154 663Q154 672 157 676T165 682T177
684L276 692Q282 694 292 694Q306 694 306 682Q304 672 303 669L160 98Q154 74 154 52Q154 11 180 11Q217 11 244 123L251 148Q254 153 265 153Q280 153 280 143Z" />
<glyph unicode="m" glyph-name="m" horiz-adv-x="818" d="M842 143Q842 140 838 125T824 87T800 42T764 5T715 -11Q680 -11 660 12T639 69Q639 91 655 133Q713 299 713 354Q713 420 667 420Q589 420 526 312Q515 293 501 240Q498 229 493 208T485 175L445 15Q435
-11 409 -11Q395 -11 388 -3T381 15Q381 20 384 29L449 289Q458 330 458 354Q458 420 412 420Q334 420 271 312Q260 293 246 240Q244 229 238 208T230 175L190 15Q180 -11 154 -11Q140 -11 133 -3T126 15Q126 20 129 29L204 329Q211 357 211 380Q211 420 185 420Q163
420 148 390T117 301Q113 285 111 282T98 278Q83 278 83 288Q96 349 115 389Q143 442 187 442Q220 442 243 421T271 363Q329 442 414 442Q454 442 484 422T519 354Q579 442 669 442Q712 442 743 419T774 338Q774 277 713 115Q695 61 695 40Q695 11 717 11Q773 11
810 136Q813 148 815 150T827 153Q842 153 842 143Z" />
<glyph unicode="n" glyph-name="n" horiz-adv-x="562" d="M586 143Q586 140 582 125T568 87T544 42T508 5T459 -11Q424 -11 404 12T383 69Q383 91 399 133Q457 299 457 354Q457 420 411 420Q334 420 276 321Q259 293 246 240Q244 229 238 208T230 175L190 15Q180
-11 154 -11Q140 -11 133 -3T126 15Q126 20 129 29L204 329Q211 357 211 380Q211 420 185 420Q163 420 148 390T117 301Q113 285 111 282T98 278Q83 278 83 288Q96 349 115 389Q143 442 187 442Q220 442 243 421T271 363Q281 378 295 393T343 425T414 442Q458 442
488 418T518 338Q518 277 457 115Q439 61 439 40Q439 11 461 11Q517 11 554 136Q557 148 559 150T571 153Q586 153 586 143Z" />
<glyph unicode="o" glyph-name="o" horiz-adv-x="511" d="M509 278Q509 169 430 79T256 -11Q192 -11 151 33T110 154Q110 263 189 352T363 442Q428 442 468 396T509 278ZM439 317Q439 362 419 391T362 420Q331 420 298 397T238 329Q215 290 198 222T180 114Q180
63 202 37T256 11Q292 11 327 39T385 111Q407 153 423 217T439 317Z" />
<glyph unicode="p" glyph-name="p" horiz-adv-x="511" d="M510 286Q510 175 438 82T282 -11Q248 -11 227 8T198 47L162 -99Q151 -143 151 -147Q151 -153 153 -156T166 -161T202 -163T226 -175Q226 -194 207 -194Q192 -194 159 -193T110 -191Q96 -191 68 -192T26
-194Q14 -194 14 -182Q14 -163 35 -163Q65 -162 74 -157T90 -128L204 330Q211 358 211 380Q211 420 185 420Q163 420 148 390T117 301Q113 285 111 282T98 278Q83 278 83 288Q96 349 115 389Q143 442 187 442Q212 442 236 427T269 372Q329 442 390 442Q439 442
474 402T510 286ZM387 106Q408 152 425 225T443 331T431 392T388 420Q350 420 310 379T263 307L216 118Q213 106 213 104Q213 94 217 76T238 34T281 11Q314 11 343 43T387 106Z" />
<glyph unicode="q" glyph-name="q" horiz-adv-x="460" d="M429 -175Q429 -194 410 -194Q394 -194 360 -193T309 -191T259 -192T209 -194Q196 -194 196 -182Q196 -169 202 -166T220 -163Q267 -162 277 -155T296 -115L335 42Q280 -11 229 -11Q174 -11 141 33T108
144Q108 253 181 347T337 442Q397 442 423 378Q435 399 456 420T486 441Q497 441 497 430Q495 420 494 417L357 -129Q357 -131 356 -134T355 -141T354 -147Q354 -153 356 -156T369 -161T405 -163T429 -175ZM355 122L403 314Q406 323 406 327Q406 359 386 391Q367
420 337 420T276 388T225 309Q210 274 193 205T176 100Q176 67 188 39T231 11Q268 11 308 52T355 122Z" />
<glyph unicode="r" glyph-name="r" horiz-adv-x="422" d="M489 379Q489 353 473 340T440 326Q422 326 414 336T405 358Q405 363 407 370T418 389T443 406Q423 420 390 420Q366 420 344 406T307 375T280 335T264 303T258 288L193 26Q184 -11 154 -11Q140 -11 133
-3T126 15Q126 20 129 29L204 329Q211 357 211 380Q211 420 185 420Q163 420 148 390T117 301Q113 285 111 282T98 278Q83 278 83 288Q96 349 115 389Q143 442 187 442Q215 442 238 425T270 370Q322 442 391 442Q426 442 457 428T489 379Z" />
<glyph unicode="s" glyph-name="s" horiz-adv-x="409" d="M393 157Q393 141 388 122T370 78T336 35T282 2T205 -11Q150 -11 113 15T76 86Q76 117 91 132T127 148Q143 148 152 139T161 116Q161 111 160 104T146 83T110 67Q128 11 206 11Q235 11 259 19T296 41T319
70T332 99T336 123Q336 142 329 155T307 177T281 188T247 197Q234 200 226 202T203 211T178 228T162 255T154 294Q154 344 194 393T312 442Q360 442 389 418T419 357Q419 328 406 315T376 302T353 310T346 330T355 354T386 371Q372 420 311 420Q259 420 235 388T210
328Q210 308 221 296T244 279T274 271Q291 267 302 264T333 252T363 232T384 202T393 157Z" />
<glyph unicode="t" glyph-name="t" horiz-adv-x="332" d="M356 143Q356 140 350 125T331 87T301 42T258 5T204 -11Q166 -11 143 15T119 79Q119 93 124 113L196 400H116Q106 400 102 400T95 403T91 412Q91 425 97 428T119 431H204L243 590Q253 626 282 626Q309
626 309 600Q309 593 305 579L268 431H348Q358 431 362 431T369 428T373 419Q373 406 367 403T345 400H260L186 103Q179 75 179 52Q179 11 206 11Q244 11 273 49T321 134Q327 148 329 150T341 153Q356 153 356 143Z" />
<glyph unicode="u" glyph-name="u" horiz-adv-x="537" d="M561 143Q549 83 531 45Q504 -11 458 -11Q398 -11 378 49Q330 -11 267 -11Q220 -11 188 17T155 105Q155 161 207 301Q231 368 231 391Q231 420 209 420Q149 420 116 294Q113 283 110 281T98 278Q83 278
83 288Q83 291 87 306T101 344T125 389T162 426T211 442Q244 442 265 420T287 361Q287 341 274 307Q216 149 216 88Q216 11 270 11Q323 11 362 69Q370 81 376 102L449 394Q458 431 488 431Q502 431 509 423T516 405Q516 400 513 391L441 103Q434 75 434 52Q434
11 460 11Q497 11 527 130Q531 146 534 149T546 153Q561 153 561 143Z" />
<glyph unicode="v" glyph-name="v" horiz-adv-x="460" d="M493 376Q493 364 487 326T466 229T428 118T366 27T279 -11Q228 -11 192 17T156 109Q156 161 207 301Q231 368 231 391Q231 420 209 420Q149 420 116 294Q113 283 110 281T98 278Q83 278 83 288Q83 291
87 306T101 344T125 389T162 426T211 442Q244 442 265 420T287 361Q287 346 276 311Q217 154 217 94Q217 62 231 37T282 11Q322 11 355 50T407 141T434 234T444 290Q444 340 417 369Q404 384 404 396Q404 413 419 427T452 442Q473 442 483 424T493 376Z" />
<glyph unicode="w" glyph-name="w" horiz-adv-x="664" d="M697 376Q697 336 674 244T628 101Q581 -11 496 -11Q453 -11 424 6T382 53Q344 -11 285 -11T191 20Q157 51 157 112Q157 165 207 301Q231 368 231 391Q231 420 209 420Q149 420 116 294Q113 283 110 281T98
278Q83 278 83 288Q83 291 87 306T101 344T125 389T162 426T211 442Q244 442 265 420T287 361Q287 341 275 308Q218 157 218 98Q218 88 219 78T226 51T248 22T288 11Q322 11 347 49T372 105Q372 136 380 168L437 396Q446 431 475 431Q489 431 496 423T503 405Q503
398 487 339L445 171Q433 123 433 94Q433 58 448 35T499 11Q560 11 599 104Q614 140 631 201T648 290Q648 340 621 369Q608 384 608 396Q608 413 623 427T656 442Q677 442 687 424T697 376Z" />
<glyph unicode="x" glyph-name="x" horiz-adv-x="464" d="M488 143Q488 134 478 111T450 59T401 10T334 -11Q307 -11 280 4T239 57Q200 -11 141 -11Q105 -11 79 6T53 51Q53 75 68 90T103 105Q137 105 137 73Q137 59 128 45T98 25Q115 11 142 11Q163 11 179 23T207
60T225 104T239 156L262 247Q283 333 283 357Q283 387 270 403T235 420Q202 420 169 388T116 295Q112 283 110 281T98 278Q83 278 83 288T93 322T122 373T171 421T237 442Q308 442 333 374Q345 397 370 419T431 442Q461 442 489 428T518 379Q518 353 502 340T469
326Q451 326 443 336T434 358Q434 362 435 368T446 388T474 406Q458 420 430 420Q371 420 342 313L308 176Q289 95 289 75Q289 40 303 26T336 11Q370 11 403 43T455 136Q459 148 461 150T473 153Q488 153 488 143Z" />
<glyph unicode="y" glyph-name="y" horiz-adv-x="486" d="M415 -3Q395 -82 332 -143T195 -205Q153 -205 126 -182T99 -119Q99 -94 110 -79T131 -60T150 -57Q164 -57 174 -65T184 -89T173 -119T141 -137L133 -140Q133 -144 138 -153T158 -173T195 -183Q241 -183
286 -135T357 26Q320 -11 267 -11Q220 -11 188 17T155 105Q155 161 207 301Q231 368 231 391Q231 420 209 420Q149 420 116 294Q113 283 110 281T98 278Q83 278 83 288Q83 291 87 306T101 344T125 389T162 426T211 442Q244 442 265 420T287 361Q287 341 274 307Q216
149 216 88Q216 11 270 11Q310 11 339 41T376 100L449 394Q458 431 488 431Q502 431 509 423T516 405Q516 403 515 399T513 391L415 -3Z" />
<glyph unicode="z" glyph-name="z" horiz-adv-x="409" d="M433 143Q433 127 417 93T363 24T282 -11Q268 -11 256 -5T237 8T220 28Q205 49 196 56T172 64Q159 64 147 58T123 38T107 19T93 -2Q88 -11 77 -11Q62 -11 62 -1Q62 8 95 54T166 138L330 301Q340 311 370
345Q344 345 311 360Q271 378 251 378Q225 378 205 364T177 331Q173 322 171 320T159 317Q144 317 144 328Q144 353 178 397T261 442Q293 442 322 403Q348 367 369 367Q383 367 395 378T431 429Q436 438 438 440T450 442Q464 442 464 432Q464 427 450 405T410 349T357
289L212 146Q191 125 156 85Q161 86 174 86Q197 86 236 69Q272 53 292 53Q325 53 356 76T401 137Q404 147 406 150T418 153Q433 153 433 143Z" />
<glyph unicode="{" glyph-name="braceleft" horiz-adv-x="500" d="M612 739Q609 730 600 728Q529 724 478 682Q456 665 448 644T424 563L379 383Q375 366 370 354T349 320T303 280T228 250Q321 221 318 147Q316 127 297 56L260 -94Q250 -132 251 -142Q251 -174
276 -199T354 -228Q361 -229 362 -229T367 -231T367 -239Q365 -250 345 -250Q261 -250 215 -212Q186 -187 184 -156T195 -83L245 115Q254 145 249 166T234 201T208 223T177 234T148 239Q141 240 140 240T135 242T135 250Q137 261 151 261Q214 265 267 306Q291 326
300 348T327 444L373 627Q388 680 453 715T595 750Q601 750 603 750T609 749T613 746T612 739Z" />
<glyph unicode="|" glyph-name="bar" horiz-adv-x="278" d="M105 -217Q96 -250 77 -250Q56 -250 65 -217L298 717Q307 750 327 750T338 717L105 -217Z" />
<glyph unicode="}" glyph-name="braceright" horiz-adv-x="500" d="M490 250Q487 239 473 239Q408 235 358 194Q334 174 325 153T297 56L251 -127Q236 -180 172 -215T30 -250Q23 -250 20 -250T14 -247T12 -239Q15 -230 24 -228Q57 -226 83 -218T120 -202T147 -182Q168
-165 176 -144T200 -63L245 117Q249 134 254 146T275 180T321 220T397 250Q303 278 306 353Q306 355 327 444L365 594Q374 633 374 642Q374 674 349 699T270 728Q263 729 262 729T257 731T257 739Q260 750 280 750Q362 750 409 712Q438 687 440 656T429 583L379
385Q370 355 375 334T390 299T416 277T447 266T476 261Q481 260 482 260T487 259T490 256T490 250Z" />
<glyph unicode="~" glyph-name="asciitilde" horiz-adv-x="556" d="M627 290L562 246Q540 230 497 211Q452 193 419 193Q376 193 328 227Q308 240 298 246T270 258T233 264Q164 264 62 193L52 210L117 254Q141 270 183 289Q228 307 261 307Q302 307 352 273Q372
260 382 254T410 242T447 236Q514 236 618 307L627 290Z" />
<glyph unicode="&#xa0;" glyph-name="uni00A0" horiz-adv-x="511" />
<glyph unicode="&#xa1;" glyph-name="exclamdown" horiz-adv-x="307" d="M320 457Q320 432 300 413T256 394Q235 394 223 407T211 437Q211 461 231 480T276 500Q295 500 307 488T320 457ZM168 -156Q164 -182 147 -197T120 -214T103 -216Q82 -216 70 -204T58 -175Q58
-168 63 -154L212 296Q217 308 219 310T230 313Q245 313 245 301Q245 298 243 289L168 -156Z" />
<glyph unicode="&#xa2;" glyph-name="cent" horiz-adv-x="460" d="M468 104Q468 99 459 87T432 58T391 27T334 1T265 -11L261 -30Q255 -45 242 -45Q235 -45 232 -41T231 -30L236 -10Q179 -2 145 42T110 154Q110 258 184 345T348 441L353 461Q357 476 372 476Q378
476 381 472T383 461L378 441Q420 437 445 414T470 356Q470 329 455 313T419 296Q403 296 394 305T385 328Q385 330 385 333T388 343T395 357T410 369T435 377Q422 414 373 420L271 12Q306 14 352 35T439 109Q448 120 452 120Q458 120 463 114T468 104ZM241 13L342
417Q278 402 233 320Q214 284 197 219T180 114Q180 26 241 13Z" />
<glyph unicode="&#xa3;" glyph-name="sterling" horiz-adv-x="769" d="M633 138Q633 103 580 46T452 -11Q416 -11 389 3T297 62Q270 29 231 9T155 -11Q127 -11 108 1T88 38Q88 74 127 106T219 139Q250 139 278 127Q282 138 306 228L332 332H280Q256 332 256 342T259
356T267 362T283 363H340L379 523Q397 597 456 651T582 706Q638 706 668 668T698 573Q698 480 643 480Q630 480 620 488T609 512Q609 534 627 550Q639 560 667 560V577Q667 628 645 656T583 684Q545 684 507 649T448 539L404 363H481Q505 363 505 353T502 339T494
333T478 332H396L356 169Q348 137 326 100Q388 56 413 43T470 30Q511 30 548 59T600 131Q604 143 606 145T618 148Q633 148 633 138ZM258 85Q229 98 201 98Q170 98 148 78T125 37Q125 27 132 19T155 11Q180 11 208 30T258 85Z" />
<glyph unicode="&#xa4;" glyph-name="currency" horiz-adv-x="767" d="M614 37Q597 23 580 34Q579 35 578 36T575 40T570 47L530 100Q466 57 398 57Q328 57 287 100L220 46Q191 23 176 34Q160 45 190 68L265 128Q235 182 253 250Q269 317 326 372L278 435Q264
451 279 464Q297 477 312 467Q315 465 322 454L363 401Q426 443 494 443Q564 443 605 400L672 454Q701 477 716 466Q732 455 702 432L626 372Q657 318 639 250Q623 183 567 129L615 66Q627 48 614 37ZM583 186T599 250T582 358T484 403T365 359T293 250T310 142T408
97Q471 97 527 141Z" />
<glyph unicode="&#xa5;" glyph-name="yen" horiz-adv-x="743" d="M874 672Q874 659 870 656T855 652Q818 649 787 631T722 570L527 333H678Q684 333 687 329T690 318Q686 303 671 303H502L486 283Q480 276 474 256L459 197H644Q650 197 653 193T656 182Q652 167
637 167H452L443 133Q424 54 424 48Q424 37 438 34T482 31Q493 31 497 31T505 28T509 19Q509 0 490 0T431 1T371 3Q352 3 313 2T255 0Q241 0 241 12Q241 25 247 28T266 31Q321 32 332 40T354 90L374 167H191Q176 167 180 182T198 197H381Q400 271 400 273Q400 278
396 288L391 303H225Q210 303 214 318T232 333H382L290 622Q285 640 273 646T226 652Q202 652 202 664Q202 683 221 683Q237 683 272 682T325 680Q345 680 384 681T442 683Q456 683 456 671Q456 658 451 655T434 652Q378 652 378 628Q378 625 382 615L471 333H492L696
582L699 586Q702 590 705 595T712 606T718 618T721 629Q721 650 690 652Q675 652 675 664Q675 683 693 683Q708 683 739 682T786 680Q799 680 824 681T862 683Q867 683 870 681T874 675V672Z" />
<glyph unicode="&#xa6;" glyph-name="brokenbar" horiz-adv-x="278" d="M245 343Q242 328 221 328Q213 328 209 332T205 343L298 717Q307 750 327 750T338 717L245 343ZM105 -217Q96 -250 77 -250Q56 -250 65 -217L158 157Q161 172 182 172Q190 172 194 168T198
157L105 -217Z" />
<glyph unicode="&#xa7;" glyph-name="section" horiz-adv-x="490" d="M507 194Q487 118 390 74Q417 21 401 -38Q384 -110 323 -161T192 -213Q125 -213 96 -159T85 -29Q89 -13 103 -1T135 11Q151 11 160 0T165 -29Q160 -46 146 -57T115 -69H110Q111 -112 136 -139T203
-167Q251 -167 291 -129T345 -38Q364 37 278 86L197 134Q147 164 121 208T108 306Q128 382 225 426Q199 479 214 538Q231 610 292 661T423 713Q490 713 519 659T530 529Q526 513 512 501T480 489Q464 489 455 500T450 529Q455 546 469 557T500 569H505Q504 612
479 639T412 667Q364 667 324 629T270 538Q251 463 337 414L418 366Q468 336 494 292T507 194ZM435 194Q452 264 373 309L292 357Q262 375 240 403Q199 375 180 306Q163 236 242 191L323 143Q356 122 375 97Q416 123 435 194Z" />
<glyph unicode="&#xa8;" glyph-name="dieresis" horiz-adv-x="511" d="M366 610Q366 588 348 571T309 553Q290 553 279 564T268 592Q268 614 286 631T326 649Q345 649 355 638T366 610ZM543 610Q543 588 525 571T486 553Q467 553 456 564T445 592Q445 614 463
631T503 649Q522 649 532 638T543 610Z" />
<glyph unicode="&#xa9;" glyph-name="copyright" horiz-adv-x="683" d="M683 342Q683 200 583 100T342 0Q200 0 100 100T0 342Q0 483 100 583T342 683Q483 683 583 583T683 342ZM643 342Q643 466 555 554T342 643Q217 643 129 555T40 342T128 129T342 40T555 128T643
342ZM544 545L507 399Q505 389 496 389T487 395Q490 416 490 431Q490 476 470 508T405 541Q369 541 331 520T264 458Q232 414 217 356T201 261Q201 202 231 173T304 143T392 178T459 282Q461 287 468 287Q477 287 477 281Q477 246 424 185T295 124Q232 124 191
168T149 284Q149 389 228 474T401 559Q459 559 491 508L529 553L538 559Q541 559 542 558T544 554L545 553Q545 552 545 549T544 545Z" />
<glyph unicode="&#xaa;" glyph-name="ordfeminine" horiz-adv-x="473" d="M543 496Q535 454 522 427Q500 388 462 388Q438 388 418 400T390 437Q344 388 292 388Q246 388 217 419T185 497Q181 573 238 639T367 705Q415 705 438 664Q445 691 471 691Q493 691 494
673Q494 668 492 658L444 468Q440 452 440 432Q440 404 463 404Q494 404 515 487Q517 494 518 496T520 500T524 503T530 503Q543 503 543 496ZM492 348Q488 337 474 337H167Q161 337 158 340T155 348Q157 358 173 358H479Q486 358 489 356T492 348ZM394 483L427
615L429 624Q427 649 410 669T367 690Q342 690 317 668T277 612Q266 588 254 540T243 466Q244 443 255 424T293 404Q324 404 356 433T394 483Z" />
<glyph unicode="&#xab;" glyph-name="guillemotleft" horiz-adv-x="562" d="M285 12Q285 8 281 4T272 0H270Q262 0 262 7Q254 134 190 235Q186 243 194 248Q306 347 380 476Q384 483 391 483H393Q404 483 400 471Q342 348 255 242Q290 134 285 12ZM438 12Q438
8 434 4T425 0H423Q415 0 415 7Q407 134 343 235Q339 243 347 248Q459 347 533 476Q536 483 544 483H546Q557 483 553 471Q495 348 408 242Q443 134 438 12Z" />
<glyph unicode="&#xac;" glyph-name="logicalnot" horiz-adv-x="767" d="M778 347L729 153Q728 145 720 139T704 133T692 139T689 153L733 327H178Q170 327 166 333T163 347T172 361T188 367H763Q771 367 775 361T778 347Z" />
<glyph unicode="&#xae;" glyph-name="registered" horiz-adv-x="683" d="M683 342Q683 200 583 100T342 0Q200 0 100 100T0 342Q0 483 100 583T342 683Q483 683 583 583T683 342ZM643 342Q643 466 555 554T342 643Q217 643 129 555T40 342T128 129T342 40T555
128T643 342ZM549 199Q549 194 543 179T520 148T481 131Q450 131 429 147T407 194Q407 205 415 242Q426 284 426 289Q426 342 369 342H305L266 185Q263 176 263 173Q263 169 264 167T273 164T298 162T314 155Q314 144 303 144T268 145T232 146T197 145T162 144Q154
144 154 151Q154 162 170 162Q199 162 207 166T219 188L300 513Q302 521 302 524Q302 534 268 534Q251 534 251 541Q251 553 268 553H426Q480 553 513 527T546 464Q546 428 513 395T420 347Q472 329 472 277Q472 258 467 225Q463 193 463 179Q463 144 483 144Q514
144 530 197Q535 207 540 207Q549 207 549 199ZM492 478Q492 498 483 510T457 527T427 533T395 534Q365 534 360 533Q351 531 347 513L308 355H369Q424 355 457 386Q492 421 492 478Z" />
<glyph unicode="&#xaf;" glyph-name="overscore" horiz-adv-x="511" d="M572 605Q572 592 566 589T545 586H265Q255 586 251 586T243 590T240 599Q240 611 246 613T267 616H547Q572 616 572 605Z" />
<glyph unicode="&#xb0;" glyph-name="degree" horiz-adv-x="383" d="M458 556Q445 503 399 466T299 428T218 465T203 556Q216 608 263 645T363 683T443 646T458 556ZM418 556Q427 592 408 617T353 643Q316 643 284 618T243 556Q234 519 253 494T309 468Q345 468
377 493T418 556Z" />
<glyph unicode="&#xb1;" glyph-name="plusminus" horiz-adv-x="767" d="M695 40T695 20T662 0H116Q83 0 83 20T116 40H373L435 287H187Q154 287 154 307T187 327H445L510 589Q516 614 532 614Q541 614 546 608T552 594Q552 589 548 575L486 327H733Q766 327 766
307T733 287H476L415 40H662Q695 40 695 20Z" />
<glyph unicode="&#xb2;" glyph-name="two.superior" horiz-adv-x="386" d="M442 404Q443 397 434 372T397 320T332 293Q302 293 261 317Q219 339 199 339Q171 339 160 300Q158 293 148 293T137 299Q143 341 191 392Q219 422 281 453Q411 521 406 626Q405 660 385
676T339 692Q281 692 242 636T205 540Q206 521 222 521Q251 521 270 552T288 602Q288 613 280 624L279 627Q279 634 287 634Q293 634 298 623T304 602Q305 577 283 542T222 507Q186 507 183 545Q182 561 192 586T220 639T271 685T341 705Q387 705 421 679T458 604Q461
551 422 517T290 437Q216 400 184 350Q186 352 199 352Q224 352 276 342Q304 335 336 335Q369 335 390 355T420 399Q422 406 423 408T431 410Q442 410 442 404Z" />
<glyph unicode="&#xb3;" glyph-name="three.superior" horiz-adv-x="359" d="M416 428Q419 375 365 334T241 293Q197 293 171 315T142 369Q138 416 177 416Q201 416 203 397Q203 387 194 377T164 368Q167 337 189 322T241 306Q290 306 325 341Q347 364 356 398T363
447Q361 497 305 497H285Q267 497 267 503Q266 512 270 514T285 516H301Q334 516 359 528T395 556T413 591T421 621T421 638Q418 692 357 692Q306 692 266 659T227 588Q229 566 247 566Q263 566 276 577T289 603Q289 607 288 611T284 618L282 621L279 627Q279 634
287 634Q293 634 298 624T305 604Q306 583 288 568T248 553Q228 553 217 564T205 591Q203 631 249 668T358 705Q402 705 433 684T465 625Q467 589 437 554T355 504Q411 483 416 428Z" />
<glyph unicode="&#xb4;" glyph-name="acute" horiz-adv-x="511" d="M539 668Q539 649 519 636L358 513Q349 505 344 505T334 510T328 522Q328 527 338 537L480 679Q497 696 511 696Q521 696 530 689T539 668Z" />
<glyph unicode="&#xb5;" glyph-name="mu" horiz-adv-x="511" d="M535 143Q535 141 531 125T520 84T506 46Q483 5 460 -5Q447 -11 433 -11Q406 -11 383 6T352 56Q294 -11 228 -11Q173 -11 139 18Q125 -37 116 -74T104 -123T99 -144T93 -164Q89 -182 86 -191T74
-208T51 -216Q38 -216 31 -208T23 -190Q23 -188 26 -173L170 401Q179 441 210 441Q221 441 229 434T237 415L222 352L177 172Q165 124 165 94Q165 11 232 11Q277 11 312 48T355 117L424 392Q434 430 463 430Q490 430 490 404Q490 394 475 341Q469 313 458 273L428
150Q408 68 408 51Q408 11 434 11Q452 11 467 35T501 131Q505 146 508 149T520 153Q535 153 535 143Z" />
<glyph unicode="&#xb6;" glyph-name="paragraph" horiz-adv-x="611" d="M751 674Q746 654 713 654H663L459 -161Q450 -194 431 -194Q410 -194 419 -161L623 654H553L349 -161Q340 -194 321 -194Q300 -194 309 -161L407 230Q357 232 311 247T228 289T174 361T172
463Q195 558 285 626T480 694H723Q733 694 738 694T748 688T751 674Z" />
<glyph unicode="&#xb7;" glyph-name="middot" horiz-adv-x="767" d="M523 352Q523 329 503 309T458 289Q438 289 426 301T414 332Q414 356 434 375T479 395Q499 395 511 382T523 352Z" />
<glyph unicode="&#xb8;" glyph-name="cedilla" horiz-adv-x="460" d="M336 -109Q336 -192 140 -192H115Q102 -192 102 -181T127 -170H137Q272 -170 272 -108Q272 -75 224 -71Q209 -69 209 -58Q209 -56 212 -43T219 -15T224 4Q226 10 249 10H262Q288 10 289 3L275
-54Q336 -66 336 -109Z" />
<glyph unicode="&#xb9;" glyph-name="one.superior" horiz-adv-x="375" d="M376 317Q377 306 362 306Q346 306 314 307T266 308T218 307T171 306Q161 306 160 313Q160 324 180 324H186Q226 324 237 329T252 350L323 634Q284 609 244 609Q233 609 232 617Q232 625
241 628H243Q315 635 367 696Q375 705 380 705Q388 705 389 698Q388 692 387 690L301 348Q301 347 300 343T300 336Q300 327 320 326Q340 324 351 324H357Q376 324 376 317Z" />
<glyph unicode="&#xba;" glyph-name="ordmasculine" horiz-adv-x="429" d="M517 591Q521 514 457 451T314 388Q261 388 225 419T186 504Q182 580 245 642T388 705Q443 705 478 673T517 591ZM448 348Q444 337 430 337H168Q161 337 158 340T155 348Q158 358 173
358H436Q442 358 445 355T448 348ZM457 618Q455 650 437 670T388 690Q330 690 287 626Q269 599 257 552T246 476Q248 440 267 422T314 404Q344 404 372 424T418 474Q435 503 446 548T457 618Z" />
<glyph unicode="&#xbb;" glyph-name="guillemotright" horiz-adv-x="562" d="M490 235Q378 136 304 7Q300 0 293 0H291Q286 0 284 4T284 12Q342 136 429 242Q394 349 399 471Q399 475 403 479T412 483H414Q420 483 422 476Q430 349 494 248Q498 242 490 235ZM337
235Q225 136 151 7Q148 0 140 0H138Q133 0 131 4T131 12Q189 136 276 242Q241 349 246 471Q246 475 250 479T259 483H261Q267 483 269 476Q277 349 341 248Q345 242 337 235Z" />
<glyph unicode="&#xbc;" glyph-name="onequarter" horiz-adv-x="807" d="M376 317Q377 306 363 306Q347 306 315 307T266 308T219 307T172 306Q161 306 160 313Q160 324 180 324H186Q226 324 237 329T253 350L323 634Q284 609 244 609Q232 609 232 617T241 628H243Q315
635 367 696Q375 705 379 705Q389 705 389 698Q388 692 387 690L301 348Q299 342 299 336Q300 327 321 326Q337 324 351 324H357Q376 324 376 317ZM732 8Q732 2 708 -3T666 -9Q656 -9 651 -8L629 -96Q625 -116 603 -116Q583 -116 582 -101Q582 -100 582 -97T585
-88L606 1L564 15Q539 22 511 22Q470 22 456 13Q437 1 433 1T426 4T422 11Q421 17 432 24T449 32Q513 75 566 153Q629 243 663 370Q666 381 667 385T675 395T691 400Q711 400 711 384Q710 376 707 362T688 307T651 226T587 134T493 40H512Q540 40 568 34Q573 32
576 31T612 20Q612 22 623 68T637 119Q637 120 638 122T639 126T640 129T641 133T643 136T646 139T649 141T653 143T658 144T664 145Q684 145 684 129Q685 127 682 117L656 10H668Q692 10 710 16L721 19Q725 19 728 15T732 8ZM834 663Q833 658 828 653L259 9Q250
0 239 0Q231 0 227 6T224 20Q226 27 230 31L800 674Q808 683 819 683Q827 683 831 677T834 663Z" />
<glyph unicode="&#xbd;" glyph-name="onehalf" horiz-adv-x="807" d="M376 317Q377 306 363 306Q347 306 315 307T266 308T219 307T172 306Q161 306 160 313Q160 324 180 324H186Q226 324 237 329T253 350L323 634Q284 609 244 609Q232 609 232 617T241 628H243Q315
635 367 696Q375 705 379 705Q389 705 389 698Q388 692 387 690L301 348Q299 342 299 336Q300 327 321 326Q337 324 351 324H357Q376 324 376 317ZM754 98Q754 90 745 66T708 15T644 -13Q614 -13 573 11Q531 33 510 33Q484 33 472 -5Q470 -13 460 -13Q449 -13 448
-7Q455 35 503 86Q510 93 518 100T531 111T546 122T560 131T577 140T592 148Q722 213 717 320Q716 354 697 370T651 386Q611 386 578 356T531 291T517 235Q518 215 534 215Q562 215 581 246T600 296Q600 304 592 318L591 322Q590 324 592 326T598 328Q604 328 609
317T615 296Q617 273 595 238T534 202Q512 202 504 214T495 239Q493 280 537 340T652 400Q698 400 732 374T770 298Q772 245 734 211T602 131Q529 98 495 44Q497 46 511 46Q534 46 588 36Q630 29 647 29Q680 29 701 49T731 94Q733 104 743 104T754 98ZM761 663Q761
660 756 653L186 9Q177 0 167 0Q159 0 155 6T152 20Q154 27 158 31L727 674Q734 683 746 683Q766 683 761 663Z" />
<glyph unicode="&#xbe;" glyph-name="threequarters" horiz-adv-x="807" d="M462 428Q464 375 410 334T287 293Q243 293 216 315T187 369Q187 416 223 416Q249 416 249 397Q249 387 240 377T210 368Q213 337 235 322T287 306Q337 306 370 341Q409 380 409 447Q407
497 351 497H331Q313 497 313 503Q312 512 316 514T331 516H347Q386 516 412 531T449 570T463 608T468 636V638Q464 692 403 692Q352 692 312 659T273 588Q275 566 293 566Q309 566 322 577T335 603L328 621Q327 623 326 625L325 627Q325 634 333 634Q339 634 344
624T351 604Q352 583 334 568T293 553Q255 553 251 591Q249 631 295 668T404 705Q448 705 478 684T511 625T483 554T400 504Q457 483 462 428ZM732 8Q732 2 708 -3T666 -9Q656 -9 651 -8L629 -96Q625 -116 603 -116Q583 -116 582 -101Q582 -100 582 -97T585 -88L606
1L564 15Q539 22 511 22Q470 22 456 13Q437 1 433 1T426 4T422 11Q421 17 432 24T449 32Q513 75 566 153Q629 243 663 370Q666 381 667 385T675 395T691 400Q711 400 711 384Q710 376 707 362T688 307T651 226T587 134T493 40H512Q540 40 568 34Q573 32 576 31T612
20Q612 22 623 68T637 119Q637 120 638 122T639 126T640 129T641 133T643 136T646 139T649 141T653 143T658 144T664 145Q684 145 684 129Q685 127 682 117L656 10H668Q692 10 710 16L721 19Q725 19 728 15T732 8ZM834 663Q833 658 828 653L259 9Q250 0 239 0Q231
0 227 6T224 20Q226 27 230 31L800 674Q808 683 819 683Q827 683 831 677T834 663Z" />
<glyph unicode="&#xbf;" glyph-name="questiondown" horiz-adv-x="511" d="M442 37Q442 23 433 -5T403 -70T355 -139T288 -194T205 -216Q151 -216 118 -181T85 -92Q85 -58 95 -29T126 24T159 61T195 91L273 154Q326 195 340 212T355 257Q355 291 330 291Q307 291
284 272T251 223Q248 213 246 211T234 208Q219 208 219 218Q219 241 252 277T330 313Q359 313 374 292T390 243Q390 214 376 188T352 152T321 125L200 30Q178 11 165 -1T136 -43T120 -106Q120 -148 144 -171T205 -194Q264 -194 316 -142T397 -12Q359 -12 359 20Q359
40 373 54T408 69Q442 69 442 37ZM422 457Q422 432 402 413T358 394Q337 394 325 407T313 437Q313 461 333 480T378 500Q397 500 409 488T422 457Z" />
<glyph unicode="&#xc0;" glyph-name="Agrave" horiz-adv-x="743" d="M692 18Q692 0 674 0Q657 0 622 1T569 3Q550 3 511 2T454 0Q439 0 439 12Q439 31 462 31Q529 31 529 63L518 229H290L218 103Q204 77 204 65Q204 38 246 31Q262 29 262 19Q262 0 244 0Q229 0
198 1T151 3Q138 3 111 2T71 0T59 12Q60 30 71 31Q88 32 99 34T128 44T161 68T192 113L524 698Q534 716 550 716Q562 716 564 712T568 691L611 65Q613 44 622 38T668 31Q678 31 682 31T689 27T692 18ZM516 260L493 587L307 260H516ZM632 766Q630 760 623 754T609
747Q605 746 597 752L463 845Q447 857 452 873Q456 887 469 896T497 906Q508 906 519 895L626 779Q632 772 632 766Z" />
<glyph unicode="&#xc1;" glyph-name="Aacute" horiz-adv-x="743" d="M692 18Q692 0 674 0Q657 0 622 1T569 3Q550 3 511 2T454 0Q439 0 439 12Q439 31 462 31Q529 31 529 63L518 229H290L218 103Q204 77 204 65Q204 38 246 31Q262 29 262 19Q262 0 244 0Q229 0
198 1T151 3Q138 3 111 2T71 0T59 12Q60 30 71 31Q88 32 99 34T128 44T161 68T192 113L524 698Q534 716 550 716Q562 716 564 712T568 691L611 65Q613 44 622 38T668 31Q678 31 682 31T689 27T692 18ZM516 260L493 587L307 260H516ZM727 873Q724 856 702 845L522
752Q511 746 507 747Q502 748 498 754T494 766Q496 772 506 779L671 895Q688 906 699 906Q713 906 721 897T727 873Z" />
<glyph unicode="&#xc2;" glyph-name="Acircumflex" horiz-adv-x="743" d="M692 18Q692 0 674 0Q657 0 622 1T569 3Q550 3 511 2T454 0Q439 0 439 12Q439 31 462 31Q529 31 529 63L518 229H290L218 103Q204 77 204 65Q204 38 246 31Q262 29 262 19Q262 0 244 0Q229
0 198 1T151 3Q138 3 111 2T71 0T59 12Q60 30 71 31Q88 32 99 34T128 44T161 68T192 113L524 698Q534 716 550 716Q562 716 564 712T568 691L611 65Q613 44 622 38T668 31Q678 31 682 31T689 27T692 18ZM516 260L493 587L307 260H516ZM696 755Q702 750 695 742T681
737L569 792L429 737Q423 735 419 738T416 746T423 755L578 853Q585 856 590 853L696 755Z" />
<glyph unicode="&#xc3;" glyph-name="Atilde" horiz-adv-x="743" d="M692 18Q692 0 674 0Q657 0 622 1T569 3Q550 3 511 2T454 0Q439 0 439 12Q439 31 462 31Q529 31 529 63L518 229H290L218 103Q204 77 204 65Q204 38 246 31Q262 29 262 19Q262 0 244 0Q229 0
198 1T151 3Q138 3 111 2T71 0T59 12Q60 30 71 31Q88 32 99 34T128 44T161 68T192 113L524 698Q534 716 550 716Q562 716 564 712T568 691L611 65Q613 44 622 38T668 31Q678 31 682 31T689 27T692 18ZM516 260L493 587L307 260H516ZM730 836T730 826T681 776T602
736Q575 736 551 775Q535 802 519 802Q506 802 484 788T446 758L430 744Q421 737 417 737Q406 737 406 747Q406 752 419 765T446 790L459 801Q506 837 533 837Q551 837 562 827T587 794T616 771Q635 771 667 795T706 829Q713 836 719 836Q730 836 730 826Z" />
<glyph unicode="&#xc4;" glyph-name="Adieresis" horiz-adv-x="743" d="M692 18Q692 0 674 0Q657 0 622 1T569 3Q550 3 511 2T454 0Q439 0 439 12Q439 31 462 31Q529 31 529 63L518 229H290L218 103Q204 77 204 65Q204 38 246 31Q262 29 262 19Q262 0 244 0Q229
0 198 1T151 3Q138 3 111 2T71 0T59 12Q60 30 71 31Q88 32 99 34T128 44T161 68T192 113L524 698Q534 716 550 716Q562 716 564 712T568 691L611 65Q613 44 622 38T668 31Q678 31 682 31T689 27T692 18ZM516 260L493 587L307 260H516ZM512 793Q512 771 494 754T455
736Q436 736 425 747T414 775Q414 797 432 814T472 832Q491 832 501 821T512 793ZM721 793Q721 771 703 754T664 736Q645 736 634 747T623 775Q623 797 641 814T681 832Q700 832 710 821T721 793Z" />
<glyph unicode="&#xc5;" glyph-name="Aring" horiz-adv-x="743" d="M692 18Q692 0 674 0Q657 0 622 1T569 3Q550 3 511 2T454 0Q439 0 439 12Q439 31 462 31Q529 31 529 63L518 229H290L218 103Q204 77 204 65Q204 38 246 31Q262 29 262 19Q262 0 244 0Q229 0
198 1T151 3Q138 3 111 2T71 0T59 12Q60 30 71 31Q88 32 99 34T128 44T161 68T192 113L524 698Q534 716 550 716Q562 716 564 712T568 691L611 65Q613 44 622 38T668 31Q678 31 682 31T689 27T692 18ZM516 260L493 587L307 260H516ZM631 826Q631 862 587 862Q555
862 537 842T517 802L515 781Q515 746 559 746Q579 746 593 754T615 774T626 798T630 818L631 826ZM669 825Q669 783 633 750T551 716Q521 716 499 733T477 784Q477 827 513 859T594 892Q630 892 649 872T669 825Z" />
<glyph unicode="&#xc6;" glyph-name="AE" horiz-adv-x="883" d="M892 247Q889 237 888 235L799 16Q794 5 790 3T771 0H367Q357 0 353 0T346 3T342 12Q342 31 365 31Q401 31 411 37T427 69L488 313H342L218 100Q205 77 205 64Q205 34 246 31Q262 29 262 19Q262
0 244 0Q229 0 198 1T151 3Q138 3 111 2T71 0T59 13Q59 24 64 27T79 31Q115 34 141 51T193 113L505 651Q497 652 476 652H456Q446 652 442 652T434 655T430 664Q430 677 436 680T458 683H924Q936 683 940 682T947 676T948 658L925 481Q924 473 924 470T921 463T916
459T908 458Q892 458 892 470L894 483L900 552Q905 612 870 634Q843 652 779 652H689Q662 652 654 647T640 616L573 344H649Q707 344 728 363T764 440Q768 454 771 457T783 461Q798 461 798 450Q798 443 796 437L741 216Q737 203 734 200T722 196Q707 196 707 208Q707
211 709 218Q718 263 718 272Q718 294 705 303T647 313H565L502 63Q502 62 500 54T498 41T499 35T507 32T529 31H620Q673 31 708 42T770 80T811 137T850 221Q863 253 866 255Q869 258 877 258Q892 258 892 247ZM563 612Q565 618 565 629Q565 649 537 649L360 344H495L563
612Z" />
<glyph unicode="&#xc7;" glyph-name="Ccedilla" horiz-adv-x="716" d="M810 681L749 438Q746 426 743 423T731 420Q716 420 716 430Q716 431 717 441T719 465T721 491Q721 566 687 620T579 674Q519 674 455 639T342 536Q289 463 263 366T237 207Q237 108 287 59T409
9Q482 9 557 67T668 242Q671 250 684 250Q699 250 699 240Q699 219 678 178T621 92T524 12T395 -22H385L377 -54Q438 -66 438 -109Q438 -192 242 -192H217Q204 -192 204 -181T229 -170H239Q374 -170 374 -108Q374 -75 326 -71Q311 -69 311 -58Q311 -57 313 -50T317
-31T322 -12Q244 11 197 79T150 245Q150 359 212 467T372 640T571 705Q669 705 722 620L785 694Q789 699 793 701T799 704L801 705Q805 705 808 703T812 698V695Q812 689 810 681Z" />
<glyph unicode="&#xc8;" glyph-name="Egrave" horiz-adv-x="678" d="M687 247Q684 237 683 235L594 16Q589 5 585 3T566 0H87Q77 0 73 0T66 3T62 12Q62 25 68 28T89 31Q138 31 151 38T171 73L305 609L309 632Q309 638 307 641T292 646T251 649Q239 649 235 649T227
653T224 662Q224 674 230 677T251 680H718Q728 680 731 680T739 677T743 669T742 654L719 477Q718 467 717 463T713 457T702 455Q687 455 687 467Q687 474 689 484Q694 524 694 548Q694 604 667 626T561 649H436Q410 649 402 644T388 615L327 369H408Q467 369 489
388T527 462Q533 484 538 485Q541 486 546 486Q562 486 562 474Q560 464 559 461L504 241Q501 228 498 225T486 221Q470 221 470 233L472 244Q481 277 481 295Q481 318 467 328T406 338H319L250 63Q250 62 248 54T246 41T247 35T255 32T277 31H399Q446 31 481 40T539
62T583 103T617 159T651 234Q658 251 661 254T672 258Q687 258 687 247ZM600 766Q598 760 591 754T577 747Q573 746 565 752L431 845Q415 857 420 873Q424 887 437 896T465 906Q476 906 487 895L594 779Q600 772 600 766Z" />
<glyph unicode="&#xc9;" glyph-name="Eacute" horiz-adv-x="678" d="M687 247Q684 237 683 235L594 16Q589 5 585 3T566 0H87Q77 0 73 0T66 3T62 12Q62 25 68 28T89 31Q138 31 151 38T171 73L305 609L309 632Q309 638 307 641T292 646T251 649Q239 649 235 649T227
653T224 662Q224 674 230 677T251 680H718Q728 680 731 680T739 677T743 669T742 654L719 477Q718 467 717 463T713 457T702 455Q687 455 687 467Q687 474 689 484Q694 524 694 548Q694 604 667 626T561 649H436Q410 649 402 644T388 615L327 369H408Q467 369 489
388T527 462Q533 484 538 485Q541 486 546 486Q562 486 562 474Q560 464 559 461L504 241Q501 228 498 225T486 221Q470 221 470 233L472 244Q481 277 481 295Q481 318 467 328T406 338H319L250 63Q250 62 248 54T246 41T247 35T255 32T277 31H399Q446 31 481 40T539
62T583 103T617 159T651 234Q658 251 661 254T672 258Q687 258 687 247ZM695 873Q692 856 670 845L490 752Q479 746 475 747Q470 748 466 754T462 766Q464 772 474 779L639 895Q656 906 667 906Q681 906 689 897T695 873Z" />
<glyph unicode="&#xca;" glyph-name="Ecircumflex" horiz-adv-x="678" d="M687 247Q684 237 683 235L594 16Q589 5 585 3T566 0H87Q77 0 73 0T66 3T62 12Q62 25 68 28T89 31Q138 31 151 38T171 73L305 609L309 632Q309 638 307 641T292 646T251 649Q239 649 235
649T227 653T224 662Q224 674 230 677T251 680H718Q728 680 731 680T739 677T743 669T742 654L719 477Q718 467 717 463T713 457T702 455Q687 455 687 467Q687 474 689 484Q694 524 694 548Q694 604 667 626T561 649H436Q410 649 402 644T388 615L327 369H408Q467
369 489 388T527 462Q533 484 538 485Q541 486 546 486Q562 486 562 474Q560 464 559 461L504 241Q501 228 498 225T486 221Q470 221 470 233L472 244Q481 277 481 295Q481 318 467 328T406 338H319L250 63Q250 62 248 54T246 41T247 35T255 32T277 31H399Q446
31 481 40T539 62T583 103T617 159T651 234Q658 251 661 254T672 258Q687 258 687 247ZM664 755Q670 750 663 742T649 737L537 792L397 737Q391 735 387 738T384 746T391 755L546 853Q553 856 558 853L664 755Z" />
<glyph unicode="&#xcb;" glyph-name="Edieresis" horiz-adv-x="678" d="M687 247Q684 237 683 235L594 16Q589 5 585 3T566 0H87Q77 0 73 0T66 3T62 12Q62 25 68 28T89 31Q138 31 151 38T171 73L305 609L309 632Q309 638 307 641T292 646T251 649Q239 649 235
649T227 653T224 662Q224 674 230 677T251 680H718Q728 680 731 680T739 677T743 669T742 654L719 477Q718 467 717 463T713 457T702 455Q687 455 687 467Q687 474 689 484Q694 524 694 548Q694 604 667 626T561 649H436Q410 649 402 644T388 615L327 369H408Q467
369 489 388T527 462Q533 484 538 485Q541 486 546 486Q562 486 562 474Q560 464 559 461L504 241Q501 228 498 225T486 221Q470 221 470 233L472 244Q481 277 481 295Q481 318 467 328T406 338H319L250 63Q250 62 248 54T246 41T247 35T255 32T277 31H399Q446
31 481 40T539 62T583 103T617 159T651 234Q658 251 661 254T672 258Q687 258 687 247ZM480 793Q480 771 462 754T423 736Q404 736 393 747T382 775Q382 797 400 814T440 832Q459 832 469 821T480 793ZM689 793Q689 771 671 754T632 736Q613 736 602 747T591 775Q591
797 609 814T649 832Q668 832 678 821T689 793Z" />
<glyph unicode="&#xcc;" glyph-name="Igrave" horiz-adv-x="386" d="M338 19Q338 0 318 0T257 1T194 3T132 2T71 0Q57 0 57 13Q57 25 63 28T87 31Q136 31 150 38T171 72L307 616Q310 625 310 635Q310 646 295 649T247 652Q235 652 231 652T223 656T220 665Q220
683 239 683Q260 683 302 682T364 680Q385 680 426 681T487 683Q501 683 501 671Q501 658 495 655T470 652Q421 652 407 645T387 611L252 71L248 49Q248 42 250 39T266 34T310 31Q322 31 326 31T334 28T338 19ZM453 766Q451 760 444 754T430 747Q426 746 418 752L284
845Q268 857 273 873Q277 887 290 896T318 906Q329 906 340 895L447 779Q453 772 453 766Z" />
<glyph unicode="&#xcd;" glyph-name="Iacute" horiz-adv-x="386" d="M338 19Q338 0 318 0T257 1T194 3T132 2T71 0Q57 0 57 13Q57 25 63 28T87 31Q136 31 150 38T171 72L307 616Q310 625 310 635Q310 646 295 649T247 652Q235 652 231 652T223 656T220 665Q220
683 239 683Q260 683 302 682T364 680Q385 680 426 681T487 683Q501 683 501 671Q501 658 495 655T470 652Q421 652 407 645T387 611L252 71L248 49Q248 42 250 39T266 34T310 31Q322 31 326 31T334 28T338 19ZM548 873Q545 856 523 845L343 752Q332 746 328 747Q323
748 319 754T315 766Q317 772 327 779L492 895Q508 906 520 906Q534 906 542 897T548 873Z" />
<glyph unicode="&#xce;" glyph-name="Icircumflex" horiz-adv-x="386" d="M338 19Q338 0 318 0T257 1T194 3T132 2T71 0Q57 0 57 13Q57 25 63 28T87 31Q136 31 150 38T171 72L307 616Q310 625 310 635Q310 646 295 649T247 652Q235 652 231 652T223 656T220 665Q220
683 239 683Q260 683 302 682T364 680Q385 680 426 681T487 683Q501 683 501 671Q501 658 495 655T470 652Q421 652 407 645T387 611L252 71L248 49Q248 42 250 39T266 34T310 31Q322 31 326 31T334 28T338 19ZM517 755Q523 750 516 742T502 737L390 792L250 737Q244
735 240 738T237 746T244 755L399 853Q406 856 411 853L517 755Z" />
<glyph unicode="&#xcf;" glyph-name="Idieresis" horiz-adv-x="386" d="M338 19Q338 0 318 0T257 1T194 3T132 2T71 0Q57 0 57 13Q57 25 63 28T87 31Q136 31 150 38T171 72L307 616Q310 625 310 635Q310 646 295 649T247 652Q235 652 231 652T223 656T220 665Q220
683 239 683Q260 683 302 682T364 680Q385 680 426 681T487 683Q501 683 501 671Q501 658 495 655T470 652Q421 652 407 645T387 611L252 71L248 49Q248 42 250 39T266 34T310 31Q322 31 326 31T334 28T338 19ZM333 793Q333 771 315 754T276 736Q257 736 246 747T235
775Q235 797 253 814T293 832Q312 832 322 821T333 793ZM542 793Q542 771 524 754T485 736Q466 736 455 747T444 775Q444 797 462 814T502 832Q521 832 531 821T542 793Z" />
<glyph unicode="&#xd0;" glyph-name="Eth" horiz-adv-x="755" d="M775 438Q775 328 720 226T577 62T395 0H88Q78 0 74 0T67 3T63 12Q63 25 69 28T90 31Q139 31 152 38T172 73L235 327H141Q135 327 132 331T130 342Q134 357 148 357H243L307 616Q311 630 311 635Q311
646 297 649T253 652Q242 652 238 652T230 655T226 664Q226 677 232 680T253 683H565Q661 683 718 615T775 438ZM692 476Q692 567 646 609T532 652H435Q409 652 401 647T386 616L321 357H467Q473 357 476 353T478 342Q475 327 459 327H314L248 63Q248 62 246 54T244
41T245 35T253 32T275 31H378Q493 31 578 130Q634 196 663 304T692 476Z" />
<glyph unicode="&#xd1;" glyph-name="Ntilde" horiz-adv-x="743" d="M852 670Q852 652 837 652Q752 649 736 584L596 20Q592 7 589 4T576 0Q566 0 563 2T556 17L341 614L212 99Q208 83 208 74Q208 66 209 61T216 48T234 37T267 31Q286 31 286 18Q286 0 268 0Q253
0 220 1T170 3T122 2T75 0Q62 0 62 12Q62 31 81 31Q161 34 178 101L310 631L313 644Q313 652 252 652Q241 652 237 652T229 655T225 664Q225 677 231 680T252 683H377Q393 683 396 681T405 666L592 146L702 585Q706 601 706 609Q706 650 646 652Q628 652 628 664Q628
683 646 683Q661 683 694 682T743 680T791 681T839 683Q852 683 852 670ZM730 836T730 826T681 776T602 736Q575 736 551 775Q535 802 519 802Q506 802 484 788T446 758L430 744Q421 737 417 737Q406 737 406 747Q406 752 419 765T446 790L459 801Q506 837 533
837Q551 837 562 827T587 794T616 771Q635 771 667 795T706 829Q713 836 719 836Q730 836 730 826Z" />
<glyph unicode="&#xd2;" glyph-name="Ograve" horiz-adv-x="767" d="M788 444Q788 327 728 218T572 44T378 -22Q276 -22 212 50T148 236Q148 349 207 458T363 636T560 705Q658 705 723 635T788 444ZM703 486Q703 581 660 630T553 680Q489 680 426 633T322 513Q276
433 257 346T238 205Q238 115 277 60T385 4Q443 4 505 48T614 174Q653 241 678 330T703 486ZM644 766Q642 760 635 754T621 747Q617 746 609 752L475 845Q459 857 464 873Q468 887 481 896T509 906Q520 906 531 895L638 779Q644 772 644 766Z" />
<glyph unicode="&#xd3;" glyph-name="Oacute" horiz-adv-x="767" d="M788 444Q788 327 728 218T572 44T378 -22Q276 -22 212 50T148 236Q148 349 207 458T363 636T560 705Q658 705 723 635T788 444ZM703 486Q703 581 660 630T553 680Q489 680 426 633T322 513Q276
433 257 346T238 205Q238 115 277 60T385 4Q443 4 505 48T614 174Q653 241 678 330T703 486ZM739 873Q736 856 714 845L534 752Q523 746 519 747Q514 748 510 754T506 766Q508 772 518 779L683 895Q700 906 711 906Q725 906 733 897T739 873Z" />
<glyph unicode="&#xd4;" glyph-name="Ocircumflex" horiz-adv-x="767" d="M788 444Q788 327 728 218T572 44T378 -22Q276 -22 212 50T148 236Q148 349 207 458T363 636T560 705Q658 705 723 635T788 444ZM703 486Q703 581 660 630T553 680Q489 680 426 633T322
513Q276 433 257 346T238 205Q238 115 277 60T385 4Q443 4 505 48T614 174Q653 241 678 330T703 486ZM708 755Q714 750 707 742T693 737L581 792L441 737Q435 735 431 738T428 746T435 755L590 853Q597 856 602 853L708 755Z" />
<glyph unicode="&#xd5;" glyph-name="Otilde" horiz-adv-x="767" d="M788 444Q788 327 728 218T572 44T378 -22Q276 -22 212 50T148 236Q148 349 207 458T363 636T560 705Q658 705 723 635T788 444ZM703 486Q703 581 660 630T553 680Q489 680 426 633T322 513Q276
433 257 346T238 205Q238 115 277 60T385 4Q443 4 505 48T614 174Q653 241 678 330T703 486ZM742 836T742 826T693 776T614 736Q587 736 563 775Q547 802 531 802Q518 802 496 788T458 758L442 744Q433 737 429 737Q418 737 418 747Q418 752 431 765T458 790L471
801Q518 837 545 837Q563 837 574 827T599 794T628 771Q647 771 679 795T718 829Q725 836 731 836Q742 836 742 826Z" />
<glyph unicode="&#xd6;" glyph-name="Odieresis" horiz-adv-x="767" d="M788 444Q788 327 728 218T572 44T378 -22Q276 -22 212 50T148 236Q148 349 207 458T363 636T560 705Q658 705 723 635T788 444ZM703 486Q703 581 660 630T553 680Q489 680 426 633T322 513Q276
433 257 346T238 205Q238 115 277 60T385 4Q443 4 505 48T614 174Q653 241 678 330T703 486ZM524 793Q524 771 506 754T467 736Q448 736 437 747T426 775Q426 797 444 814T484 832Q503 832 513 821T524 793ZM733 793Q733 771 715 754T676 736Q657 736 646 747T635
775Q635 797 653 814T693 832Q712 832 722 821T733 793Z" />
<glyph unicode="&#xd7;" glyph-name="multiply" horiz-adv-x="767" d="M614 37Q597 23 580 34Q579 35 578 36T575 40T570 47L439 222L220 46Q191 23 176 34Q160 45 190 68L418 250L278 435Q264 451 279 464Q297 477 312 467Q315 465 322 454L454 279L672 454Q701
477 716 466Q732 455 702 432L475 251L615 66Q627 48 614 37Z" />
<glyph unicode="&#xd8;" glyph-name="Oslash" horiz-adv-x="767" d="M788 444Q788 327 728 218T572 44T378 -22Q287 -22 221 40L151 -40Q132 -60 128 -60T120 -57T116 -48Q116 -44 137 -20L205 59Q148 130 148 236Q148 349 207 458T363 636T560 705Q656 705 716
642L795 734Q802 743 810 743Q814 743 818 740T822 731Q822 728 812 715L732 623Q788 556 788 444ZM686 609Q642 683 554 683Q496 683 436 647T330 547Q276 469 249 363T221 194Q221 142 238 97L686 609ZM716 487Q716 541 699 585L251 73Q294 0 384 0Q443 0 503
35T606 132Q662 210 689 317T716 487Z" />
<glyph unicode="&#xd9;" glyph-name="Ugrave" horiz-adv-x="743" d="M852 670Q852 652 837 652Q752 649 736 584L645 218Q623 129 547 54T380 -22Q306 -22 254 29T202 166Q202 198 210 230L306 616Q310 630 310 635Q310 646 296 649T252 652Q241 652 237 652T229
655T225 664Q225 683 244 683T303 682T364 680T423 681T482 683Q496 683 496 670Q496 658 490 655T466 652Q420 652 407 645T387 612L287 210Q277 166 277 134Q277 71 308 40T384 9Q456 9 524 71T616 229L705 585Q709 601 709 609Q709 650 649 652Q631 652 631
664Q631 683 649 683Q664 683 696 682T745 680T792 681T839 683Q852 683 852 670ZM655 766Q653 760 646 754T632 747Q628 746 620 752L486 845Q470 857 475 873Q479 887 492 896T520 906Q531 906 542 895L649 779Q655 772 655 766Z" />
<glyph unicode="&#xda;" glyph-name="Uacute" horiz-adv-x="743" d="M852 670Q852 652 837 652Q752 649 736 584L645 218Q623 129 547 54T380 -22Q306 -22 254 29T202 166Q202 198 210 230L306 616Q310 630 310 635Q310 646 296 649T252 652Q241 652 237 652T229
655T225 664Q225 683 244 683T303 682T364 680T423 681T482 683Q496 683 496 670Q496 658 490 655T466 652Q420 652 407 645T387 612L287 210Q277 166 277 134Q277 71 308 40T384 9Q456 9 524 71T616 229L705 585Q709 601 709 609Q709 650 649 652Q631 652 631
664Q631 683 649 683Q664 683 696 682T745 680T792 681T839 683Q852 683 852 670ZM750 873Q747 856 725 845L545 752Q534 746 530 747Q525 748 521 754T517 766Q519 772 529 779L694 895Q710 906 722 906Q736 906 744 897T750 873Z" />
<glyph unicode="&#xdb;" glyph-name="Ucircumflex" horiz-adv-x="743" d="M852 670Q852 652 837 652Q752 649 736 584L645 218Q623 129 547 54T380 -22Q306 -22 254 29T202 166Q202 198 210 230L306 616Q310 630 310 635Q310 646 296 649T252 652Q241 652 237
652T229 655T225 664Q225 683 244 683T303 682T364 680T423 681T482 683Q496 683 496 670Q496 658 490 655T466 652Q420 652 407 645T387 612L287 210Q277 166 277 134Q277 71 308 40T384 9Q456 9 524 71T616 229L705 585Q709 601 709 609Q709 650 649 652Q631
652 631 664Q631 683 649 683Q664 683 696 682T745 680T792 681T839 683Q852 683 852 670ZM719 755Q725 750 718 742T704 737L592 792L452 737Q446 735 442 738T439 746T446 755L601 853Q608 856 613 853L719 755Z" />
<glyph unicode="&#xdc;" glyph-name="Udieresis" horiz-adv-x="743" d="M852 670Q852 652 837 652Q752 649 736 584L645 218Q623 129 547 54T380 -22Q306 -22 254 29T202 166Q202 198 210 230L306 616Q310 630 310 635Q310 646 296 649T252 652Q241 652 237 652T229
655T225 664Q225 683 244 683T303 682T364 680T423 681T482 683Q496 683 496 670Q496 658 490 655T466 652Q420 652 407 645T387 612L287 210Q277 166 277 134Q277 71 308 40T384 9Q456 9 524 71T616 229L705 585Q709 601 709 609Q709 650 649 652Q631 652 631
664Q631 683 649 683Q664 683 696 682T745 680T792 681T839 683Q852 683 852 670ZM535 793Q535 771 517 754T478 736Q459 736 448 747T437 775Q437 797 455 814T495 832Q514 832 524 821T535 793ZM744 793Q744 771 726 754T687 736Q668 736 657 747T646 775Q646
797 664 814T704 832Q723 832 733 821T744 793Z" />
<glyph unicode="&#xdd;" glyph-name="Yacute" horiz-adv-x="743" d="M874 672Q874 659 870 656T855 652Q818 649 787 631T722 570L486 283Q480 276 474 256L443 133Q424 54 424 48Q424 37 438 34T482 31Q493 31 497 31T505 28T509 19Q509 0 490 0T431 1T371 3Q352
3 313 2T255 0Q241 0 241 12Q241 25 247 28T266 31Q321 32 332 40T354 90Q400 265 400 273Q400 278 396 288L290 622Q285 640 273 646T226 652Q202 652 202 664Q202 683 221 683Q237 683 272 682T325 680Q345 680 384 681T442 683Q456 683 456 671Q456 658 451
655T434 652Q378 652 378 628Q378 625 382 615L477 315L696 582L699 586Q702 590 705 595T712 606T718 618T721 629Q721 650 690 652Q675 652 675 664Q675 683 693 683Q708 683 739 682T786 680Q799 680 824 681T862 683Q867 683 870 681T874 675V672ZM727 873Q724
856 702 845L522 752Q511 746 507 747Q502 748 498 754T494 766Q496 772 506 779L671 895Q688 906 699 906Q713 906 721 897T727 873Z" />
<glyph unicode="&#xde;" glyph-name="Thorn" horiz-adv-x="678" d="M691 377Q691 291 609 225T430 158H274L252 71L248 49Q248 42 250 39T266 34T310 31Q322 31 326 31T334 28T338 19Q338 0 318 0T257 1T194 3T132 2T71 0Q57 0 57 13Q57 25 63 28T87 31Q136 31
150 38T171 72L307 616Q310 625 310 635Q310 646 295 649T247 652Q235 652 231 652T223 656T220 665Q220 683 239 683Q260 683 302 682T364 680Q385 680 426 681T487 683Q501 683 501 671Q501 658 495 655T470 652Q421 652 407 645T387 611L366 525H514Q594 525
642 483T691 377ZM603 407Q603 453 571 475T482 497H396Q370 497 362 492T347 461L279 187H405Q498 187 550 245Q575 274 589 328T603 407Z" />
<glyph unicode="&#xdf;" glyph-name="germandbls" horiz-adv-x="537" d="M523 165Q523 105 469 47T345 -11Q307 -11 277 8T247 63Q247 84 256 95T275 108L284 110Q296 110 303 103T311 84Q309 55 280 49Q294 11 344 11Q377 11 402 46T436 114T445 162Q445 192
419 224Q394 257 394 304Q394 344 407 367T454 424Q481 452 498 513T515 600Q515 638 496 660T441 683Q403 683 378 673T338 639T317 594T303 534L206 37Q199 -1 188 -37T157 -114T109 -180T45 -205Q19 -205 0 -189T-20 -141Q-20 -111 -4 -98T30 -84Q43 -84 53
-92T64 -116Q64 -123 62 -131T47 -151T15 -165Q24 -183 45 -183Q78 -183 98 -133T140 25L213 400H151Q126 400 126 411Q126 425 132 428T153 431H219L242 548Q250 581 261 604T293 653T351 691T441 705Q502 705 540 674T578 591Q578 523 490 413Q443 357 443 335Q443
309 478 269Q523 211 523 165Z" />
<glyph unicode="&#xe0;" glyph-name="agrave" horiz-adv-x="511" d="M535 143Q523 83 505 45Q478 -11 432 -11Q403 -11 380 6T349 59Q292 -11 229 -11Q174 -11 141 33T108 144Q108 253 181 347T337 442Q394 442 420 383Q428 422 460 422Q487 422 487 396Q487 389
483 375L415 103Q408 75 408 52Q408 11 434 11Q471 11 501 130Q505 146 508 149T520 153Q535 153 535 143ZM356 124L403 313L406 326Q406 361 387 390T337 420Q307 420 276 388T225 309Q210 274 193 205T176 100Q176 67 188 39T231 11Q268 11 308 52T356 124ZM444
522Q441 516 433 511T420 505T410 513L310 636Q297 649 306 668Q312 681 325 688T348 696Q362 696 371 679L442 537Q447 527 444 522Z" />
<glyph unicode="&#xe1;" glyph-name="aacute" horiz-adv-x="511" d="M535 143Q523 83 505 45Q478 -11 432 -11Q403 -11 380 6T349 59Q292 -11 229 -11Q174 -11 141 33T108 144Q108 253 181 347T337 442Q394 442 420 383Q428 422 460 422Q487 422 487 396Q487 389
483 375L415 103Q408 75 408 52Q408 11 434 11Q471 11 501 130Q505 146 508 149T520 153Q535 153 535 143ZM356 124L403 313L406 326Q406 361 387 390T337 420Q307 420 276 388T225 309Q210 274 193 205T176 100Q176 67 188 39T231 11Q268 11 308 52T356 124ZM539
668Q539 649 519 636L358 513Q349 505 344 505T334 510T328 522Q328 527 338 537L480 679Q497 696 511 696Q521 696 530 689T539 668Z" />
<glyph unicode="&#xe2;" glyph-name="acircumflex" horiz-adv-x="511" d="M535 143Q523 83 505 45Q478 -11 432 -11Q403 -11 380 6T349 59Q292 -11 229 -11Q174 -11 141 33T108 144Q108 253 181 347T337 442Q394 442 420 383Q428 422 460 422Q487 422 487 396Q487
389 483 375L415 103Q408 75 408 52Q408 11 434 11Q471 11 501 130Q505 146 508 149T520 153Q535 153 535 143ZM356 124L403 313L406 326Q406 361 387 390T337 420Q307 420 276 388T225 309Q210 274 193 205T176 100Q176 67 188 39T231 11Q268 11 308 52T356 124ZM527
536Q532 529 524 522T509 520L411 619L263 520Q254 514 249 521T252 536L418 680Q427 688 433 680L527 536Z" />
<glyph unicode="&#xe3;" glyph-name="atilde" horiz-adv-x="511" d="M535 143Q523 83 505 45Q478 -11 432 -11Q403 -11 380 6T349 59Q292 -11 229 -11Q174 -11 141 33T108 144Q108 253 181 347T337 442Q394 442 420 383Q428 422 460 422Q487 422 487 396Q487 389
483 375L415 103Q408 75 408 52Q408 11 434 11Q471 11 501 130Q505 146 508 149T520 153Q535 153 535 143ZM356 124L403 313L406 326Q406 361 387 390T337 420Q307 420 276 388T225 309Q210 274 193 205T176 100Q176 67 188 39T231 11Q268 11 308 52T356 124ZM568
650T568 640T519 590T440 550Q413 550 389 589Q373 616 357 616Q344 616 322 602T284 572L268 558Q259 551 255 551Q244 551 244 561Q244 566 257 579T284 604L297 615Q344 651 371 651Q389 651 400 641T425 608T454 585Q473 585 505 609T544 643Q551 650 557 650Q568
650 568 640Z" />
<glyph unicode="&#xe4;" glyph-name="adieresis" horiz-adv-x="511" d="M535 143Q523 83 505 45Q478 -11 432 -11Q403 -11 380 6T349 59Q292 -11 229 -11Q174 -11 141 33T108 144Q108 253 181 347T337 442Q394 442 420 383Q428 422 460 422Q487 422 487 396Q487
389 483 375L415 103Q408 75 408 52Q408 11 434 11Q471 11 501 130Q505 146 508 149T520 153Q535 153 535 143ZM356 124L403 313L406 326Q406 361 387 390T337 420Q307 420 276 388T225 309Q210 274 193 205T176 100Q176 67 188 39T231 11Q268 11 308 52T356 124ZM366
610Q366 588 348 571T309 553Q290 553 279 564T268 592Q268 614 286 631T326 649Q345 649 355 638T366 610ZM543 610Q543 588 525 571T486 553Q467 553 456 564T445 592Q445 614 463 631T503 649Q522 649 532 638T543 610Z" />
<glyph unicode="&#xe5;" glyph-name="aring" horiz-adv-x="511" d="M535 143Q523 83 505 45Q478 -11 432 -11Q403 -11 380 6T349 59Q292 -11 229 -11Q174 -11 141 33T108 144Q108 253 181 347T337 442Q394 442 420 383Q428 422 460 422Q487 422 487 396Q487 389
483 375L415 103Q408 75 408 52Q408 11 434 11Q471 11 501 130Q505 146 508 149T520 153Q535 153 535 143ZM356 124L403 313L406 326Q406 361 387 390T337 420Q307 420 276 388T225 309Q210 274 193 205T176 100Q176 67 188 39T231 11Q268 11 308 52T356 124ZM468
639Q468 675 424 675Q392 675 374 655T354 614L352 594Q352 559 396 559Q416 559 430 567T452 587T463 611T468 631V639ZM506 638Q506 596 470 563T388 529Q358 529 336 546T314 597Q315 640 351 672T431 705Q467 705 486 685T506 638Z" />
<glyph unicode="&#xe6;" glyph-name="ae" horiz-adv-x="716" d="M699 104Q699 98 685 80T647 42T587 5T512 -11Q470 -11 442 11T401 60Q390 13 383 1T358 -11Q334 -11 334 12Q334 18 343 53L342 54Q283 -11 227 -11T132 19T92 100Q92 120 100 146T131 208T191
278T290 350T434 415Q440 442 466 442Q490 442 490 419Q490 414 484 390Q550 442 619 442Q663 442 691 418T719 357Q719 349 717 339T709 313T685 280T642 253Q588 231 496 231H444Q430 170 430 133Q430 86 450 49T513 11Q547 11 589 33T670 110Q679 120 683 120Q689
120 694 114T699 104ZM681 359Q681 385 665 402T618 420Q609 420 598 418T566 407T525 381T485 331T450 253H480Q681 253 681 359ZM366 145L427 389Q302 335 234 243T165 73Q165 40 185 26T230 11Q273 11 315 61T366 145Z" />
<glyph unicode="&#xe7;" glyph-name="ccedilla" horiz-adv-x="460" d="M468 104Q468 99 459 87T431 58T388 26T330 0T260 -11L250 -54Q311 -66 311 -109Q311 -192 115 -192H90Q77 -192 77 -181T102 -170H112Q247 -170 247 -108Q247 -75 199 -71Q184 -69 184 -58Q184
-51 198 1Q157 18 134 58T110 154Q110 263 189 352T363 442Q410 442 440 418T470 356Q470 329 455 313T419 296Q403 296 394 305T385 328Q385 330 385 333T388 343T395 357T410 369T435 377Q419 420 364 420Q329 420 294 394T233 320Q214 284 197 219T180 114Q180
68 200 40T259 11Q276 11 297 14T362 42T439 109Q448 120 452 120Q458 120 463 114T468 104Z" />
<glyph unicode="&#xe8;" glyph-name="egrave" horiz-adv-x="460" d="M468 104Q468 94 444 68T367 16T257 -11Q189 -11 152 40T114 164Q114 287 194 364T362 442Q408 442 435 418T463 357Q463 352 463 347T458 327T447 301T423 276T384 253Q328 231 239 231H200Q183
165 183 121Q183 96 188 74T211 32T259 11Q276 11 297 14T362 42T439 109Q448 120 452 120Q458 120 463 114T468 104ZM425 359Q425 385 408 402T362 420Q355 420 346 419T316 408T276 383T238 333T206 253H227Q242 253 254 253T292 256T339 266T380 284T413 314T425
359ZM418 522Q415 516 407 511T394 505T384 513L284 636Q271 649 280 668Q286 681 299 688T322 696Q336 696 345 679L416 537Q421 527 418 522Z" />
<glyph unicode="&#xe9;" glyph-name="eacute" horiz-adv-x="460" d="M468 104Q468 94 444 68T367 16T257 -11Q189 -11 152 40T114 164Q114 287 194 364T362 442Q408 442 435 418T463 357Q463 352 463 347T458 327T447 301T423 276T384 253Q328 231 239 231H200Q183
165 183 121Q183 96 188 74T211 32T259 11Q276 11 297 14T362 42T439 109Q448 120 452 120Q458 120 463 114T468 104ZM425 359Q425 385 408 402T362 420Q355 420 346 419T316 408T276 383T238 333T206 253H227Q242 253 254 253T292 256T339 266T380 284T413 314T425
359ZM513 668Q513 649 493 636L332 513Q323 505 318 505T308 510T302 522Q302 527 312 537L454 679Q471 696 485 696Q495 696 504 689T513 668Z" />
<glyph unicode="&#xea;" glyph-name="ecircumflex" horiz-adv-x="460" d="M468 104Q468 94 444 68T367 16T257 -11Q189 -11 152 40T114 164Q114 287 194 364T362 442Q408 442 435 418T463 357Q463 352 463 347T458 327T447 301T423 276T384 253Q328 231 239 231H200Q183
165 183 121Q183 96 188 74T211 32T259 11Q276 11 297 14T362 42T439 109Q448 120 452 120Q458 120 463 114T468 104ZM425 359Q425 385 408 402T362 420Q355 420 346 419T316 408T276 383T238 333T206 253H227Q242 253 254 253T292 256T339 266T380 284T413 314T425
359ZM501 536Q506 529 498 522T483 520L385 619L237 520Q228 514 223 521T226 536L392 680Q401 688 407 680L501 536Z" />
<glyph unicode="&#xeb;" glyph-name="edieresis" horiz-adv-x="460" d="M468 104Q468 94 444 68T367 16T257 -11Q189 -11 152 40T114 164Q114 287 194 364T362 442Q408 442 435 418T463 357Q463 352 463 347T458 327T447 301T423 276T384 253Q328 231 239 231H200Q183
165 183 121Q183 96 188 74T211 32T259 11Q276 11 297 14T362 42T439 109Q448 120 452 120Q458 120 463 114T468 104ZM425 359Q425 385 408 402T362 420Q355 420 346 419T316 408T276 383T238 333T206 253H227Q242 253 254 253T292 256T339 266T380 284T413 314T425
359ZM340 610Q340 588 322 571T283 553Q264 553 253 564T242 592Q242 614 260 631T300 649Q319 649 329 638T340 610ZM517 610Q517 588 499 571T460 553Q441 553 430 564T419 592Q419 614 437 631T477 649Q496 649 506 638T517 610Z" />
<glyph unicode="&#xec;" glyph-name="igrave" horiz-adv-x="307" d="M331 143Q331 140 327 126T313 88T290 42T253 5T204 -11Q167 -11 148 13T128 69Q128 89 146 138L183 237L213 320Q231 369 231 392Q231 420 209 420Q150 420 116 294Q113 283 110 281T98 278Q83
278 83 288Q83 291 87 306T101 344T125 389T162 426T211 442Q242 442 264 422T286 362Q286 341 274 306L210 135Q184 61 184 39Q184 11 206 11Q265 11 299 136Q302 148 304 150T316 153Q331 153 331 143ZM342 522Q339 516 331 511T318 505T308 513L208 636Q195
649 204 668Q210 681 223 688T246 696Q260 696 269 679L340 537Q345 527 342 522Z" />
<glyph unicode="&#xed;" glyph-name="iacute" horiz-adv-x="307" d="M331 143Q331 140 327 126T313 88T290 42T253 5T204 -11Q167 -11 148 13T128 69Q128 89 146 138L183 237L213 320Q231 369 231 392Q231 420 209 420Q150 420 116 294Q113 283 110 281T98 278Q83
278 83 288Q83 291 87 306T101 344T125 389T162 426T211 442Q242 442 264 422T286 362Q286 341 274 306L210 135Q184 61 184 39Q184 11 206 11Q265 11 299 136Q302 148 304 150T316 153Q331 153 331 143ZM437 668Q437 649 417 636L256 513Q247 505 242 505T232
510T226 522Q226 527 236 537L378 679Q395 696 409 696Q419 696 428 689T437 668Z" />
<glyph unicode="&#xee;" glyph-name="icircumflex" horiz-adv-x="307" d="M331 143Q331 140 327 126T313 88T290 42T253 5T204 -11Q167 -11 148 13T128 69Q128 89 146 138L183 237L213 320Q231 369 231 392Q231 420 209 420Q150 420 116 294Q113 283 110 281T98
278Q83 278 83 288Q83 291 87 306T101 344T125 389T162 426T211 442Q242 442 264 422T286 362Q286 341 274 306L210 135Q184 61 184 39Q184 11 206 11Q265 11 299 136Q302 148 304 150T316 153Q331 153 331 143ZM425 536Q430 529 422 522T407 520L309 619L161 520Q152
514 147 521T150 536L316 680Q325 688 331 680L425 536Z" />
<glyph unicode="&#xef;" glyph-name="idieresis" horiz-adv-x="307" d="M331 143Q331 140 327 126T313 88T290 42T253 5T204 -11Q167 -11 148 13T128 69Q128 89 146 138L183 237L213 320Q231 369 231 392Q231 420 209 420Q150 420 116 294Q113 283 110 281T98
278Q83 278 83 288Q83 291 87 306T101 344T125 389T162 426T211 442Q242 442 264 422T286 362Q286 341 274 306L210 135Q184 61 184 39Q184 11 206 11Q265 11 299 136Q302 148 304 150T316 153Q331 153 331 143ZM264 610Q264 588 246 571T207 553Q188 553 177 564T166
592Q166 614 184 631T224 649Q243 649 253 638T264 610ZM441 610Q441 588 423 571T384 553Q365 553 354 564T343 592Q343 614 361 631T401 649Q420 649 430 638T441 610Z" />
<glyph unicode="&#xf0;" glyph-name="eth" horiz-adv-x="511" d="M635 698Q634 692 626 686L533 628Q551 586 551 518Q551 415 501 213Q482 137 429 78Q348 -11 256 -11Q192 -11 151 33T110 154Q110 263 189 352T363 442Q436 442 477 385Q506 529 489 601L408
551Q404 548 399 548Q392 548 389 552T387 563Q390 570 396 575L480 627Q456 675 399 675Q393 675 390 679T388 690Q391 705 406 705Q486 705 520 652L614 711Q620 713 624 713Q638 713 635 698ZM439 317Q439 362 419 391T362 420Q331 420 298 397T238 329Q215
290 198 222T180 114Q180 63 202 37T256 11Q292 11 327 39T385 111Q407 153 423 217T439 317Z" />
<glyph unicode="&#xf1;" glyph-name="ntilde" horiz-adv-x="562" d="M586 143Q586 140 582 125T568 87T544 42T508 5T459 -11Q424 -11 404 12T383 69Q383 91 399 133Q457 299 457 354Q457 420 411 420Q334 420 276 321Q259 293 246 240Q244 229 238 208T230 175L190
15Q180 -11 154 -11Q140 -11 133 -3T126 15Q126 20 129 29L204 329Q211 357 211 380Q211 420 185 420Q163 420 148 390T117 301Q113 285 111 282T98 278Q83 278 83 288Q96 349 115 389Q143 442 187 442Q220 442 243 421T271 363Q281 378 295 393T343 425T414 442Q458
442 488 418T518 338Q518 277 457 115Q439 61 439 40Q439 11 461 11Q517 11 554 136Q557 148 559 150T571 153Q586 153 586 143ZM594 650T594 640T545 590T466 550Q439 550 415 589Q399 616 383 616Q370 616 348 602T310 572L294 558Q285 551 281 551Q270 551 270
561Q270 566 283 579T310 604L323 615Q370 651 397 651Q415 651 426 641T451 608T480 585Q499 585 531 609T570 643Q577 650 583 650Q594 650 594 640Z" />
<glyph unicode="&#xf2;" glyph-name="ograve" horiz-adv-x="511" d="M509 278Q509 169 430 79T256 -11Q192 -11 151 33T110 154Q110 263 189 352T363 442Q428 442 468 396T509 278ZM439 317Q439 362 419 391T362 420Q331 420 298 397T238 329Q215 290 198 222T180
114Q180 63 202 37T256 11Q292 11 327 39T385 111Q407 153 423 217T439 317ZM444 522Q441 516 433 511T420 505T410 513L310 636Q297 649 306 668Q312 681 325 688T348 696Q362 696 371 679L442 537Q447 527 444 522Z" />
<glyph unicode="&#xf3;" glyph-name="oacute" horiz-adv-x="511" d="M509 278Q509 169 430 79T256 -11Q192 -11 151 33T110 154Q110 263 189 352T363 442Q428 442 468 396T509 278ZM439 317Q439 362 419 391T362 420Q331 420 298 397T238 329Q215 290 198 222T180
114Q180 63 202 37T256 11Q292 11 327 39T385 111Q407 153 423 217T439 317ZM539 668Q539 649 519 636L358 513Q349 505 344 505T334 510T328 522Q328 527 338 537L480 679Q497 696 511 696Q521 696 530 689T539 668Z" />
<glyph unicode="&#xf4;" glyph-name="ocircumflex" horiz-adv-x="511" d="M509 278Q509 169 430 79T256 -11Q192 -11 151 33T110 154Q110 263 189 352T363 442Q428 442 468 396T509 278ZM439 317Q439 362 419 391T362 420Q331 420 298 397T238 329Q215 290 198
222T180 114Q180 63 202 37T256 11Q292 11 327 39T385 111Q407 153 423 217T439 317ZM527 536Q532 529 524 522T509 520L411 619L263 520Q254 514 249 521T252 536L418 680Q427 688 433 680L527 536Z" />
<glyph unicode="&#xf5;" glyph-name="otilde" horiz-adv-x="511" d="M509 278Q509 169 430 79T256 -11Q192 -11 151 33T110 154Q110 263 189 352T363 442Q428 442 468 396T509 278ZM439 317Q439 362 419 391T362 420Q331 420 298 397T238 329Q215 290 198 222T180
114Q180 63 202 37T256 11Q292 11 327 39T385 111Q407 153 423 217T439 317ZM568 650T568 640T519 590T440 550Q413 550 389 589Q373 616 357 616Q344 616 322 602T284 572L268 558Q259 551 255 551Q244 551 244 561Q244 566 257 579T284 604L297 615Q344 651 371
651Q389 651 400 641T425 608T454 585Q473 585 505 609T544 643Q551 650 557 650Q568 650 568 640Z" />
<glyph unicode="&#xf6;" glyph-name="odieresis" horiz-adv-x="511" d="M509 278Q509 169 430 79T256 -11Q192 -11 151 33T110 154Q110 263 189 352T363 442Q428 442 468 396T509 278ZM439 317Q439 362 419 391T362 420Q331 420 298 397T238 329Q215 290 198 222T180
114Q180 63 202 37T256 11Q292 11 327 39T385 111Q407 153 423 217T439 317ZM366 610Q366 588 348 571T309 553Q290 553 279 564T268 592Q268 614 286 631T326 649Q345 649 355 638T366 610ZM543 610Q543 588 525 571T486 553Q467 553 456 564T445 592Q445 614
463 631T503 649Q522 649 532 638T543 610Z" />
<glyph unicode="&#xf7;" glyph-name="divide" horiz-adv-x="767" d="M752 270T752 250T719 230H173Q139 230 139 250T173 270H719Q752 270 752 250ZM540 417Q540 394 520 374T475 354Q455 354 443 366T431 397Q431 421 451 440T496 460Q516 460 528 447T540 417ZM461
103Q461 80 441 60T396 40Q376 40 364 52T352 83Q352 107 372 126T417 146Q437 146 449 133T461 103Z" />
<glyph unicode="&#xf8;" glyph-name="oslash" horiz-adv-x="511" d="M502 281Q502 170 425 79T255 -12Q209 -12 174 14L102 -85Q83 -107 79 -107Q68 -107 68 -97Q68 -92 76 -83L158 29Q116 76 116 150Q116 258 193 350T364 443Q409 443 445 417L526 528Q534 538
540 538Q550 538 550 528Q550 524 542 513L461 402Q502 355 502 281ZM423 389Q402 421 363 421Q309 421 264 369T197 248T175 121Q175 86 183 64L423 389ZM444 311Q444 343 435 367L195 42Q218 10 256 10Q311 10 356 63T422 184T444 311Z" />
<glyph unicode="&#xf9;" glyph-name="ugrave" horiz-adv-x="537" d="M561 143Q549 83 531 45Q504 -11 458 -11Q398 -11 378 49Q330 -11 267 -11Q220 -11 188 17T155 105Q155 161 207 301Q231 368 231 391Q231 420 209 420Q149 420 116 294Q113 283 110 281T98
278Q83 278 83 288Q83 291 87 306T101 344T125 389T162 426T211 442Q244 442 265 420T287 361Q287 341 274 307Q216 149 216 88Q216 11 270 11Q323 11 362 69Q370 81 376 102L449 394Q458 431 488 431Q502 431 509 423T516 405Q516 400 513 391L441 103Q434 75
434 52Q434 11 460 11Q497 11 527 130Q531 146 534 149T546 153Q561 153 561 143ZM457 522Q454 516 446 511T433 505T423 513L323 636Q310 649 319 668Q325 681 338 688T361 696Q375 696 384 679L455 537Q460 527 457 522Z" />
<glyph unicode="&#xfa;" glyph-name="uacute" horiz-adv-x="537" d="M561 143Q549 83 531 45Q504 -11 458 -11Q398 -11 378 49Q330 -11 267 -11Q220 -11 188 17T155 105Q155 161 207 301Q231 368 231 391Q231 420 209 420Q149 420 116 294Q113 283 110 281T98
278Q83 278 83 288Q83 291 87 306T101 344T125 389T162 426T211 442Q244 442 265 420T287 361Q287 341 274 307Q216 149 216 88Q216 11 270 11Q323 11 362 69Q370 81 376 102L449 394Q458 431 488 431Q502 431 509 423T516 405Q516 400 513 391L441 103Q434 75
434 52Q434 11 460 11Q497 11 527 130Q531 146 534 149T546 153Q561 153 561 143ZM552 668Q552 649 532 636L371 513Q362 505 357 505T347 510T341 522Q341 527 351 537L493 679Q510 696 524 696Q534 696 543 689T552 668Z" />
<glyph unicode="&#xfb;" glyph-name="ucircumflex" horiz-adv-x="537" d="M561 143Q549 83 531 45Q504 -11 458 -11Q398 -11 378 49Q330 -11 267 -11Q220 -11 188 17T155 105Q155 161 207 301Q231 368 231 391Q231 420 209 420Q149 420 116 294Q113 283 110 281T98
278Q83 278 83 288Q83 291 87 306T101 344T125 389T162 426T211 442Q244 442 265 420T287 361Q287 341 274 307Q216 149 216 88Q216 11 270 11Q323 11 362 69Q370 81 376 102L449 394Q458 431 488 431Q502 431 509 423T516 405Q516 400 513 391L441 103Q434 75
434 52Q434 11 460 11Q497 11 527 130Q531 146 534 149T546 153Q561 153 561 143ZM540 536Q545 529 537 522T522 520L424 619L276 520Q267 514 262 521T265 536L431 680Q440 688 446 680L540 536Z" />
<glyph unicode="&#xfc;" glyph-name="udieresis" horiz-adv-x="537" d="M561 143Q549 83 531 45Q504 -11 458 -11Q398 -11 378 49Q330 -11 267 -11Q220 -11 188 17T155 105Q155 161 207 301Q231 368 231 391Q231 420 209 420Q149 420 116 294Q113 283 110 281T98
278Q83 278 83 288Q83 291 87 306T101 344T125 389T162 426T211 442Q244 442 265 420T287 361Q287 341 274 307Q216 149 216 88Q216 11 270 11Q323 11 362 69Q370 81 376 102L449 394Q458 431 488 431Q502 431 509 423T516 405Q516 400 513 391L441 103Q434 75
434 52Q434 11 460 11Q497 11 527 130Q531 146 534 149T546 153Q561 153 561 143ZM379 610Q379 588 361 571T322 553Q303 553 292 564T281 592Q281 614 299 631T339 649Q358 649 368 638T379 610ZM556 610Q556 588 538 571T499 553Q480 553 469 564T458 592Q458
614 476 631T516 649Q535 649 545 638T556 610Z" />
<glyph unicode="&#xfd;" glyph-name="yacute" horiz-adv-x="486" d="M415 -3Q395 -82 332 -143T195 -205Q153 -205 126 -182T99 -119Q99 -94 110 -79T131 -60T150 -57Q164 -57 174 -65T184 -89T173 -119T141 -137L133 -140Q133 -144 138 -153T158 -173T195 -183Q241
-183 286 -135T357 26Q320 -11 267 -11Q220 -11 188 17T155 105Q155 161 207 301Q231 368 231 391Q231 420 209 420Q149 420 116 294Q113 283 110 281T98 278Q83 278 83 288Q83 291 87 306T101 344T125 389T162 426T211 442Q244 442 265 420T287 361Q287 341 274
307Q216 149 216 88Q216 11 270 11Q310 11 339 41T376 100L449 394Q458 431 488 431Q502 431 509 423T516 405Q516 403 515 399T513 391L415 -3ZM526 668Q526 649 506 636L345 513Q336 505 331 505T321 510T315 522Q315 527 325 537L467 679Q484 696 498 696Q508
696 517 689T526 668Z" />
<glyph unicode="&#xfe;" glyph-name="thorn" horiz-adv-x="460" d="M459 286Q459 173 392 81T231 -11Q197 -11 176 8T147 47L111 -99Q100 -143 100 -147Q100 -153 102 -156T115 -161T151 -163T175 -175Q175 -194 156 -194Q141 -194 108 -193T59 -191Q45 -191 17
-192T-25 -194Q-37 -194 -37 -182Q-37 -163 -16 -163Q14 -162 23 -157T39 -128L225 618Q228 632 228 635Q228 641 226 644T213 649T178 652Q154 652 154 663Q154 672 157 676T165 682T177 684L276 692Q282 694 292 694Q306 694 306 682Q304 672 303 669L233 389Q289
442 339 442Q388 442 423 402T459 286ZM336 106Q357 152 374 225T392 331T380 392T337 420Q299 420 259 379T212 307L165 118Q162 106 162 104Q162 94 166 76T187 34T230 11Q263 11 292 43T336 106Z" />
<glyph unicode="&#xff;" glyph-name="ydieresis" horiz-adv-x="486" d="M415 -3Q395 -82 332 -143T195 -205Q153 -205 126 -182T99 -119Q99 -94 110 -79T131 -60T150 -57Q164 -57 174 -65T184 -89T173 -119T141 -137L133 -140Q133 -144 138 -153T158 -173T195
-183Q241 -183 286 -135T357 26Q320 -11 267 -11Q220 -11 188 17T155 105Q155 161 207 301Q231 368 231 391Q231 420 209 420Q149 420 116 294Q113 283 110 281T98 278Q83 278 83 288Q83 291 87 306T101 344T125 389T162 426T211 442Q244 442 265 420T287 361Q287
341 274 307Q216 149 216 88Q216 11 270 11Q310 11 339 41T376 100L449 394Q458 431 488 431Q502 431 509 423T516 405Q516 403 515 399T513 391L415 -3ZM353 610Q353 588 335 571T296 553Q277 553 266 564T255 592Q255 614 273 631T313 649Q332 649 342 638T353
610ZM530 610Q530 588 512 571T473 553Q454 553 443 564T432 592Q432 614 450 631T490 649Q509 649 519 638T530 610Z" />
<glyph unicode="&#x100;" glyph-name="Amacron" horiz-adv-x="743" d="M692 18Q692 0 674 0Q657 0 622 1T569 3Q550 3 511 2T454 0Q439 0 439 12Q439 31 462 31Q529 31 529 63L518 229H290L218 103Q204 77 204 65Q204 38 246 31Q262 29 262 19Q262 0 244 0Q229
0 198 1T151 3Q138 3 111 2T71 0T59 12Q60 30 71 31Q88 32 99 34T128 44T161 68T192 113L524 698Q534 716 550 716Q562 716 564 712T568 691L611 65Q613 44 622 38T668 31Q678 31 682 31T689 27T692 18ZM516 260L493 587L307 260H516ZM730 775Q730 762 724 759T703
756H423Q413 756 409 756T401 760T398 769Q398 781 404 783T425 786H705Q730 786 730 775Z" />
<glyph unicode="&#x101;" glyph-name="amacron" horiz-adv-x="511" d="M535 143Q523 83 505 45Q478 -11 432 -11Q403 -11 380 6T349 59Q292 -11 229 -11Q174 -11 141 33T108 144Q108 253 181 347T337 442Q394 442 420 383Q428 422 460 422Q487 422 487 396Q487
389 483 375L415 103Q408 75 408 52Q408 11 434 11Q471 11 501 130Q505 146 508 149T520 153Q535 153 535 143ZM356 124L403 313L406 326Q406 361 387 390T337 420Q307 420 276 388T225 309Q210 274 193 205T176 100Q176 67 188 39T231 11Q268 11 308 52T356 124ZM572
605Q572 592 566 589T545 586H265Q255 586 251 586T243 590T240 599Q240 611 246 613T267 616H547Q572 616 572 605Z" />
<glyph unicode="&#x102;" glyph-name="Abreve" horiz-adv-x="743" d="M692 18Q692 0 674 0Q657 0 622 1T569 3Q550 3 511 2T454 0Q439 0 439 12Q439 31 462 31Q529 31 529 63L518 229H290L218 103Q204 77 204 65Q204 38 246 31Q262 29 262 19Q262 0 244 0Q229
0 198 1T151 3Q138 3 111 2T71 0T59 12Q60 30 71 31Q88 32 99 34T128 44T161 68T192 113L524 698Q534 716 550 716Q562 716 564 712T568 691L611 65Q613 44 622 38T668 31Q678 31 682 31T689 27T692 18ZM516 260L493 587L307 260H516ZM736 906Q736 888 717 852T654
781T560 746T481 780T453 864Q453 916 470 916Q481 916 481 905Q476 882 476 872Q476 834 499 808T564 782Q605 782 649 813T712 902Q717 916 725 916Q736 916 736 906Z" />
<glyph unicode="&#x103;" glyph-name="abreve" horiz-adv-x="511" d="M535 143Q523 83 505 45Q478 -11 432 -11Q403 -11 380 6T349 59Q292 -11 229 -11Q174 -11 141 33T108 144Q108 253 181 347T337 442Q394 442 420 383Q428 422 460 422Q487 422 487 396Q487
389 483 375L415 103Q408 75 408 52Q408 11 434 11Q471 11 501 130Q505 146 508 149T520 153Q535 153 535 143ZM356 124L403 313L406 326Q406 361 387 390T337 420Q307 420 276 388T225 309Q210 274 193 205T176 100Q176 67 188 39T231 11Q268 11 308 52T356 124ZM563
676Q563 658 544 622T481 551T387 516T308 550T280 634Q280 686 297 686Q308 686 308 675Q303 652 303 642Q303 604 326 578T391 552Q432 552 476 583T539 672Q544 686 552 686Q563 686 563 676Z" />
<glyph unicode="&#x104;" glyph-name="Aogonek" horiz-adv-x="743" d="M667 -115Q646 -157 606 -184T528 -211Q481 -211 455 -184T437 -121Q451 -56 547 3Q537 3 518 2T483 1T454 0Q439 0 439 12Q439 31 462 31Q529 31 529 63L518 229H290L218 103Q204 77 204
65Q204 38 246 31Q262 29 262 19Q262 0 244 0Q229 0 198 1T151 3Q138 3 111 2T71 0T59 12Q60 30 71 31Q88 32 99 34T128 44T161 68T192 113L524 698Q534 716 550 716Q562 716 564 712T568 691L611 65Q613 44 622 38T668 31Q678 31 682 31T689 27T692 18Q692 0 674
0Q661 0 647 0T614 2T585 3Q501 -48 490 -95Q483 -127 507 -145T562 -164Q614 -164 651 -108Q656 -100 663 -103T667 -115ZM516 260L493 587L307 260H516Z" />
<glyph unicode="&#x105;" glyph-name="aogonek" horiz-adv-x="511" d="M487 -115Q466 -157 426 -184T348 -211Q301 -211 275 -184T257 -121Q271 -53 376 11Q356 28 349 59Q292 -11 229 -11Q174 -11 141 33T108 144Q108 253 181 347T337 442Q394 442 420 383Q428
422 460 422Q487 422 487 396Q487 389 483 375L415 103Q408 75 408 52Q408 11 434 11Q471 11 501 130Q505 146 508 149T520 153Q535 153 535 143Q523 83 505 45Q478 -11 432 -11Q413 -11 398 -4Q361 -26 339 -47T310 -95Q303 -127 327 -145T382 -164Q434 -164 471
-108Q476 -100 483 -103T487 -115ZM356 124L403 313L406 326Q406 361 387 390T337 420Q307 420 276 388T225 309Q210 274 193 205T176 100Q176 67 188 39T231 11Q268 11 308 52T356 124Z" />
<glyph unicode="&#x106;" glyph-name="Cacute" horiz-adv-x="716" d="M810 681L749 438Q746 426 743 423T731 420Q716 420 716 430Q716 431 717 441T719 465T721 491Q721 566 687 620T579 674Q519 674 455 639T342 536Q289 463 263 366T237 207Q237 108 287 59T409
9Q482 9 557 67T668 242Q671 250 684 250Q699 250 699 240Q699 219 678 178T621 92T524 12T395 -22Q289 -22 220 51T150 245Q150 359 212 467T372 640T571 705Q669 705 722 620L785 694Q789 699 793 701T799 704L801 705Q805 705 808 703T812 698V695Q812 689 810
681ZM750 873Q747 856 725 845L545 752Q534 746 530 747Q525 748 521 754T517 766Q519 772 529 779L694 895Q710 906 722 906Q736 906 744 897T750 873Z" />
<glyph unicode="&#x107;" glyph-name="cacute" horiz-adv-x="460" d="M468 104Q468 94 444 68T367 16T257 -11Q191 -11 151 34T110 154Q110 263 189 352T363 442Q410 442 440 418T470 356Q470 329 455 313T419 296Q403 296 394 305T385 328Q385 330 385 333T388
343T395 357T410 369T435 377Q419 420 364 420Q329 420 294 394T233 320Q214 284 197 219T180 114Q180 68 200 40T259 11Q276 11 297 14T362 42T439 109Q448 120 452 120Q458 120 463 114T468 104ZM536 668Q536 649 516 636L355 513Q346 505 341 505T331 510T325
522Q325 527 335 537L477 679Q494 696 508 696Q518 696 527 689T536 668Z" />
<glyph unicode="&#x108;" glyph-name="Ccircumflex" horiz-adv-x="716" d="M810 681L749 438Q746 426 743 423T731 420Q716 420 716 430Q716 431 717 441T719 465T721 491Q721 566 687 620T579 674Q519 674 455 639T342 536Q289 463 263 366T237 207Q237 108 287
59T409 9Q482 9 557 67T668 242Q671 250 684 250Q699 250 699 240Q699 219 678 178T621 92T524 12T395 -22Q289 -22 220 51T150 245Q150 359 212 467T372 640T571 705Q669 705 722 620L785 694Q789 699 793 701T799 704L801 705Q805 705 808 703T812 698V695Q812
689 810 681ZM719 755Q725 750 718 742T704 737L592 792L452 737Q446 735 442 738T439 746T446 755L601 853Q608 856 613 853L719 755Z" />
<glyph unicode="&#x109;" glyph-name="ccircumflex" horiz-adv-x="460" d="M468 104Q468 94 444 68T367 16T257 -11Q191 -11 151 34T110 154Q110 263 189 352T363 442Q410 442 440 418T470 356Q470 329 455 313T419 296Q403 296 394 305T385 328Q385 330 385 333T388
343T395 357T410 369T435 377Q419 420 364 420Q329 420 294 394T233 320Q214 284 197 219T180 114Q180 68 200 40T259 11Q276 11 297 14T362 42T439 109Q448 120 452 120Q458 120 463 114T468 104ZM524 536Q529 529 521 522T506 520L408 619L260 520Q251 514 246
521T249 536L415 680Q424 688 430 680L524 536Z" />
<glyph unicode="&#x10a;" glyph-name="Cdotaccent" horiz-adv-x="716" d="M810 681L749 438Q746 426 743 423T731 420Q716 420 716 430Q716 431 717 441T719 465T721 491Q721 566 687 620T579 674Q519 674 455 639T342 536Q289 463 263 366T237 207Q237 108 287
59T409 9Q482 9 557 67T668 242Q671 250 684 250Q699 250 699 240Q699 219 678 178T621 92T524 12T395 -22Q289 -22 220 51T150 245Q150 359 212 467T372 640T571 705Q669 705 722 620L785 694Q789 699 793 701T799 704L801 705Q805 705 808 703T812 698V695Q812
689 810 681ZM651 821Q651 797 631 778T587 758Q566 758 554 770T542 801Q542 825 562 844T606 864Q627 864 639 851T651 821Z" />
<glyph unicode="&#x10b;" glyph-name="cdotaccent" horiz-adv-x="460" d="M468 104Q468 94 444 68T367 16T257 -11Q191 -11 151 34T110 154Q110 263 189 352T363 442Q410 442 440 418T470 356Q470 329 455 313T419 296Q403 296 394 305T385 328Q385 330 385 333T388
343T395 357T410 369T435 377Q419 420 364 420Q329 420 294 394T233 320Q214 284 197 219T180 114Q180 68 200 40T259 11Q276 11 297 14T362 42T439 109Q448 120 452 120Q458 120 463 114T468 104ZM458 611Q458 587 438 568T394 548Q373 548 361 560T349 591Q349
615 369 634T413 654Q434 654 446 641T458 611Z" />
<glyph unicode="&#x10c;" glyph-name="Ccaron" horiz-adv-x="716" d="M810 681L749 438Q746 426 743 423T731 420Q716 420 716 430Q716 431 717 441T719 465T721 491Q721 566 687 620T579 674Q519 674 455 639T342 536Q289 463 263 366T237 207Q237 108 287 59T409
9Q482 9 557 67T668 242Q671 250 684 250Q699 250 699 240Q699 219 678 178T621 92T524 12T395 -22Q289 -22 220 51T150 245Q150 359 212 467T372 640T571 705Q669 705 722 620L785 694Q789 699 793 701T799 704L801 705Q805 705 808 703T812 698V695Q812 689 810
681ZM739 836L584 738Q577 735 572 738L466 836Q460 841 467 849T481 854L593 799L733 854Q739 856 743 853T746 845T739 836Z" />
<glyph unicode="&#x10d;" glyph-name="ccaron" horiz-adv-x="460" d="M468 104Q468 94 444 68T367 16T257 -11Q191 -11 151 34T110 154Q110 263 189 352T363 442Q410 442 440 418T470 356Q470 329 455 313T419 296Q403 296 394 305T385 328Q385 330 385 333T388
343T395 357T410 369T435 377Q419 420 364 420Q329 420 294 394T233 320Q214 284 197 219T180 114Q180 68 200 40T259 11Q276 11 297 14T362 42T439 109Q448 120 452 120Q458 120 463 114T468 104ZM557 665L391 521Q382 514 376 521L282 665Q277 672 285 679T300
681L399 582L546 681Q555 687 560 680T557 665Z" />
<glyph unicode="&#x10e;" glyph-name="Dcaron" horiz-adv-x="755" d="M775 438Q775 328 720 226T577 62T395 0H88Q78 0 74 0T67 3T63 12Q63 25 69 28T90 31Q139 31 152 38T172 73L307 616Q311 630 311 635Q311 646 297 649T253 652Q242 652 238 652T230 655T226
664Q226 677 232 680T253 683H565Q661 683 718 615T775 438ZM692 476Q692 567 646 609T532 652H435Q409 652 401 647T386 616L248 63Q248 62 246 54T244 41T245 35T253 32T275 31H378Q493 31 578 130Q634 196 663 304T692 476ZM666 836L511 738Q504 735 499 738L393
836Q387 841 394 849T408 854L520 799L660 854Q666 856 670 853T673 845T666 836Z" />
<glyph unicode="&#x10f;" glyph-name="dcaron" horiz-adv-x="511" d="M535 143Q523 83 505 45Q478 -11 432 -11Q403 -11 380 6T349 59Q292 -11 229 -11Q174 -11 141 33T108 144Q108 253 181 347T337 442Q393 442 421 384L479 618Q482 632 482 635Q482 641 480
644T467 649T432 652Q408 652 408 663Q408 672 411 676T419 682T431 684L530 692Q536 694 546 694Q560 694 560 682Q558 672 557 669L414 98Q408 74 408 52Q408 11 434 11Q471 11 501 130Q505 146 508 149T520 153Q535 153 535 143ZM355 122L403 314Q406 323 406
327Q406 359 386 391Q367 420 337 420T276 388T225 309Q210 274 193 205T176 100Q176 67 188 39T231 11Q268 11 308 52T355 122ZM671 650Q671 610 647 566T598 496T565 470T557 477Q557 480 567 490Q637 550 651 626Q636 615 620 615Q587 615 587 646Q587 664 601
679T636 694Q671 694 671 650Z" />
<glyph unicode="&#x110;" glyph-name="Dcroat" horiz-adv-x="755" d="M775 438Q775 328 720 226T577 62T395 0H88Q78 0 74 0T67 3T63 12Q63 25 69 28T90 31Q139 31 152 38T172 73L235 327H141Q135 327 132 331T130 342Q134 357 148 357H243L307 616Q311 630 311
635Q311 646 297 649T253 652Q242 652 238 652T230 655T226 664Q226 677 232 680T253 683H565Q661 683 718 615T775 438ZM692 476Q692 567 646 609T532 652H435Q409 652 401 647T386 616L321 357H467Q473 357 476 353T478 342Q475 327 459 327H314L248 63Q248 62
246 54T244 41T245 35T253 32T275 31H378Q493 31 578 130Q634 196 663 304T692 476Z" />
<glyph unicode="&#x111;" glyph-name="" horiz-adv-x="511" d="M535 143Q523 83 505 45Q478 -11 432 -11Q403 -11 380 6T349 59Q292 -11 229 -11Q174 -11 141 33T108 144Q108 253 181 347T337 442Q393 442 421 384L458 533H337Q323 533 326 548Q330 563 345 563H465L479
618Q482 632 482 635Q482 641 480 644T467 649T432 652Q408 652 408 663Q408 672 411 676T419 682T431 684L530 692Q536 694 546 694Q560 694 560 682Q558 672 557 669L530 563H577Q583 563 586 559T588 548Q585 533 569 533H523L414 98Q408 74 408 52Q408 11 434
11Q471 11 501 130Q505 146 508 149T520 153Q535 153 535 143ZM355 122L403 314Q406 323 406 327Q406 359 386 391Q367 420 337 420T276 388T225 309Q210 274 193 205T176 100Q176 67 188 39T231 11Q268 11 308 52T355 122Z" />
<glyph unicode="&#x112;" glyph-name="Emacron" horiz-adv-x="678" d="M687 247Q684 237 683 235L594 16Q589 5 585 3T566 0H87Q77 0 73 0T66 3T62 12Q62 25 68 28T89 31Q138 31 151 38T171 73L305 609L309 632Q309 638 307 641T292 646T251 649Q239 649 235 649T227
653T224 662Q224 674 230 677T251 680H718Q728 680 731 680T739 677T743 669T742 654L719 477Q718 467 717 463T713 457T702 455Q687 455 687 467Q687 474 689 484Q694 524 694 548Q694 604 667 626T561 649H436Q410 649 402 644T388 615L327 369H408Q467 369 489
388T527 462Q533 484 538 485Q541 486 546 486Q562 486 562 474Q560 464 559 461L504 241Q501 228 498 225T486 221Q470 221 470 233L472 244Q481 277 481 295Q481 318 467 328T406 338H319L250 63Q250 62 248 54T246 41T247 35T255 32T277 31H399Q446 31 481 40T539
62T583 103T617 159T651 234Q658 251 661 254T672 258Q687 258 687 247ZM698 775Q698 762 692 759T671 756H391Q381 756 377 756T369 760T366 769Q366 781 372 783T393 786H673Q698 786 698 775Z" />
<glyph unicode="&#x113;" glyph-name="emacron" horiz-adv-x="460" d="M468 104Q468 94 444 68T367 16T257 -11Q189 -11 152 40T114 164Q114 287 194 364T362 442Q408 442 435 418T463 357Q463 352 463 347T458 327T447 301T423 276T384 253Q328 231 239 231H200Q183
165 183 121Q183 96 188 74T211 32T259 11Q276 11 297 14T362 42T439 109Q448 120 452 120Q458 120 463 114T468 104ZM425 359Q425 385 408 402T362 420Q355 420 346 419T316 408T276 383T238 333T206 253H227Q242 253 254 253T292 256T339 266T380 284T413 314T425
359ZM546 605Q546 592 540 589T519 586H239Q229 586 225 586T217 590T214 599Q214 611 220 613T241 616H521Q546 616 546 605Z" />
<glyph unicode="&#x114;" glyph-name="Ebreve" horiz-adv-x="678" d="M687 247Q684 237 683 235L594 16Q589 5 585 3T566 0H87Q77 0 73 0T66 3T62 12Q62 25 68 28T89 31Q138 31 151 38T171 73L305 609L309 632Q309 638 307 641T292 646T251 649Q239 649 235 649T227
653T224 662Q224 674 230 677T251 680H718Q728 680 731 680T739 677T743 669T742 654L719 477Q718 467 717 463T713 457T702 455Q687 455 687 467Q687 474 689 484Q694 524 694 548Q694 604 667 626T561 649H436Q410 649 402 644T388 615L327 369H408Q467 369 489
388T527 462Q533 484 538 485Q541 486 546 486Q562 486 562 474Q560 464 559 461L504 241Q501 228 498 225T486 221Q470 221 470 233L472 244Q481 277 481 295Q481 318 467 328T406 338H319L250 63Q250 62 248 54T246 41T247 35T255 32T277 31H399Q446 31 481 40T539
62T583 103T617 159T651 234Q658 251 661 254T672 258Q687 258 687 247ZM704 906Q704 888 685 852T622 781T528 746T449 780T421 864Q421 916 438 916Q449 916 449 905Q444 882 444 872Q444 834 467 808T532 782Q573 782 617 813T680 902Q685 916 693 916Q704 916
704 906Z" />
<glyph unicode="&#x115;" glyph-name="ebreve" horiz-adv-x="460" d="M468 104Q468 94 444 68T367 16T257 -11Q189 -11 152 40T114 164Q114 287 194 364T362 442Q408 442 435 418T463 357Q463 352 463 347T458 327T447 301T423 276T384 253Q328 231 239 231H200Q183
165 183 121Q183 96 188 74T211 32T259 11Q276 11 297 14T362 42T439 109Q448 120 452 120Q458 120 463 114T468 104ZM425 359Q425 385 408 402T362 420Q355 420 346 419T316 408T276 383T238 333T206 253H227Q242 253 254 253T292 256T339 266T380 284T413 314T425
359ZM537 676Q537 658 518 622T455 551T361 516T282 550T254 634Q254 686 271 686Q282 686 282 675Q277 652 277 642Q277 604 300 578T365 552Q406 552 450 583T513 672Q518 686 526 686Q537 686 537 676Z" />
<glyph unicode="&#x116;" glyph-name="Edotaccent" horiz-adv-x="678" d="M687 247Q684 237 683 235L594 16Q589 5 585 3T566 0H87Q77 0 73 0T66 3T62 12Q62 25 68 28T89 31Q138 31 151 38T171 73L305 609L309 632Q309 638 307 641T292 646T251 649Q239 649 235
649T227 653T224 662Q224 674 230 677T251 680H718Q728 680 731 680T739 677T743 669T742 654L719 477Q718 467 717 463T713 457T702 455Q687 455 687 467Q687 474 689 484Q694 524 694 548Q694 604 667 626T561 649H436Q410 649 402 644T388 615L327 369H408Q467
369 489 388T527 462Q533 484 538 485Q541 486 546 486Q562 486 562 474Q560 464 559 461L504 241Q501 228 498 225T486 221Q470 221 470 233L472 244Q481 277 481 295Q481 318 467 328T406 338H319L250 63Q250 62 248 54T246 41T247 35T255 32T277 31H399Q446
31 481 40T539 62T583 103T617 159T651 234Q658 251 661 254T672 258Q687 258 687 247ZM597 821Q597 797 577 778T533 758Q512 758 500 770T488 801Q488 825 508 844T552 864Q573 864 585 851T597 821Z" />
<glyph unicode="&#x117;" glyph-name="edotaccent" horiz-adv-x="460" d="M468 104Q468 94 444 68T367 16T257 -11Q189 -11 152 40T114 164Q114 287 194 364T362 442Q408 442 435 418T463 357Q463 352 463 347T458 327T447 301T423 276T384 253Q328 231 239 231H200Q183
165 183 121Q183 96 188 74T211 32T259 11Q276 11 297 14T362 42T439 109Q448 120 452 120Q458 120 463 114T468 104ZM425 359Q425 385 408 402T362 420Q355 420 346 419T316 408T276 383T238 333T206 253H227Q242 253 254 253T292 256T339 266T380 284T413 314T425
359ZM435 611Q435 587 415 568T371 548Q350 548 338 560T326 591Q326 615 346 634T390 654Q411 654 423 641T435 611Z" />
<glyph unicode="&#x118;" glyph-name="Eogonek" horiz-adv-x="678" d="M687 247Q684 237 683 235L594 16Q589 5 585 3T566 0H474Q391 -44 380 -95Q373 -127 397 -145T452 -164Q504 -164 541 -108Q546 -100 553 -103T557 -115Q536 -157 496 -184T418 -211Q371 -211
345 -184T327 -121Q335 -82 364 -50T436 0H87Q77 0 73 0T66 3T62 12Q62 25 68 28T89 31Q138 31 151 38T171 73L305 609L309 632Q309 638 307 641T292 646T251 649Q239 649 235 649T227 653T224 662Q224 674 230 677T251 680H718Q728 680 731 680T739 677T743 669T742
654L719 477Q718 467 717 463T713 457T702 455Q687 455 687 467Q687 474 689 484Q694 524 694 548Q694 604 667 626T561 649H436Q410 649 402 644T388 615L327 369H408Q467 369 489 388T527 462Q533 484 538 485Q541 486 546 486Q562 486 562 474Q560 464 559 461L504
241Q501 228 498 225T486 221Q470 221 470 233L472 244Q481 277 481 295Q481 318 467 328T406 338H319L250 63Q250 62 248 54T246 41T247 35T255 32T277 31H399Q446 31 481 40T539 62T583 103T617 159T651 234Q658 251 661 254T672 258Q687 258 687 247Z" />
<glyph unicode="&#x119;" glyph-name="eogonek" horiz-adv-x="460" d="M417 -115Q396 -157 356 -184T278 -211Q231 -211 205 -184T187 -121Q199 -63 278 -10Q271 -11 257 -11Q189 -11 152 40T114 164Q114 287 194 364T362 442Q408 442 435 418T463 357Q463 352
463 347T458 327T447 301T423 276T384 253Q328 231 239 231H200Q183 165 183 121Q183 96 188 74T211 32T259 11Q276 11 297 14T362 42T439 109Q448 120 452 120Q458 120 463 114T468 104Q468 97 453 79T405 38T334 2Q251 -48 240 -95Q233 -127 257 -145T312 -164Q364
-164 401 -108Q406 -100 413 -103T417 -115ZM425 359Q425 385 408 402T362 420Q355 420 346 419T316 408T276 383T238 333T206 253H227Q242 253 254 253T292 256T339 266T380 284T413 314T425 359Z" />
<glyph unicode="&#x11a;" glyph-name="Ecaron" horiz-adv-x="678" d="M687 247Q684 237 683 235L594 16Q589 5 585 3T566 0H87Q77 0 73 0T66 3T62 12Q62 25 68 28T89 31Q138 31 151 38T171 73L305 609L309 632Q309 638 307 641T292 646T251 649Q239 649 235 649T227
653T224 662Q224 674 230 677T251 680H718Q728 680 731 680T739 677T743 669T742 654L719 477Q718 467 717 463T713 457T702 455Q687 455 687 467Q687 474 689 484Q694 524 694 548Q694 604 667 626T561 649H436Q410 649 402 644T388 615L327 369H408Q467 369 489
388T527 462Q533 484 538 485Q541 486 546 486Q562 486 562 474Q560 464 559 461L504 241Q501 228 498 225T486 221Q470 221 470 233L472 244Q481 277 481 295Q481 318 467 328T406 338H319L250 63Q250 62 248 54T246 41T247 35T255 32T277 31H399Q446 31 481 40T539
62T583 103T617 159T651 234Q658 251 661 254T672 258Q687 258 687 247ZM684 836L529 738Q522 735 517 738L411 836Q405 841 412 849T426 854L538 799L678 854Q684 856 688 853T691 845T684 836Z" />
<glyph unicode="&#x11b;" glyph-name="ecaron" horiz-adv-x="460" d="M468 104Q468 94 444 68T367 16T257 -11Q189 -11 152 40T114 164Q114 287 194 364T362 442Q408 442 435 418T463 357Q463 352 463 347T458 327T447 301T423 276T384 253Q328 231 239 231H200Q183
165 183 121Q183 96 188 74T211 32T259 11Q276 11 297 14T362 42T439 109Q448 120 452 120Q458 120 463 114T468 104ZM425 359Q425 385 408 402T362 420Q355 420 346 419T316 408T276 383T238 333T206 253H227Q242 253 254 253T292 256T339 266T380 284T413 314T425
359ZM534 665L368 521Q359 514 353 521L259 665Q254 672 262 679T277 681L376 582L523 681Q532 687 537 680T534 665Z" />
<glyph unicode="&#x11c;" glyph-name="Gcircumflex" horiz-adv-x="774" d="M768 260Q768 248 762 245T744 242Q723 242 712 238T699 229T692 209L644 18Q639 1 632 1Q624 1 611 21T590 61Q565 29 512 4T396 -22Q288 -22 219 51T150 245Q150 359 212 467T372 640T571
705Q669 705 722 620L785 694Q789 699 793 701T799 704L801 705Q805 705 808 703T812 698V695Q812 689 810 681L749 438Q746 426 743 423T731 420Q716 420 716 430Q716 431 717 441T719 465T721 491Q721 566 687 620T579 674Q519 674 455 639T342 536Q288 462 263
366T237 208Q237 113 287 61T414 9Q494 9 550 60Q572 80 579 98T604 188Q612 216 612 222Q612 229 609 232T601 237T583 240Q557 242 540 242H532Q506 242 506 253Q506 273 527 273T592 272T658 270Q674 270 707 271T755 273Q768 273 768 260ZM711 755Q717 750
710 742T696 737L584 792L444 737Q438 735 434 738T431 746T438 755L593 853Q600 856 605 853L711 755Z" />
<glyph unicode="&#x11d;" glyph-name="gcircumflex" horiz-adv-x="460" d="M374 -63Q359 -123 305 -164T174 -205Q53 -205 53 -147Q53 -121 69 -108T102 -94Q120 -94 128 -104T137 -126Q137 -139 128 -152T105 -172Q132 -183 176 -183Q231 -183 271 -136Q291 -112
299 -92T317 -31L338 53Q285 0 232 0Q177 0 144 44T110 153Q110 259 181 350T337 442Q393 442 421 385Q424 404 436 413T460 422Q487 422 487 396Q487 390 483 375L374 -63ZM358 132L403 314L406 328Q406 334 404 346T395 376T373 407T337 420Q309 420 279 392T229
321Q213 284 196 214T178 109Q178 100 179 90T185 63T202 34T234 22Q271 22 311 62T358 132ZM515 536Q520 529 512 522T497 520L399 619L251 520Q242 514 237 521T240 536L406 680Q415 688 421 680L515 536Z" />
<glyph unicode="&#x11e;" glyph-name="Gbreve" horiz-adv-x="774" d="M768 260Q768 248 762 245T744 242Q723 242 712 238T699 229T692 209L644 18Q639 1 632 1Q624 1 611 21T590 61Q565 29 512 4T396 -22Q288 -22 219 51T150 245Q150 359 212 467T372 640T571
705Q669 705 722 620L785 694Q789 699 793 701T799 704L801 705Q805 705 808 703T812 698V695Q812 689 810 681L749 438Q746 426 743 423T731 420Q716 420 716 430Q716 431 717 441T719 465T721 491Q721 566 687 620T579 674Q519 674 455 639T342 536Q288 462 263
366T237 208Q237 113 287 61T414 9Q494 9 550 60Q572 80 579 98T604 188Q612 216 612 222Q612 229 609 232T601 237T583 240Q557 242 540 242H532Q506 242 506 253Q506 273 527 273T592 272T658 270Q674 270 707 271T755 273Q768 273 768 260ZM751 906Q751 888
732 852T669 781T575 746T496 780T468 864Q468 916 485 916Q496 916 496 905Q491 882 491 872Q491 834 514 808T579 782Q620 782 664 813T727 902Q732 916 740 916Q751 916 751 906Z" />
<glyph unicode="&#x11f;" glyph-name="gbreve" horiz-adv-x="460" d="M374 -63Q359 -123 305 -164T174 -205Q53 -205 53 -147Q53 -121 69 -108T102 -94Q120 -94 128 -104T137 -126Q137 -139 128 -152T105 -172Q132 -183 176 -183Q231 -183 271 -136Q291 -112 299
-92T317 -31L338 53Q285 0 232 0Q177 0 144 44T110 153Q110 259 181 350T337 442Q393 442 421 385Q424 404 436 413T460 422Q487 422 487 396Q487 390 483 375L374 -63ZM358 132L403 314L406 328Q406 334 404 346T395 376T373 407T337 420Q309 420 279 392T229
321Q213 284 196 214T178 109Q178 100 179 90T185 63T202 34T234 22Q271 22 311 62T358 132ZM551 676Q551 658 532 622T469 551T375 516T296 550T268 634Q268 686 285 686Q296 686 296 675Q291 652 291 642Q291 604 314 578T379 552Q420 552 464 583T527 672Q532
686 540 686Q551 686 551 676Z" />
<glyph unicode="&#x120;" glyph-name="Gdotaccent" horiz-adv-x="774" d="M768 260Q768 248 762 245T744 242Q723 242 712 238T699 229T692 209L644 18Q639 1 632 1Q624 1 611 21T590 61Q565 29 512 4T396 -22Q288 -22 219 51T150 245Q150 359 212 467T372 640T571
705Q669 705 722 620L785 694Q789 699 793 701T799 704L801 705Q805 705 808 703T812 698V695Q812 689 810 681L749 438Q746 426 743 423T731 420Q716 420 716 430Q716 431 717 441T719 465T721 491Q721 566 687 620T579 674Q519 674 455 639T342 536Q288 462 263
366T237 208Q237 113 287 61T414 9Q494 9 550 60Q572 80 579 98T604 188Q612 216 612 222Q612 229 609 232T601 237T583 240Q557 242 540 242H532Q506 242 506 253Q506 273 527 273T592 272T658 270Q674 270 707 271T755 273Q768 273 768 260ZM644 821Q644 797
624 778T580 758Q559 758 547 770T535 801Q535 825 555 844T599 864Q620 864 632 851T644 821Z" />
<glyph unicode="&#x121;" glyph-name="gdotaccent" horiz-adv-x="460" d="M374 -63Q359 -123 305 -164T174 -205Q53 -205 53 -147Q53 -121 69 -108T102 -94Q120 -94 128 -104T137 -126Q137 -139 128 -152T105 -172Q132 -183 176 -183Q231 -183 271 -136Q291 -112
299 -92T317 -31L338 53Q285 0 232 0Q177 0 144 44T110 153Q110 259 181 350T337 442Q393 442 421 385Q424 404 436 413T460 422Q487 422 487 396Q487 390 483 375L374 -63ZM358 132L403 314L406 328Q406 334 404 346T395 376T373 407T337 420Q309 420 279 392T229
321Q213 284 196 214T178 109Q178 100 179 90T185 63T202 34T234 22Q271 22 311 62T358 132ZM449 611Q449 587 429 568T385 548Q364 548 352 560T340 591Q340 615 360 634T404 654Q425 654 437 641T449 611Z" />
<glyph unicode="&#x122;" glyph-name="Gcommaaccent" horiz-adv-x="774" d="M768 260Q768 248 762 245T744 242Q723 242 712 238T699 229T692 209L644 18Q639 1 632 1Q624 1 611 21T590 61Q565 29 512 4T396 -22Q288 -22 219 51T150 245Q150 359 212 467T372 640T571
705Q669 705 722 620L785 694Q789 699 793 701T799 704L801 705Q805 705 808 703T812 698V695Q812 689 810 681L749 438Q746 426 743 423T731 420Q716 420 716 430Q716 431 717 441T719 465T721 491Q721 566 687 620T579 674Q519 674 455 639T342 536Q288 462 263
366T237 208Q237 113 287 61T414 9Q494 9 550 60Q572 80 579 98T604 188Q612 216 612 222Q612 229 609 232T601 237T583 240Q557 242 540 242H532Q506 242 506 253Q506 273 527 273T592 272T658 270Q674 270 707 271T755 273Q768 273 768 260ZM399 -110Q399 -150
375 -194T326 -264T293 -290T285 -283Q285 -280 295 -270Q365 -210 379 -134Q364 -145 348 -145Q315 -145 315 -114Q315 -96 329 -81T364 -66Q399 -66 399 -110Z" />
<glyph unicode="&#x123;" glyph-name="gcommaaccent" horiz-adv-x="460" d="M427 559Q427 541 413 526T378 511Q343 511 343 555Q343 595 367 639T416 709T449 735T457 728Q457 725 447 715Q377 655 363 579Q378 590 394 590Q427 590 427 559ZM374 -63Q359 -123
305 -164T174 -205Q53 -205 53 -147Q53 -121 69 -108T102 -94Q120 -94 128 -104T137 -126Q137 -139 128 -152T105 -172Q132 -183 176 -183Q231 -183 271 -136Q291 -112 299 -92T317 -31L338 53Q285 0 232 0Q177 0 144 44T110 153Q110 259 181 350T337 442Q393 442
421 385Q424 404 436 413T460 422Q487 422 487 396Q487 390 483 375L374 -63ZM358 132L403 314L406 328Q406 334 404 346T395 376T373 407T337 420Q309 420 279 392T229 321Q213 284 196 214T178 109Q178 100 179 90T185 63T202 34T234 22Q271 22 311 62T358 132Z"
/>
<glyph unicode="&#x124;" glyph-name="Hcircumflex" horiz-adv-x="743" d="M689 18Q689 0 670 0T611 1T550 3T491 2T432 0Q418 0 418 12Q418 25 424 28T445 31Q494 31 507 38T527 73L593 340H319L252 68Q248 54 248 48T250 39T265 34T306 31Q318 31 322 31T330
27T333 18Q333 0 314 0T255 1T194 3T135 2T76 0Q62 0 62 12Q62 25 68 28T89 31Q138 31 151 38T171 73L306 616Q310 630 310 635Q310 646 296 649T252 652Q241 652 237 652T229 655T225 664Q225 683 244 683T303 682T364 680T423 681T482 683Q496 683 496 670Q496
658 490 655T466 652Q420 652 407 645T387 612L327 371H601L662 616Q666 630 666 635Q666 646 652 649T608 652Q597 652 593 652T585 655T581 664Q581 683 600 683T659 682T720 680T779 681T838 683Q852 683 852 670Q852 658 846 655T822 652Q776 652 763 645T743
612L608 71L604 48Q604 42 606 39T621 34T662 31Q674 31 678 31T686 27T689 18ZM696 755Q702 750 695 742T681 737L569 792L429 737Q423 735 419 738T416 746T423 755L578 853Q585 856 590 853L696 755Z" />
<glyph unicode="&#x125;" glyph-name="hcircumflex" horiz-adv-x="511" d="M535 143Q535 140 531 125T517 87T493 42T457 5T408 -11Q373 -11 353 12T332 69Q332 91 348 133Q406 299 406 354Q406 420 360 420Q286 420 227 325Q208 291 199 255Q196 244 191 223T183
190L140 17Q137 7 127 -2T103 -11Q90 -11 83 -3T75 15Q76 26 77 28L225 618Q228 632 228 635Q228 641 226 644T213 649T178 652Q154 652 154 663Q154 672 157 676T165 682T177 684L276 692Q282 694 292 694Q306 694 306 682Q304 672 303 669L230 377Q252 398 264
408T304 430T363 442Q407 442 437 418T467 338Q467 277 406 115Q388 61 388 40Q388 11 410 11Q466 11 503 136Q506 148 508 150T520 153Q535 153 535 143ZM583 766Q589 761 582 753T568 748L456 803L316 748Q310 746 306 749T303 757T310 766L465 864Q472 867 477
864L583 766Z" />
<glyph unicode="&#x126;" glyph-name="Hbar" horiz-adv-x="743" d="M814 513Q811 498 796 498H715L608 71L604 48Q604 42 606 39T621 34T662 31Q674 31 678 31T686 27T689 18Q689 0 670 0T611 1T550 3T491 2T432 0Q418 0 418 12Q418 25 424 28T445 31Q494 31 507
38T527 73L593 340H319L252 68Q248 54 248 48T250 39T265 34T306 31Q318 31 322 31T330 27T333 18Q333 0 314 0T255 1T194 3T135 2T76 0Q62 0 62 12Q62 25 68 28T89 31Q138 31 151 38T171 73L277 498H198Q183 498 186 513Q190 528 205 528H284L306 616Q310 630
310 635Q310 646 296 649T252 652Q241 652 237 652T229 655T225 664Q225 683 244 683T303 682T364 680T423 681T482 683Q496 683 496 670Q496 658 490 655T466 652Q420 652 407 645T387 612L366 528H640L662 616Q666 630 666 635Q666 646 652 649T608 652Q597 652
593 652T585 655T581 664Q581 683 600 683T659 682T720 680T779 681T838 683Q852 683 852 670Q852 658 846 655T822 652Q776 652 763 645T743 612L722 528H803Q809 528 812 524T814 513ZM633 498H359L327 371H601L633 498Z" />
<glyph unicode="&#x127;" glyph-name="hbar" horiz-adv-x="511" d="M535 143Q535 140 531 125T517 87T493 42T457 5T408 -11Q373 -11 353 12T332 69Q332 91 348 133Q406 299 406 354Q406 420 360 420Q286 420 227 325Q208 291 199 255Q196 244 191 223T183 190L140
17Q137 7 127 -2T103 -11Q90 -11 83 -3T75 15Q76 26 77 28L204 533H152Q138 533 141 548Q145 563 160 563H211L225 618Q228 632 228 635Q228 641 226 644T213 649T178 652Q154 652 154 663Q154 672 157 676T165 682T177 684L276 692Q282 694 292 694Q306 694 306
682Q304 672 303 669L277 563H397Q403 563 406 559T408 548Q405 533 389 533H269L230 377Q252 398 264 408T304 430T363 442Q407 442 437 418T467 338Q467 277 406 115Q388 61 388 40Q388 11 410 11Q466 11 503 136Q506 148 508 150T520 153Q535 153 535 143Z"
/>
<glyph unicode="&#x128;" glyph-name="Itilde" horiz-adv-x="386" d="M338 19Q338 0 318 0T257 1T194 3T132 2T71 0Q57 0 57 13Q57 25 63 28T87 31Q136 31 150 38T171 72L307 616Q310 625 310 635Q310 646 295 649T247 652Q235 652 231 652T223 656T220 665Q220
683 239 683Q260 683 302 682T364 680Q385 680 426 681T487 683Q501 683 501 671Q501 658 495 655T470 652Q421 652 407 645T387 611L252 71L248 49Q248 42 250 39T266 34T310 31Q322 31 326 31T334 28T338 19ZM551 836T551 826T502 776T423 736Q396 736 372 775Q356
802 340 802Q327 802 305 788T266 758L251 744Q242 737 238 737Q227 737 227 747Q227 752 240 765T266 790L280 801Q327 837 354 837Q372 837 383 827T408 794T437 771Q456 771 488 795T527 829Q534 836 540 836Q551 836 551 826Z" />
<glyph unicode="&#x129;" glyph-name="itilde" horiz-adv-x="307" d="M331 143Q331 140 327 126T313 88T290 42T253 5T204 -11Q167 -11 148 13T128 69Q128 89 146 138L183 237L213 320Q231 369 231 392Q231 420 209 420Q150 420 116 294Q113 283 110 281T98 278Q83
278 83 288Q83 291 87 306T101 344T125 389T162 426T211 442Q242 442 264 422T286 362Q286 341 274 306L210 135Q184 61 184 39Q184 11 206 11Q265 11 299 136Q302 148 304 150T316 153Q331 153 331 143ZM466 650T466 640T417 590T338 550Q311 550 287 589Q271
616 255 616Q242 616 220 602T182 572L166 558Q157 551 153 551Q142 551 142 561Q142 566 155 579T182 604L195 615Q242 651 269 651Q287 651 298 641T323 608T352 585Q371 585 403 609T442 643Q449 650 455 650Q466 650 466 640Z" />
<glyph unicode="&#x12a;" glyph-name="Imacron" horiz-adv-x="386" d="M338 19Q338 0 318 0T257 1T194 3T132 2T71 0Q57 0 57 13Q57 25 63 28T87 31Q136 31 150 38T171 72L307 616Q310 625 310 635Q310 646 295 649T247 652Q235 652 231 652T223 656T220 665Q220
683 239 683Q260 683 302 682T364 680Q385 680 426 681T487 683Q501 683 501 671Q501 658 495 655T470 652Q421 652 407 645T387 611L252 71L248 49Q248 42 250 39T266 34T310 31Q322 31 326 31T334 28T338 19ZM551 775Q551 762 545 759T524 756H244Q234 756 230
756T222 760T219 769Q219 781 225 783T246 786H526Q551 786 551 775Z" />
<glyph unicode="&#x12b;" glyph-name="imacron" horiz-adv-x="307" d="M331 143Q331 140 327 126T313 88T290 42T253 5T204 -11Q167 -11 148 13T128 69Q128 89 146 138L183 237L213 320Q231 369 231 392Q231 420 209 420Q150 420 116 294Q113 283 110 281T98 278Q83
278 83 288Q83 291 87 306T101 344T125 389T162 426T211 442Q242 442 264 422T286 362Q286 341 274 306L210 135Q184 61 184 39Q184 11 206 11Q265 11 299 136Q302 148 304 150T316 153Q331 153 331 143ZM470 605Q470 592 464 589T443 586H163Q153 586 149 586T141
590T138 599Q138 611 144 613T165 616H445Q470 616 470 605Z" />
<glyph unicode="&#x12c;" glyph-name="Ibreve" horiz-adv-x="386" d="M338 19Q338 0 318 0T257 1T194 3T132 2T71 0Q57 0 57 13Q57 25 63 28T87 31Q136 31 150 38T171 72L307 616Q310 625 310 635Q310 646 295 649T247 652Q235 652 231 652T223 656T220 665Q220
683 239 683Q260 683 302 682T364 680Q385 680 426 681T487 683Q501 683 501 671Q501 658 495 655T470 652Q421 652 407 645T387 611L252 71L248 49Q248 42 250 39T266 34T310 31Q322 31 326 31T334 28T338 19ZM557 906Q557 888 538 852T475 781T381 746T302 780T274
864Q274 916 291 916Q302 916 302 905Q297 882 297 872Q297 834 320 808T385 782Q426 782 470 813T533 902Q538 916 546 916Q557 916 557 906Z" />
<glyph unicode="&#x12d;" glyph-name="ibreve" horiz-adv-x="307" d="M331 143Q331 140 327 126T313 88T290 42T253 5T204 -11Q167 -11 148 13T128 69Q128 89 146 138L183 237L213 320Q231 369 231 392Q231 420 209 420Q150 420 116 294Q113 283 110 281T98 278Q83
278 83 288Q83 291 87 306T101 344T125 389T162 426T211 442Q242 442 264 422T286 362Q286 341 274 306L210 135Q184 61 184 39Q184 11 206 11Q265 11 299 136Q302 148 304 150T316 153Q331 153 331 143ZM461 676Q461 658 442 622T379 551T285 516T206 550T178
634Q178 686 195 686Q206 686 206 675Q201 652 201 642Q201 604 224 578T289 552Q330 552 374 583T437 672Q442 686 450 686Q461 686 461 676Z" />
<glyph unicode="&#x12e;" glyph-name="Iogonek" horiz-adv-x="386" d="M305 -115Q284 -157 244 -184T166 -211Q119 -211 93 -184T75 -121Q90 -56 182 3L71 0Q57 0 57 13Q57 25 63 28T87 31Q136 31 150 38T171 72L307 616Q310 625 310 635Q310 646 295 649T247
652Q235 652 231 652T223 656T220 665Q220 683 239 683Q260 683 302 682T364 680Q385 680 426 681T487 683Q501 683 501 671Q501 658 495 655T470 652Q421 652 407 645T387 611L252 71L248 49Q248 42 250 39T266 34T310 31Q322 31 326 31T334 28T338 19Q338 0 318
0L226 3Q201 -12 182 -27Q137 -58 128 -95Q121 -127 145 -145T200 -164Q252 -164 289 -108Q294 -100 301 -103T305 -115Z" />
<glyph unicode="&#x12f;" glyph-name="iogonek" horiz-adv-x="307" d="M326 623Q326 603 311 589T278 575Q265 575 255 583T244 608Q244 628 259 642T292 656Q305 656 315 648T326 623ZM285 -115Q264 -157 224 -184T146 -211Q99 -211 73 -184T55 -121Q68 -58 160
2Q128 24 128 69Q128 89 146 138L183 237L213 320Q231 369 231 392Q231 420 209 420Q150 420 116 294Q113 283 110 281T98 278Q83 278 83 288Q83 291 87 306T101 344T125 389T162 426T211 442Q242 442 264 422T286 362Q286 341 274 306L210 135Q184 61 184 39Q184
11 206 11Q265 11 299 136Q302 148 304 150T316 153Q331 153 331 143Q331 140 327 126T313 88T290 42T253 5T204 -11Q198 -11 186 -9L161 -27Q116 -58 108 -95Q101 -127 125 -145T180 -164Q232 -164 269 -108Q274 -100 281 -103T285 -115Z" />
<glyph unicode="&#x130;" glyph-name="Idot" horiz-adv-x="386" d="M338 19Q338 0 318 0T257 1T194 3T132 2T71 0Q57 0 57 13Q57 25 63 28T87 31Q136 31 150 38T171 72L307 616Q310 625 310 635Q310 646 295 649T247 652Q235 652 231 652T223 656T220 665Q220
683 239 683Q260 683 302 682T364 680Q385 680 426 681T487 683Q501 683 501 671Q501 658 495 655T470 652Q421 652 407 645T387 611L252 71L248 49Q248 42 250 39T266 34T310 31Q322 31 326 31T334 28T338 19ZM450 821Q450 797 430 778T386 758Q365 758 353 770T341
801Q341 825 361 844T405 864Q426 864 438 851T450 821Z" />
<glyph unicode="&#x131;" glyph-name="dotlessi" horiz-adv-x="307" d="M331 143Q331 140 327 126T313 88T290 42T253 5T204 -11Q167 -11 148 13T128 69Q128 89 146 138L183 237L213 320Q231 369 231 392Q231 420 209 420Q150 420 116 294Q113 283 110 281T98
278Q83 278 83 288Q83 291 87 306T101 344T125 389T162 426T211 442Q242 442 264 422T286 362Q286 341 274 306L210 135Q184 61 184 39Q184 11 206 11Q265 11 299 136Q302 148 304 150T316 153Q331 153 331 143Z" />
<glyph unicode="&#x132;" glyph-name="I_J" horiz-adv-x="872" d="M338 19Q338 0 318 0T257 1T194 3T132 2T71 0Q57 0 57 13Q57 25 63 28T87 31Q136 31 150 38T171 72L307 616Q310 625 310 635Q310 646 295 649T247 652Q235 652 231 652T223 656T220 665Q220 683
239 683Q260 683 302 682T364 680Q385 680 426 681T487 683Q501 683 501 671Q501 658 495 655T470 652Q421 652 407 645T387 611L252 71L248 49Q248 42 250 39T266 34T310 31Q322 31 326 31T334 28T338 19ZM969 671Q969 658 963 655T943 652Q910 652 900 645T884
616L767 144Q750 75 690 27T559 -22Q509 -22 475 7T441 86Q441 108 447 123T462 146T480 158T495 162T503 163Q520 163 532 153T544 124Q544 103 528 84T484 65Q475 65 473 66Q479 36 502 18T557 0Q597 0 635 43T688 145L804 611Q808 625 808 631Q808 641 803 644T778
650Q760 652 732 652H720Q710 652 706 652T699 655T695 664Q695 683 716 683Q738 683 783 682T852 680Q869 680 904 681T955 683Q969 683 969 671Z" />
<glyph unicode="&#x133;" glyph-name="i_j" horiz-adv-x="583" d="M336 611Q336 587 316 568T272 548Q251 548 239 560T227 591Q227 615 247 634T291 654Q312 654 324 641T336 611ZM499 -55Q483 -118 432 -161T322 -205Q288 -205 265 -190T241 -147Q241 -121 257
-108T290 -94Q308 -94 316 -104T325 -126Q325 -131 323 -138T312 -157T287 -174Q305 -183 321 -183Q363 -183 393 -142T435 -52L530 329Q537 357 537 380Q537 420 510 420Q443 420 393 295Q390 286 388 283T384 279T374 278Q359 278 359 288Q359 291 365 306T384
345T414 389T457 426T511 442Q551 442 574 416T597 352Q597 334 592 319L499 -55ZM331 143Q331 140 327 126T313 88T290 42T253 5T204 -11Q167 -11 148 13T128 69Q128 89 146 138L183 237L213 320Q231 369 231 392Q231 420 209 420Q150 420 116 294Q113 283 110
281T98 278Q83 278 83 288Q83 291 87 306T101 344T125 389T162 426T211 442Q242 442 264 422T286 362Q286 341 274 306L210 135Q184 61 184 39Q184 11 206 11Q265 11 299 136Q302 148 304 150T316 153Q331 153 331 143ZM643 611Q643 587 623 568T579 548Q558 548
546 560T534 591Q534 615 554 634T598 654Q619 654 631 641T643 611Z" />
<glyph unicode="&#x134;" glyph-name="Jcircumflex" horiz-adv-x="525" d="M622 671Q622 658 616 655T596 652Q564 652 553 645T537 616L420 144Q403 75 343 27T212 -22Q162 -22 128 7T94 86Q94 108 100 123T115 146T133 158T148 162T156 163Q173 163 185 153T197
124Q197 103 181 84T137 65Q128 65 126 66Q132 36 155 18T210 0Q250 0 288 43T341 145L457 611Q461 625 461 631Q461 641 456 644T431 650Q413 652 385 652H373Q363 652 359 652T352 655T348 664Q348 683 369 683Q391 683 436 682T505 680Q522 680 557 681T608
683Q622 683 622 671ZM643 755Q649 750 642 742T628 737L516 792L376 737Q370 735 366 738T363 746T370 755L525 853Q532 856 537 853L643 755Z" />
<glyph unicode="&#x135;" glyph-name="jcircumflex" horiz-adv-x="307" d="M223 -55Q208 -115 160 -160T52 -205Q19 -205 -8 -191T-35 -146Q-35 -122 -19 -108T14 -94Q32 -94 40 -104T49 -126Q48 -162 13 -173Q31 -183 53 -183Q86 -183 112 -151T147 -93T158 -56L254
329Q261 357 261 380Q261 420 234 420Q167 420 117 295Q114 286 112 283T108 279T98 278Q83 278 83 288Q83 291 89 306T108 345T138 389T181 426T235 442Q275 442 298 416T321 352Q321 334 316 319L223 -55ZM425 536Q430 529 422 522T407 520L309 619L161 520Q152
514 147 521T150 536L316 680Q325 688 331 680L425 536Z" />
<glyph unicode="&#x136;" glyph-name="Kcommaaccent" horiz-adv-x="769" d="M709 19Q709 0 692 0Q678 0 647 1T601 3Q582 3 545 2T489 0Q475 0 475 13Q475 31 494 31Q545 31 545 64Q545 69 539 84L435 363L296 248L261 104Q248 57 248 48Q248 42 250 39T265 34T306
31Q318 31 322 31T330 27T333 18Q333 0 314 0T255 1T194 3T135 2T76 0Q62 0 62 12Q62 25 68 28T89 31Q138 31 151 38T171 73L306 616Q310 630 310 635Q310 646 296 649T252 652Q241 652 237 652T229 655T225 664Q225 683 244 683T303 682T364 680T423 681T482 683Q496
683 496 670Q496 658 490 655T466 652Q420 652 407 645T387 612L308 293L660 586Q693 613 693 632Q693 650 667 652Q653 652 653 664Q653 683 672 683Q689 683 725 682T779 680Q791 680 814 681T848 683Q859 683 859 671Q859 654 841 652Q776 646 684 570L500 417L631
70Q640 47 652 40T691 31Q709 31 709 19ZM397 -110Q397 -150 373 -194T324 -264T291 -290T283 -283Q283 -280 293 -270Q363 -210 377 -134Q362 -145 346 -145Q313 -145 313 -114Q313 -96 327 -81T362 -66Q397 -66 397 -110Z" />
<glyph unicode="&#x137;" glyph-name="kcommaaccent" horiz-adv-x="460" d="M484 143Q484 140 480 124T467 83T448 41Q418 -11 371 -11Q338 -11 313 13T287 86Q287 103 291 120Q294 134 294 145Q294 172 276 191T237 218T193 229L142 26Q134 -11 103 -11Q90 -11
83 -3T75 15Q76 26 77 28L225 618Q228 632 228 635Q228 641 226 644T213 649T178 652Q154 652 154 663Q154 672 157 676T165 682T177 684L276 692Q282 694 292 694Q306 694 306 682Q304 672 303 669L201 261Q227 273 246 291T309 360Q379 442 439 442Q470 442 486
424T502 382Q502 356 487 341T452 326Q434 326 426 336T417 358Q417 365 419 373T433 393T464 408Q456 420 437 420Q413 420 388 404T347 371T296 315Q254 267 225 249Q358 230 358 145Q358 131 353 110Q345 70 345 54Q345 11 374 11Q390 11 402 21T424 52T438
89T450 130Q454 146 457 149T469 153Q484 153 484 143ZM242 -110Q242 -150 218 -194T169 -264T136 -290T128 -283Q128 -280 138 -270Q208 -210 222 -134Q207 -145 191 -145Q158 -145 158 -114Q158 -96 172 -81T207 -66Q242 -66 242 -110Z" />
<glyph unicode="&#x139;" glyph-name="Lacute" horiz-adv-x="627" d="M624 246L620 233L544 18Q539 5 535 3T515 0H87Q77 0 73 0T66 3T62 12Q62 25 68 28T89 31Q138 31 151 38T171 73L306 616Q310 630 310 635Q310 646 296 649T252 652Q241 652 237 652T229 655T225
664Q225 683 244 683Q264 683 305 682T367 680Q390 680 436 681T505 683Q520 683 520 671Q520 658 514 655T492 652H482Q424 652 409 644T386 607L250 63Q250 62 248 54T246 41T247 35T255 32T277 31H358Q403 31 439 45T497 76T539 126T567 179T589 236Q595 251
597 254T609 258Q624 258 624 246ZM553 873Q550 856 528 845L348 752Q337 746 333 747Q328 748 324 754T320 766Q322 772 332 779L497 895Q514 906 525 906Q539 906 547 897T553 873Z" />
<glyph unicode="&#x13a;" glyph-name="lacute" horiz-adv-x="256" d="M280 143Q280 141 276 124T265 82T249 41Q222 -11 178 -11Q142 -11 118 14T94 79Q94 94 100 118L225 618Q228 632 228 635Q228 641 226 644T213 649T178 652Q154 652 154 663Q154 672 157 676T165
682T177 684L276 692Q282 694 292 694Q306 694 306 682Q304 672 303 669L160 98Q154 74 154 52Q154 11 180 11Q217 11 244 123L251 148Q254 153 265 153Q280 153 280 143ZM486 884Q483 867 461 856L281 763Q270 757 266 758Q261 759 257 765T253 777Q255 783 265
790L430 906Q446 917 458 917Q472 917 480 908T486 884Z" />
<glyph unicode="&#x13b;" glyph-name="Lcommaaccent" horiz-adv-x="627" d="M624 246L620 233L544 18Q539 5 535 3T515 0H87Q77 0 73 0T66 3T62 12Q62 25 68 28T89 31Q138 31 151 38T171 73L306 616Q310 630 310 635Q310 646 296 649T252 652Q241 652 237 652T229
655T225 664Q225 683 244 683Q264 683 305 682T367 680Q390 680 436 681T505 683Q520 683 520 671Q520 658 514 655T492 652H482Q424 652 409 644T386 607L250 63Q250 62 248 54T246 41T247 35T255 32T277 31H358Q403 31 439 45T497 76T539 126T567 179T589 236Q595
251 597 254T609 258Q624 258 624 246ZM326 -110Q326 -150 302 -194T253 -264T220 -290T212 -283Q212 -280 222 -270Q292 -210 306 -134Q291 -145 275 -145Q242 -145 242 -114Q242 -96 256 -81T291 -66Q326 -66 326 -110Z" />
<glyph unicode="&#x13c;" glyph-name="lcommaaccent" horiz-adv-x="256" d="M280 143Q280 141 276 124T265 82T249 41Q222 -11 178 -11Q142 -11 118 14T94 79Q94 94 100 118L225 618Q228 632 228 635Q228 641 226 644T213 649T178 652Q154 652 154 663Q154 672
157 676T165 682T177 684L276 692Q282 694 292 694Q306 694 306 682Q304 672 303 669L160 98Q154 74 154 52Q154 11 180 11Q217 11 244 123L251 148Q254 153 265 153Q280 153 280 143ZM140 -110Q140 -150 116 -194T67 -264T34 -290T26 -283Q26 -280 36 -270Q106
-210 120 -134Q105 -145 89 -145Q56 -145 56 -114Q56 -96 70 -81T105 -66Q140 -66 140 -110Z" />
<glyph unicode="&#x13d;" glyph-name="Lcaron" horiz-adv-x="627" d="M624 246L620 233L544 18Q539 5 535 3T515 0H87Q77 0 73 0T66 3T62 12Q62 25 68 28T89 31Q138 31 151 38T171 73L306 616Q310 630 310 635Q310 646 296 649T252 652Q241 652 237 652T229 655T225
664Q225 683 244 683Q264 683 305 682T367 680Q390 680 436 681T505 683Q520 683 520 671Q520 658 514 655T492 652H482Q424 652 409 644T386 607L250 63Q250 62 248 54T246 41T247 35T255 32T277 31H358Q403 31 439 45T497 76T539 126T567 179T589 236Q595 251
597 254T609 258Q624 258 624 246ZM647 639Q647 599 623 555T574 485T541 459T533 466Q533 469 543 479Q613 539 627 615Q612 604 596 604Q563 604 563 635Q563 653 577 668T612 683Q647 683 647 639Z" />
<glyph unicode="&#x13e;" glyph-name="lcaron" horiz-adv-x="256" d="M280 143Q280 141 276 124T265 82T249 41Q222 -11 178 -11Q142 -11 118 14T94 79Q94 94 100 118L225 618Q228 632 228 635Q228 641 226 644T213 649T178 652Q154 652 154 663Q154 672 157 676T165
682T177 684L276 692Q282 694 292 694Q306 694 306 682Q304 672 303 669L160 98Q154 74 154 52Q154 11 180 11Q217 11 244 123L251 148Q254 153 265 153Q280 153 280 143ZM417 650Q417 610 393 566T344 496T311 470T303 477Q303 480 313 490Q383 550 397 626Q382
615 366 615Q333 615 333 646Q333 664 347 679T382 694Q417 694 417 650Z" />
<glyph unicode="&#x13f;" glyph-name="Ldot" horiz-adv-x="627" d="M624 246L620 233L544 18Q539 5 535 3T515 0H87Q77 0 73 0T66 3T62 12Q62 25 68 28T89 31Q138 31 151 38T171 73L306 616Q310 630 310 635Q310 646 296 649T252 652Q241 652 237 652T229 655T225
664Q225 683 244 683Q264 683 305 682T367 680Q390 680 436 681T505 683Q520 683 520 671Q520 658 514 655T492 652H482Q424 652 409 644T386 607L250 63Q250 62 248 54T246 41T247 35T255 32T277 31H358Q403 31 439 45T497 76T539 126T567 179T589 236Q595 251
597 254T609 258Q624 258 624 246ZM664 418Q664 394 644 375T600 355Q579 355 567 367T555 398Q555 422 575 441T619 461Q640 461 652 448T664 418Z" />
<glyph unicode="&#x140;" glyph-name="ldot" horiz-adv-x="256" d="M280 143Q280 141 276 124T265 82T249 41Q222 -11 178 -11Q142 -11 118 14T94 79Q94 94 100 118L225 618Q228 632 228 635Q228 641 226 644T213 649T178 652Q154 652 154 663Q154 672 157 676T165
682T177 684L276 692Q282 694 292 694Q306 694 306 682Q304 672 303 669L160 98Q154 74 154 52Q154 11 180 11Q217 11 244 123L251 148Q254 153 265 153Q280 153 280 143ZM378 379Q378 355 358 336T314 316Q293 316 281 328T269 359Q269 383 289 402T333 422Q354
422 366 409T378 379Z" />
<glyph unicode="&#x141;" glyph-name="Lslash" horiz-adv-x="627" d="M624 246L620 233L544 18Q539 5 535 3T515 0H87Q77 0 73 0T66 3T62 12Q62 25 68 28T89 31Q138 31 151 38T171 73L227 299L160 245L138 270L240 350L306 616L310 635Q310 646 296 649T252 652Q241
652 237 652T229 655T225 664Q225 683 244 683Q264 683 305 682T367 680Q390 680 436 681T505 683Q520 683 520 671Q520 658 514 655T492 652H482Q424 652 409 644T386 607L342 432L475 537L495 511L330 380L250 63Q246 51 246 41Q246 37 247 35T255 32T277 31H358Q403
31 439 45T497 76T539 126T567 179T589 236Q595 251 597 254T609 258Q624 258 624 246Z" />
<glyph unicode="&#x142;" glyph-name="lslash" horiz-adv-x="319" d="M320 143Q320 141 316 124T305 82T289 41Q262 -11 218 -11Q182 -11 158 14T134 79Q134 94 140 118L185 297L127 254L111 274L195 338L265 618Q268 632 268 635Q268 641 266 644T253 649T218
652Q194 652 194 663Q194 672 197 676T205 682T217 684L316 692Q322 694 332 694Q346 694 346 682Q344 672 343 669L274 396L333 440L349 419L265 356L200 98Q194 74 194 52Q194 11 220 11Q257 11 284 123L291 148Q294 153 305 153Q320 153 320 143Z" />
<glyph unicode="&#x143;" glyph-name="Nacute" horiz-adv-x="743" d="M852 670Q852 652 837 652Q752 649 736 584L596 20Q592 7 589 4T576 0Q566 0 563 2T556 17L341 614L212 99Q208 83 208 74Q208 66 209 61T216 48T234 37T267 31Q286 31 286 18Q286 0 268 0Q253
0 220 1T170 3T122 2T75 0Q62 0 62 12Q62 31 81 31Q161 34 178 101L310 631L313 644Q313 652 252 652Q241 652 237 652T229 655T225 664Q225 677 231 680T252 683H377Q393 683 396 681T405 666L592 146L702 585Q706 601 706 609Q706 650 646 652Q628 652 628 664Q628
683 646 683Q661 683 694 682T743 680T791 681T839 683Q852 683 852 670ZM727 873Q724 856 702 845L522 752Q511 746 507 747Q502 748 498 754T494 766Q496 772 506 779L671 895Q688 906 699 906Q713 906 721 897T727 873Z" />
<glyph unicode="&#x144;" glyph-name="nacute" horiz-adv-x="562" d="M586 143Q586 140 582 125T568 87T544 42T508 5T459 -11Q424 -11 404 12T383 69Q383 91 399 133Q457 299 457 354Q457 420 411 420Q334 420 276 321Q259 293 246 240Q244 229 238 208T230 175L190
15Q180 -11 154 -11Q140 -11 133 -3T126 15Q126 20 129 29L204 329Q211 357 211 380Q211 420 185 420Q163 420 148 390T117 301Q113 285 111 282T98 278Q83 278 83 288Q96 349 115 389Q143 442 187 442Q220 442 243 421T271 363Q281 378 295 393T343 425T414 442Q458
442 488 418T518 338Q518 277 457 115Q439 61 439 40Q439 11 461 11Q517 11 554 136Q557 148 559 150T571 153Q586 153 586 143ZM565 668Q565 649 545 636L384 513Q375 505 370 505T360 510T354 522Q354 527 364 537L506 679Q523 696 537 696Q547 696 556 689T565
668Z" />
<glyph unicode="&#x145;" glyph-name="Ncommaaccent" horiz-adv-x="743" d="M852 670Q852 652 837 652Q752 649 736 584L596 20Q592 7 589 4T576 0Q566 0 563 2T556 17L341 614L212 99Q208 83 208 74Q208 66 209 61T216 48T234 37T267 31Q286 31 286 18Q286 0
268 0Q253 0 220 1T170 3T122 2T75 0Q62 0 62 12Q62 31 81 31Q161 34 178 101L310 631L313 644Q313 652 252 652Q241 652 237 652T229 655T225 664Q225 677 231 680T252 683H377Q393 683 396 681T405 666L592 146L702 585Q706 601 706 609Q706 650 646 652Q628
652 628 664Q628 683 646 683Q661 683 694 682T743 680T791 681T839 683Q852 683 852 670ZM384 -110Q384 -150 360 -194T311 -264T278 -290T270 -283Q270 -280 280 -270Q350 -210 364 -134Q349 -145 333 -145Q300 -145 300 -114Q300 -96 314 -81T349 -66Q384 -66
384 -110Z" />
<glyph unicode="&#x146;" glyph-name="ncommaaccent" horiz-adv-x="562" d="M586 143Q586 140 582 125T568 87T544 42T508 5T459 -11Q424 -11 404 12T383 69Q383 91 399 133Q457 299 457 354Q457 420 411 420Q334 420 276 321Q259 293 246 240Q244 229 238 208T230
175L190 15Q180 -11 154 -11Q140 -11 133 -3T126 15Q126 20 129 29L204 329Q211 357 211 380Q211 420 185 420Q163 420 148 390T117 301Q113 285 111 282T98 278Q83 278 83 288Q96 349 115 389Q143 442 187 442Q220 442 243 421T271 363Q281 378 295 393T343 425T414
442Q458 442 488 418T518 338Q518 277 457 115Q439 61 439 40Q439 11 461 11Q517 11 554 136Q557 148 559 150T571 153Q586 153 586 143ZM294 -110Q294 -150 270 -194T221 -264T188 -290T180 -283Q180 -280 190 -270Q260 -210 274 -134Q259 -145 243 -145Q210 -145
210 -114Q210 -96 224 -81T259 -66Q294 -66 294 -110Z" />
<glyph unicode="&#x147;" glyph-name="Ncaron" horiz-adv-x="743" d="M852 670Q852 652 837 652Q752 649 736 584L596 20Q592 7 589 4T576 0Q566 0 563 2T556 17L341 614L212 99Q208 83 208 74Q208 66 209 61T216 48T234 37T267 31Q286 31 286 18Q286 0 268 0Q253
0 220 1T170 3T122 2T75 0Q62 0 62 12Q62 31 81 31Q161 34 178 101L310 631L313 644Q313 652 252 652Q241 652 237 652T229 655T225 664Q225 677 231 680T252 683H377Q393 683 396 681T405 666L592 146L702 585Q706 601 706 609Q706 650 646 652Q628 652 628 664Q628
683 646 683Q661 683 694 682T743 680T791 681T839 683Q852 683 852 670ZM716 836L561 738Q554 735 549 738L443 836Q437 841 444 849T458 854L570 799L710 854Q716 856 720 853T723 845T716 836Z" />
<glyph unicode="&#x148;" glyph-name="ncaron" horiz-adv-x="562" d="M586 143Q586 140 582 125T568 87T544 42T508 5T459 -11Q424 -11 404 12T383 69Q383 91 399 133Q457 299 457 354Q457 420 411 420Q334 420 276 321Q259 293 246 240Q244 229 238 208T230 175L190
15Q180 -11 154 -11Q140 -11 133 -3T126 15Q126 20 129 29L204 329Q211 357 211 380Q211 420 185 420Q163 420 148 390T117 301Q113 285 111 282T98 278Q83 278 83 288Q96 349 115 389Q143 442 187 442Q220 442 243 421T271 363Q281 378 295 393T343 425T414 442Q458
442 488 418T518 338Q518 277 457 115Q439 61 439 40Q439 11 461 11Q517 11 554 136Q557 148 559 150T571 153Q586 153 586 143ZM586 665L420 521Q411 514 405 521L311 665Q306 672 314 679T329 681L428 582L575 681Q584 687 589 680T586 665Z" />
<glyph unicode="&#x14a;" glyph-name="Eng" horiz-adv-x="743" d="M796 342Q778 272 751 209T685 93T597 9T490 -22Q474 -22 465 -11T460 18Q465 35 479 46T510 58Q527 58 535 46T540 18V16Q566 27 588 53T625 106T656 181T680 258T702 342Q718 406 720 464T710
570T664 646T578 675Q522 675 468 645T375 564L252 71L248 49Q248 42 250 39T266 34T310 31Q322 31 326 31T334 28T338 19Q338 0 318 0T257 1T194 3T132 2T71 0Q57 0 57 13Q57 25 63 28T87 31Q136 31 150 38T171 72L307 616Q310 625 310 635Q310 646 295 649T247
652Q235 652 231 652T223 656T220 665Q220 683 239 683Q260 683 302 682T364 680T405 683L389 617Q477 705 585 705Q650 705 700 675T775 595T808 479T796 342Z" />
<glyph unicode="&#x14b;" glyph-name="eng" horiz-adv-x="498" d="M518 338Q518 297 491 218T459 124Q448 79 442 55T423 -11T400 -76T373 -130T341 -177T302 -204T255 -216Q242 -216 235 -207T231 -184Q235 -171 246 -162T271 -152Q288 -152 295 -168Q336 -120
397 124Q400 134 428 222T457 354Q457 420 411 420Q334 420 276 321Q259 293 246 240Q244 229 238 208T230 175L190 15Q180 -11 154 -11Q140 -11 133 -3T126 15Q126 20 129 29L204 329Q211 357 211 380Q211 420 185 420Q163 420 148 390T117 301Q113 285 111 282T98
278Q83 278 83 288Q96 349 115 389Q143 442 187 442Q220 442 243 421T271 363Q281 378 295 393T343 425T414 442Q458 442 488 418T518 338Z" />
<glyph unicode="&#x14c;" glyph-name="Omacron" horiz-adv-x="767" d="M788 444Q788 327 728 218T572 44T378 -22Q276 -22 212 50T148 236Q148 349 207 458T363 636T560 705Q658 705 723 635T788 444ZM703 486Q703 581 660 630T553 680Q489 680 426 633T322 513Q276
433 257 346T238 205Q238 115 277 60T385 4Q443 4 505 48T614 174Q653 241 678 330T703 486ZM742 775Q742 762 736 759T715 756H435Q425 756 421 756T413 760T410 769Q410 781 416 783T437 786H717Q742 786 742 775Z" />
<glyph unicode="&#x14d;" glyph-name="omacron" horiz-adv-x="511" d="M509 278Q509 169 430 79T256 -11Q192 -11 151 33T110 154Q110 263 189 352T363 442Q428 442 468 396T509 278ZM439 317Q439 362 419 391T362 420Q331 420 298 397T238 329Q215 290 198 222T180
114Q180 63 202 37T256 11Q292 11 327 39T385 111Q407 153 423 217T439 317ZM572 605Q572 592 566 589T545 586H265Q255 586 251 586T243 590T240 599Q240 611 246 613T267 616H547Q572 616 572 605Z" />
<glyph unicode="&#x14e;" glyph-name="Obreve" horiz-adv-x="767" d="M788 444Q788 327 728 218T572 44T378 -22Q276 -22 212 50T148 236Q148 349 207 458T363 636T560 705Q658 705 723 635T788 444ZM703 486Q703 581 660 630T553 680Q489 680 426 633T322 513Q276
433 257 346T238 205Q238 115 277 60T385 4Q443 4 505 48T614 174Q653 241 678 330T703 486ZM748 906Q748 888 729 852T666 781T572 746T493 780T465 864Q465 916 482 916Q493 916 493 905Q488 882 488 872Q488 834 511 808T576 782Q617 782 661 813T724 902Q729
916 737 916Q748 916 748 906Z" />
<glyph unicode="&#x14f;" glyph-name="obreve" horiz-adv-x="511" d="M509 278Q509 169 430 79T256 -11Q192 -11 151 33T110 154Q110 263 189 352T363 442Q428 442 468 396T509 278ZM439 317Q439 362 419 391T362 420Q331 420 298 397T238 329Q215 290 198 222T180
114Q180 63 202 37T256 11Q292 11 327 39T385 111Q407 153 423 217T439 317ZM563 676Q563 658 544 622T481 551T387 516T308 550T280 634Q280 686 297 686Q308 686 308 675Q303 652 303 642Q303 604 326 578T391 552Q432 552 476 583T539 672Q544 686 552 686Q563
686 563 676Z" />
<glyph unicode="&#x150;" glyph-name="Ohungarumlaut" horiz-adv-x="767" d="M788 444Q788 327 728 218T572 44T378 -22Q276 -22 212 50T148 236Q148 349 207 458T363 636T560 705Q658 705 723 635T788 444ZM703 486Q703 581 660 630T553 680Q489 680 426 633T322
513Q276 433 257 346T238 205Q238 115 277 60T385 4Q443 4 505 48T614 174Q653 241 678 330T703 486ZM611 909Q611 898 595 879L488 755Q480 746 475 746T464 750T457 761Q457 763 464 775L548 913Q562 936 582 936Q594 936 602 929T611 909ZM764 909Q764 898 748
879L641 755Q633 746 628 746T617 750T610 761Q610 763 617 775L701 913Q715 936 735 936Q747 936 755 929T764 909Z" />
<glyph unicode="&#x151;" glyph-name="ohungarumlaut" horiz-adv-x="511" d="M509 278Q509 169 430 79T256 -11Q192 -11 151 33T110 154Q110 263 189 352T363 442Q428 442 468 396T509 278ZM439 317Q439 362 419 391T362 420Q331 420 298 397T238 329Q215 290
198 222T180 114Q180 63 202 37T256 11Q292 11 327 39T385 111Q407 153 423 217T439 317ZM423 669Q423 658 407 639L300 515Q292 506 287 506T276 510T269 521Q269 523 276 535L360 673Q374 696 394 696Q406 696 414 689T423 669ZM576 669Q576 658 560 639L453
515Q445 506 440 506T429 510T422 521Q422 523 429 535L513 673Q527 696 547 696Q559 696 567 689T576 669Z" />
<glyph unicode="&#x152;" glyph-name="OE" horiz-adv-x="985" d="M994 247Q991 237 990 235L901 16Q896 5 892 3T873 0H541Q510 0 458 -12Q416 -22 390 -22Q291 -22 227 49T162 236Q162 350 222 459T378 637T572 705Q599 705 634 695Q682 683 712 683H1026Q1038
683 1042 682T1049 676T1050 658L1027 481Q1026 473 1026 470T1023 463T1018 459T1010 458Q994 458 994 470L996 483L1002 548Q1002 613 972 633Q945 652 877 652H774Q748 652 740 647T725 616L664 370H761Q825 370 848 390T887 468Q889 480 892 483T904 487Q920
487 920 475Q920 471 917 462L862 241Q859 229 856 226T844 222Q828 222 828 234L831 248Q839 276 839 294Q839 318 824 328T758 339H656L587 63Q587 62 585 54T583 41T584 35T592 32T614 31H717Q771 31 807 41T870 79T913 136T952 221Q965 253 968 255Q971 258
979 258Q994 258 994 247ZM630 523Q643 573 643 618Q643 631 642 638T634 658T611 677T568 683Q496 683 423 619T301 446T253 220Q253 122 292 61T398 0Q461 0 489 39T545 185L630 523Z" />
<glyph unicode="&#x153;" glyph-name="oe" horiz-adv-x="716" d="M699 104Q699 98 685 80T647 42T587 5T512 -11Q423 -11 386 88Q350 37 308 13T230 -12Q173 -12 141 33T108 143Q108 252 180 347T339 443Q416 443 445 355Q453 365 470 381T531 419T619 442T691
418T719 357Q719 350 717 341T709 315T687 283T648 257Q590 231 495 231H448Q433 169 433 129Q433 84 452 48T513 11Q547 11 589 33T670 110Q679 120 683 120Q689 120 694 114T699 104ZM681 359Q681 385 665 402T618 420Q605 420 590 416T555 401T518 372T483 324T454
253H481Q681 253 681 359ZM397 283T397 325T383 394T338 421Q305 421 275 388T225 309Q210 274 193 205T176 99Q176 87 178 75T185 47T202 20T231 10Q249 10 268 20T301 48T325 78T340 102Q362 144 379 213Z" />
<glyph unicode="&#x154;" glyph-name="Racute" horiz-adv-x="729" d="M723 92Q723 83 713 59T675 6T609 -22Q557 -22 521 5T485 84Q485 100 500 164Q517 232 517 243Q517 292 490 311T423 331H315L250 68Q246 54 246 48T248 39T263 34T304 31Q316 31 320 31T328
27T331 18Q331 0 312 0Q292 0 252 1T193 3T135 2T77 0Q63 0 63 12Q63 25 69 28T90 31Q139 31 152 38T172 73L307 616Q311 630 311 635Q311 646 297 649T253 652Q242 652 238 652T230 655T226 664Q226 677 232 680T253 683H517Q608 683 663 640T718 535Q718 476
664 421T508 339Q547 325 570 295T594 223Q594 196 586 135Q580 83 580 59Q580 40 582 29T591 9T613 0Q637 0 657 23T691 88Q693 95 694 98T698 103T708 105Q723 105 723 92ZM628 558Q628 585 617 604T591 632T550 646T509 651T466 652Q415 652 408 650Q393 646
386 616L321 353H422Q516 353 570 405Q594 429 608 468T625 527T628 558ZM720 873Q717 856 695 845L515 752Q504 746 500 747Q495 748 491 754T487 766Q489 772 499 779L664 895Q680 906 692 906Q706 906 714 897T720 873Z" />
<glyph unicode="&#x155;" glyph-name="racute" horiz-adv-x="422" d="M489 379Q489 353 473 340T440 326Q422 326 414 336T405 358Q405 363 407 370T418 389T443 406Q423 420 390 420Q366 420 344 406T307 375T280 335T264 303T258 288L193 26Q184 -11 154 -11Q140
-11 133 -3T126 15Q126 20 129 29L204 329Q211 357 211 380Q211 420 185 420Q163 420 148 390T117 301Q113 285 111 282T98 278Q83 278 83 288Q96 349 115 389Q143 442 187 442Q215 442 238 425T270 370Q322 442 391 442Q426 442 457 428T489 379ZM494 668Q494
649 474 636L313 513Q304 505 299 505T289 510T283 522Q283 527 293 537L435 679Q452 696 466 696Q476 696 485 689T494 668Z" />
<glyph unicode="&#x156;" glyph-name="Rcommaaccent" horiz-adv-x="729" d="M723 92Q723 83 713 59T675 6T609 -22Q557 -22 521 5T485 84Q485 100 500 164Q517 232 517 243Q517 292 490 311T423 331H315L250 68Q246 54 246 48T248 39T263 34T304 31Q316 31 320
31T328 27T331 18Q331 0 312 0Q292 0 252 1T193 3T135 2T77 0Q63 0 63 12Q63 25 69 28T90 31Q139 31 152 38T172 73L307 616Q311 630 311 635Q311 646 297 649T253 652Q242 652 238 652T230 655T226 664Q226 677 232 680T253 683H517Q608 683 663 640T718 535Q718
476 664 421T508 339Q547 325 570 295T594 223Q594 196 586 135Q580 83 580 59Q580 40 582 29T591 9T613 0Q637 0 657 23T691 88Q693 95 694 98T698 103T708 105Q723 105 723 92ZM628 558Q628 585 617 604T591 632T550 646T509 651T466 652Q415 652 408 650Q393
646 386 616L321 353H422Q516 353 570 405Q594 429 608 468T625 527T628 558ZM377 -110Q377 -150 353 -194T304 -264T271 -290T263 -283Q263 -280 273 -270Q343 -210 357 -134Q342 -145 326 -145Q293 -145 293 -114Q293 -96 307 -81T342 -66Q377 -66 377 -110Z"
/>
<glyph unicode="&#x157;" glyph-name="rcommaaccent" horiz-adv-x="422" d="M489 379Q489 353 473 340T440 326Q422 326 414 336T405 358Q405 363 407 370T418 389T443 406Q423 420 390 420Q366 420 344 406T307 375T280 335T264 303T258 288L193 26Q184 -11 154
-11Q140 -11 133 -3T126 15Q126 20 129 29L204 329Q211 357 211 380Q211 420 185 420Q163 420 148 390T117 301Q113 285 111 282T98 278Q83 278 83 288Q96 349 115 389Q143 442 187 442Q215 442 238 425T270 370Q322 442 391 442Q426 442 457 428T489 379ZM166
-110Q166 -150 142 -194T93 -264T60 -290T52 -283Q52 -280 62 -270Q132 -210 146 -134Q131 -145 115 -145Q82 -145 82 -114Q82 -96 96 -81T131 -66Q166 -66 166 -110Z" />
<glyph unicode="&#x158;" glyph-name="Rcaron" horiz-adv-x="729" d="M723 92Q723 83 713 59T675 6T609 -22Q557 -22 521 5T485 84Q485 100 500 164Q517 232 517 243Q517 292 490 311T423 331H315L250 68Q246 54 246 48T248 39T263 34T304 31Q316 31 320 31T328
27T331 18Q331 0 312 0Q292 0 252 1T193 3T135 2T77 0Q63 0 63 12Q63 25 69 28T90 31Q139 31 152 38T172 73L307 616Q311 630 311 635Q311 646 297 649T253 652Q242 652 238 652T230 655T226 664Q226 677 232 680T253 683H517Q608 683 663 640T718 535Q718 476
664 421T508 339Q547 325 570 295T594 223Q594 196 586 135Q580 83 580 59Q580 40 582 29T591 9T613 0Q637 0 657 23T691 88Q693 95 694 98T698 103T708 105Q723 105 723 92ZM628 558Q628 585 617 604T591 632T550 646T509 651T466 652Q415 652 408 650Q393 646
386 616L321 353H422Q516 353 570 405Q594 429 608 468T625 527T628 558ZM709 836L554 738Q547 735 542 738L436 836Q430 841 437 849T451 854L563 799L703 854Q709 856 713 853T716 845T709 836Z" />
<glyph unicode="&#x159;" glyph-name="rcaron" horiz-adv-x="422" d="M489 379Q489 353 473 340T440 326Q422 326 414 336T405 358Q405 363 407 370T418 389T443 406Q423 420 390 420Q366 420 344 406T307 375T280 335T264 303T258 288L193 26Q184 -11 154 -11Q140
-11 133 -3T126 15Q126 20 129 29L204 329Q211 357 211 380Q211 420 185 420Q163 420 148 390T117 301Q113 285 111 282T98 278Q83 278 83 288Q96 349 115 389Q143 442 187 442Q215 442 238 425T270 370Q322 442 391 442Q426 442 457 428T489 379ZM515 665L349
521Q340 514 334 521L240 665Q235 672 243 679T258 681L357 582L504 681Q513 687 518 680T515 665Z" />
<glyph unicode="&#x15a;" glyph-name="Sacute" horiz-adv-x="562" d="M538 238Q538 141 466 60T301 -22Q195 -22 148 47Q121 11 101 -10Q91 -22 85 -22Q74 -22 74 -12Q74 -10 77 1L129 210Q132 221 135 224T147 227Q162 227 162 216L161 210Q153 181 153 149Q153
77 196 43T303 9Q368 9 419 69T470 200Q470 244 448 272Q436 285 424 290T371 308L322 322Q286 332 279 335Q199 372 199 467Q199 555 270 630T431 705T561 637L606 693Q616 705 621 705Q625 705 628 703T632 698V695Q632 689 630 681L578 474Q575 462 572 459T560
456Q545 456 545 466L546 480Q551 508 551 535Q551 598 523 637T429 677Q366 677 317 623T267 506Q267 440 318 418Q329 414 373 402Q448 380 467 371T505 340Q538 299 538 238ZM637 873Q634 856 612 845L432 752Q421 746 417 747Q412 748 408 754T404 766Q406
772 416 779L581 895Q598 906 609 906Q623 906 631 897T637 873Z" />
<glyph unicode="&#x15b;" glyph-name="sacute" horiz-adv-x="409" d="M393 157Q393 141 388 122T370 78T336 35T282 2T205 -11Q150 -11 113 15T76 86Q76 117 91 132T127 148Q143 148 152 139T161 116Q161 111 160 104T146 83T110 67Q128 11 206 11Q235 11 259
19T296 41T319 70T332 99T336 123Q336 142 329 155T307 177T281 188T247 197Q234 200 226 202T203 211T178 228T162 255T154 294Q154 344 194 393T312 442Q360 442 389 418T419 357Q419 328 406 315T376 302T353 310T346 330T355 354T386 371Q372 420 311 420Q259
420 235 388T210 328Q210 308 221 296T244 279T274 271Q291 267 302 264T333 252T363 232T384 202T393 157ZM488 668Q488 649 468 636L307 513Q298 505 293 505T283 510T277 522Q277 527 287 537L429 679Q446 696 460 696Q470 696 479 689T488 668Z" />
<glyph unicode="&#x15c;" glyph-name="Scircumflex" horiz-adv-x="562" d="M538 238Q538 141 466 60T301 -22Q195 -22 148 47Q121 11 101 -10Q91 -22 85 -22Q74 -22 74 -12Q74 -10 77 1L129 210Q132 221 135 224T147 227Q162 227 162 216L161 210Q153 181 153
149Q153 77 196 43T303 9Q368 9 419 69T470 200Q470 244 448 272Q436 285 424 290T371 308L322 322Q286 332 279 335Q199 372 199 467Q199 555 270 630T431 705T561 637L606 693Q616 705 621 705Q625 705 628 703T632 698V695Q632 689 630 681L578 474Q575 462
572 459T560 456Q545 456 545 466L546 480Q551 508 551 535Q551 598 523 637T429 677Q366 677 317 623T267 506Q267 440 318 418Q329 414 373 402Q448 380 467 371T505 340Q538 299 538 238ZM606 755Q612 750 605 742T591 737L479 792L339 737Q333 735 329 738T326
746T333 755L488 853Q495 856 500 853L606 755Z" />
<glyph unicode="&#x15d;" glyph-name="scircumflex" horiz-adv-x="409" d="M393 157Q393 141 388 122T370 78T336 35T282 2T205 -11Q150 -11 113 15T76 86Q76 117 91 132T127 148Q143 148 152 139T161 116Q161 111 160 104T146 83T110 67Q128 11 206 11Q235 11
259 19T296 41T319 70T332 99T336 123Q336 142 329 155T307 177T281 188T247 197Q234 200 226 202T203 211T178 228T162 255T154 294Q154 344 194 393T312 442Q360 442 389 418T419 357Q419 328 406 315T376 302T353 310T346 330T355 354T386 371Q372 420 311 420Q259
420 235 388T210 328Q210 308 221 296T244 279T274 271Q291 267 302 264T333 252T363 232T384 202T393 157ZM476 536Q481 529 473 522T458 520L360 619L212 520Q203 514 198 521T201 536L367 680Q376 688 382 680L476 536Z" />
<glyph unicode="&#x15e;" glyph-name="Scedilla" horiz-adv-x="562" d="M538 238Q538 143 469 63T308 -22L300 -56Q361 -68 361 -111Q361 -194 165 -194H140Q127 -194 127 -183T152 -172H162Q297 -172 297 -110Q297 -77 249 -73Q234 -71 234 -60Q234 -53 245 -16Q180
0 148 47Q121 11 101 -10Q91 -22 85 -22Q74 -22 74 -12Q74 -10 77 1L129 210Q132 221 135 224T147 227Q162 227 162 216L161 210Q153 181 153 149Q153 77 196 43T303 9Q368 9 419 69T470 200Q470 244 448 272Q436 285 424 290T371 308L322 322Q286 332 279 335Q199
372 199 467Q199 555 270 630T431 705T561 637L606 693Q616 705 621 705Q625 705 628 703T632 698V695Q632 689 630 681L578 474Q575 462 572 459T560 456Q545 456 545 466L546 480Q551 508 551 535Q551 598 523 637T429 677Q366 677 317 623T267 506Q267 440 318
418Q329 414 373 402Q448 380 467 371T505 340Q538 299 538 238Z" />
<glyph unicode="&#x15f;" glyph-name="scedilla" horiz-adv-x="409" d="M393 157Q393 138 386 115T362 64T312 17T235 -9L224 -54Q285 -66 285 -109Q285 -192 89 -192H64Q51 -192 51 -181T76 -170H86Q221 -170 221 -108Q221 -75 173 -71Q158 -69 158 -58Q158 -57
160 -49T165 -28T170 -8Q128 0 102 24T76 86Q76 117 91 132T127 148Q143 148 152 139T161 116Q161 111 160 104T146 83T110 67Q128 11 206 11Q235 11 259 19T296 41T319 70T332 99T336 123Q336 142 329 155T307 177T281 188T247 197Q234 200 226 202T203 211T178
228T162 255T154 294Q154 344 194 393T312 442Q360 442 389 418T419 357Q419 328 406 315T376 302T353 310T346 330T355 354T386 371Q372 420 311 420Q259 420 235 388T210 328Q210 308 221 296T244 279T274 271Q291 267 302 264T333 252T363 232T384 202T393 157Z"
/>
<glyph unicode="&#x160;" glyph-name="Scaron" horiz-adv-x="562" d="M538 238Q538 141 466 60T301 -22Q195 -22 148 47Q121 11 101 -10Q91 -22 85 -22Q74 -22 74 -12Q74 -10 77 1L129 210Q132 221 135 224T147 227Q162 227 162 216L161 210Q153 181 153 149Q153
77 196 43T303 9Q368 9 419 69T470 200Q470 244 448 272Q436 285 424 290T371 308L322 322Q286 332 279 335Q199 372 199 467Q199 555 270 630T431 705T561 637L606 693Q616 705 621 705Q625 705 628 703T632 698V695Q632 689 630 681L578 474Q575 462 572 459T560
456Q545 456 545 466L546 480Q551 508 551 535Q551 598 523 637T429 677Q366 677 317 623T267 506Q267 440 318 418Q329 414 373 402Q448 380 467 371T505 340Q538 299 538 238ZM626 836L471 738Q464 735 459 738L353 836Q347 841 354 849T368 854L480 799L620
854Q626 856 630 853T633 845T626 836Z" />
<glyph unicode="&#x161;" glyph-name="scaron" horiz-adv-x="409" d="M393 157Q393 141 388 122T370 78T336 35T282 2T205 -11Q150 -11 113 15T76 86Q76 117 91 132T127 148Q143 148 152 139T161 116Q161 111 160 104T146 83T110 67Q128 11 206 11Q235 11 259
19T296 41T319 70T332 99T336 123Q336 142 329 155T307 177T281 188T247 197Q234 200 226 202T203 211T178 228T162 255T154 294Q154 344 194 393T312 442Q360 442 389 418T419 357Q419 328 406 315T376 302T353 310T346 330T355 354T386 371Q372 420 311 420Q259
420 235 388T210 328Q210 308 221 296T244 279T274 271Q291 267 302 264T333 252T363 232T384 202T393 157ZM509 665L343 521Q334 514 328 521L234 665Q229 672 237 679T252 681L351 582L498 681Q507 687 512 680T509 665Z" />
<glyph unicode="&#x162;" glyph-name="Tcedilla" horiz-adv-x="716" d="M775 473Q773 459 770 456T757 452Q742 452 742 465Q742 469 744 480Q754 539 754 570Q754 617 730 631T627 646Q583 646 575 644Q559 642 552 611L418 73Q414 59 414 54Q414 43 420 39T447
33Q448 33 457 33T478 32T497 31H512Q537 31 537 20Q537 0 516 0L391 3L378 -54Q439 -66 439 -109Q439 -192 243 -192H218Q205 -192 205 -181T230 -170H240Q375 -170 375 -108Q375 -75 327 -71Q312 -69 312 -58Q312 -53 326 3L204 0Q187 0 187 12Q187 25 193 28T215
31H231Q294 31 312 39T337 76L471 613Q475 625 475 635Q475 639 474 641T468 644T452 646H418Q321 646 285 618T214 484Q204 458 201 455T190 452Q175 452 175 463Q175 467 180 480L239 659Q243 672 247 674T268 677H781Q791 677 795 677T802 674T806 665Q806 656
805 652L775 473Z" />
<glyph unicode="&#x163;" glyph-name="tcedilla" horiz-adv-x="332" d="M356 143Q356 137 344 109T301 43T234 -6L223 -54Q284 -66 284 -109Q284 -192 88 -192H63Q50 -192 50 -181T75 -170H85Q220 -170 220 -108Q220 -75 172 -71Q157 -69 157 -58Q157 -55 169
-4Q119 17 119 79Q119 93 124 113L196 400H116Q106 400 102 400T95 403T91 412Q91 425 97 428T119 431H204L243 590Q253 626 282 626Q309 626 309 600Q309 593 305 579L268 431H348Q358 431 362 431T369 428T373 419Q373 406 367 403T345 400H260L186 103Q179 75
179 52Q179 11 206 11Q244 11 273 49T321 134Q327 148 329 150T341 153Q356 153 356 143Z" />
<glyph unicode="&#x164;" glyph-name="Tcaron" horiz-adv-x="716" d="M775 473Q773 459 770 456T757 452Q742 452 742 465Q742 469 744 480Q754 539 754 570Q754 617 730 631T627 646Q583 646 575 644Q559 642 552 611L418 73Q414 59 414 54Q414 43 420 39T447
33Q448 33 457 33T478 32T497 31H512Q537 31 537 20Q537 0 516 0Q491 0 438 1T359 3Q334 3 282 2T204 0Q187 0 187 12Q187 25 193 28T215 31H231Q294 31 312 39T337 76L471 613Q475 625 475 635Q475 639 474 641T468 644T452 646H418Q321 646 285 618T214 484Q204
458 201 455T190 452Q175 452 175 463Q175 467 180 480L239 659Q243 672 247 674T268 677H781Q791 677 795 677T802 674T806 665Q806 656 805 652L775 473ZM702 836L547 738Q540 735 535 738L429 836Q423 841 430 849T444 854L556 799L696 854Q702 856 706 853T709
845T702 836Z" />
<glyph unicode="&#x165;" glyph-name="tcaron" horiz-adv-x="332" d="M356 143Q356 140 350 125T331 87T301 42T258 5T204 -11Q166 -11 143 15T119 79Q119 93 124 113L196 400H116Q106 400 102 400T95 403T91 412Q91 425 97 428T119 431H204L243 590Q253 626 282
626Q309 626 309 600Q309 593 305 579L268 431H348Q358 431 362 431T369 428T373 419Q373 406 367 403T345 400H260L186 103Q179 75 179 52Q179 11 206 11Q244 11 273 49T321 134Q327 148 329 150T341 153Q356 153 356 143ZM440 645Q440 605 416 561T367 491T334
465T326 472Q326 475 336 485Q406 545 420 621Q405 610 389 610Q356 610 356 641Q356 659 370 674T405 689Q440 689 440 645Z" />
<glyph unicode="&#x168;" glyph-name="Utilde" horiz-adv-x="743" d="M852 670Q852 652 837 652Q752 649 736 584L645 218Q623 129 547 54T380 -22Q306 -22 254 29T202 166Q202 198 210 230L306 616Q310 630 310 635Q310 646 296 649T252 652Q241 652 237 652T229
655T225 664Q225 683 244 683T303 682T364 680T423 681T482 683Q496 683 496 670Q496 658 490 655T466 652Q420 652 407 645T387 612L287 210Q277 166 277 134Q277 71 308 40T384 9Q456 9 524 71T616 229L705 585Q709 601 709 609Q709 650 649 652Q631 652 631
664Q631 683 649 683Q664 683 696 682T745 680T792 681T839 683Q852 683 852 670ZM753 836T753 826T704 776T625 736Q598 736 574 775Q558 802 542 802Q529 802 507 788T468 758L453 744Q444 737 440 737Q429 737 429 747Q429 752 442 765T469 790L482 801Q529
837 556 837Q574 837 585 827T610 794T639 771Q658 771 690 795T729 829Q736 836 742 836Q753 836 753 826Z" />
<glyph unicode="&#x169;" glyph-name="utilde" horiz-adv-x="537" d="M561 143Q549 83 531 45Q504 -11 458 -11Q398 -11 378 49Q330 -11 267 -11Q220 -11 188 17T155 105Q155 161 207 301Q231 368 231 391Q231 420 209 420Q149 420 116 294Q113 283 110 281T98
278Q83 278 83 288Q83 291 87 306T101 344T125 389T162 426T211 442Q244 442 265 420T287 361Q287 341 274 307Q216 149 216 88Q216 11 270 11Q323 11 362 69Q370 81 376 102L449 394Q458 431 488 431Q502 431 509 423T516 405Q516 400 513 391L441 103Q434 75
434 52Q434 11 460 11Q497 11 527 130Q531 146 534 149T546 153Q561 153 561 143ZM581 650T581 640T532 590T453 550Q426 550 402 589Q386 616 370 616Q357 616 335 602T296 572L281 558Q272 551 268 551Q257 551 257 561Q257 566 270 579T297 604L310 615Q357
651 384 651Q402 651 413 641T438 608T467 585Q486 585 518 609T557 643Q564 650 570 650Q581 650 581 640Z" />
<glyph unicode="&#x16a;" glyph-name="Umacron" horiz-adv-x="743" d="M852 670Q852 652 837 652Q752 649 736 584L645 218Q623 129 547 54T380 -22Q306 -22 254 29T202 166Q202 198 210 230L306 616Q310 630 310 635Q310 646 296 649T252 652Q241 652 237 652T229
655T225 664Q225 683 244 683T303 682T364 680T423 681T482 683Q496 683 496 670Q496 658 490 655T466 652Q420 652 407 645T387 612L287 210Q277 166 277 134Q277 71 308 40T384 9Q456 9 524 71T616 229L705 585Q709 601 709 609Q709 650 649 652Q631 652 631
664Q631 683 649 683Q664 683 696 682T745 680T792 681T839 683Q852 683 852 670ZM753 775Q753 762 747 759T726 756H446Q436 756 432 756T424 760T421 769Q421 781 427 783T448 786H728Q753 786 753 775Z" />
<glyph unicode="&#x16b;" glyph-name="umacron" horiz-adv-x="537" d="M561 143Q549 83 531 45Q504 -11 458 -11Q398 -11 378 49Q330 -11 267 -11Q220 -11 188 17T155 105Q155 161 207 301Q231 368 231 391Q231 420 209 420Q149 420 116 294Q113 283 110 281T98
278Q83 278 83 288Q83 291 87 306T101 344T125 389T162 426T211 442Q244 442 265 420T287 361Q287 341 274 307Q216 149 216 88Q216 11 270 11Q323 11 362 69Q370 81 376 102L449 394Q458 431 488 431Q502 431 509 423T516 405Q516 400 513 391L441 103Q434 75
434 52Q434 11 460 11Q497 11 527 130Q531 146 534 149T546 153Q561 153 561 143ZM585 605Q585 592 579 589T558 586H278Q268 586 264 586T256 590T253 599Q253 611 259 613T280 616H560Q585 616 585 605Z" />
<glyph unicode="&#x16c;" glyph-name="Ubreve" horiz-adv-x="743" d="M852 670Q852 652 837 652Q752 649 736 584L645 218Q623 129 547 54T380 -22Q306 -22 254 29T202 166Q202 198 210 230L306 616Q310 630 310 635Q310 646 296 649T252 652Q241 652 237 652T229
655T225 664Q225 683 244 683T303 682T364 680T423 681T482 683Q496 683 496 670Q496 658 490 655T466 652Q420 652 407 645T387 612L287 210Q277 166 277 134Q277 71 308 40T384 9Q456 9 524 71T616 229L705 585Q709 601 709 609Q709 650 649 652Q631 652 631
664Q631 683 649 683Q664 683 696 682T745 680T792 681T839 683Q852 683 852 670ZM759 906Q759 888 740 852T677 781T583 746T504 780T476 864Q476 916 493 916Q504 916 504 905Q499 882 499 872Q499 834 522 808T587 782Q628 782 672 813T735 902Q740 916 748
916Q759 916 759 906Z" />
<glyph unicode="&#x16d;" glyph-name="ubreve" horiz-adv-x="537" d="M561 143Q549 83 531 45Q504 -11 458 -11Q398 -11 378 49Q330 -11 267 -11Q220 -11 188 17T155 105Q155 161 207 301Q231 368 231 391Q231 420 209 420Q149 420 116 294Q113 283 110 281T98
278Q83 278 83 288Q83 291 87 306T101 344T125 389T162 426T211 442Q244 442 265 420T287 361Q287 341 274 307Q216 149 216 88Q216 11 270 11Q323 11 362 69Q370 81 376 102L449 394Q458 431 488 431Q502 431 509 423T516 405Q516 400 513 391L441 103Q434 75
434 52Q434 11 460 11Q497 11 527 130Q531 146 534 149T546 153Q561 153 561 143ZM576 676Q576 658 557 622T494 551T400 516T321 550T293 634Q293 686 310 686Q321 686 321 675Q316 652 316 642Q316 604 339 578T404 552Q445 552 489 583T552 672Q557 686 565
686Q576 686 576 676Z" />
<glyph unicode="&#x16e;" glyph-name="Uring" horiz-adv-x="743" d="M852 670Q852 652 837 652Q752 649 736 584L645 218Q623 129 547 54T380 -22Q306 -22 254 29T202 166Q202 198 210 230L306 616Q310 630 310 635Q310 646 296 649T252 652Q241 652 237 652T229
655T225 664Q225 683 244 683T303 682T364 680T423 681T482 683Q496 683 496 670Q496 658 490 655T466 652Q420 652 407 645T387 612L287 210Q277 166 277 134Q277 71 308 40T384 9Q456 9 524 71T616 229L705 585Q709 601 709 609Q709 650 649 652Q631 652 631
664Q631 683 649 683Q664 683 696 682T745 680T792 681T839 683Q852 683 852 670ZM654 826Q654 862 610 862Q578 862 560 842T540 802L538 781Q538 746 582 746Q602 746 616 754T638 774T649 798T654 818V826ZM692 825Q692 783 656 750T574 716Q544 716 522 733T500
784Q500 827 536 859T617 892Q653 892 672 872T692 825Z" />
<glyph unicode="&#x16f;" glyph-name="uring" horiz-adv-x="537" d="M561 143Q549 83 531 45Q504 -11 458 -11Q398 -11 378 49Q330 -11 267 -11Q220 -11 188 17T155 105Q155 161 207 301Q231 368 231 391Q231 420 209 420Q149 420 116 294Q113 283 110 281T98
278Q83 278 83 288Q83 291 87 306T101 344T125 389T162 426T211 442Q244 442 265 420T287 361Q287 341 274 307Q216 149 216 88Q216 11 270 11Q323 11 362 69Q370 81 376 102L449 394Q458 431 488 431Q502 431 509 423T516 405Q516 400 513 391L441 103Q434 75
434 52Q434 11 460 11Q497 11 527 130Q531 146 534 149T546 153Q561 153 561 143ZM481 639Q481 675 437 675Q405 675 387 655T367 614L365 594Q365 559 409 559Q429 559 443 567T465 587T476 611T480 631L481 639ZM519 638Q519 596 483 563T401 529Q371 529 349
546T327 597Q328 640 364 672T444 705Q480 705 499 685T519 638Z" />
<glyph unicode="&#x170;" glyph-name="Uhungarumlaut" horiz-adv-x="743" d="M852 670Q852 652 837 652Q752 649 736 584L645 218Q623 129 547 54T380 -22Q306 -22 254 29T202 166Q202 198 210 230L306 616Q310 630 310 635Q310 646 296 649T252 652Q241 652 237
652T229 655T225 664Q225 683 244 683T303 682T364 680T423 681T482 683Q496 683 496 670Q496 658 490 655T466 652Q420 652 407 645T387 612L287 210Q277 166 277 134Q277 71 308 40T384 9Q456 9 524 71T616 229L705 585Q709 601 709 609Q709 650 649 652Q631
652 631 664Q631 683 649 683Q664 683 696 682T745 680T792 681T839 683Q852 683 852 670ZM622 909Q622 898 606 879L499 755Q491 746 486 746T475 750T468 761Q468 763 475 775L559 913Q573 936 593 936Q605 936 613 929T622 909ZM775 909Q775 898 759 879L652
755Q644 746 639 746T628 750T621 761Q621 763 628 775L712 913Q726 936 746 936Q758 936 766 929T775 909Z" />
<glyph unicode="&#x171;" glyph-name="uhungarumlaut" horiz-adv-x="537" d="M561 143Q549 83 531 45Q504 -11 458 -11Q398 -11 378 49Q330 -11 267 -11Q220 -11 188 17T155 105Q155 161 207 301Q231 368 231 391Q231 420 209 420Q149 420 116 294Q113 283 110
281T98 278Q83 278 83 288Q83 291 87 306T101 344T125 389T162 426T211 442Q244 442 265 420T287 361Q287 341 274 307Q216 149 216 88Q216 11 270 11Q323 11 362 69Q370 81 376 102L449 394Q458 431 488 431Q502 431 509 423T516 405Q516 400 513 391L441 103Q434
75 434 52Q434 11 460 11Q497 11 527 130Q531 146 534 149T546 153Q561 153 561 143ZM436 669Q436 658 420 639L313 515Q305 506 300 506T289 510T282 521Q282 523 289 535L373 673Q387 696 407 696Q419 696 427 689T436 669ZM589 669Q589 658 573 639L466 515Q458
506 453 506T442 510T435 521Q435 523 442 535L526 673Q540 696 560 696Q572 696 580 689T589 669Z" />
<glyph unicode="&#x172;" glyph-name="Uogonek" horiz-adv-x="743" d="M852 670Q852 652 837 652Q752 649 736 584L645 218Q623 129 547 54T380 -22H370L363 -27Q318 -58 310 -95Q303 -127 327 -145T382 -164Q434 -164 471 -108Q476 -100 483 -103T487 -115Q466
-157 426 -184T348 -211Q301 -211 275 -184T257 -121Q268 -68 336 -17Q277 -3 240 45T202 166Q202 198 210 230L306 616Q310 630 310 635Q310 646 296 649T252 652Q241 652 237 652T229 655T225 664Q225 683 244 683T303 682T364 680T423 681T482 683Q496 683 496
670Q496 658 490 655T466 652Q420 652 407 645T387 612L287 210Q277 166 277 134Q277 71 308 40T384 9Q456 9 524 71T616 229L705 585Q709 601 709 609Q709 650 649 652Q631 652 631 664Q631 683 649 683Q664 683 696 682T745 680T792 681T839 683Q852 683 852
670Z" />
<glyph unicode="&#x173;" glyph-name="uogonek" horiz-adv-x="537" d="M537 -115Q516 -157 476 -184T398 -211Q351 -211 325 -184T307 -121Q320 -58 412 2Q388 18 378 49Q330 -11 267 -11Q220 -11 188 17T155 105Q155 161 207 301Q231 368 231 391Q231 420 209
420Q149 420 116 294Q113 283 110 281T98 278Q83 278 83 288Q83 291 87 306T101 344T125 389T162 426T211 442Q244 442 265 420T287 361Q287 341 274 307Q216 149 216 88Q216 11 270 11Q323 11 362 69Q370 81 376 102L449 394Q458 431 488 431Q502 431 509 423T516
405Q516 400 513 391L441 103Q434 75 434 52Q434 11 460 11Q497 11 527 130Q531 146 534 149T546 153Q561 153 561 143Q549 83 531 45Q504 -11 458 -11Q446 -11 439 -9Q421 -21 413 -27Q368 -58 360 -95Q353 -127 377 -145T432 -164Q484 -164 521 -108Q526 -100
533 -103T537 -115Z" />
<glyph unicode="&#x174;" glyph-name="Wcircumflex" horiz-adv-x="999" d="M1124 672Q1124 653 1110 652Q1073 649 1051 633T1004 570L691 -4Q681 -22 665 -22Q653 -22 651 -18T647 3L625 501L350 -2Q343 -14 339 -18T324 -22T310 -18T306 3L278 620Q277 634 276
639T264 648T232 652Q208 652 208 664Q208 683 226 683Q241 683 274 682T324 680Q342 680 380 681T437 683Q451 683 451 671Q451 658 445 655T426 652Q402 652 388 648T368 636T362 622T361 605L383 116L616 544Q622 554 622 564Q619 627 618 631Q616 643 608 647T570
652Q549 652 549 664Q549 683 567 683Q582 683 615 682T665 680Q684 680 722 681T778 683Q792 683 792 672Q792 663 788 658T781 653T772 652Q728 651 715 641T701 615L702 608L724 116L977 582Q988 602 988 614Q988 649 937 652Q921 652 921 664Q921 683 940 683Q956
683 989 682T1039 680Q1051 680 1076 681T1112 683Q1117 683 1120 681T1124 675V672ZM824 755Q830 750 823 742T809 737L697 792L557 737Q551 735 547 738T544 746T551 755L706 853Q713 856 718 853L824 755Z" />
<glyph unicode="&#x175;" glyph-name="wcircumflex" horiz-adv-x="664" d="M697 376Q697 336 674 244T628 101Q581 -11 496 -11Q453 -11 424 6T382 53Q344 -11 285 -11T191 20Q157 51 157 112Q157 165 207 301Q231 368 231 391Q231 420 209 420Q149 420 116 294Q113
283 110 281T98 278Q83 278 83 288Q83 291 87 306T101 344T125 389T162 426T211 442Q244 442 265 420T287 361Q287 341 275 308Q218 157 218 98Q218 88 219 78T226 51T248 22T288 11Q322 11 347 49T372 105Q372 136 380 168L437 396Q446 431 475 431Q489 431 496
423T503 405Q503 398 487 339L445 171Q433 123 433 94Q433 58 448 35T499 11Q560 11 599 104Q614 140 631 201T648 290Q648 340 621 369Q608 384 608 396Q608 413 623 427T656 442Q677 442 687 424T697 376ZM604 536Q609 529 601 522T586 520L488 619L340 520Q331
514 326 521T329 536L495 680Q504 688 510 680L604 536Z" />
<glyph unicode="&#x176;" glyph-name="Ycircumflex" horiz-adv-x="743" d="M874 672Q874 659 870 656T855 652Q818 649 787 631T722 570L486 283Q480 276 474 256L443 133Q424 54 424 48Q424 37 438 34T482 31Q493 31 497 31T505 28T509 19Q509 0 490 0T431 1T371
3Q352 3 313 2T255 0Q241 0 241 12Q241 25 247 28T266 31Q321 32 332 40T354 90Q400 265 400 273Q400 278 396 288L290 622Q285 640 273 646T226 652Q202 652 202 664Q202 683 221 683Q237 683 272 682T325 680Q345 680 384 681T442 683Q456 683 456 671Q456 658
451 655T434 652Q378 652 378 628Q378 625 382 615L477 315L696 582L699 586Q702 590 705 595T712 606T718 618T721 629Q721 650 690 652Q675 652 675 664Q675 683 693 683Q708 683 739 682T786 680Q799 680 824 681T862 683Q867 683 870 681T874 675V672ZM696
755Q702 750 695 742T681 737L569 792L429 737Q423 735 419 738T416 746T423 755L578 853Q585 856 590 853L696 755Z" />
<glyph unicode="&#x177;" glyph-name="ycircumflex" horiz-adv-x="486" d="M415 -3Q395 -82 332 -143T195 -205Q153 -205 126 -182T99 -119Q99 -94 110 -79T131 -60T150 -57Q164 -57 174 -65T184 -89T173 -119T141 -137L133 -140Q133 -144 138 -153T158 -173T195
-183Q241 -183 286 -135T357 26Q320 -11 267 -11Q220 -11 188 17T155 105Q155 161 207 301Q231 368 231 391Q231 420 209 420Q149 420 116 294Q113 283 110 281T98 278Q83 278 83 288Q83 291 87 306T101 344T125 389T162 426T211 442Q244 442 265 420T287 361Q287
341 274 307Q216 149 216 88Q216 11 270 11Q310 11 339 41T376 100L449 394Q458 431 488 431Q502 431 509 423T516 405Q516 403 515 399T513 391L415 -3ZM514 536Q519 529 511 522T496 520L398 619L250 520Q241 514 236 521T239 536L405 680Q414 688 420 680L514
536Z" />
<glyph unicode="&#x178;" glyph-name="Ydieresis" horiz-adv-x="743" d="M874 672Q874 659 870 656T855 652Q818 649 787 631T722 570L486 283Q480 276 474 256L443 133Q424 54 424 48Q424 37 438 34T482 31Q493 31 497 31T505 28T509 19Q509 0 490 0T431 1T371
3Q352 3 313 2T255 0Q241 0 241 12Q241 25 247 28T266 31Q321 32 332 40T354 90Q400 265 400 273Q400 278 396 288L290 622Q285 640 273 646T226 652Q202 652 202 664Q202 683 221 683Q237 683 272 682T325 680Q345 680 384 681T442 683Q456 683 456 671Q456 658
451 655T434 652Q378 652 378 628Q378 625 382 615L477 315L696 582L699 586Q702 590 705 595T712 606T718 618T721 629Q721 650 690 652Q675 652 675 664Q675 683 693 683Q708 683 739 682T786 680Q799 680 824 681T862 683Q867 683 870 681T874 675V672ZM512
793Q512 771 494 754T455 736Q436 736 425 747T414 775Q414 797 432 814T472 832Q491 832 501 821T512 793ZM721 793Q721 771 703 754T664 736Q645 736 634 747T623 775Q623 797 641 814T681 832Q700 832 710 821T721 793Z" />
<glyph unicode="&#x179;" glyph-name="Zacute" horiz-adv-x="613" d="M605 255Q601 241 600 239L532 18Q528 5 524 3T503 0H103Q80 0 80 9Q80 21 91 34L608 652H468Q411 652 371 639T306 597T268 543T241 476Q239 469 238 467T235 462T231 459T223 458Q208 458
208 469Q210 480 211 482L265 663Q270 677 274 680T294 683H681Q689 683 692 683T698 682T703 679T704 674Q704 662 692 648L177 34H324Q375 34 413 45T474 73T517 120T545 175T569 242Q575 260 578 263T589 267Q605 267 605 255ZM662 873Q659 856 637 845L457
752Q446 746 442 747Q437 748 433 754T429 766Q431 772 441 779L606 895Q622 906 634 906Q648 906 656 897T662 873Z" />
<glyph unicode="&#x17a;" glyph-name="zacute" horiz-adv-x="409" d="M433 143Q433 127 417 93T363 24T282 -11Q268 -11 256 -5T237 8T220 28Q205 49 196 56T172 64Q159 64 147 58T123 38T107 19T93 -2Q88 -11 77 -11Q62 -11 62 -1Q62 8 95 54T166 138L330 301Q340
311 370 345Q344 345 311 360Q271 378 251 378Q225 378 205 364T177 331Q173 322 171 320T159 317Q144 317 144 328Q144 353 178 397T261 442Q293 442 322 403Q348 367 369 367Q383 367 395 378T431 429Q436 438 438 440T450 442Q464 442 464 432Q464 427 450 405T410
349T357 289L212 146Q191 125 156 85Q161 86 174 86Q197 86 236 69Q272 53 292 53Q325 53 356 76T401 137Q404 147 406 150T418 153Q433 153 433 143ZM488 668Q488 649 468 636L307 513Q298 505 293 505T283 510T277 522Q277 527 287 537L429 679Q446 696 460 696Q470
696 479 689T488 668Z" />
<glyph unicode="&#x17b;" glyph-name="Zdotaccent" horiz-adv-x="613" d="M605 255Q601 241 600 239L532 18Q528 5 524 3T503 0H103Q80 0 80 9Q80 21 91 34L608 652H468Q411 652 371 639T306 597T268 543T241 476Q239 469 238 467T235 462T231 459T223 458Q208
458 208 469Q210 480 211 482L265 663Q270 677 274 680T294 683H681Q689 683 692 683T698 682T703 679T704 674Q704 662 692 648L177 34H324Q375 34 413 45T474 73T517 120T545 175T569 242Q575 260 578 263T589 267Q605 267 605 255ZM564 821Q564 797 544 778T500
758Q479 758 467 770T455 801Q455 825 475 844T519 864Q540 864 552 851T564 821Z" />
<glyph unicode="&#x17c;" glyph-name="zdotaccent" horiz-adv-x="409" d="M433 143Q433 127 417 93T363 24T282 -11Q268 -11 256 -5T237 8T220 28Q205 49 196 56T172 64Q159 64 147 58T123 38T107 19T93 -2Q88 -11 77 -11Q62 -11 62 -1Q62 8 95 54T166 138L330
301Q340 311 370 345Q344 345 311 360Q271 378 251 378Q225 378 205 364T177 331Q173 322 171 320T159 317Q144 317 144 328Q144 353 178 397T261 442Q293 442 322 403Q348 367 369 367Q383 367 395 378T431 429Q436 438 438 440T450 442Q464 442 464 432Q464 427
450 405T410 349T357 289L212 146Q191 125 156 85Q161 86 174 86Q197 86 236 69Q272 53 292 53Q325 53 356 76T401 137Q404 147 406 150T418 153Q433 153 433 143ZM409 611Q409 587 389 568T345 548Q324 548 312 560T300 591Q300 615 320 634T364 654Q385 654 397
641T409 611Z" />
<glyph unicode="&#x17d;" glyph-name="Zcaron" horiz-adv-x="613" d="M605 255Q601 241 600 239L532 18Q528 5 524 3T503 0H103Q80 0 80 9Q80 21 91 34L608 652H468Q411 652 371 639T306 597T268 543T241 476Q239 469 238 467T235 462T231 459T223 458Q208 458
208 469Q210 480 211 482L265 663Q270 677 274 680T294 683H681Q689 683 692 683T698 682T703 679T704 674Q704 662 692 648L177 34H324Q375 34 413 45T474 73T517 120T545 175T569 242Q575 260 578 263T589 267Q605 267 605 255ZM651 836L496 738Q489 735 484
738L378 836Q372 841 379 849T393 854L505 799L645 854Q651 856 655 853T658 845T651 836Z" />
<glyph unicode="&#x17e;" glyph-name="zcaron" horiz-adv-x="409" d="M433 143Q433 127 417 93T363 24T282 -11Q268 -11 256 -5T237 8T220 28Q205 49 196 56T172 64Q159 64 147 58T123 38T107 19T93 -2Q88 -11 77 -11Q62 -11 62 -1Q62 8 95 54T166 138L330 301Q340
311 370 345Q344 345 311 360Q271 378 251 378Q225 378 205 364T177 331Q173 322 171 320T159 317Q144 317 144 328Q144 353 178 397T261 442Q293 442 322 403Q348 367 369 367Q383 367 395 378T431 429Q436 438 438 440T450 442Q464 442 464 432Q464 427 450 405T410
349T357 289L212 146Q191 125 156 85Q161 86 174 86Q197 86 236 69Q272 53 292 53Q325 53 356 76T401 137Q404 147 406 150T418 153Q433 153 433 143ZM509 665L343 521Q334 514 328 521L234 665Q229 672 237 679T252 681L351 582L498 681Q507 687 512 680T509 665Z"
/>
<glyph unicode="&#x17f;" glyph-name="longs" horiz-adv-x="307" d="M452 639Q452 614 437 599T402 584Q388 584 377 592T368 616Q379 659 412 665Q406 672 396 676T378 682L370 683Q337 683 315 593L207 41L202 20Q197 0 194 -13T183 -52T167 -96T147 -136T121
-172T91 -195T55 -205Q24 -205 0 -188T-25 -139Q-25 -114 -10 -99T25 -84Q40 -84 51 -92T59 -116Q48 -159 15 -165Q28 -183 55 -183Q89 -183 109 -97L140 27L213 400H151Q144 400 140 400T132 401T127 404T126 411Q129 425 134 428T153 431H213L240 541Q240 543
243 555T249 575T256 598T266 623T278 647T295 670T315 688T340 701T370 705Q403 705 427 688T452 639Z" />
<glyph unicode="&#x18e;" glyph-name="Ereversed" horiz-adv-x="678" d="M790 662Q785 653 779 651T756 649Q729 649 714 647T696 641T690 632Q686 624 682 609L548 73Q541 46 550 39T609 31Q624 31 627 29T627 12Q621 0 596 0H117Q102 0 99 2T97 16L117 235L119
247Q125 258 140 258Q148 258 149 255T149 234Q143 165 147 120T187 53T299 31H421Q453 31 457 41Q459 45 461 53T464 63L533 338H446Q399 338 380 328T349 295Q338 270 333 244Q331 236 329 233Q323 221 307 221Q298 221 297 224T299 241L354 461L358 474Q364
486 380 486Q389 486 390 482T387 462Q372 409 386 389T459 369H540L602 615Q607 640 602 644T571 649H446Q368 649 329 627T263 548Q252 527 236 484Q230 468 229 467Q223 455 208 455Q198 455 197 459T202 477L268 654Q275 672 281 676T305 680H772Q787 680 790
678T790 662Z" />
<glyph unicode="&#x192;" glyph-name="florin" horiz-adv-x="307" d="M452 639Q452 614 437 599T402 584Q389 584 379 592T368 616Q368 633 379 647T412 665Q397 683 370 683Q353 683 341 666T325 635T315 593L283 431H361Q371 431 375 431T383 427T386 418Q386
406 380 403T359 400H277L207 41Q201 12 194 -15T168 -93T121 -174T55 -205Q24 -205 0 -188T-25 -139Q-25 -114 -10 -99T25 -84Q38 -84 48 -92T59 -116Q59 -133 48 -147T15 -165Q28 -183 55 -183Q92 -183 112 -97Q124 -54 140 27L213 400H151Q126 400 126 411Q126
425 132 428T153 431H219L240 541Q274 705 370 705Q403 705 427 688T452 639Z" />
<glyph unicode="&#x1a0;" glyph-name="Ohorn" horiz-adv-x="767" d="M773 339Q734 189 619 84Q505 -22 377 -22Q315 -22 266 6T187 84Q148 148 148 236Q148 288 161 339Q200 492 316 598Q431 705 559 705Q649 705 709 647Q744 652 772 684Q770 683 764 683Q744
683 732 694T720 725Q720 749 739 768T785 789Q804 789 815 776T827 742Q827 735 825 725Q816 689 790 661T731 623Q743 607 748 598Q786 532 786 445Q786 391 773 339ZM682 355Q701 433 701 487Q701 544 684 586T633 654T552 680Q459 680 374 586Q295 498 260
355Q238 269 238 204Q238 150 254 105T303 32T383 4Q478 4 563 105Q645 201 682 355Z" />
<glyph unicode="&#x1a1;" glyph-name="ohorn" horiz-adv-x="511" d="M583 472Q574 435 547 407T486 370Q508 330 508 278Q508 248 500 213Q476 120 405 55Q334 -11 254 -11Q173 -11 133 57Q109 99 109 153Q109 183 117 218Q141 310 211 376Q284 440 362 442Q427
440 468 395Q503 398 531 431Q530 431 527 431T522 430Q502 430 491 442T479 472Q479 496 497 516T543 536Q562 536 573 523T585 489Q585 484 583 472ZM422 218Q438 280 438 317Q438 343 431 364Q413 419 362 419Q309 419 259 361Q219 311 194 213Q179 153 179
114Q179 88 185 67Q203 11 255 11Q309 11 357 70Q398 119 422 218Z" />
<glyph unicode="&#x1af;" glyph-name="Uhorn" horiz-adv-x="743" d="M871 721Q861 678 824 647T742 610L646 225Q621 125 543 51Q465 -22 380 -22Q283 -22 233 53Q201 102 201 165Q201 195 209 230L306 619Q309 630 309 637Q309 644 306 646Q293 653 235 653H232Q224
655 224 664V666L226 675Q228 683 237 683H240L362 680L485 683H486Q495 681 495 672L494 669L492 661Q490 653 481 653Q421 653 406 646Q394 641 386 614L289 225Q276 170 276 133Q276 93 288 68Q316 8 382 8Q457 8 524 72Q592 136 616 230L706 591Q709 602 709
611Q709 628 700 637Q683 653 642 653H639Q630 655 630 664L631 666L633 675Q635 683 644 683H646Q696 680 744 680Q748 681 749 683Q757 681 757 672V669L750 640Q791 648 821 684Q818 683 812 683Q792 683 780 694T768 725Q768 749 786 768T832 789Q852 789 863
775T874 741Q874 732 871 721Z" />
<glyph unicode="&#x1b0;" glyph-name="uhorn" horiz-adv-x="537" d="M560 141Q539 60 519 25T458 -11Q428 -11 407 5T377 49Q331 -11 267 -11Q196 -11 169 39Q154 68 154 104Q154 132 164 174Q177 226 215 326Q230 368 230 392Q230 419 209 419Q146 419 112 285Q110
277 103 277H92L89 278Q82 280 82 287V290Q99 356 132 399T210 442Q244 442 264 419T285 362Q285 340 278 319Q240 218 227 169Q215 122 215 88Q215 69 220 49Q232 11 268 11Q331 11 374 90Q374 100 377 110L450 401Q453 414 463 422T487 430Q514 430 514 405Q514
399 513 396L512 391Q552 402 576 431Q571 430 568 430Q548 430 536 442T524 472Q524 496 543 516T589 536Q608 536 619 523T630 488Q630 475 628 469Q618 428 583 398T504 360L440 105Q432 73 432 50Q432 11 458 11Q481 11 496 42T530 146Q532 153 539 153H550H553Q560
151 560 143V141Z" />
<glyph unicode="&#x1dd;" glyph-name="eturned" horiz-adv-x="460" d="M499 267Q499 144 419 67T251 -11Q205 -11 178 13T150 74Q150 79 150 84T155 104T166 130T190 155T229 178Q285 200 374 200H413Q430 266 430 310Q430 335 425 357T402 399T354 420Q337 420
316 417T251 389T174 322Q165 311 161 311Q155 311 150 317T145 327Q145 337 169 363T246 415T356 442Q424 442 461 391T499 267ZM407 178H386Q371 178 359 178T321 175T274 165T233 147T200 117T188 72Q188 46 205 29T251 11Q258 11 267 12T297 23T337 48T375
98T407 178Z" />
<glyph unicode="&#x1e6;" glyph-name="Gcaron" horiz-adv-x="774" d="M768 260Q768 248 762 245T744 242Q723 242 712 238T699 229T692 209L644 18Q639 1 632 1Q624 1 611 21T590 61Q565 29 512 4T396 -22Q288 -22 219 51T150 245Q150 359 212 467T372 640T571
705Q669 705 722 620L785 694Q789 699 793 701T799 704L801 705Q805 705 808 703T812 698V695Q812 689 810 681L749 438Q746 426 743 423T731 420Q716 420 716 430Q716 431 717 441T719 465T721 491Q721 566 687 620T579 674Q519 674 455 639T342 536Q288 462 263
366T237 208Q237 113 287 61T414 9Q494 9 550 60Q572 80 579 98T604 188Q612 216 612 222Q612 229 609 232T601 237T583 240Q557 242 540 242H532Q506 242 506 253Q506 273 527 273T592 272T658 270Q674 270 707 271T755 273Q768 273 768 260ZM731 836L576 738Q569
735 564 738L458 836Q452 841 459 849T473 854L585 799L725 854Q731 856 735 853T738 845T731 836Z" />
<glyph unicode="&#x1e7;" glyph-name="gcaron" horiz-adv-x="460" d="M374 -63Q359 -123 305 -164T174 -205Q53 -205 53 -147Q53 -121 69 -108T102 -94Q120 -94 128 -104T137 -126Q137 -139 128 -152T105 -172Q132 -183 176 -183Q231 -183 271 -136Q291 -112 299
-92T317 -31L338 53Q285 0 232 0Q177 0 144 44T110 153Q110 259 181 350T337 442Q393 442 421 385Q424 404 436 413T460 422Q487 422 487 396Q487 390 483 375L374 -63ZM358 132L403 314L406 328Q406 334 404 346T395 376T373 407T337 420Q309 420 279 392T229
321Q213 284 196 214T178 109Q178 100 179 90T185 63T202 34T234 22Q271 22 311 62T358 132ZM548 665L382 521Q373 514 367 521L273 665Q268 672 276 679T291 681L390 582L537 681Q546 687 551 680T548 665Z" />
<glyph unicode="&#x1ea;" glyph-name="Oogonek" horiz-adv-x="767" d="M788 444Q788 327 728 218T572 44T378 -22H374L368 -27Q323 -58 315 -95Q308 -127 332 -145T387 -164Q439 -164 476 -108Q481 -100 488 -103T492 -115Q471 -157 431 -184T353 -211Q306 -211
280 -184T262 -121Q273 -70 338 -19Q252 -5 200 64T148 236Q148 349 207 458T363 636T560 705Q658 705 723 635T788 444ZM703 486Q703 581 660 630T553 680Q489 680 426 633T322 513Q276 433 257 346T238 205Q238 115 277 60T385 4Q443 4 505 48T614 174Q653 241
678 330T703 486Z" />
<glyph unicode="&#x1eb;" glyph-name="oogonek" horiz-adv-x="511" d="M509 278Q509 169 430 79T256 -11H250L227 -27Q183 -59 174 -95Q167 -127 191 -145T246 -164Q298 -164 335 -108Q340 -100 347 -103T351 -115Q330 -157 290 -184T212 -211Q165 -211 139 -184T121
-121Q133 -63 215 -6Q167 8 139 50T110 154Q110 263 189 352T363 442Q428 442 468 396T509 278ZM439 317Q439 362 419 391T362 420Q331 420 298 397T238 329Q215 290 198 222T180 114Q180 63 202 37T256 11Q292 11 327 39T385 111Q407 153 423 217T439 317Z" />
</font>
</defs>
</svg>
